<svg width="62" height="78" viewBox="0 0 62 78" fill="none" xmlns="http://www.w3.org/2000/svg">
<path d="M37.4356 0C39.1254 0.449819 40.5707 1.54231 41.4613 3.04281C42.6557 5.07136 44.5137 5.33595 46.5486 5.38005C48.5836 5.42415 50.9281 6.65892 51.6802 8.77566C52.0045 9.75243 52.2414 10.7559 52.388 11.7744C52.448 12.3587 52.6534 12.9189 52.9856 13.404C53.3177 13.8892 53.7662 14.284 54.2902 14.5526C54.9538 14.9054 55.5731 15.3464 56.1924 15.7433C57.1776 16.3554 57.93 17.2775 58.3306 18.3637C58.7312 19.4499 58.7571 20.6382 58.4043 21.7407C58.1831 22.5345 57.9177 23.3283 57.6965 24.122C57.5498 24.5586 57.5015 25.0221 57.555 25.4795C57.6085 25.9368 57.7626 26.3768 58.0062 26.768L59.2006 28.7965C60.572 31.1337 60.2623 33.5151 58.4043 35.4995C57.9177 35.9846 57.4311 36.5138 56.9002 36.9989C56.485 37.3902 56.1684 37.8738 55.9762 38.4103C55.7841 38.9467 55.7217 39.5208 55.7943 40.0858C55.9193 41.1693 55.9341 42.2626 55.8385 43.3491C55.5289 45.4218 54.246 46.7888 52.2553 47.4944L50.4415 48.0677L50.8397 48.8615C54.2017 54.6825 57.5491 60.533 60.8816 66.4128C61.1763 66.906 61.3294 67.4704 61.324 68.0444C61.2355 69.0587 60.3508 69.632 59.2006 69.5879C56.856 69.4556 54.5114 69.3674 52.211 69.1469C51.0166 69.0146 50.3088 69.2792 49.7337 70.4699C48.8047 72.5866 47.6103 74.6152 46.5486 76.6878C46.1505 77.3934 45.6639 77.9226 44.8233 77.9667C43.9828 78.0108 43.3635 77.4816 42.9654 76.7319L32.658 58.6955C32.6251 58.5696 32.5647 58.4524 32.4811 58.3525C32.3975 58.2526 32.2927 58.1724 32.1743 58.1176C32.0559 58.0628 31.9268 58.0348 31.7963 58.0356C31.6658 58.0364 31.537 58.066 31.4193 58.1222C30.9118 58.2549 30.3785 58.2549 29.871 58.1222C29.2074 57.9017 28.9863 58.1663 28.7208 58.6514C25.5357 64.2961 22.3064 69.9407 19.077 75.5412C18.8116 76.0263 18.5904 76.4673 18.2807 76.9524C17.396 78.3636 15.7592 78.3636 14.9629 76.8642C13.68 74.527 12.4414 72.1897 11.2469 69.8084C11.1749 69.5735 11.0161 69.3745 10.8026 69.2517C10.5891 69.129 10.3369 69.0915 10.0968 69.1469L2.66483 69.5438C2.19115 69.5804 1.71465 69.5508 1.24923 69.4556C1.01192 69.3828 0.792634 69.2611 0.605618 69.0983C0.418603 68.9355 0.268046 68.7353 0.163737 68.5107C0.0594282 68.2861 0.00370147 68.0421 0.000178193 67.7947C-0.00334508 67.5472 0.0454146 67.3017 0.143288 67.0743C0.273712 66.8006 0.421469 66.5355 0.585665 66.2805L10.4949 48.9056L10.9373 48.1118L9.25625 47.5385C6.69046 46.6565 5.36333 44.6721 5.45181 42.0261L5.58452 39.6889C5.62067 39.2175 5.5522 38.7439 5.384 38.3019C5.21579 37.8598 4.95197 37.4601 4.61129 37.1312L2.9745 35.4995C1.11652 33.6033 0.806853 31.222 2.13398 28.8847C2.48788 28.2232 2.84179 27.6058 3.23993 26.9885C3.54244 26.5318 3.73567 26.012 3.8047 25.4692C3.87373 24.9263 3.81672 24.3749 3.63807 23.8574C3.22773 22.6708 2.94595 21.4437 2.79755 20.1972C2.6206 18.4774 3.46111 17.0221 4.83248 16.0079C5.55039 15.4721 6.30419 14.9859 7.0886 14.5526C7.6276 14.2752 8.08819 13.8674 8.42823 13.3666C8.76828 12.8659 8.97692 12.2881 9.03506 11.6862C9.13551 10.9571 9.28328 10.2353 9.47744 9.52534C9.71738 8.37256 10.3424 7.33496 11.2503 6.58204C12.1583 5.82912 13.2955 5.40539 14.4763 5.38005L16.467 5.24775C17.0515 5.26727 17.6307 5.13031 18.1441 4.85112C18.6576 4.57192 19.0867 4.16069 19.3867 3.6602L19.8733 3.08692C20.8908 1.58756 22.1737 0.440988 23.9874 0H25.8454L29.3844 1.49936C29.8054 1.67719 30.2591 1.76514 30.7162 1.75755C31.1734 1.74995 31.6239 1.64697 32.0387 1.45526L35.6219 0H37.4356ZM7.7964 41.7616C7.75217 44.0106 8.32726 44.8044 10.4507 45.51L12.0432 45.995C12.8716 46.2198 13.6372 46.6308 14.2814 47.1965C14.9255 47.7622 15.4311 48.4676 15.7592 49.2584C16.0237 49.9399 16.334 50.6029 16.6882 51.2428C16.928 51.8814 17.3916 52.4119 17.9934 52.7362C18.5952 53.0605 19.2944 53.1566 19.9618 53.0067L22.3506 52.654C23.0446 52.4983 23.763 52.4845 24.4625 52.6134C25.162 52.7422 25.8281 53.0111 26.4205 53.4036L28.7651 55.1676C29.3055 55.616 29.9863 55.8614 30.6894 55.8614C31.3925 55.8614 32.0733 55.616 32.6137 55.1676L34.4275 53.7564C35.0864 53.2366 35.8523 52.8683 36.6706 52.6777C37.4888 52.4871 38.3392 52.479 39.1609 52.654C39.8758 52.8144 40.5996 52.9322 41.3286 53.0067C42.9654 53.2272 44.0271 52.654 44.7349 51.1987C45.0445 50.5372 45.3542 49.9198 45.6196 49.2584C45.9477 48.4676 46.4533 47.7622 47.0975 47.1965C47.7416 46.6308 48.5073 46.2198 49.3356 45.995L51.3705 45.3777C52.9631 44.8044 53.7151 43.7019 53.5824 41.9821C53.5382 41.1001 53.4939 40.2181 53.4939 39.3361C53.4661 38.7404 53.5573 38.1451 53.7624 37.5849C53.9674 37.0247 54.2822 36.5107 54.6883 36.0728C55.3077 35.3231 56.0155 34.6176 56.7233 33.912C57.4311 33.2064 58.0504 31.4424 57.1657 29.9431L56.104 28.135C55.643 27.4156 55.3518 26.6013 55.2522 25.7534C55.1526 24.9056 55.2472 24.0462 55.5289 23.2401C55.7501 22.5345 55.9712 21.873 56.1482 21.1674C56.3852 20.5116 56.382 19.7934 56.1391 19.1398C55.8963 18.4861 55.4294 17.9391 54.8211 17.5954L52.7861 16.3607C52.0644 15.9349 51.4474 15.3535 50.9805 14.6591C50.5135 13.9647 50.2085 13.1749 50.0876 12.3477C49.9829 11.5903 49.8352 10.8394 49.6453 10.0986C49.5559 9.48057 49.257 8.91164 48.7982 8.48643C48.3395 8.06122 47.7486 7.80535 47.1237 7.76138L45.31 7.62909C43.0981 7.58499 41.2843 6.79121 40.0014 4.93906L38.984 3.6161C37.878 2.33723 36.6394 1.98445 35.0911 2.64593L33.0119 3.572C32.2874 3.91981 31.4936 4.10043 30.6894 4.10043C29.8853 4.10043 29.0914 3.91981 28.3669 3.572L26.2878 2.64593C24.7394 2.02854 23.545 2.29313 22.4833 3.572L20.935 5.46825C20.4854 6.04976 19.9185 6.53077 19.2708 6.8802C18.6231 7.22962 17.909 7.43968 17.1748 7.4968L14.4321 7.71729C12.8837 7.93778 11.999 8.73156 11.6451 10.2309C11.6008 10.6278 11.5124 10.9806 11.4681 11.3775C11.2027 13.8911 10.0525 15.7433 7.75217 16.8898C7.29458 17.1283 6.85144 17.3933 6.42504 17.6836C5.88354 18.0234 5.46903 18.5312 5.24523 19.1287C5.02144 19.7263 5.00076 20.3806 5.18638 20.991C5.40757 21.7407 5.58452 22.4904 5.84995 23.2401C6.13564 24.0552 6.22839 24.9252 6.12095 25.782C6.01352 26.6387 5.7088 27.4592 5.23062 28.1791L4.16892 30.0313C3.37264 31.4424 3.50535 32.6772 4.61129 33.8238C5.71724 34.9703 5.62876 34.8821 6.15961 35.4113C6.80731 36.0387 7.30022 36.8073 7.59958 37.6566C7.89894 38.506 7.9966 39.413 7.88488 40.3063C7.84064 40.7914 7.7964 41.2765 7.7964 41.7616ZM58.6255 67.2066L48.3181 49.1261L46.6371 52.5658C46.031 53.7023 45.045 54.5916 43.8501 55.0794C44.4252 56.0937 45.0003 57.0197 45.4869 57.9899C45.9735 58.9601 45.7523 59.4452 45.133 59.798C44.5137 60.1508 43.8944 59.8421 43.4962 59.1806L42.4345 57.3284C41.3286 55.344 41.3286 55.344 39.0724 54.9912C38.1877 54.8589 37.3472 54.6825 36.5509 55.1676C35.7546 55.6527 35.0468 56.2701 34.2505 56.7992L44.6906 75.0562L44.9118 74.7916L48.2739 68.309C48.3705 68.0349 48.3546 67.7337 48.2297 67.4712C47.6988 66.4569 47.0795 65.4426 46.5044 64.4724C45.9293 63.5023 46.0178 62.7526 46.6813 62.3998C47.3449 62.047 47.9642 62.3116 48.4951 63.2818C49.0259 64.252 49.6895 65.2221 50.2203 66.2364C50.298 66.4184 50.4272 66.5738 50.5923 66.6835C50.7574 66.7932 50.951 66.8524 51.1493 66.8538C52.211 66.8538 53.2285 66.942 54.2902 66.9861L58.6255 67.2066ZM2.70907 67.2066L10.4949 66.7656C10.7161 66.7656 10.9815 66.501 11.1585 66.2364C11.7778 65.2221 12.3087 64.1637 12.928 63.1495C13.5473 62.1352 14.0339 62.0911 14.6532 62.4439C15.2726 62.7967 15.4053 63.4582 14.9629 64.296C14.5205 65.1339 13.8127 66.3687 13.1934 67.383C13.0684 67.5377 12.9966 67.7284 12.9886 67.9269C12.9806 68.1254 13.0369 68.3212 13.1492 68.4854C13.9012 69.8525 14.609 71.2196 15.3168 72.5866C16.0246 73.9537 16.1573 74.1742 16.6882 75.1003C20.183 68.9264 23.6335 62.8849 27.1283 56.8433L25.4915 55.5645C25.1089 55.2494 24.6569 55.0292 24.1724 54.9219C23.688 54.8146 23.1849 54.8232 22.7045 54.9471C22.0409 55.0794 21.3331 55.1235 20.6696 55.2999C20.2998 55.3974 19.973 55.6145 19.7406 55.9173L17.7941 59.2688C17.75 59.3921 17.6814 59.5053 17.5922 59.6015C17.5031 59.6977 17.3953 59.7749 17.2755 59.8285C17.1556 59.882 17.0261 59.9108 16.8947 59.9132C16.7634 59.9155 16.6329 59.8913 16.5112 59.8421C16.3156 59.7524 16.1403 59.6241 15.9958 59.4649C15.8513 59.3057 15.7407 59.119 15.6707 58.916C15.6378 58.5574 15.7317 58.1986 15.9361 57.9017C16.4228 56.9315 16.9978 56.0496 17.5287 55.0794C15.715 54.3738 14.8302 52.9627 14.1666 51.3751C13.857 50.6695 13.4588 49.9639 13.0607 49.1261L2.70907 67.2066Z" fill="white"/>
<path d="M10.2227 29.0483C10.2227 25.0035 11.4227 21.0496 13.6707 17.6871C15.9188 14.3246 19.1139 11.7046 22.8517 10.1587C26.5894 8.61286 30.7018 8.21064 34.6682 9.00296C38.6346 9.79528 42.2769 11.7465 45.1339 14.6097C47.9909 17.4729 49.9343 21.1193 50.718 25.0875C51.5017 29.0556 51.0906 33.1671 49.5367 36.9015C47.9828 40.6359 45.3559 43.8253 41.9885 46.0661C38.6211 48.3069 34.6647 49.4984 30.6199 49.4896C25.2061 49.4779 20.0181 47.3192 16.1942 43.4869C12.3702 39.6547 10.2226 34.462 10.2227 29.0483ZM48.7213 29.0924C48.73 25.5104 47.6759 22.0064 45.6922 19.0238C43.7085 16.0412 40.8845 13.7143 37.5776 12.3374C34.2708 10.9606 30.6298 10.5958 27.1156 11.2893C23.6014 11.9827 20.3719 13.7032 17.8359 16.233C15.3 18.7628 13.5716 21.9881 12.8696 25.5006C12.1675 29.0131 12.5234 32.655 13.8922 35.9652C15.2609 39.2753 17.581 42.105 20.5587 44.096C23.5364 46.0869 27.0379 47.1497 30.6199 47.1497C32.9949 47.1555 35.3478 46.6927 37.5437 45.7879C39.7396 44.883 41.7354 43.5538 43.4169 41.8765C45.0983 40.1991 46.4324 38.2066 47.3426 36.0129C48.2528 33.8192 48.7213 31.4675 48.7213 29.0924Z" fill="white"/>
<path d="M37.6532 31.3931L40.1624 38.9145C40.2855 39.2937 40.3449 39.6903 40.3384 40.0884C40.1624 41.3058 38.7977 41.8275 37.6972 41.0449C35.8483 39.7841 34.0434 38.4363 32.2386 37.132C30.4337 35.8277 30.962 36.219 29.6414 37.132L24.3588 40.9145C23.5665 41.5232 22.8181 41.5666 22.2018 41.1319C21.5855 40.6971 21.3654 40.0015 21.7176 39.0015C22.4659 36.6537 23.2143 34.3495 24.0067 32.0452C24.0593 31.9517 24.0919 31.8486 24.1026 31.7422C24.1133 31.6358 24.1018 31.5283 24.0688 31.4265C24.0358 31.3246 23.982 31.2305 23.9107 31.15C23.8395 31.0695 23.7523 31.0042 23.6545 30.9583L17.4475 26.5236C17.1435 26.3378 16.9098 26.0584 16.7825 25.7284C16.6552 25.3984 16.6414 25.0361 16.7432 24.6976C16.8563 24.3617 17.0756 24.0706 17.3688 23.8671C17.662 23.6636 18.0137 23.5585 18.372 23.5672H26.0316C26.1474 23.5857 26.2658 23.5811 26.3797 23.5538C26.4937 23.5265 26.601 23.4769 26.6953 23.4081C26.7897 23.3392 26.8691 23.2525 26.929 23.1529C26.9889 23.0533 27.028 22.9429 27.0441 22.8281C27.7485 20.5238 28.5408 18.2196 29.2892 15.9588C29.5973 14.9588 30.1256 14.524 30.918 14.524C31.7103 14.524 32.2826 14.9588 32.5908 15.9588C33.3831 18.263 34.1315 20.6108 34.8798 22.9151C35.0559 23.4368 35.276 23.5672 35.7603 23.5672H43.508C44.3003 23.6542 44.8726 23.9585 45.0927 24.7411C45.2131 25.0563 45.2172 25.4033 45.1046 25.7213C44.9919 26.0392 44.7695 26.3079 44.4764 26.4802C43.2438 27.4367 41.9672 28.3062 40.7346 29.2192L37.6532 31.3931ZM30.962 18.437L30.8299 18.6543L28.981 24.2629C28.5408 25.5672 28.1446 25.8715 26.736 25.8715H20.529L25.7235 29.6105C26.6039 30.2627 26.78 30.8279 26.4718 31.8278C26.1637 32.8278 25.7235 34.0451 25.3713 35.1755C25.0192 36.3059 24.7991 36.9146 24.4909 37.9581L25.3273 37.3929L29.6854 34.2625C30.6979 33.5234 31.1821 33.5234 32.2386 34.2625L36.6847 37.4798L37.389 37.9146C36.7287 35.8277 36.0684 33.9147 35.4521 31.9583C35.0559 30.7409 35.232 30.2627 36.2445 29.5236L40.6906 26.3497L41.3069 25.828H35.4521C33.6473 25.828 33.3391 25.6106 32.8109 23.915C32.2826 22.2194 31.6223 20.3499 30.962 18.437Z" fill="white"/>
</svg>
