<svg width="129" height="78" viewBox="0 0 129 78" fill="none" xmlns="http://www.w3.org/2000/svg">
<path d="M128.026 76.8051C127.386 77.6212 126.693 78.2843 125.52 77.8762C124.347 77.4682 124.293 76.55 124.293 75.5299V57.6772C124.293 57.1672 124.24 56.7081 124.187 56.045C121.733 57.9833 119.76 59.8195 120.027 63.135C120.293 67.3687 120.133 71.6533 120.027 75.8869C119.952 76.602 119.589 77.261 119.014 77.7232C118.724 77.8423 118.409 77.8951 118.094 77.8774C117.779 77.8597 117.473 77.772 117.2 77.6212C116.963 77.4226 116.769 77.1802 116.632 76.9086C116.494 76.6369 116.416 76.3414 116.4 76.04C116.347 70.9392 116.294 65.8384 116.4 60.6867C116.4 58.7484 117.467 57.1672 118.907 55.79L121.733 53.2396L110.587 47.8328C109.254 49.159 107.814 50.4852 106.428 51.9134C106.196 52.2806 106.102 52.7124 106.161 53.1376V75.2749C106.171 75.6666 106.153 76.0586 106.108 76.448C105.841 77.4172 105.201 78.0293 104.188 77.9782C103.957 77.9782 103.728 77.9347 103.514 77.8501C103.301 77.7655 103.107 77.6415 102.943 77.4852C102.78 77.3289 102.65 77.1434 102.562 76.9392C102.473 76.7349 102.428 76.5161 102.428 76.295C102.375 75.7339 102.375 75.1728 102.375 74.6117C102.375 67.6237 102.321 60.5847 102.375 53.5966C102.408 53.1298 102.33 52.6617 102.145 52.2284C101.96 51.7951 101.674 51.4081 101.308 51.0973C100.135 50.0771 99.0147 48.9039 97.9481 47.8328C95.9749 48.7509 95.175 48.6999 94.535 47.7308C93.895 46.7616 94.1617 46.0475 95.5483 44.8743C96.9349 43.7012 96.8282 41.2528 95.9216 40.3857C94.725 39.2514 93.7928 37.8879 93.1862 36.3846C92.5796 34.8814 92.3123 33.2724 92.4018 31.6634C92.4018 30.8983 92.4551 30.2862 91.4419 30.0311C91.2073 29.9279 91.0023 29.772 90.8444 29.5766C90.6866 29.3811 90.5805 29.1521 90.5352 28.909C90.3219 25.8485 90.0553 22.686 91.6018 19.8296C93.7884 15.647 97.4148 13.5047 102.215 13.4027C104.645 13.2381 107.088 13.4099 109.467 13.9127C114.534 15.1369 117.787 19.2685 118.054 24.2163C118.16 25.5935 118.054 26.9707 118.107 28.3989C118.11 28.7992 117.984 29.1906 117.745 29.5194C117.506 29.8482 117.167 30.0982 116.774 30.2352C116.598 30.3406 116.449 30.4825 116.339 30.6502C116.228 30.8179 116.158 31.0073 116.134 31.2043C116.24 34.8258 115.174 37.8863 112.454 40.4877C111.387 41.5588 112.134 44.5173 113.574 45.2314C116.347 46.6086 119.067 47.9858 121.893 49.21C124.72 50.4342 127.173 52.2704 128.026 55.4329V76.8051ZM112.241 30.1841L111.174 29.9801C108.347 29.266 105.468 28.7559 102.748 27.7868C101.095 27.2257 100.081 27.5318 98.5348 28.1438C96.0816 29.164 96.0816 30.7452 96.1882 32.7345C96.264 33.9032 96.6155 35.0402 97.2164 36.0604C97.8172 37.0805 98.6519 37.9573 99.6577 38.6248C100.663 39.2923 101.814 39.7332 103.024 39.9145C104.233 40.0958 105.47 40.0127 106.641 39.6716C110.641 38.4474 112.827 34.8258 112.241 30.1841ZM114.214 26.6136C114.907 22.0739 112.507 18.1464 108.134 17.2792C105.894 16.8202 103.494 16.9732 101.201 17.1262C96.7749 17.3813 93.3617 21.9719 94.4283 26.4606C95.9216 25.4914 97.3082 24.6243 98.6414 23.6552C99.9747 22.686 100.455 22.686 101.575 23.2981C102.497 23.8116 103.46 24.2551 104.454 24.6243C107.572 25.7917 110.869 26.4637 114.214 26.6136ZM108.187 42.9871C105.521 43.9052 102.908 43.8032 100.028 42.936C100.135 43.8032 99.9747 44.6193 100.348 45.0274C101.521 46.3536 102.908 47.5267 104.294 48.8529C105.414 47.7818 106.374 46.6596 107.494 45.7415C108.614 44.8233 108.614 44.1602 108.187 42.9871Z" fill="white"/>
<path d="M41.5104 48.4685C43.4931 50.3554 45.2614 52.0384 47.0833 53.6704C48.0158 54.4939 48.7518 55.4982 49.2417 56.6156C49.7317 57.7329 49.9641 58.9372 49.9233 60.1473V75.4981C49.9914 75.9339 49.9165 76.3792 49.709 76.7731C49.2803 77.2831 48.6909 77.895 48.0478 77.946C47.4048 77.997 46.7618 77.4361 46.3867 76.9771C46.0116 76.5181 46.0652 75.9571 46.0652 75.3961V59.9433C46.1121 59.2868 46.0014 58.6288 45.7414 58.0191C45.4815 57.4094 45.0791 56.8641 44.5648 56.4244L40.2244 52.2424L39.9029 52.3444V53.7214C39.9029 60.8103 39.9029 67.8992 39.8493 75.0391V76.3141C39.8353 76.7651 39.6373 77.1931 39.2971 77.5073C38.9569 77.8216 38.5014 77.9972 38.0274 77.997C37.0093 78.048 36.3662 77.4361 36.0983 76.4671C36.0549 76.0775 36.037 75.6858 36.0447 75.2941V53.2624C36.0447 48.7235 38.1881 45.5105 42.5821 43.6745L52.2811 39.5946C52.8545 39.4129 53.3466 39.052 53.6773 38.5706C54.0081 38.0892 54.1581 37.5154 54.103 36.9426C54.1672 36.2543 54.0653 35.5611 53.8053 34.9159C53.5453 34.2708 53.1339 33.6906 52.6026 33.2197C49.5482 30.4657 48.2622 26.8958 48.0478 22.9688C47.9252 22.4758 47.7071 22.0089 47.4048 21.5918C47.0297 20.8268 46.2795 20.1129 46.2259 19.2969C45.7973 15.0639 46.0116 10.882 48.5301 7.15904C51.638 2.6201 56.0856 0.223137 61.7657 0.0701389C65.0344 -0.0318597 68.3031 -0.184859 71.5182 0.937125C74.5568 2.02498 77.1797 3.96021 79.044 6.48975C80.9083 9.01929 81.9272 12.0254 81.9674 15.1149C81.9884 15.705 81.8854 16.2931 81.6646 16.8448C81.4438 17.3965 81.1095 17.9007 80.6813 18.3279C80.2914 18.754 80.0647 19.2933 80.0383 19.8579C80.0383 22.8158 79.9847 25.7738 78.7522 28.5787C77.8344 30.6336 76.4639 32.4771 74.7333 33.9847C73.1794 35.3106 73.7152 38.6766 75.6443 39.4926L85.6647 43.7765C89.898 45.5615 91.9878 48.7235 91.9878 53.1094V75.4981C91.9878 76.0081 91.9878 76.7221 91.6663 77.0281C91.3448 77.3341 90.3802 77.9971 89.7908 77.8951C89.2014 77.7931 88.6655 77.1301 88.2904 76.5691C88.1451 76.0714 88.1086 75.5507 88.1832 75.0391V52.3954L87.8617 52.2424C86.0934 53.9764 84.2179 55.7104 82.6104 57.5463C82.1281 58.1073 82.0209 59.0763 82.0209 59.8923C81.9673 64.9412 81.9674 69.9902 81.9674 74.9881C81.994 75.2765 81.994 75.5667 81.9674 75.8551C81.9138 77.1811 81.1636 78.048 80.0383 77.997C78.913 77.946 78.1628 77.1811 78.1628 75.9061C78.1628 70.1942 78.2164 64.4822 78.2699 58.7703C78.3235 56.7814 79.3417 55.2514 80.7885 53.8744L86.5221 48.4685C85.6647 47.9585 85.0217 47.4995 84.3251 47.1425L74.6262 43.0625C74.3966 43.0122 74.1585 43.0089 73.9275 43.0529C73.6966 43.0969 73.4781 43.1871 73.2865 43.3175C70.9824 45.4085 68.7318 47.5505 66.5348 49.6924C66.1757 50.1477 65.9871 50.7043 65.9989 51.2734C65.9453 59.2803 65.9453 67.2362 65.9453 75.1921C65.9453 75.7021 66.0525 76.3141 65.731 76.6711C65.4095 77.0281 64.6593 77.8951 64.0698 77.8951C63.4804 77.8951 62.7302 77.2831 62.3015 76.7221C62.0894 76.2033 62.0157 75.6426 62.0872 75.0901C62.0872 67.1852 62.0872 59.2803 62.0336 51.3244C62.003 50.6505 61.7393 50.005 61.2834 49.4884C59.2472 47.4485 57.1038 45.5105 55.0139 43.4705C54.8179 43.1981 54.5185 43.0086 54.1787 42.942C53.8389 42.8754 53.4852 42.9369 53.192 43.1135L44.0289 47.0405C43.1638 47.4743 42.3232 47.951 41.5104 48.4685ZM50.0305 18.9909L52.549 17.3589C53.6743 16.6449 54.7996 16.6959 55.4962 17.4609C56.1928 18.2259 55.9785 19.3989 54.8532 20.2659C53.7279 21.1328 53.2992 21.1838 52.6026 21.6938C52.4293 21.8144 52.2831 21.9667 52.1727 22.1419C52.0622 22.3171 51.9898 22.5116 51.9596 22.7138C51.8961 24.3049 52.2045 25.8896 52.8624 27.3536C53.5203 28.8176 54.5114 30.1244 55.7641 31.1797C61.3906 35.9736 69.0533 35.3106 73.7688 29.6497C76.1265 26.6918 76.3945 23.2748 76.0194 19.7559H74.7869C70.4465 20.0109 66.1597 19.8579 62.1944 18.0219C60.3015 17.0618 58.5075 15.9349 56.8358 14.6559C56.6291 14.5132 56.4573 14.3295 56.3323 14.1175C56.2072 13.9055 56.132 13.6703 56.1116 13.4279C56.0912 13.1856 56.1263 12.942 56.2143 12.7138C56.3023 12.4855 56.4412 12.2782 56.6215 12.106C57.3181 11.341 58.2826 11.29 59.3007 11.953C59.7588 12.3544 60.242 12.7291 60.7476 13.075C66.0525 16.6449 71.9469 16.6449 78.002 15.6759C78.4843 10.933 74.8941 5.88406 70.125 4.35408C67.2314 3.43609 64.2306 3.53809 61.2298 3.74209C58.229 3.94608 54.4245 5.62906 52.1739 8.53602C49.9233 11.443 49.7626 15.0639 50.0305 18.9909ZM64.0163 47.0405L70.4465 40.8186C70.5601 40.7136 70.6478 40.586 70.7034 40.4449C70.759 40.3038 70.7811 40.1527 70.768 40.0026C70.5537 38.9826 70.2322 37.9626 69.9107 36.8916C66.1256 38.3088 61.9204 38.327 58.1219 36.9426C57.854 37.9626 57.5324 38.9316 57.3181 39.9006C57.296 40.0629 57.3083 40.2277 57.3544 40.3854C57.4004 40.5431 57.4792 40.6904 57.586 40.8186L64.0163 47.0405Z" fill="white"/>
<path d="M26.3362 53.4543C24.9419 54.7865 23.5477 56.0674 22.2607 57.3996C21.9819 57.8119 21.833 58.2921 21.8317 58.783V75.0765C21.8406 75.5041 21.8227 75.9318 21.778 76.3574C21.7711 76.5795 21.7184 76.7981 21.623 77.0007C21.5276 77.2033 21.3914 77.3859 21.222 77.5382C21.0527 77.6905 20.8536 77.8094 20.6362 77.8881C20.4187 77.9668 20.1872 78.0038 19.9548 77.997C18.9895 78.0482 18.346 77.4334 18.0779 76.5111C18.032 76.1199 18.0141 75.7262 18.0243 75.3327C18.0243 69.8503 18.0779 64.3678 18.0243 58.8342C17.9448 58.2145 17.6847 57.6286 17.2735 57.1434C16.0937 55.8112 14.8067 54.6327 13.5734 53.4543L5.15415 57.5533L6.22666 58.6293C12.2863 64.2654 11.8037 63.9067 11.8037 71.4386V75.845C11.7501 77.1772 11.053 77.997 9.98044 77.997C8.90793 77.997 8.04992 77.1772 8.04992 75.845C7.9963 73.2319 7.94267 70.5676 8.04992 67.9545C8.09357 67.1609 7.95272 66.368 7.63747 65.6327C7.32222 64.8974 6.84041 64.238 6.22666 63.7018C5.38895 62.9463 4.60094 62.142 3.86714 61.2936C3.81352 62.0109 3.75989 62.3696 3.75989 62.677V75.5888C3.75989 77.1772 3.06276 78.0482 1.883 77.997C0.703236 77.9458 0.00610479 77.126 0.00610479 75.6401V60.73C-0.0528301 59.3244 0.315976 57.9326 1.06786 56.7231C1.81975 55.5137 2.92248 54.5384 4.24253 53.9154C6.28029 52.8394 8.31806 51.9172 10.3558 50.9437C11.5356 50.4313 12.1255 49.6627 12.0182 48.433V48.3305C12.34 46.2298 11.7501 44.6927 9.92681 43.1556C7.24554 40.9011 6.06579 37.7756 6.06579 34.2915C5.97658 32.1545 6.04826 30.0141 6.28029 27.8868C6.76292 24.4539 8.69343 21.7383 11.5356 19.6376C11.8201 19.4863 12.0402 19.2446 12.1577 18.9545C12.2752 18.6644 12.2828 18.3441 12.1791 18.0492C11.2675 13.8478 14.5922 9.80003 19.3113 9.28766C24.0303 8.77529 27.7841 12.2082 27.6768 16.3072C27.6232 18.4079 28.2667 19.6376 29.8755 21.021C31.0977 22.0782 32.0767 23.3665 32.7506 24.8041C33.4244 26.2418 33.7784 27.7975 33.7901 29.3727C33.8974 32.8569 34.2192 36.341 32.6104 39.569C31.6628 41.4413 30.3102 43.1004 28.6421 44.4365C28.2131 44.7952 28.0522 45.4613 27.8377 46.0249C27.6232 46.5885 27.8913 46.7422 27.8377 47.1008C27.516 49.2016 28.2667 50.6875 30.4654 51.456C31.806 51.9684 32.1814 53.0956 31.5915 54.0691C31.0016 55.0426 30.0364 55.1964 28.803 54.684L27.5696 54.1204L26.3362 53.4543ZM29.9291 35.1113C27.3015 34.9064 24.7274 35.0088 22.3679 34.394C20.0084 33.7791 17.8634 32.2932 15.4502 31.1148C14.6606 31.6425 13.8367 32.1216 12.9835 32.5494C11.9646 33.0618 10.8921 33.3692 9.8732 33.7791C9.71232 38.7492 13.7878 43.2068 18.775 43.6679C24.9956 44.2316 29.7682 39.6202 29.9291 35.1113ZM9.98044 30.1413C11.482 29.1678 12.8226 28.3992 13.9487 27.5282C15.0749 26.6571 16.3619 26.1448 17.8634 27.6306L18.2924 28.0918C21.4563 31.0635 26.3362 32.1908 29.9827 30.7561C30.4117 25.5299 25.9072 20.8161 20.3838 20.6111C14.8604 20.4062 9.81956 25.1712 9.98044 30.1413ZM19.9548 54.5303L23.9231 50.6362C24.0895 50.4703 24.1851 50.2511 24.1912 50.0214C24.1376 48.9966 24.0303 47.9719 23.9767 47.1521H15.8792C15.343 49.2528 15.772 51.1486 17.917 52.5832C18.6491 53.1797 19.3305 53.8308 19.9548 54.5303ZM23.9231 17.127C24.0436 16.4153 23.9335 15.6855 23.6077 15.0352C23.2818 14.385 22.7556 13.8455 22.0998 13.4891C21.3927 13.0935 20.5807 12.9022 19.7621 12.9386C18.9436 12.975 18.1536 13.2374 17.488 13.6941C16.2546 14.5651 15.6647 15.9998 15.9865 17.127H23.9231Z" fill="white"/>
</svg>
