<svg width="84" height="78" viewBox="0 0 84 78" fill="none" xmlns="http://www.w3.org/2000/svg">
<path d="M83.383 45.832L83.0443 47.1292C82.6165 48.8626 81.6577 50.4193 80.3018 51.582C78.9458 52.7447 77.2603 53.4554 75.4805 53.6149C74.8032 53.6713 74.7467 54.0661 74.5774 54.4609C72.3015 61.3622 67.8697 67.3519 61.9334 71.5494C55.3923 76.3466 47.3233 78.5927 39.2419 77.866C25.6948 76.6816 15.986 69.7447 10.0591 57.6192C9.55107 56.5476 9.21237 55.3633 8.70436 54.2917C8.63528 54.1407 8.53371 54.0068 8.40686 53.8996C8.28002 53.7923 8.13103 53.7144 7.97056 53.6713C5.98988 53.4963 4.12795 52.6525 2.69149 51.2788C1.25503 49.9051 0.329726 48.0834 0.0680562 46.114C-0.167511 44.2501 0.212167 42.3604 1.14944 40.7317C2.08672 39.1031 3.53038 37.8246 5.26114 37.0904C5.93849 36.8084 6.05138 36.47 5.99493 35.7932C5.7127 32.2401 5.31757 28.6871 5.31757 25.1904C5.14828 20.8819 6.62087 16.6695 9.43819 13.4033C12.2041 10.1886 15.8166 8.44026 19.8243 7.48149L23.0418 6.97392C23.4037 6.8825 23.7473 6.72991 24.0578 6.52273C28.4606 2.91327 33.4279 0.544556 39.129 0.0933733C42.1229 -0.0938226 45.1278 0.000589082 48.104 0.375362C53.5599 1.03095 58.8548 2.65435 63.7397 5.16918C68.4812 7.65068 72.5453 10.8654 75.3112 15.49C78.0771 20.1146 78.4722 24.1189 78.0771 28.8563C77.8513 31.3378 77.5691 33.7629 77.3433 36.2444C77.3476 36.367 77.3805 36.4869 77.4393 36.5946C77.498 36.7022 77.5811 36.7948 77.6819 36.8648C79.1885 37.437 80.5076 38.4139 81.4937 39.6878C82.4798 40.9616 83.0946 42.4829 83.2701 44.0837C83.2701 44.1136 83.2821 44.1423 83.3032 44.1635C83.3244 44.1846 83.3531 44.1965 83.383 44.1965V45.832ZM28.9686 25.9236C27.9526 27.2207 26.993 28.7999 25.8077 30.0406C23.1547 32.8605 19.8243 34.5525 16.2118 35.7368C15.9333 35.8125 15.6809 35.9628 15.4819 36.1716C15.2829 36.3804 15.1449 36.6396 15.0828 36.9212C13.8975 41.151 12.6556 45.3808 11.4702 49.6107C11.3577 50.0739 11.3577 50.5574 11.4702 51.0206C13.3789 58.651 18.1223 65.2696 24.7374 69.5328C31.3526 73.7959 39.3435 75.384 47.0879 73.9745C60.0142 71.493 68.1989 63.6538 71.9244 51.077C72.0749 50.5391 72.0552 49.9678 71.868 49.4415C71.247 47.0728 70.5133 44.7041 69.8359 42.279C69.1585 39.8539 68.707 38.3875 68.1425 36.3572H67.1829C60.6453 36.3393 54.1243 35.6972 47.7089 34.4397C42.6287 33.3681 37.7179 31.9018 33.315 29.0819C31.7345 28.1231 30.3234 26.8824 28.9686 25.9236ZM73.1098 40.9254H73.2227C73.3356 40.2486 73.4485 39.5719 73.5049 38.8387C73.9 34.6089 74.3516 30.4354 74.6339 26.1492C74.7487 22.7158 73.7596 19.3359 71.8115 16.5051C69.3279 12.7265 65.8282 10.1886 61.8769 8.15827C57.2399 5.85637 52.2341 4.38648 47.0879 3.81563C44.3796 3.39314 41.6267 3.33623 38.9032 3.64644C33.9892 4.3466 29.393 6.48575 25.6948 9.79381C25.2413 10.115 24.7197 10.3273 24.1707 10.4142L21.2919 10.809C13.6152 12.1625 9.04304 17.4075 8.81726 25.134C8.76081 27.6155 8.98662 30.097 9.15596 32.5785C9.3253 35.06 9.83329 38.1619 10.1155 40.9818C10.2879 40.8366 10.4071 40.6382 10.4542 40.4178L12.1476 34.5525C12.2493 34.1524 12.4538 33.7858 12.7409 33.489C13.028 33.1923 13.3878 32.9756 13.7845 32.8605C15.9066 32.1518 17.9648 31.2651 19.9372 30.2098C23.5498 28.1795 26.0899 25.3032 26.2028 20.9042C26.2144 20.4931 26.3756 20.1003 26.6561 19.7992C26.9366 19.4982 27.3172 19.3096 27.7268 19.2686C28.5171 19.1558 29.138 19.6634 29.5895 20.3966C30.0962 21.4376 30.7418 22.4052 31.5087 23.2729C32.7071 24.4495 34.0323 25.4898 35.46 26.3748C40.5966 29.4767 46.3541 30.8302 52.1681 31.7326C57.6994 32.5497 63.2849 32.9456 68.8763 32.9169C70.4568 32.9169 70.8519 33.2553 71.3035 34.778C71.7551 36.3008 72.5453 38.8951 73.1098 40.9254ZM6.61587 40.3614C5.58537 40.8188 4.73413 41.6022 4.19346 42.5909C3.6528 43.5796 3.45274 44.7185 3.62418 45.832C3.76477 46.8435 4.21425 47.787 4.91127 48.5339C5.60829 49.2808 6.51893 49.7947 7.519 50.0055L6.61587 40.3614ZM76.7788 40.4178C76.4966 43.6325 76.2143 46.7908 75.8756 50.0055C76.9141 49.7646 77.8504 49.2034 78.552 48.4014C79.2535 47.5994 79.6848 46.5972 79.7847 45.5368C79.8846 44.4763 79.648 43.4113 79.1085 42.4926C78.5691 41.5739 77.754 40.8481 76.7788 40.4178Z" fill="white"/>
<path d="M40.9933 64.2178C37.6106 64.0788 34.4052 62.6688 32.0183 60.27C31.7014 60.0175 31.482 59.6629 31.3977 59.2669C31.3133 58.8708 31.3692 58.4577 31.5558 58.0982C31.7424 57.7387 32.048 57.455 32.4206 57.2957C32.7933 57.1363 33.2097 57.1112 33.5988 57.2245C33.9617 57.3557 34.2899 57.5679 34.5584 57.8448C38.7919 61.6799 44.6059 61.6799 48.8958 57.7885C49.4602 57.2809 50.1376 56.9425 50.8714 57.2809C51.3617 57.6089 51.7368 58.0823 51.9439 58.6344C52.2261 59.3112 51.831 59.8752 51.323 60.3264C48.8393 62.7515 45.2832 64.2178 40.9933 64.2178Z" fill="white"/>
<path d="M55.5546 50.2313C54.53 50.2201 53.5316 49.9064 52.685 49.3295C51.8385 48.7527 51.1817 47.9385 50.7973 46.9895C50.4128 46.0405 50.318 44.999 50.5247 43.9963C50.7314 42.9935 51.2304 42.0743 51.9589 41.3543C52.6873 40.6343 53.6127 40.1457 54.6185 39.95C55.6243 39.7543 56.6655 39.8603 57.6112 40.2547C58.5568 40.649 59.3645 41.314 59.9327 42.166C60.5009 43.018 60.8041 44.0189 60.8041 45.0427C60.7893 46.4239 60.2296 47.7436 59.2467 48.715C58.2639 49.6865 56.9371 50.2314 55.5546 50.2313ZM55.5546 46.7346C55.777 46.7383 55.9979 46.6982 56.2048 46.6166C56.4116 46.535 56.6004 46.4135 56.7603 46.259C56.9201 46.1045 57.048 45.9201 57.1365 45.7162C57.225 45.5123 57.2725 45.2931 57.2762 45.0709C57.2799 44.8487 57.2398 44.6279 57.1581 44.4212C57.0764 44.2145 56.9548 44.026 56.8002 43.8662C56.6456 43.7065 56.461 43.5788 56.2569 43.4903C56.0529 43.4019 55.8334 43.3544 55.611 43.3507C55.3914 43.3432 55.1724 43.3799 54.9673 43.4587C54.7621 43.5375 54.5749 43.6567 54.4169 43.8094C54.2588 43.962 54.1332 44.1449 54.0474 44.3471C53.9617 44.5493 53.9175 44.7667 53.9177 44.9863C53.9021 45.2103 53.933 45.4352 54.0083 45.6469C54.0836 45.8585 54.2017 46.0524 54.3553 46.2164C54.5088 46.3804 54.6946 46.5111 54.901 46.6002C55.1073 46.6894 55.3298 46.7351 55.5546 46.7346Z" fill="white"/>
<path d="M27.7829 39.854C28.4649 39.8503 29.1409 39.9808 29.7724 40.2381C30.4038 40.4955 30.9784 40.8745 31.4632 41.3537C31.9481 41.8329 32.3337 42.4028 32.5981 43.0309C32.8625 43.659 33.0005 44.333 33.0042 45.0144C33.0079 45.6957 32.8773 46.3712 32.6197 47.0021C32.3621 47.633 31.9827 48.2071 31.5031 48.6915C31.0235 49.1759 30.4532 49.5612 29.8245 49.8254C29.1959 50.0896 28.5213 50.2275 27.8394 50.2312C26.4568 50.2312 25.1301 49.6864 24.1472 48.7149C23.1643 47.7435 22.6047 46.4238 22.5898 45.0426C22.5898 43.6665 23.1369 42.3467 24.1108 41.3737C25.0847 40.4006 26.4056 39.854 27.7829 39.854ZM29.5328 45.0426C29.5406 44.8183 29.5022 44.5947 29.4199 44.3859C29.3376 44.177 29.2132 43.9874 29.0543 43.8287C28.8955 43.6699 28.7056 43.5456 28.4966 43.4634C28.2876 43.3811 28.0639 43.3428 27.8394 43.3506C27.6169 43.3431 27.3952 43.3794 27.1869 43.4576C26.9786 43.5357 26.7877 43.6541 26.6252 43.806C26.4626 43.9579 26.3317 44.1403 26.2398 44.3428C26.1479 44.5453 26.0968 44.7639 26.0895 44.9862C26.156 45.3904 26.3623 45.7585 26.6727 46.0263C26.983 46.294 27.3776 46.4443 27.7876 46.451C28.1975 46.4578 28.5968 46.3204 28.9158 46.063C29.2347 45.8056 29.4531 45.4444 29.5328 45.0426Z" fill="white"/>
</svg>
