<svg width="296" height="607" viewBox="0 0 296 607" fill="none" xmlns="http://www.w3.org/2000/svg">
<mask id="mask0_310_560" style="mask-type:alpha" maskUnits="userSpaceOnUse" x="0" y="0" width="296" height="607">
<rect width="296" height="607" fill="#D9D9D9"/>
</mask>
<g mask="url(#mask0_310_560)">
<g style="mix-blend-mode:multiply">
<path fill-rule="evenodd" clip-rule="evenodd" d="M-166.339 155.813C-152.16 121.516 -133.903 89.7765 -111.778 60.9561C-86.0014 27.4372 -50.9783 -3.46001 2.98512 0.245401C38.5529 2.6924 77.3611 19.9573 114.541 37.5027C147.668 53.1374 182.095 70.3486 211.438 93.3246C221.517 101.154 230.923 109.78 239.438 119.004C271.579 154.029 276.407 182.27 266.487 206.223C243.406 261.922 140.598 294.51 115.941 335.637C112.046 342.139 108.688 348.963 105.757 356.031C88.6669 397.264 86.172 447.116 76.8831 492.94C73.6928 509.235 69.0869 524.827 63.0972 539.607C48.7403 574.264 25.0552 602.701 -14.6712 612.31C-121.725 638.206 -178.044 552.579 -193.782 460.261C-212.76 348.889 -202.953 244.179 -166.339 155.813Z" fill="#B4B2DA"/>
</g>
</g>
</svg>
