<svg width="276" height="341" viewBox="0 0 276 341" fill="none" xmlns="http://www.w3.org/2000/svg">
<mask id="mask0_310_148" style="mask-type:alpha" maskUnits="userSpaceOnUse" x="0" y="0" width="276" height="341">
<rect width="276" height="341" fill="#D9D9D9"/>
</mask>
<g mask="url(#mask0_310_148)">
<g style="mix-blend-mode:multiply">
<path fill-rule="evenodd" clip-rule="evenodd" d="M-7.91727 2.99967C7.01529 -25.4536 24.4108 -52.5427 44.0706 -77.9581C66.966 -107.523 95.9153 -136.437 132.955 -141.545C157.367 -144.908 181.852 -137.359 205.161 -129.354C225.929 -122.221 247.37 -114.067 264.42 -100.732C270.286 -96.1999 275.565 -90.956 280.136 -85.1214C297.359 -62.9382 296.558 -41.9418 286.117 -22.0675C261.828 24.15 185.417 64.3565 162.179 99.605C158.508 105.177 155.163 110.918 152.08 116.783C134.097 150.997 125.009 189.685 111.783 226.277C107.158 239.273 101.651 251.937 95.3005 264.181C80.1909 292.938 59.5013 318.288 30.415 331.531C-47.9669 367.221 -74.5692 309.706 -71.9189 241.065C-68.7166 158.255 -46.448 76.3216 -7.91727 2.99967Z" fill="#B4B2DA"/>
</g>
</g>
</svg>
