<svg id="Layer_1" data-name="Layer 1" xmlns="http://www.w3.org/2000/svg" xmlns:xlink="http://www.w3.org/1999/xlink" viewBox="0 0 197.8 195.4"><defs><style>.cls-1{fill:none;}.cls-2{fill:#1b223c;}.cls-3{fill:#fcba89;}.cls-4{fill:#fff;}.cls-5{fill:#f9bd7d;}.cls-6{clip-path:url(#clip-path);}.cls-7{fill:#230700;}.cls-8{fill:#32190e;}</style><clipPath id="clip-path"><path class="cls-1" d="M103.1,65.4c-.8,4.7-6.3,31.5-29.8,54.8,0,0-26-27-29.9-53.7l-.2-3.3v-1c0-17.2,13.8-31.4,30.7-31s29.5,13.9,29.5,30.5v2.4Z"/></clipPath></defs><title>Logonew</title><path class="cls-2" d="M47.8,153.2l-.2-.2v-3.1l7-13.3H47.9v-3H58.5v3.1l-7,13.2h6.9V153c0,.1,0,.2-.1.2Z"/><path class="cls-2" d="M61.8,153.2c-.1,0-.1-.1-.1-.2V133.5h9.4v3.2c0,.1-.1.1-.2.1H65.1v4.4h5.8a.2.2,0,0,1,.2.2v3.2h-6v5H71c.1,0,.1,0,.1.1v3.3H61.8Z"/><path class="cls-2" d="M75.1,153.2c-.1,0-.1-.1-.1-.2V133.5h5.9a5.3,5.3,0,0,1,2.8.7,5.7,5.7,0,0,1,2.6,6.8c-.3.5-.5,1-.8,1.4a3.6,3.6,0,0,1-.8.9,5.5,5.5,0,0,1,1.6,4V153c0,.1,0,.2-.1.2H82.8v-5.9a2.4,2.4,0,0,0-2.5-2.5H78.5V153c0,.1,0,.2-.1.2Zm3.4-12h2.4a2.5,2.5,0,0,0,1.6-.6,2.2,2.2,0,0,0,0-3.2,2.5,2.5,0,0,0-1.6-.6H78.5Z"/><path class="cls-2" d="M95.2,153.5a5.4,5.4,0,0,1-2.8-.8,5.7,5.7,0,0,1-2-2.1,4.9,4.9,0,0,1-.8-2.9v-9a5.4,5.4,0,0,1,.8-2.8,5.8,5.8,0,0,1,2-2.1,5.7,5.7,0,0,1,2.8-.8,5.4,5.4,0,0,1,2.8.8,5.8,5.8,0,0,1,2,2.1,5.3,5.3,0,0,1,.7,2.8v9a5.7,5.7,0,0,1-.8,2.9,6.7,6.7,0,0,1-2,2.1A5.4,5.4,0,0,1,95.2,153.5Zm0-3.5a1.8,1.8,0,0,0,1.5-.7,2.5,2.5,0,0,0,.6-1.6v-9a2.5,2.5,0,0,0-.6-1.6,2.2,2.2,0,0,0-3,0,2.3,2.3,0,0,0-.6,1.6v9a2.1,2.1,0,0,0,.6,1.6A1.8,1.8,0,0,0,95.2,150Z"/><path class="cls-2" d="M104.4,153.2V133.5h5.5a5.4,5.4,0,0,1,4.2,1.6,5.9,5.9,0,0,1,1.5,4.3,7.8,7.8,0,0,1-.8,3.5,5.8,5.8,0,0,1-2.1,2.3,5.4,5.4,0,0,1-2.8.8h-2.1V153l-.2.2Zm3.4-10.8h2.1a1.9,1.9,0,0,0,1.6-.9,3.1,3.1,0,0,0,.7-2.2,2.4,2.4,0,0,0-.6-1.8,2.1,2.1,0,0,0-1.7-.8h-2.1Z"/><path class="cls-2" d="M123.7,153.5a5.1,5.1,0,0,1-2.8-.8,6,6,0,0,1-2.1-2.1,5.7,5.7,0,0,1-.7-2.9v-9a5.5,5.5,0,0,1,2.8-4.9,5.4,5.4,0,0,1,2.8-.8,5,5,0,0,1,2.7.8,6,6,0,0,1,2.1,2.1,5.3,5.3,0,0,1,.7,2.8v9a5.7,5.7,0,0,1-.7,2.9,6.7,6.7,0,0,1-2,2.1A5.7,5.7,0,0,1,123.7,153.5Zm0-3.5a2.1,2.1,0,0,0,1.5-.7,2.5,2.5,0,0,0,.6-1.6v-9a2.5,2.5,0,0,0-.6-1.6,2,2,0,0,0-1.5-.6,2.5,2.5,0,0,0-1.6.6,2.3,2.3,0,0,0-.6,1.6v9a2.2,2.2,0,0,0,2.2,2.3Z"/><path class="cls-2" d="M132.9,153.2c-.1,0-.1-.1-.1-.2V133.5h3.4V153c0,.1,0,.2-.1.2Z"/><path class="cls-2" d="M140.4,153.2c-.2,0-.3-.1-.3-.2V133.6c0-.2.1-.2.2-.2h2.6l4.8,11.2v-11c0-.2,0-.2.2-.2h2.8c.2,0,.2,0,.2.2V153c0,.1,0,.2-.1.2h-2.5l-4.9-10.5.2,10.2a.3.3,0,0,1-.3.3Z"/><path class="cls-2" d="M157.5,153.2c-.1,0-.1-.1-.1-.2V136.8h-3.7c-.1,0-.1,0-.1-.1v-3.2h11.1v3.2a.1.1,0,0,1-.1.1h-3.8V153a.2.2,0,0,1-.2.2Z"/><path class="cls-2" d="M165.4,128.8H45.4a1.5,1.5,0,0,1-1.5-1.5,1.5,1.5,0,0,1,1.5-1.5h25c31.1-29.6,34.7-61.8,34.7-62.1a1.5,1.5,0,0,1,1.5-1.4,1.5,1.5,0,0,1,1.6,1.3c0,.3,4.9,30.3,35.2,62.2h22a1.5,1.5,0,0,1,1.5,1.5A1.5,1.5,0,0,1,165.4,128.8Zm-90.6-3h64.4c-20.9-22.8-29.3-44-32.4-54.6C104.2,82.3,96.4,104.3,74.8,125.8Z"/><path class="cls-2" d="M73.2,127.2c31.5-32.8,33.3-63.3,33.3-63.3s4.3,30.5,35.8,63.3H67.8"/><path class="cls-2" d="M106.5,65.3c-.9,5.1-7,34.4-33.2,59.9,0,0-29-29.4-33.2-58.7l-.3-3.7V61.7c0-18.8,15.4-34.3,34.2-33.9a33.5,33.5,0,0,1,32.8,33.5l-.2,2.5Z"/><path class="cls-3" d="M102.8,83.9l4-12.4s8.9,28,32.5,54.3H128.7S115.7,111.8,102.8,83.9Z"/><path class="cls-4" d="M106.1,73.4l.7-1.9s8.9,28,32.5,54.3h-1.1S119,105.5,106.1,73.4Z"/><path class="cls-5" d="M105.3,96.4l-4.1-9.2S94.5,105.8,75,125.8l9.9.2S94,117.2,105.3,96.4Z"/><path class="cls-4" d="M101.7,88.5l-.5-1.3S94.5,105.8,75,125.8h1.2S90.9,112.6,101.7,88.5Z"/><path class="cls-3" d="M103.1,65.1c-.8,4.7-6.3,31.5-29.8,54.8,0,0-26-26.9-29.9-53.6l-.2-3.4v-1c0-17.2,13.8-31.3,30.7-31a30.4,30.4,0,0,1,29.5,30.6v2.3Z"/><g class="cls-6"><path class="cls-7" d="M10.4,93.8l9.8-4.5,9.1-3.1,12.1-2.5,8.5,2.9,6.2-1.2,14.1-.6,11-2.5,8.1-.5,5.6-3.4,6.5-1.4,9.7.8,8.4-3.4,11.3-1.3,7.3-3.2,18,4.7c7,1.8,5.3,11,5.3,11l-3.9,37.3L85.1,141.7l-46.3-.3H17L3.5,118.9l.8-9.3-1.2-5.4Z"/></g><path class="cls-8" d="M71,40.2l.9.3a3.5,3.5,0,0,0,1.1.3,1.2,1.2,0,0,1,1.2.8h.1c.1-.2.2-.3.4-.3a1.4,1.4,0,0,1,1.1-.1c.6,0,1.4.6,2,.4h0c-.5.5-1.3.1-2,.2h-.6l-.3.2-.6.4a.5.5,0,0,1-.5-.3h0a1.2,1.2,0,0,0-.5-.7h-.6c-.6-.3-1.3-.4-1.7-1Z"/><path class="cls-8" d="M78.8,44.1c.1-.1.2,0,.4,0h.6a.9.9,0,0,1,.7.3h0l.2-.2.5-.2c.3,0,.8.2,1.1,0h0c-.2.3-.7.2-1,.3H81c0,.1-.1.1-.1.2l-.3.2h-.2c0-.1,0-.1-.1-.1s-.1-.2-.3-.2h-.3a1.8,1.8,0,0,1-1-.2Z"/><path class="cls-8" d="M68,42.8h.4l.5.2c.4,0,.5.2.7.5h.2a.6.6,0,0,1,.6,0c.3,0,.6.3,1,.2h0c-.3.3-.7.1-1,.1h-.5l-.3.2-.3-.2h0c0-.1-.1-.2-.2-.3h-.3a1.6,1.6,0,0,1-.9-.5Z"/><path class="cls-8" d="M60.4,38.6l.7.2h1a1,1,0,0,1,1,.6h.1l.3-.2a1.1,1.1,0,0,1,.8-.2c.5-.1,1.2.3,1.7.1h0c-.3.4-1,.2-1.6.3H64l-.3.2c-.1.1-.3.2-.4.4s-.3,0-.4-.2h-.1c-.1-.2-.2-.4-.5-.4h-.4a2.8,2.8,0,0,1-1.5-.6Z"/><path class="cls-8" d="M67,40.9a.3.3,0,0,1,.4,0h.4a.6.6,0,0,1,.6.1h.1c0-.1,0-.1.1-.2a.5.5,0,0,1,.4-.2c.2-.1.6,0,.8-.2h0c-.1.3-.5.3-.7.4h-.3c-.1.1-.2.2-.2.3h-.2c0-.1,0-.1-.1-.1s-.1-.1-.3-.1H67Z"/><path class="cls-8" d="M58.3,41h.8a.9.9,0,0,1,.5.3h.6c.3,0,.6.2.9.1h0c-.2.2-.5.1-.8.1H60a.1.1,0,0,0-.1.1.2.2,0,0,0-.2.2h-.2l-.3-.2h-.1a.1.1,0,0,0-.1-.1c-.3-.1-.6-.1-.7-.3Z"/><polygon class="cls-7" points="102.7 62.2 96.1 52.6 92.9 48.5 91.8 47 89.7 46.8 86.8 44.2 85 43.2 83.9 45.7 81.3 47.3 80.2 49.3 75.9 54.6 71 63.9 73.5 66.6 84.6 69.2 94 70.5 96.6 69.7 103.4 61.7 102.7 62.2"/><path class="cls-3" d="M98.6,58c-2.1-3.8-7.5-10.2-7.5-10.2l.4,1.4h-1v1.1l2.3,2,2,2.1,1.5,1.3-1.6-.3-2.9-3.4-1-.3-1.3-1.2V49l-2-1.8-2.3-2.7.2,1.5.5,1v1.2l-.9-2-.4,1.7L86,49.4l-.7-.3-.3.7,1.3,1.7,1.2,2.1-1.3-1.4-.9-.5v1.6l1.2,1.8.4,1.5.4,1.1-2.3-2.8-1.6-1.3-.4-1-.2-.6c0,3.2,0,6.4-.1,9.5h1.9l8.8,13.8,9.9-13.6C103.1,61.3,98.9,58.4,98.6,58Z"/><path class="cls-7" d="M89.7,67.1l-2.3-2.3-2.2-2.1-1.3-1.9-2.5-3.1L78,54.2l-.6,1.4-1.6,1.2L74,56.4l-2.4-2.6-1.1-1.3-1.7,1.9-1,2.4-1.3-.7L63.1,51l-1.4-1.1-1.3-2.6-1.3-1.9-1.4,2.8-2.8,5.1-4.2,4.6-2.1,2.8-2.5,3.7-2.9,2.1,1.8,4,9.3,6.6s14.3-.2,21.3-.6c4.4-.2,13.3-1.1,13.3-1.1l3.9-3.8-1.5-1.9Z"/><polygon class="cls-3" points="47.7 74.4 49.2 70.1 49.9 67.8 50.8 66 51.7 68 52.5 69.6 55.6 72.1 59.2 73.2 55.7 69.6 54.4 68.8 53.8 66 54.7 63.8 56.2 65.3 55.3 61.1 55.8 58.2 57.3 60.1 59.2 63.7 59.9 66.7 62.6 67.5 66.8 71 61.8 65.2 60.7 62.7 59.2 59.7 57.4 57.8 58.2 55.9 61.4 58.7 58.2 54.6 57 53.2 59.1 51.8 60.5 53.7 59.6 51.2 59.2 49.3 61.7 53.1 62.9 55 64.8 57.1 63.9 57.2 64 57.9 65.2 58.8 66.9 59.6 65.2 60.1 66.9 61.3 68.9 62.5 70 64.2 70.4 65.4 67.9 63.4 68.7 65.1 69.1 66.2 70.1 70.3 75.4 72.5 78.4 73.4 73 68 71.6 65.9 71.4 64.1 72.5 64.7 74.2 66.3 72.6 63.9 71 62 70.5 60.4 71.4 60.7 70.6 59 70.7 57.9 72.5 60.2 71.3 58 70.7 56.8 70.5 55.1 73.5 58.9 76.9 61.2 76.8 62.7 78.4 64.1 79.7 64.5 83.2 68.4 85.2 68.8 83.3 67.2 80.9 64.8 79 63.1 79.8 62.4 79.8 60.7 84.8 65.2 88.9 69.3 95.8 75.1 79.5 76.5 65.2 77.1 54.3 77.1 47.7 74.4"/><path class="cls-7" d="M79.8,80.8q.2.2.6,0l1.7-.5c.1-.1,0-.3,0-.4l-.3-.5a2.4,2.4,0,0,1,0-1.2,5.5,5.5,0,0,0-.2-1.2,9.6,9.6,0,0,0,2.8-1.1c0-.1.1-.2.1-.3h0a3.1,3.1,0,0,0,0-2l-2.2,1-1.7,1.1a1.8,1.8,0,0,0-.4.9c0,.4.6,2.4.6,2.7s-.4.6-.6.8-.6.4-.5.6Z"/><path class="cls-7" d="M81.6,81.1l-5.1-5,.4-.4,5,5.1Z"/><path class="cls-7" d="M85.7,80a.8.8,0,0,1-.2,1c-.2.2-.6.1-.8-.3a.6.6,0,0,1,.1-.9A.7.7,0,0,1,85.7,80Z"/><path class="cls-7" d="M75.6,81c0-.1.1-.1.1-.2l.8-4h0c.2-.1.3-.2.3-.4s0-.2-.2-.3l-.3.2h0c-.1.1-.3.2-.3.4l-.8,4c0,.2.1.3.2.3Z"/><path class="cls-7" d="M75.7,81.3c.1-.1.2-.1.2-.2l.8-4h0l.3-.4c0-.1-.1-.2-.2-.3l-.3.2h0a.3.3,0,0,0-.3.3l-.8,4c0,.2.1.3.2.3Z"/><path class="cls-7" d="M75.4,75.6l.6-.3.7-.3,1.6-.3,1.5-1a8.8,8.8,0,0,0,1.3-1.1l-1.3-1A8.5,8.5,0,0,1,78.7,73l-.8.9a4.9,4.9,0,0,1-1.6.6l-1.1.2a.5.5,0,0,0-.1.6A.3.3,0,0,0,75.4,75.6Z"/><path class="cls-7" d="M75.5,84.5a3.7,3.7,0,0,1-2.6-1.6,3.6,3.6,0,0,1,.5-5.1,3.2,3.2,0,0,1,2.3-.5,3.7,3.7,0,0,1,2.6,1.8h0a3.6,3.6,0,0,1-.6,4.9l-.5.3A3.2,3.2,0,0,1,75.5,84.5Zm2.1-5a2.8,2.8,0,0,0-2.1-1.4,2.2,2.2,0,0,0-1.6.3,2.9,2.9,0,0,0-.3,4.1,3.2,3.2,0,0,0,2.1,1.3,2.3,2.3,0,0,0,1.6-.4c1.1-.8,1.2-2.5.3-3.9Z"/><path class="cls-7" d="M76.4,80.4a1,1,0,0,1-.1,1.2.8.8,0,0,1-1.1-.3c-.3-.4-.3-.9.1-1.1A.7.7,0,0,1,76.4,80.4Z"/><path class="cls-7" d="M85.1,83.4A3.1,3.1,0,0,1,83,81.9a3.2,3.2,0,0,1,.5-4.4,2.1,2.1,0,0,1,1.7-.4,3.4,3.4,0,0,1,2.2,1.7h0c.8,1.5.6,3.4-.6,4.2l-.4.2A1.9,1.9,0,0,1,85.1,83.4Zm1.6-4.2A2.4,2.4,0,0,0,85,77.9a1.4,1.4,0,0,0-1.1.2c-.9.6-1,2.2-.3,3.4a2.8,2.8,0,0,0,1.7,1.2,1.4,1.4,0,0,0,1.1-.2,2.5,2.5,0,0,0,.3-3.3Z"/><path class="cls-7" d="M76.1,81c.1,0,.1-.1.2-.2l.7-3.9a.6.6,0,0,0-.1-.4h-.1L77,75a.8.8,0,0,0-.4-.7h-.4c-.1.2,0,.3.1.4s.2.2.2.3l-.2,1.3c0,.2.1.3.2.5h0l-.7,3.9c0,.1,0,.2.2.2Z"/><path class="cls-7" d="M85.3,80l-8.6-4.7c-.1,0-.2,0-.2.1s0,.1,0,.2l.4.2h-.2l5.2,4.9h-.1c-.1,0-.2.1-.1.1s0,.2.1.2l3.4-.7h.1c0-.1.1-.1.1-.2A.4.4,0,0,0,85.3,80Zm-3.3.8-3.4-3.5c-.1-.1.1-.3.2-.3L85,80.2Z"/><path class="cls-7" d="M81.9,81.6l.2-.2.3-3.1-.2-.2a.2.2,0,0,0-.2.2l-.4,3.1.2.2Z"/><path class="cls-7" d="M82.2,78.7h.1V76.9c.1-.1,0-.2-.1-.2h-.2v1.8a.1.1,0,0,0,.1.1Z"/><path class="cls-7" d="M75.1,75.4v-.2c.3-.3.7-.7.9-.7s.5-.3.5-.4a7.7,7.7,0,0,1,1.6-1.6h.3a.4.4,0,0,1-.1.3l-1.4,1.3a1.4,1.4,0,0,1-.9.8,1.2,1.2,0,0,0-.6.5h-.3Zm1.8-1.3Z"/><path class="cls-7" d="M77.8,69.5l.4.3h.2a.1.1,0,0,1,.1.1h.2c.2,0,.3.3.3.4a1,1,0,0,1-.1.3h0l.2.5h0l.2.2.6-.2c.2-.3,1-1,1-1.3a3.4,3.4,0,0,0-.5-1.4.8.8,0,0,0-.7-.2h-.5a.7.7,0,0,0-.6.4C77.7,69,77.7,69.3,77.8,69.5Z"/><path class="cls-7" d="M78.2,69.8h.2a.1.1,0,0,1,.1.1h.2c.2,0,.3.3.3.4a1,1,0,0,1-.1.3h0a1.4,1.4,0,0,0,1-.5c.4-.5.2-.8.2-.8l-.2.2c0-.1-.3-.1-.3-.3V69h-.1a2.5,2.5,0,0,0-1.1.4C78.1,69.4,78.2,69.6,78.2,69.8Z"/><path class="cls-7" d="M79.3,71.9l1.5,1.2a15.1,15.1,0,0,1,1.2,2h.5c.5,0,.9-.7,1.2-.8a1,1,0,0,0,.8-.6c.2-.2.3-.4.2-.5a17,17,0,0,0-1.8-1.9l-1.1-1H80.5l-1.5.8Z"/><path class="cls-7" d="M79.7,70.2a1,1,0,0,1-.8.4,1,1,0,0,0,.1-.3c0-.1-.1-.4-.3-.4h-.2q-.1-.1,0-.6c.2-.2.8-.3.9-.1s0,.4.2.5S79.9,69.9,79.7,70.2Z"/><path class="cls-7" d="M83,77.1a1.1,1.1,0,0,1-.8,0l-.8-.3c-.2-.1-.5-.3-.2-.3h1c.5,0,1-.1,1,.1S83.2,77,83,77.1Z"/><path class="cls-7" d="M83.3,81.4a3.7,3.7,0,0,1-.5,1.1h-.1c0,.1,0,.2.1.2s.9-.5,1.4-.9.4-.2.3-.3-.3-.4-.4-.7l-.5-1.3a5.9,5.9,0,0,0-.6-1.2s2-2.7,2.2-3.1a1.1,1.1,0,0,0,0-1.4l-.5-.8-.3.2-1.4,1-.4.5a7.6,7.6,0,0,0-1,3.7C81.8,79,83.3,81.2,83.3,81.4Z"/><path class="cls-7" d="M82.6,80.7a1.1,1.1,0,0,1-.2,1.2.9.9,0,0,1-1.1-.4.9.9,0,0,1,.2-1.1A.8.8,0,0,1,82.6,80.7Z"/><path class="cls-7" d="M82.4,80.8a.8.8,0,0,1-.2,1,.6.6,0,0,1-.9-.3.8.8,0,0,1,.1-1A.7.7,0,0,1,82.4,80.8Z"/><path class="cls-7" d="M79.1,71.2h0l.2.2.6-.2c.2-.3,1-1,1-1.3a3.4,3.4,0,0,0-.5-1.4.8.8,0,0,0-.7-.2l-.5.2h.4a.9.9,0,0,1,.7.3h.2a1.2,1.2,0,0,1,.1.5,2.9,2.9,0,0,1-.4.8l.4-.4a1.3,1.3,0,0,1-.6.7Z"/><path class="cls-7" d="M77.7,73.5c.1.1.6-.2.6-.3s.2-.4.3-.4l1.7-.2c.3-.1.6-.2.7-.5s-.3-.5-.5-.6h-.3l-1.1.5c-.5.2-1.4.4-1.6.7s-.1.1-.1.2v.3C77.5,73.3,77.5,73.5,77.7,73.5Z"/><path class="cls-7" d="M77.4,72.9l.3-.2.6-.2h.4l1-.5h.6c0-.1,0-.1-.1-.2l-1.1.5c-.5.2-1.4.4-1.6.7S77.4,72.8,77.4,72.9Z"/><path class="cls-7" d="M80.4,71.3s.7.1.9.4.2.4,0,.6l-1.2.2h-.4l.8-.3.4-.4v.3s.4-.2.3-.4S80.4,71.3,80.4,71.3Z"/><path class="cls-7" d="M80.2,71.5s.4,0,.5.2a.5.5,0,0,0-.4,0C80.2,71.7,80.2,71.5,80.2,71.5Z"/><path class="cls-7" d="M76.9,74.5a5.8,5.8,0,0,0,1.3-.4,1.1,1.1,0,0,0,.5-.4,1,1,0,0,1-.6.3Z"/><polygon class="cls-7" points="96.4 76.6 97.9 76.7 95.8 74 96.8 74.3 95.6 71.9 96.7 72.5 95.2 69.5 96.1 69.9 95 67.7 95.7 67.9 94.2 65.2 92.8 67.9 93.5 67.7 92.4 69.9 93.3 69.5 91.8 72.5 92.9 71.9 91.6 74.3 92.7 74 90.6 76.7 92.1 76.6 89.6 81 94.2 81 98.9 81 96.4 76.6"/><polygon class="cls-7" points="59.7 81.2 61.6 81.3 58.9 77.8 60.3 78.2 58.6 75.1 60 75.9 58.1 72 59.3 72.4 57.9 69.7 58.8 70 56.9 66.4 55 70 55.9 69.7 54.5 72.4 55.7 72 53.8 75.9 55.2 75.1 53.5 78.2 54.9 77.8 52.2 81.3 54.1 81.2 50.9 86.8 56.9 86.8 62.9 86.8 59.7 81.2"/></svg>