<svg id="Layer_1" data-name="Layer 1" xmlns="http://www.w3.org/2000/svg" xmlns:xlink="http://www.w3.org/1999/xlink" viewBox="0 0 197.8 195.4"><defs><style>.cls-1{fill:none;}.cls-2{fill:#fff;}.cls-3{fill:#f7b889;}.cls-4{fill:#1f0c08;}.cls-5{fill:#f9bc7d;}.cls-6{clip-path:url(#clip-path);}.cls-7{fill:#311910;}</style><clipPath id="clip-path"><path class="cls-1" d="M102.2,67.8c-.8,4.7-6.3,31.5-29.9,54.8,0,0-26-27-29.8-53.7l-.3-3.3v-1c0-17.2,13.8-31.4,30.7-31a30.2,30.2,0,0,1,29.5,30.5v3.7Z"/></clipPath></defs><title>Logoalb</title><path class="cls-2" d="M46.4,156.7c-.1,0-.1-.1-.1-.2v-3.1l7-13.3H46.5v-3H57.1v3.1l-6.9,13.2H57c.1,0,.1.1.1.2v3l-.2.2Z"/><path class="cls-2" d="M60.4,156.7V137h9.4v3.2c0,.1,0,.1-.1.1H63.8v4.4h5.8a.1.1,0,0,1,.1.1v3.3H63.8v5h5.8c.1,0,.1,0,.1.1v3.2c0,.1,0,.2-.1.2Z"/><path class="cls-2" d="M73.7,156.7V137h5.9a5.5,5.5,0,0,1,2.8.7,6.7,6.7,0,0,1,2.1,2,5.7,5.7,0,0,1,.7,2.9,5.8,5.8,0,0,1-.3,1.9,6.1,6.1,0,0,1-.7,1.4l-.8.9a5.7,5.7,0,0,1,1.5,4v5.8l-.2.2H81.5v-5.9a2.9,2.9,0,0,0-.7-1.8,2.4,2.4,0,0,0-1.8-.7H77.1v8.5Zm3.4-12h2.5a2.2,2.2,0,0,0,1.5-.6,2.2,2.2,0,0,0,0-3.2,2,2,0,0,0-1.5-.6H77.1Z"/><path class="cls-2" d="M93.8,156.9a5.5,5.5,0,0,1-2.8-.7,8,8,0,0,1-2-2.1,5.7,5.7,0,0,1-.8-2.9v-9a5.5,5.5,0,0,1,2.8-4.9,5,5,0,0,1,2.7-.8,5.1,5.1,0,0,1,2.8.8,5.1,5.1,0,0,1,2,2.1,5.4,5.4,0,0,1,.8,2.8v9a5.7,5.7,0,0,1-.7,2.9,7,7,0,0,1-2.1,2.1A5.1,5.1,0,0,1,93.8,156.9Zm0-3.4a1.8,1.8,0,0,0,1.5-.7,2.1,2.1,0,0,0,.7-1.6v-9a2.8,2.8,0,0,0-.5-1.6,2.1,2.1,0,0,0-1.6-.6,2.4,2.4,0,0,0-1.5.6,2.3,2.3,0,0,0-.6,1.6v9a2.1,2.1,0,0,0,.6,1.6A2.1,2.1,0,0,0,93.8,153.5Z"/><path class="cls-2" d="M103.1,156.7c-.1,0-.1-.1-.1-.2V137h5.6a5.6,5.6,0,0,1,4.1,1.5,6.2,6.2,0,0,1,1.5,4.4,7.8,7.8,0,0,1-.7,3.5,6.4,6.4,0,0,1-2.1,2.2,4.8,4.8,0,0,1-2.8.8h-2.2v7.2c0,.1,0,.2-.1.2Zm3.3-10.8h2.2a2.1,2.1,0,0,0,1.6-.9,3.6,3.6,0,0,0,.6-2.2,2.9,2.9,0,0,0-.6-1.9,2.2,2.2,0,0,0-1.6-.7h-2.2Z"/><path class="cls-2" d="M122.3,156.9a5.3,5.3,0,0,1-2.8-.7,8,8,0,0,1-2-2.1,5.7,5.7,0,0,1-.8-2.9v-9a5.4,5.4,0,0,1,.8-2.8,5.8,5.8,0,0,1,2-2.1,5.7,5.7,0,0,1,2.8-.8,5.4,5.4,0,0,1,2.8.8,5.8,5.8,0,0,1,2,2.1,5.4,5.4,0,0,1,.8,2.8v9a5.7,5.7,0,0,1-.8,2.9,6.6,6.6,0,0,1-2,2.1A5.3,5.3,0,0,1,122.3,156.9Zm0-3.4a1.8,1.8,0,0,0,1.5-.7,2.5,2.5,0,0,0,.6-1.6v-9a2.3,2.3,0,0,0-.6-1.6,2.2,2.2,0,0,0-3,0,2.3,2.3,0,0,0-.6,1.6v9a2.1,2.1,0,0,0,.6,1.6A1.8,1.8,0,0,0,122.3,153.5Z"/><path class="cls-2" d="M131.6,156.7l-.2-.2V137h3.5v19.7Z"/><path class="cls-2" d="M139,156.7l-.2-.2V137.1c0-.2,0-.2.2-.2h2.5l4.9,11.2-.2-11c0-.2.1-.2.3-.2h2.8c.1,0,.2,0,.2.2v19.4l-.2.2h-2.5l-4.9-10.5.2,10.2c0,.2-.1.3-.2.3Z"/><path class="cls-2" d="M156.2,156.7c-.1,0-.1-.1-.1-.2V140.3h-3.9V137h11.1v3.2a.1.1,0,0,1-.1.1h-3.7v16.2c0,.1,0,.2-.1.2Z"/><path class="cls-2" d="M164.4,131.2H44.4a1.5,1.5,0,0,1-1.5-1.5,1.5,1.5,0,0,1,1.5-1.5H69.5c31.1-29.6,34.6-61.8,34.6-62.1a1.6,1.6,0,0,1,1.5-1.4,1.5,1.5,0,0,1,1.6,1.3c0,.3,5,30.3,35.3,62.2h21.9a1.5,1.5,0,0,1,1.5,1.5A1.5,1.5,0,0,1,164.4,131.2Zm-90.5-3h64.3c-20.9-22.8-29.2-44-32.3-54.6C103.2,84.6,95.4,106.7,73.9,128.2Z"/><path class="cls-2" d="M72.3,129.6c31.4-32.8,33.2-63.3,33.2-63.3s4.3,30.5,35.8,63.3H66.8"/><path class="cls-2" d="M105.5,67.7c-.9,5.1-7,34.4-33.2,59.9,0,0-28.9-29.4-33.2-58.7l-.3-3.7V64.1c0-18.8,15.4-34.3,34.2-33.9a33.5,33.5,0,0,1,32.8,33.5v2.5Z"/><path class="cls-3" d="M101.8,86.3l4-12.4s8.9,28,32.6,54.3H127.8S114.7,114.2,101.8,86.3Z"/><path class="cls-4" d="M105.2,75.8l.6-1.9s8.9,28,32.6,54.3h-1.2S118.1,107.9,105.2,75.8Z"/><path class="cls-5" d="M104.3,98.8l-4.1-9.2S93.5,108.1,74,128.2l9.9.2S93,119.6,104.3,98.8Z"/><path class="cls-4" d="M100.8,90.9l-.6-1.3S93.5,108.1,74,128.2h1.2S89.9,115,100.8,90.9Z"/><path class="cls-3" d="M102.2,67.5c-.8,4.7-6.3,31.5-29.9,54.8,0,0-26-26.9-29.8-53.6l-.3-3.4v-1c0-17.2,13.8-31.3,30.7-31s29.5,13.9,29.5,30.6v3.6Z"/><g class="cls-6"><path class="cls-4" d="M9.4,96.2l9.9-4.5,9-3.1,12.2-2.5L48.9,89l6.2-1.2,14.1-.6,11.1-2.5,8-.5,5.6-3.4,6.5-1.4,9.8.8,8.3-3.4,11.3-1.3,7.3-3.2L155.2,77c6.9,1.8,5.3,11,5.3,11l-3.9,37.3L84.1,144.1l-46.2-.3H16L2.6,121.3l.8-9.3-1.3-5.4Z"/></g><path class="cls-7" d="M70.1,42.6c.3,0,.5.2.8.3l1.1.3a1.2,1.2,0,0,1,1.2.8h.1a.5.5,0,0,1,.4-.3,1.4,1.4,0,0,1,1.1-.1c.6,0,1.4.6,2,.4h0c-.5.5-1.3.1-1.9.2h-.7l-.3.2-.6.4c-.2,0-.4-.1-.4-.3h-.1a1.2,1.2,0,0,0-.5-.7h-.6c-.6-.3-1.3-.4-1.7-1Z"/><path class="cls-7" d="M77.8,46.5c.1-.1.3,0,.4,0h.6l.7.2h0a.2.2,0,0,0,.2-.2l.5-.2c.4,0,.8.2,1.1,0h0c-.2.3-.6.2-1,.3h-.2c-.1.1-.2.1-.2.2a.2.2,0,0,0-.2.2c-.1.1-.2,0-.3,0h0a.5.5,0,0,0-.4-.2h-.3a1.3,1.3,0,0,1-.9-.2Z"/><path class="cls-7" d="M67,45.2h.4l.6.2a.7.7,0,0,1,.6.4h.8c.3,0,.7.3,1,.2h0c-.3.3-.7.1-1,.1h-.8c-.1.1-.2,0-.2-.1h-.1c0-.1-.1-.2-.2-.3h-.3c-.3-.1-.7-.2-.8-.5Z"/><path class="cls-7" d="M59.5,41h1.6a1.3,1.3,0,0,1,1.1.6h0l.3-.2a1.5,1.5,0,0,1,.9-.2c.5-.1,1.1.3,1.6.1h0c-.3.4-1,.2-1.5.3H63l-.3.2-.4.4a.4.4,0,0,1-.4-.2h0c-.2-.2-.3-.4-.5-.4h-.5a2.2,2.2,0,0,1-1.4-.6Z"/><path class="cls-7" d="M66,43.3h.9a.7.7,0,0,1,.6.1h0c0-.1.1-.1.1-.2l.4-.2c.2-.1.6,0,.8-.2h0c-.1.3-.4.3-.7.4a.1.1,0,0,0-.1.1h-.2l-.2.3h-.2c-.1-.1-.2-.2-.3-.1H66Z"/><path class="cls-7" d="M57.3,43.4h.8a.6.6,0,0,1,.5.3h.7c.2,0,.6.2.8.1h0c-.2.2-.5.1-.8.1h-.4c-.1,0-.1.1-.2.2h-.2c-.1-.1-.1-.2-.3-.2H58c-.3-.1-.5-.1-.7-.3Z"/><polygon class="cls-4" points="101.7 64.6 95.1 55 92 50.9 90.8 49.4 88.7 49.2 85.9 46.6 84.1 45.6 82.9 48.1 80.3 49.7 79.3 51.7 74.9 57 70 66.3 72.6 69 83.7 71.6 93 72.8 95.7 72.1 102.4 64.1 101.7 64.6"/><path class="cls-3" d="M97.6,60.4c-2.1-3.8-7.5-10.2-7.5-10.2l.5,1.4H89.5v1.1l2.4,2,1.9,2.1L95.4,58l-1.5-.3L91,54.3,90,54l-1.4-1.2V51.4l-2-1.8-2.2-2.7.2,1.5.5,1v1.2l-.9-2-.4,1.7L85,51.8l-.7-.3-.3.7,1.3,1.7L86.5,56l-1.3-1.4-.9-.5v1.6l1.2,1.8L86,59l.4,1.1-2.3-2.8L82.5,56l-.4-1-.2-.6c0,3.2.1,6.4,0,9.5h1.8l8.8,13.8,9.9-13.6C102.1,63.7,97.9,60.8,97.6,60.4Z"/><path class="cls-4" d="M88.7,69.5l-2.3-2.3-2.1-2.1-1.4-1.9-2.5-3.1L77,56.6,76.4,58l-1.5,1.2L73,58.8l-2.4-2.6-1.1-1.3-1.7,1.9-1,2.4-1.3-.7-3.4-5.1-1.4-1.1-1.2-2.6-1.4-1.9-1.4,2.8L54,55.7l-4.2,4.5-2.2,2.9-2.5,3.7-2.8,2.1L44,72.8l9.3,6.7s14.4-.2,21.3-.6c4.4-.2,13.3-1.1,13.3-1.1l4-3.8-1.6-1.9Z"/><polygon class="cls-3" points="46.7 76.8 48.3 72.5 48.9 70.2 49.9 68.4 50.7 70.4 51.5 72 54.6 74.5 58.2 75.6 54.7 72 53.4 71.2 52.8 68.4 53.7 66.2 55.2 67.7 54.3 63.5 54.8 60.6 56.4 62.5 58.3 66.1 58.9 69.1 61.6 69.9 65.9 73.4 60.8 67.6 59.7 65.1 58.2 62.1 56.4 60.2 57.2 58.3 60.4 61.1 57.2 57 56 55.6 58.1 54.2 59.5 56.1 58.6 53.6 58.3 51.7 60.7 55.5 61.9 57.4 63.8 59.5 62.9 59.6 63 60.3 64.2 61.2 66 62 64.2 62.5 66 63.7 67.9 64.9 69 66.6 69.4 67.8 66.9 65.8 67.7 67.5 68.2 68.6 69.1 72.7 74.4 74.9 77.4 75.8 72 70.4 70.6 68.3 70.5 66.5 71.5 67.1 73.2 68.7 71.6 66.3 70 64.4 69.6 62.8 70.4 63.1 69.6 61.4 69.7 60.3 71.6 62.6 70.3 60.4 69.7 59.2 69.5 57.5 72.6 61.3 75.9 63.6 75.8 65.1 77.5 66.5 78.7 66.9 82.3 70.8 84.2 71.2 82.3 69.6 79.9 67.2 78 65.5 78.8 64.8 78.8 63.1 83.8 67.6 87.9 71.7 94.8 77.5 78.5 78.9 64.2 79.5 53.3 79.5 46.7 76.8"/><path class="cls-4" d="M78.8,83.2h.7l1.6-.6c.1,0,.1-.2,0-.4l-.3-.4a2.4,2.4,0,0,1,0-1.2,2.5,2.5,0,0,0-.2-1.2,8.6,8.6,0,0,0,2.8-1.1l.2-.3h0a4.1,4.1,0,0,0,0-2l-2.2,1-1.8,1.1a3.6,3.6,0,0,0-.4.9c0,.4.6,2.4.6,2.7s-.3.6-.6.8-.6.4-.5.6Z"/><path class="cls-4" d="M80.6,83.5l-5-5,.3-.4,5,5Z"/><path class="cls-4" d="M84.7,82.4a.9.9,0,0,1-.1,1,.7.7,0,0,1-.9-.3.7.7,0,0,1,.1-.9A.7.7,0,0,1,84.7,82.4Z"/><path class="cls-4" d="M74.6,83.4v-.2l.8-4h0c.2-.1.3-.2.3-.4a.2.2,0,0,0-.1-.3c-.2,0-.3.1-.3.2h-.1l-.3.4-.7,4c-.1.2,0,.3.1.3Z"/><path class="cls-4" d="M74.7,83.7l.2-.2.8-4h0c.2-.1.3-.2.3-.4s0-.2-.2-.3l-.3.2h0a.5.5,0,0,0-.3.4l-.8,4c0,.2.1.3.2.3Z"/><path class="cls-4" d="M74.4,78l.6-.3.8-.3,1.6-.3,1.4-1A8.8,8.8,0,0,0,80.1,75l-1.3-1a8.5,8.5,0,0,1-1.1,1.4l-.8.9a5.2,5.2,0,0,1-1.5.6l-1.1.2c-.2.1-.2.5-.2.6A.3.3,0,0,0,74.4,78Z"/><path class="cls-4" d="M74.5,86.9a3.9,3.9,0,0,1-2.6-1.6,3.7,3.7,0,0,1,.5-5.1,3.2,3.2,0,0,1,2.3-.5,3.7,3.7,0,0,1,2.6,1.8h0a3.4,3.4,0,0,1-.6,4.9l-.5.3A3.2,3.2,0,0,1,74.5,86.9Zm2.2-5a3,3,0,0,0-2.1-1.4,2.5,2.5,0,0,0-1.7.3,2.9,2.9,0,0,0-.3,4.1,3.2,3.2,0,0,0,2.1,1.3,2.3,2.3,0,0,0,1.6-.4,2.9,2.9,0,0,0,.4-3.9Z"/><path class="cls-4" d="M75.4,82.8a.9.9,0,0,1-.1,1.2.8.8,0,0,1-1.1-.3.8.8,0,0,1,.1-1.1A.7.7,0,0,1,75.4,82.8Z"/><path class="cls-4" d="M84.2,85.8A3.1,3.1,0,0,1,82,84.3a3.2,3.2,0,0,1,.5-4.4,2.1,2.1,0,0,1,1.7-.4,3.4,3.4,0,0,1,2.2,1.7h0a3.2,3.2,0,0,1-.6,4.2l-.4.2A1.7,1.7,0,0,1,84.2,85.8Zm1.6-4.2A2.8,2.8,0,0,0,84,80.3a1.4,1.4,0,0,0-1.1.2c-.9.6-1,2.2-.3,3.4a3.2,3.2,0,0,0,1.7,1.2,1.4,1.4,0,0,0,1.1-.2,2.7,2.7,0,0,0,.4-3.3Z"/><path class="cls-4" d="M75.1,83.4a.2.2,0,0,0,.2-.2l.7-3.9a.6.6,0,0,0-.1-.4h0V77.4a.9.9,0,0,0-.4-.8h-.4c0,.2,0,.3.1.4s.2.2.2.3v1.3c-.1.2,0,.3.1.5h0l-.7,3.8c0,.2.1.3.2.3Z"/><path class="cls-4" d="M84.3,82.4l-8.6-4.7c-.1-.1-.2,0-.2.1a.3.3,0,0,0,.1.2l.3.2h-.1L81,83.2h-.2a.1.1,0,0,0-.1.1v.2l3.4-.7h.1v-.2C84.5,82.6,84.4,82.5,84.3,82.4Zm-3.3.8c.1,0-2.1-2.3-3.3-3.5s0-.4.2-.3L84,82.6Z"/><path class="cls-4" d="M80.9,84a.2.2,0,0,0,.2-.2l.3-3.1c.1-.1,0-.2-.2-.2a.2.2,0,0,0-.2.2l-.4,3.1a.2.2,0,0,0,.2.2Z"/><path class="cls-4" d="M81.2,81.1h.1l.2-1.7a.2.2,0,0,0-.2-.2.1.1,0,0,0-.1.1L81,80.9l.2.2Z"/><path class="cls-4" d="M74.2,77.8c-.1-.1-.1-.2,0-.2s.6-.7.8-.7l.6-.4c0-.3.9-1,1.6-1.6h.2c.1.1,0,.2,0,.3a13.4,13.4,0,0,0-1.5,1.3c-.1.4-.6.7-.8.8l-.7.5h-.1C74.3,77.9,74.2,77.9,74.2,77.8Zm1.7-1.3Z"/><path class="cls-4" d="M76.8,71.9l.4.2h.5c.2,0,.4.3.4.4l-.2.3H78v.5h0l.2.2a1,1,0,0,0,.6-.2c.2-.3,1-1,1.1-1.3a3.5,3.5,0,0,0-.6-1.4.6.6,0,0,0-.7-.2h-.5a.7.7,0,0,0-.6.4C76.7,71.4,76.7,71.6,76.8,71.9Z"/><path class="cls-4" d="M77.2,72.1h.5c.2,0,.4.3.4.4l-.2.3H78a1.9,1.9,0,0,0,1-.5.8.8,0,0,0,.1-.8V72c-.1-.1-.3-.1-.4-.3a1,1,0,0,0-.1-.3h-.1l-1.1.4A.5.5,0,0,0,77.2,72.1Z"/><path class="cls-4" d="M78.3,74.3l1.5,1.2a15.1,15.1,0,0,1,1.2,2h.6c.4,0,.9-.7,1.2-.8a1.4,1.4,0,0,0,.8-.6c.1-.2.2-.4.1-.5a11.1,11.1,0,0,0-1.8-1.9l-1-1-1.2-.2h-.2l-1.5.8Z"/><path class="cls-4" d="M78.7,72.6a1,1,0,0,1-.8.4l.2-.3c0-.1-.2-.4-.4-.4h-.1c-.2-.1-.2-.3-.1-.6s.8-.3.9-.1,0,.4.2.5S78.9,72.3,78.7,72.6Z"/><path class="cls-4" d="M82.1,79.5h-.9l-.8-.3c-.2-.1-.4-.3-.2-.3h1c.6,0,1.1-.1,1.1.1S82.3,79.4,82.1,79.5Z"/><path class="cls-4" d="M82.4,83.8a4.4,4.4,0,0,1-.6,1c0,.1-.1.1-.1.2s0,.2.1.2l1.4-.9q.5-.1.3-.3l-.4-.7L82.6,82a10.6,10.6,0,0,0-.5-1.2l2.2-3.1a1.4,1.4,0,0,0,0-1.4,4.5,4.5,0,0,0-.6-.8l-.3.2-1.4,1-.4.5a7.6,7.6,0,0,0-1,3.7C80.8,81.4,82.4,83.6,82.4,83.8Z"/><path class="cls-4" d="M81.6,83.1a1.1,1.1,0,0,1-.2,1.2.8.8,0,0,1-1-.4.8.8,0,0,1,.1-1.1A.8.8,0,0,1,81.6,83.1Z"/><path class="cls-4" d="M81.4,83.2a.8.8,0,0,1-.2,1,.6.6,0,0,1-.9-.3.8.8,0,0,1,.2-1A.6.6,0,0,1,81.4,83.2Z"/><path class="cls-4" d="M78.1,73.6h0l.2.2a1,1,0,0,0,.6-.2c.2-.3,1-1,1.1-1.3a3.5,3.5,0,0,0-.6-1.4.6.6,0,0,0-.7-.2l-.5.2a2.6,2.6,0,0,1,.9,0h-.4a.9.9,0,0,1,.7.3h.1a.5.5,0,0,1,.1.5,2.9,2.9,0,0,1-.4.8l.5-.4a1.9,1.9,0,0,1-.7.7A2.8,2.8,0,0,1,78.1,73.6Z"/><path class="cls-4" d="M76.7,75.9c.1.1.6-.2.7-.3s.1-.4.2-.4l1.7-.2c.3-.1.6-.2.7-.5s-.3-.5-.5-.6h-.3l-1.1.5a7.7,7.7,0,0,0-1.6.7v.2a.4.4,0,0,0,.1.3C76.5,75.7,76.5,75.9,76.7,75.9Z"/><path class="cls-4" d="M76.4,75.3l.3-.2a1.2,1.2,0,0,1,.7-.2h.3l1-.5h.7l-.2-.2-1.1.5a7.7,7.7,0,0,0-1.6.7Z"/><path class="cls-4" d="M79.4,73.7a2.2,2.2,0,0,1,1,.4c.2.2.1.4-.1.6l-1.1.2h-.5l.9-.3.4-.4a.5.5,0,0,1-.1.3s.4-.2.4-.4S79.4,73.7,79.4,73.7Z"/><path class="cls-4" d="M79.2,73.9s.5,0,.5.2h-.3A.2.2,0,0,1,79.2,73.9Z"/><path class="cls-4" d="M75.9,76.9a6.3,6.3,0,0,0,1.4-.4l.4-.4a1,1,0,0,1-.6.3Z"/><polygon class="cls-4" points="95.4 79 96.9 79.1 94.8 76.4 95.9 76.7 94.6 74.3 95.7 74.9 94.2 71.9 95.2 72.3 94 70.1 94.7 70.3 93.3 67.5 91.8 70.3 92.5 70.1 91.4 72.3 92.4 71.9 90.8 74.9 91.9 74.3 90.7 76.7 91.7 76.4 89.6 79.1 91.1 79 88.6 83.4 93.3 83.4 97.9 83.4 95.4 79"/><polygon class="cls-4" points="58.7 83.6 60.6 83.7 57.9 80.2 59.3 80.6 57.6 77.5 59.1 78.3 57.1 74.4 58.4 74.8 56.9 72.1 57.8 72.4 55.9 68.8 54 72.4 54.9 72.1 53.5 74.8 54.8 74.4 52.8 78.3 54.2 77.5 52.6 80.6 54 80.2 51.2 83.7 53.1 83.6 49.9 89.2 55.9 89.2 61.9 89.2 58.7 83.6"/></svg>