<svg width="117" height="114" viewBox="0 0 117 114" fill="none" xmlns="http://www.w3.org/2000/svg">
<path d="M28.0498 89.4682C57.0885 62.1354 60.0553 32.375 60.0553 32.375C60.0553 32.375 64.2807 59.9776 92.5103 89.4682M92.5103 89.4682H5.03467M92.5103 89.4682H115.318" stroke="white" stroke-width="3.08" stroke-linecap="round" stroke-linejoin="round"/>
<path d="M30.0276 89.3773C58.3471 59.8866 59.9653 32.4639 59.9653 32.4639C59.9653 32.4639 63.8312 59.8866 92.0607 89.3773H25.1729" fill="#0E0E0E"/>
<path d="M59.9653 33.7233C59.1562 38.3087 53.6721 64.6525 30.1175 87.5798C30.1175 87.5798 4.04565 61.146 0.179817 34.8022L0 31.4755V30.4865C0 13.5833 13.7552 -0.352834 30.6569 0.00680843C38.535 0.171475 46.0348 3.41736 51.5476 9.04822C57.0603 14.6791 60.1468 22.2464 60.1451 30.1269V33.7233H59.9653Z" fill="white"/>
<path d="M56.5488 50.4468L60.1449 39.2979C60.1449 39.2979 68.1463 64.4728 89.4533 88.1193H79.9236C79.9236 88.1193 68.2362 75.5319 56.5488 50.4468Z" fill="#F8B98B"/>
<path d="M59.606 41.0062L60.1454 39.2979C60.1454 39.2979 68.1467 64.4728 89.4537 88.1193H88.3749C88.3749 88.1193 71.2034 69.8675 59.606 41.0062Z" fill="#200C09"/>
<path d="M58.8866 61.6849L55.1107 53.4131C55.1107 53.4131 49.0872 70.0466 31.646 88.1186L40.4565 88.2984C40.4565 88.2984 48.7276 80.3863 58.8866 61.6849Z" fill="#FABD7E"/>
<path d="M55.6501 54.5819L55.1107 53.4131C55.1107 53.4131 49.0872 70.0466 31.646 88.1186H32.6349C32.6349 88.1186 45.8507 76.2504 55.6501 54.5819Z" fill="#200C09"/>
<path d="M7.10212 113.114C7.01221 113.114 7.01221 113.024 7.01221 112.934V110.147L13.3054 98.1886H7.37183C7.28192 98.1886 7.28192 98.1886 7.28192 98.0987V95.4014H16.7217V98.1886L10.5184 110.147H16.8116V112.844C16.8116 112.892 16.7927 112.937 16.759 112.971C16.7253 113.005 16.6795 113.024 16.6318 113.024L7.10212 113.114Z" fill="white"/>
<path d="M19.7784 113.114C19.7307 113.114 19.685 113.095 19.6513 113.061C19.6176 113.027 19.5986 112.982 19.5986 112.934V95.4014H27.9596V98.2785C27.9596 98.3684 27.9596 98.3684 27.8697 98.3684H22.6553V102.414H27.8697C27.9596 102.414 27.9596 102.414 27.9596 102.504V105.381H22.5654V109.877H27.8697C27.8936 109.877 27.9164 109.886 27.9333 109.903C27.9501 109.92 27.9596 109.943 27.9596 109.967V112.934H19.5986L19.7784 113.114Z" fill="white"/>
<path d="M31.7359 113.114C31.646 113.114 31.646 113.024 31.646 112.934V95.4013H36.9503C37.8435 95.3838 38.7247 95.6087 39.5004 96.0519C40.276 96.4952 40.9171 97.1404 41.3555 97.9188C41.7512 98.5422 41.9906 99.2519 42.0532 99.9876C42.1158 100.723 41.9998 101.463 41.7151 102.145C41.5788 102.597 41.366 103.023 41.0858 103.403C40.8932 103.712 40.65 103.985 40.3666 104.213C40.836 104.684 41.2054 105.246 41.4526 105.864C41.6997 106.482 41.8196 107.144 41.805 107.809V113.024C41.7993 113.093 41.7671 113.158 41.7151 113.204H38.6584V107.899C38.6711 107.6 38.6217 107.302 38.5133 107.024C38.4048 106.745 38.2397 106.493 38.0284 106.281C37.8171 106.07 37.5642 105.905 37.2858 105.796C37.0073 105.688 36.7094 105.638 36.4108 105.651H34.7027V113.114C34.7027 113.204 34.7027 113.294 34.6128 113.294L31.7359 113.114ZM34.7027 102.414H36.9503C37.488 102.377 37.9961 102.154 38.3887 101.785C38.7466 101.393 38.9397 100.877 38.9281 100.346C38.937 100.096 38.8935 99.8474 38.8007 99.6152C38.7078 99.383 38.5675 99.1727 38.3887 98.9978C38.2081 98.7958 37.9862 98.635 37.738 98.5264C37.4898 98.4178 37.2211 98.3639 36.9503 98.3684H34.7027V102.414Z" fill="white"/>
<path d="M49.8061 113.384C48.917 113.379 48.0462 113.131 47.2888 112.665C46.5112 112.204 45.862 111.554 45.4008 110.777C44.9622 110.012 44.7444 109.14 44.7715 108.259V100.077C44.7324 99.1824 44.9847 98.2989 45.4908 97.5598C45.8948 96.7697 46.5194 96.1138 47.2888 95.6717C48.0535 95.233 48.9249 95.0152 49.8061 95.0423C50.6862 95.0242 51.5553 95.2415 52.3234 95.6717C53.0729 96.1386 53.6916 96.7883 54.1214 97.5598C54.5601 98.3246 54.7779 99.1961 54.7508 100.077V108.259C54.7461 109.148 54.4973 110.019 54.0315 110.777C53.6017 111.548 52.983 112.198 52.2335 112.665C51.4972 113.104 50.6626 113.351 49.8061 113.384ZM49.8061 110.237C50.0618 110.229 50.3132 110.169 50.545 110.061C50.7768 109.953 50.9842 109.799 51.1546 109.608C51.499 109.243 51.6918 108.761 51.6941 108.259V100.077C51.6888 99.5493 51.4978 99.04 51.1546 98.6387C50.7885 98.2974 50.3066 98.1077 49.8061 98.1077C49.3056 98.1077 48.8237 98.2974 48.4575 98.6387C48.0882 99.0313 47.8659 99.5396 47.8282 100.077V108.259C47.8659 108.797 48.0882 109.305 48.4575 109.698C48.6324 109.877 48.8427 110.017 49.0749 110.11C49.3071 110.203 49.5562 110.246 49.8061 110.237Z" fill="white"/>
<path d="M58.0772 113.114C57.9873 113.114 57.9873 113.024 57.9873 112.934V95.4016H63.0219C63.7171 95.3619 64.4128 95.4696 65.0635 95.7175C65.7142 95.9654 66.3052 96.348 66.7978 96.8401C67.2675 97.363 67.6286 97.9741 67.8601 98.6378C68.0916 99.3015 68.1889 100.005 68.1464 100.706C68.1546 101.797 67.9083 102.874 67.4271 103.853C66.9981 104.702 66.3452 105.417 65.5392 105.921C64.7818 106.387 63.911 106.636 63.0219 106.64H61.1339V113.024C61.1339 113.072 61.115 113.117 61.0813 113.151C61.0475 113.185 61.0018 113.204 60.9541 113.204L58.0772 113.114ZM61.1339 103.404H63.0219C63.2998 103.397 63.5728 103.329 63.8215 103.205C64.0702 103.08 64.2883 102.903 64.4603 102.684C64.8671 102.071 65.0858 101.352 65.0896 100.616C65.1036 100.031 64.9129 99.4582 64.5502 98.998C64.3599 98.784 64.1234 98.6162 63.8586 98.5071C63.5938 98.3981 63.3077 98.3507 63.0219 98.3686H61.1339V103.404Z" fill="white"/>
<path d="M75.3391 113.384C74.4519 113.366 73.5844 113.118 72.8218 112.665C72.0722 112.198 71.4535 111.548 71.0237 110.776C70.558 110.019 70.3092 109.148 70.3045 108.259V100.077C70.2774 99.1958 70.4952 98.3243 70.9338 97.5595C71.3636 96.7881 71.9823 96.1384 72.7319 95.6714C73.5 95.2413 74.369 95.024 75.2492 95.042C76.1329 95.0105 77.0075 95.2303 77.7713 95.6759C78.5351 96.1216 79.1569 96.7747 79.5645 97.5595C80.0302 98.317 80.279 99.1878 80.2837 100.077V108.259C80.3012 109.152 80.0764 110.034 79.6332 110.809C79.1899 111.585 78.5449 112.226 77.7664 112.665C77.0409 113.127 76.1997 113.377 75.3391 113.384ZM75.3391 110.237C75.5978 110.248 75.8553 110.196 76.09 110.086C76.3246 109.977 76.5296 109.813 76.6876 109.608C76.8875 109.445 77.0479 109.239 77.1568 109.005C77.2658 108.772 77.3206 108.517 77.3169 108.259V100.077C77.3117 99.549 77.1207 99.0397 76.7775 98.6385C76.4114 98.2972 75.9295 98.1074 75.429 98.1074C74.9284 98.1074 74.4465 98.2972 74.0804 98.6385C73.7372 99.0397 73.5463 99.549 73.541 100.077V108.259C73.5463 108.787 73.7372 109.296 74.0804 109.697C74.4124 110.036 74.8648 110.23 75.3391 110.237Z" fill="white"/>
<path d="M83.6998 113.114C83.6521 113.114 83.6064 113.095 83.5727 113.061C83.539 113.027 83.52 112.982 83.52 112.934V95.4014H86.5767V112.934C86.5767 113.024 86.5767 113.114 86.4868 113.114H83.6998Z" fill="white"/>
<path d="M90.3526 113.114C90.305 113.114 90.2592 113.095 90.2255 113.061C90.1918 113.027 90.1729 112.982 90.1729 112.934V95.4913C90.1729 95.4436 90.1918 95.3979 90.2255 95.3642C90.2592 95.3305 90.305 95.3115 90.3526 95.3115H92.6901L97.0055 105.381L96.8257 95.4913C96.8257 95.4014 96.9156 95.3115 97.0954 95.3115H99.6127C99.6604 95.3115 99.7061 95.3305 99.7398 95.3642C99.7735 95.3979 99.7925 95.4436 99.7925 95.4913V112.934C99.7925 113.024 99.7925 113.114 99.7025 113.114H97.455L92.9598 103.673L93.1396 112.934C93.1396 113.024 93.1396 113.114 92.9598 113.114H90.3526Z" fill="white"/>
<path d="M105.816 113.114C105.726 113.114 105.726 113.024 105.726 112.934V98.3684H102.4C102.31 98.3684 102.22 98.3684 102.22 98.2785V95.4014H112.199V98.2785C112.199 98.3684 112.109 98.3684 112.019 98.3684H108.693V112.934C108.693 113.024 108.693 113.114 108.603 113.114H105.816Z" fill="white"/>
<path d="M56.9086 33.5427C56.1893 37.7685 51.2447 61.8646 30.1174 82.8137C30.1174 82.8137 6.65276 58.6278 3.23644 34.6216L3.05664 31.5647V30.6656C3.05664 15.201 15.4633 2.52356 30.6569 2.79329C45.8505 3.06302 57.1783 15.2908 57.1783 30.3059V32.3739L56.9086 33.5427Z" fill="#F8B98B"/>
<mask id="mask0_183_459" style="mask-type:luminance" maskUnits="userSpaceOnUse" x="3" y="3" width="55" height="81">
<path d="M56.9086 33.8125C56.1893 38.0383 51.2447 62.1344 30.1174 83.0835C30.1174 83.0835 6.65276 58.8077 3.23644 34.8015L3.05664 31.8345V30.9354C3.05664 15.4707 15.4633 2.70344 30.6569 3.06308C37.7874 3.25125 44.5596 6.22898 49.5186 11.3565C54.4777 16.4841 57.2278 23.3524 57.1783 30.4858V32.6437L56.9086 33.8125Z" fill="white"/>
</mask>
<g mask="url(#mask0_183_459)">
<path d="M-26.5211 59.348L-17.6207 55.302L-9.4395 52.5148L1.43877 50.267L9.08053 52.8744L14.5646 51.7955L27.3308 51.2561L37.2202 49.0083L44.5023 48.5587L49.5369 45.5018L55.3806 44.243L64.1012 44.9623L71.653 41.9054L81.8121 40.7365L88.375 37.8594L104.558 42.0852C110.851 43.7035 109.322 51.9753 109.322 51.9753L105.816 85.512L40.7264 102.415L-0.898712 102.145H-20.4976L-32.6345 82.0055L-31.9153 73.6438L-33.084 68.7886L-26.5211 59.348Z" fill="#200C09"/>
</g>
<path d="M28.0498 11.1553C28.3069 11.1894 28.5529 11.2816 28.769 11.425L29.8479 11.6947C30.0786 11.6947 30.3042 11.763 30.4962 11.891C30.6881 12.019 30.8379 12.201 30.9267 12.414C31.1065 12.2342 31.1964 12.1443 31.3762 12.1443C31.5106 12.0652 31.6607 12.0162 31.8159 12.0007C31.9711 11.9852 32.1278 12.0035 32.2752 12.0544C32.9046 12.0544 33.5339 12.5938 34.0733 12.414H34.1632C33.7137 12.8636 32.9945 12.5039 32.3651 12.5938H31.8257L31.556 12.7737C31.4462 12.7932 31.3415 12.8352 31.2487 12.8971C31.1559 12.959 31.0769 13.0394 31.0166 13.1333C30.9229 13.141 30.8291 13.1191 30.7485 13.0708C30.6678 13.0224 30.6044 12.9499 30.5671 12.8636C30.4702 12.5949 30.2783 12.3711 30.0277 12.2342H29.5781C29.0387 11.9645 28.4094 11.8746 28.0498 11.3351V11.1553Z" fill="#311A11"/>
<path d="M34.9722 14.6622H35.9611C36.0793 14.6584 36.197 14.6806 36.3057 14.7272C36.4144 14.7738 36.5116 14.8437 36.5904 14.9319L36.7702 14.7521L37.2197 14.5723C37.4895 14.5723 37.939 14.7521 38.1188 14.5723C38.0289 14.842 37.5794 14.7521 37.3097 14.842H37.04C36.9501 14.9319 36.95 14.9319 36.95 15.0218L36.6803 15.2017C36.6803 15.2255 36.6709 15.2484 36.654 15.2652C36.6371 15.2821 36.6143 15.2916 36.5904 15.2916C36.5666 15.2916 36.5437 15.2821 36.5269 15.2652C36.51 15.2484 36.5005 15.2255 36.5005 15.2017H36.4106L36.1409 15.0218H35.8712C35.5599 15.0616 35.2442 14.9984 34.9722 14.842V14.6622Z" fill="#311A11"/>
<path d="M25.2627 13.4932H25.6223L26.1617 13.673C26.2758 13.6783 26.3863 13.7146 26.4813 13.778C26.5763 13.8414 26.6523 13.9294 26.7011 14.0326H27.4204C27.6901 14.0326 28.0497 14.3023 28.3194 14.2124H28.4093C28.1396 14.4822 27.78 14.3024 27.4204 14.3024H27.1507C27.1268 14.3024 27.104 14.3118 27.0871 14.3287C27.0702 14.3456 27.0608 14.3684 27.0608 14.3923L26.7011 14.5721L26.5213 14.3923L26.2516 14.1225H26.0718C25.9134 14.1066 25.76 14.0586 25.6209 13.9813C25.4817 13.904 25.3598 13.7991 25.2627 13.673V13.4932Z" fill="#311A11"/>
<path d="M18.52 9.7168L19.1493 9.89663H19.9585C20.1586 9.87521 20.3605 9.91536 20.5372 10.0118C20.714 10.1082 20.857 10.2562 20.9474 10.4361C20.9893 10.3803 21.0436 10.3349 21.106 10.3037C21.1684 10.2725 21.2372 10.2563 21.307 10.2563C21.5144 10.1053 21.7722 10.0408 22.0262 10.0764C22.4757 9.98652 23.1051 10.3462 23.4647 10.1664H23.5546C23.195 10.526 22.5657 10.3462 22.1161 10.4361H21.6666L21.4868 10.6159L21.0373 10.9755C20.9474 10.9755 20.7676 10.9756 20.7676 10.7957C20.7438 10.7957 20.7209 10.7863 20.704 10.7694C20.6872 10.7525 20.6777 10.7297 20.6777 10.7058C20.5878 10.526 20.4979 10.3462 20.2282 10.3462H20.0484C20.0484 10.2563 19.9585 10.2563 19.8686 10.2563C19.3717 10.2307 18.8974 10.0409 18.52 9.7168Z" fill="#311A11"/>
<path d="M24.4536 11.7845H25.1728C25.2626 11.7501 25.3599 11.7402 25.4548 11.756C25.5496 11.7718 25.6385 11.8127 25.7123 11.8744L25.8921 11.6946L26.1618 11.5148C26.4315 11.4249 26.7911 11.5148 26.9709 11.335C26.881 11.6047 26.5214 11.6047 26.3416 11.6946H25.982C25.982 11.7845 25.8921 11.8744 25.8921 11.9643H25.6223C25.5324 11.8744 25.4425 11.7845 25.3526 11.8744H24.4536V11.7845Z" fill="#311A11"/>
<path d="M16.542 11.874H17.3511C17.5267 11.9116 17.6849 12.0065 17.8006 12.1438H18.3401C18.6098 12.1438 18.8795 12.3236 19.0593 12.2337H19.1492C18.9694 12.4135 18.6098 12.3236 18.4299 12.3236H18.0703L17.8006 12.5034H17.6208L17.441 12.3236H17.2612C16.9915 12.2337 16.7218 12.2337 16.542 12.0539V11.874Z" fill="#311A11"/>
<path d="M56.5491 30.9356L50.5256 22.3041L47.7386 18.6178L46.7497 17.2691L44.8617 17.0893L42.2545 14.7516L40.6363 13.8525L39.6474 16.1003L37.3099 17.5389L36.3209 19.3371L32.3652 24.1023L27.96 32.4641L30.2974 34.8916L40.2767 37.2293L48.6377 38.3082L51.0651 37.6789L57.0885 30.486L56.5491 30.9356Z" fill="#200C09"/>
<path d="M52.8631 27.1594C50.9751 23.7428 46.1203 17.9886 46.1203 17.9886L46.4799 19.2473H45.5809V20.1464L47.6487 21.9446L49.3568 23.8327L50.7953 25.0016L49.3568 24.7318L46.7496 21.6749L45.8506 21.4051L44.6819 20.3262V19.0675L42.8838 17.4491L40.816 15.0215L40.9959 16.3701L41.4454 17.2692V18.3482L40.6362 16.55L40.3665 18.0785L41.2656 19.4271L40.6362 19.1574L40.3665 19.7868L41.5353 21.3152L42.704 23.2034L41.4454 21.9446L40.7262 21.4951V22.9336L41.805 24.552L42.1646 25.9007L42.5242 26.8897L40.4564 24.3722L38.9281 23.2034L38.6584 22.3043L38.3887 21.7648C38.4786 24.6419 38.4786 27.5191 38.3887 30.3063H40.0968L48.0083 42.714L56.8188 30.4861C56.9087 30.1265 53.0429 27.5191 52.8631 27.1594Z" fill="#F8B98B"/>
<path d="M44.8615 35.3416L42.7938 33.2737L40.8159 31.3856L39.5573 29.6773L37.3996 26.8901L34.3429 23.7432L33.8035 25.0019L32.365 26.0809L30.6569 25.7212L28.5891 23.3835L27.5103 22.2147L26.0718 23.923L25.0829 26.0809L24.004 25.4515L20.8574 20.866L19.6887 19.877L18.52 17.5394L17.3512 15.8311L16.0027 18.3485L13.5753 22.934L9.79937 26.98L7.9114 29.5874L5.66382 32.9141L3.05664 34.8022L4.58499 38.3087L13.0359 44.3327C13.0359 44.3327 25.892 44.1529 32.0953 43.7932C36.141 43.6134 44.0524 42.8042 44.0524 42.8042L47.6485 39.3876L46.3 37.6793L44.8615 35.3416Z" fill="#200C09"/>
<path d="M7.01221 41.9045L8.45066 38.0383L9.07998 35.9704L9.8891 34.352L10.6982 36.1502L11.4175 37.5888L14.1146 39.8365L17.3511 40.8255L14.2944 37.5888L13.0357 36.8695L12.4963 34.352L13.3054 32.374L14.654 33.7226L13.9347 29.9464L14.3843 27.339L15.7328 29.0473L17.441 32.284L17.9804 34.9814L20.4078 35.7006L24.2736 38.8475L19.7784 33.6327L18.6996 31.3849L17.3511 28.6876L15.7328 26.9793L16.452 25.271L19.3289 27.7885L16.452 24.1022L15.4631 22.8434L17.3511 21.5847L18.6097 23.293L17.8006 21.0452L17.441 19.3369L19.6885 22.7535L20.7674 24.4618L22.4755 26.3499L21.5765 26.4398L21.7563 27.0692L22.7452 27.8784L24.3635 28.5977L22.8351 29.0473L24.3635 30.1262L26.1616 31.2051L27.0606 32.7336L27.4202 33.8125L25.1726 32.0143L25.9818 33.5428L26.3414 34.5318L27.2404 38.2181L32.0053 40.1962L34.6124 41.0054L29.8476 36.1502L28.499 34.2621L28.4091 32.6437L29.3981 33.1831L30.8365 34.6217L29.488 32.4639L28.0495 30.7555L27.6 29.317L28.4091 29.5867L27.6 28.0582L27.7798 27.0692L29.3981 29.1372L28.3192 27.1591L27.7798 26.0802L27.5101 24.5517L30.2971 27.9683L33.3538 30.0363L33.2639 31.3849L34.7023 32.6437L35.7812 33.0033L39.0177 36.5098L40.8157 36.8695L39.1076 35.4309L36.9499 33.2731L35.2418 31.7446L35.961 31.1152L35.8711 29.5867L40.4561 33.6327L44.0522 37.319L50.3455 42.5338L35.6913 43.7926L22.7452 44.3321H13.0357L7.01221 41.9045Z" fill="#F8B98B"/>
<path d="M35.961 47.6591H36.5005L38.0288 47.1197C38.1187 47.1197 38.0288 46.9398 37.9389 46.76C37.849 46.5802 37.849 46.5802 37.6692 46.4004C37.6231 46.0422 37.6231 45.6796 37.6692 45.3214C37.699 44.9525 37.6372 44.5819 37.4894 44.2425C38.3801 44.0633 39.2322 43.7285 40.0067 43.2535C40.0966 43.1636 40.1865 43.0737 40.1865 42.9838C40.3349 42.3935 40.3349 41.7758 40.1865 41.1855L38.2086 42.0847L36.6803 43.0737C36.5665 43.1754 36.4756 43.3002 36.4136 43.4397C36.3516 43.5792 36.3199 43.7302 36.3206 43.8829C36.3206 44.2425 36.7702 46.0407 36.7702 46.3105C36.7702 46.5802 36.5004 46.8499 36.3206 47.0297C36.1408 47.2096 35.7812 47.3894 35.8711 47.5692C35.8711 47.5931 35.8806 47.6159 35.8975 47.6328C35.9143 47.6496 35.9372 47.6591 35.961 47.6591Z" fill="#200C09"/>
<path d="M37.5797 47.9294L32.9946 43.4339L33.2643 43.0742L37.7595 47.5697C37.6696 47.7496 37.6696 47.8395 37.5797 47.9294Z" fill="#200C09"/>
<path d="M41.1754 46.9402C41.2654 47.0778 41.3055 47.242 41.2892 47.4056C41.2728 47.5692 41.2009 47.7223 41.0854 47.8393C40.9413 47.9041 40.7781 47.9124 40.6282 47.8624C40.4783 47.8125 40.3527 47.7079 40.2763 47.5696C40.2032 47.4358 40.1811 47.28 40.2142 47.1312C40.2473 46.9824 40.3332 46.8506 40.4561 46.7604C40.5108 46.712 40.5764 46.6777 40.6473 46.6603C40.7182 46.643 40.7923 46.6432 40.8631 46.6609C40.9339 46.6786 40.9993 46.7133 41.0537 46.7619C41.1081 46.8106 41.1499 46.8718 41.1754 46.9402Z" fill="#200C09"/>
<path d="M32.0954 47.8392L32.2752 47.6594L32.9944 44.063C33.0843 43.9731 33.2641 43.8832 33.2641 43.7033L33.0843 43.4336C32.9944 43.4336 32.8146 43.5235 32.8146 43.6134C32.6348 43.7033 32.5449 43.7932 32.5449 43.9731L31.8257 47.5695C31.8257 47.7493 31.9156 47.8392 32.0055 47.8392H32.0954Z" fill="#200C09"/>
<path d="M32.2752 48.1088C32.3651 48.0189 32.3651 48.0189 32.3651 47.929L33.0843 44.3326H33.1742L33.4439 43.9729C33.4439 43.883 33.354 43.7931 33.2641 43.7032C33.1742 43.6133 32.9944 43.7931 32.9944 43.883H32.9045L32.6348 44.2427L32.0055 47.8391C31.9156 48.0189 32.0055 48.1088 32.1853 48.1088H32.2752Z" fill="#200C09"/>
<path d="M32.0056 42.9831L32.4551 42.7134L33.1743 42.4437L34.6128 42.174L35.9613 41.2748L37.0402 40.2858L35.8714 39.3867L34.9724 40.6455L34.2532 41.4547C33.8024 41.7034 33.3178 41.8851 32.8147 41.9941L31.8258 42.174C31.646 42.2639 31.646 42.6235 31.646 42.7134C31.6664 42.7926 31.7131 42.8624 31.7785 42.9114C31.8438 42.9604 31.9239 42.9857 32.0056 42.9831Z" fill="#200C09"/>
<path d="M32.0952 50.9855C31.616 50.9169 31.1549 50.7545 30.7384 50.5077C30.3219 50.2609 29.9581 49.9344 29.6678 49.5469C29.3986 49.2119 29.1988 48.8266 29.0801 48.4136C28.9614 48.0005 28.9261 47.5679 28.9763 47.1411C29.0265 46.7142 29.1612 46.3017 29.3725 45.9275C29.5839 45.5532 29.8676 45.2249 30.2073 44.9615C30.5038 44.751 30.8399 44.6027 31.1952 44.5254C31.5505 44.4482 31.9178 44.4436 32.275 44.5119C32.756 44.6035 33.2125 44.7948 33.6151 45.0735C34.0177 45.3523 34.3575 45.7123 34.6125 46.1303C35.1009 46.7951 35.317 47.6213 35.2168 48.4401C35.1165 49.259 34.7074 50.0086 34.0731 50.5359L33.5337 50.8057C33.0808 51.0004 32.5821 51.0627 32.0952 50.9855ZM33.9832 46.4899C33.7788 46.1556 33.504 45.8697 33.178 45.6524C32.8519 45.435 32.4825 45.2913 32.0952 45.2312C31.8496 45.1782 31.5958 45.1747 31.3488 45.221C31.1018 45.2673 30.8665 45.3625 30.6568 45.501C30.1376 45.9534 29.8112 46.5872 29.7443 47.2726C29.6774 47.958 29.8752 48.643 30.2972 49.1873C30.7577 49.7998 31.4316 50.217 32.1851 50.3561C32.6931 50.4273 33.2088 50.2984 33.6236 49.9965C34.1114 49.5631 34.419 48.9624 34.4856 48.3132C34.5522 47.664 34.3729 47.0134 33.9832 46.4899Z" fill="#200C09"/>
<path d="M32.8146 47.2998C32.8859 47.3735 32.9406 47.4615 32.9751 47.5581C33.0095 47.6547 33.023 47.7575 33.0145 47.8597C33.0059 47.9618 32.9757 48.061 32.9257 48.1505C32.8757 48.2401 32.8072 48.3178 32.7247 48.3787C32.5541 48.4549 32.3624 48.4696 32.1821 48.4204C32.0018 48.3713 31.8441 48.2612 31.7358 48.109C31.556 47.7493 31.556 47.2998 31.9156 47.12C31.9783 47.0529 32.0571 47.0031 32.1446 46.975C32.232 46.947 32.3251 46.9417 32.4151 46.9597C32.5052 46.9777 32.5891 47.0184 32.659 47.0779C32.7289 47.1374 32.7825 47.2138 32.8146 47.2998Z" fill="#200C09"/>
<path d="M40.7262 49.9965C39.915 49.8251 39.2042 49.3405 38.7483 48.6479C38.3383 48.0435 38.1583 47.3122 38.2407 46.5866C38.3232 45.8609 38.6627 45.1888 39.1978 44.6918C39.4255 44.5183 39.6881 44.3963 39.9674 44.3342C40.2468 44.2721 40.5364 44.2714 40.816 44.3321C41.2185 44.4443 41.5937 44.6379 41.9184 44.9008C42.2431 45.1637 42.5105 45.4903 42.704 45.8606C43.0832 46.443 43.2459 47.1401 43.1637 47.8302C43.0816 48.5204 42.7598 49.1597 42.2545 49.6368L41.8949 49.8167C41.5367 50.0067 41.1249 50.0701 40.7262 49.9965ZM42.1646 46.2203C42.0176 45.9205 41.8031 45.6589 41.5379 45.456C41.2727 45.2532 40.9641 45.1147 40.6363 45.0514C40.2668 44.9762 39.8825 45.0403 39.5574 45.2312C39.1809 45.6426 38.9575 46.1711 38.9248 46.7278C38.892 47.2845 39.0519 47.8355 39.3776 48.2882C39.5444 48.5636 39.7662 48.8016 40.0291 48.9872C40.2921 49.1729 40.5906 49.3022 40.906 49.3671C41.0743 49.4067 41.249 49.4112 41.4191 49.3802C41.5893 49.3493 41.7513 49.2836 41.8949 49.1873C42.2631 48.793 42.4895 48.2873 42.5384 47.75C42.5872 47.2127 42.4557 46.6745 42.1646 46.2203Z" fill="#200C09"/>
<path d="M32.6351 47.8384C32.725 47.8384 32.7249 47.7485 32.7249 47.6586L33.3543 44.1521C33.4442 44.0622 33.3543 43.8824 33.2644 43.7924V42.5337C33.2933 42.4029 33.2725 42.266 33.206 42.1496C33.1395 42.0333 33.0322 41.9459 32.9048 41.9043C32.8149 41.8144 32.6351 41.8144 32.6351 41.9043C32.6351 41.9943 32.5451 42.1741 32.7249 42.264C32.9047 42.3539 32.9048 42.4438 32.9048 42.5337L32.7249 43.7026C32.711 43.8579 32.7422 44.0141 32.8149 44.1521H32.9048L32.1855 47.5687C32.1855 47.7485 32.2754 47.8384 32.3653 47.8384H32.6351Z" fill="#200C09"/>
<path d="M40.9057 46.9398L33.174 42.714C33.0841 42.6241 32.9942 42.714 32.9043 42.8039C32.91 42.8732 32.9422 42.9376 32.9942 42.9837L33.2639 43.1636H33.174L37.849 47.5692H37.5793L37.7591 47.749L40.8158 47.1196L40.9956 46.9398C40.9657 46.936 40.9355 46.936 40.9057 46.9398ZM37.9389 47.6591L34.8822 44.5122C34.7923 44.4223 34.8822 44.2425 35.062 44.2425L40.636 47.1196L37.9389 47.6591Z" fill="#200C09"/>
<path d="M37.8493 48.3783C37.9392 48.3783 37.9392 48.2884 37.9392 48.1985L38.2988 45.4113C38.2988 45.3636 38.2798 45.3179 38.2461 45.2841C38.2124 45.2504 38.1667 45.2314 38.119 45.2314C38.0291 45.2314 37.8493 45.3214 37.8493 45.4113L37.5796 48.1985C37.5796 48.2462 37.5985 48.2919 37.6322 48.3257C37.666 48.3594 37.7117 48.3783 37.7594 48.3783H37.8493Z" fill="#200C09"/>
<path d="M38.1189 45.7708H38.2088V44.2423C38.2088 44.1524 38.2088 44.0625 38.1189 44.0625H37.9391V45.6809C37.8492 45.6809 37.9391 45.7708 38.029 45.7708H38.1189Z" fill="#200C09"/>
<path d="M31.7359 42.8037C31.646 42.7138 31.646 42.6239 31.7359 42.6239C31.8258 42.6239 32.3652 41.9945 32.545 41.9945C32.7248 41.9945 32.9945 41.7248 32.9945 41.6349C33.4006 41.0871 33.8853 40.6024 34.433 40.1963H34.6128C34.6319 40.2132 34.6472 40.2339 34.6577 40.2572C34.6682 40.2804 34.6736 40.3057 34.6736 40.3312C34.6736 40.3567 34.6682 40.3819 34.6577 40.4052C34.6472 40.4284 34.6319 40.4492 34.6128 40.466L33.2642 41.6349C33.2642 41.9945 32.7248 42.2643 32.545 42.3542C32.3201 42.4397 32.1302 42.5979 32.0056 42.8037H31.9157C31.8258 42.8936 31.8258 42.8936 31.7359 42.8037Z" fill="#200C09"/>
<path d="M34.1634 37.4993L34.523 37.6791H34.9725C35.0624 37.6791 35.2422 37.9489 35.2422 38.0388V38.3085V38.7581L35.422 38.9379C35.6165 38.9379 35.8058 38.8748 35.9614 38.7581C36.2311 38.4883 36.9504 37.8589 36.9504 37.5892C36.9058 37.1237 36.7173 36.6837 36.4109 36.3305C36.3928 36.2787 36.363 36.2317 36.3239 36.1932C36.2848 36.1547 36.2374 36.1257 36.1853 36.1083C36.1332 36.0909 36.0779 36.0857 36.0235 36.0931C35.9691 36.1004 35.9171 36.1201 35.8715 36.1506H35.422C35.3079 36.156 35.1974 36.1923 35.1024 36.2557C35.0074 36.319 34.9314 36.407 34.8826 36.5103C34.0735 37.0498 34.0735 37.3195 34.1634 37.4993Z" fill="#200C09"/>
<path d="M34.5225 37.6784H34.972C35.0619 37.6784 35.2418 37.9481 35.2418 38.038V38.3078C35.4145 38.2986 35.5834 38.254 35.7381 38.1767C35.8928 38.0993 36.0299 37.9909 36.1408 37.8582C36.2202 37.758 36.2773 37.642 36.3083 37.518C36.3393 37.3939 36.3435 37.2647 36.3206 37.1389C36.3206 37.1389 36.2307 37.3188 36.1408 37.3188C36.0509 37.3188 35.8711 37.2288 35.8711 37.049C35.8711 36.8692 35.6913 36.7793 35.6913 36.7793C35.3342 36.803 34.9912 36.9277 34.7023 37.1389C34.4326 37.4087 34.4326 37.5885 34.5225 37.6784Z" fill="#200C09"/>
<path d="M35.422 39.6573C35.8737 40.0526 36.3546 40.4132 36.8604 40.7362C37.2659 41.3069 37.6266 41.9081 37.9393 42.5344H38.3888C38.7484 42.5344 39.1979 41.9051 39.4676 41.8152C39.7373 41.7253 40.007 41.5454 40.1869 41.2757C40.2498 41.22 40.2988 41.1503 40.33 41.0722C40.3612 40.9942 40.3738 40.9099 40.3666 40.8262L38.7484 39.1179L37.7595 38.2188H36.5008L35.2422 38.938L35.422 39.6573Z" fill="#200C09"/>
<path d="M35.8711 38.128C35.6866 38.3361 35.429 38.4649 35.1518 38.4876V38.2179C35.1518 38.128 34.972 37.8583 34.8821 37.8583H34.7023C34.6641 37.8245 34.6334 37.783 34.6124 37.7365C34.5914 37.69 34.5806 37.6395 34.5806 37.5885C34.5806 37.5375 34.5914 37.487 34.6124 37.4405C34.6334 37.394 34.6641 37.3525 34.7023 37.3188C34.7922 37.139 35.4215 37.0491 35.4215 37.2289C35.4215 37.4087 35.5115 37.5885 35.6913 37.6784C35.7542 37.7342 35.8032 37.8038 35.8344 37.8819C35.8656 37.9599 35.8782 38.0442 35.8711 38.128Z" fill="#200C09"/>
<path d="M38.8378 44.3325C38.658 44.4224 38.3883 44.3325 38.1186 44.3325L37.3095 44.0627C37.1297 43.9728 36.9499 43.793 37.2196 43.793H38.0287C38.5681 43.793 39.0176 43.7031 39.0176 43.8829C39.0176 44.0627 39.0176 44.2425 38.8378 44.3325Z" fill="#200C09"/>
<path d="M39.1079 48.199C39.1079 48.4687 38.6584 49.0082 38.5685 49.188C38.4786 49.2779 38.4786 49.3678 38.5685 49.3678C39.0497 49.1547 39.5026 48.8829 39.917 48.5586C40.0969 48.4987 40.1868 48.4088 40.1868 48.2889L39.8272 47.6595C39.6162 47.2963 39.4645 46.9017 39.3777 46.4907C39.2394 46.1117 39.0585 45.7497 38.8382 45.4118L40.8161 42.6245C40.9265 42.4332 40.9847 42.2161 40.9847 41.9951C40.9847 41.7742 40.9265 41.5571 40.8161 41.3658L40.3666 40.6465L40.0969 40.8263L38.8382 41.7254L38.3887 42.175C37.8795 43.2115 37.6033 44.347 37.5796 45.5017C37.6695 46.0411 39.1079 48.0192 39.1079 48.199Z" fill="#200C09"/>
<path d="M38.3888 47.5696C38.5098 47.7288 38.5675 47.9272 38.5509 48.1264C38.5343 48.3256 38.4445 48.5116 38.2989 48.6486C38.211 48.6935 38.1148 48.7197 38.0163 48.7258C37.9177 48.7319 37.819 48.7176 37.7263 48.6838C37.6335 48.6501 37.5487 48.5976 37.4771 48.5297C37.4054 48.4618 37.3486 48.3798 37.31 48.2889C37.1302 47.9293 37.1302 47.4797 37.4898 47.2999C37.5653 47.2536 37.6498 47.2237 37.7377 47.2123C37.8255 47.2009 37.9148 47.2081 37.9997 47.2336C38.0846 47.259 38.1631 47.3021 38.2302 47.36C38.2972 47.418 38.3513 47.4894 38.3888 47.5696Z" fill="#200C09"/>
<path d="M38.299 47.6585C38.3783 47.8059 38.4037 47.9763 38.3709 48.1404C38.3381 48.3045 38.2491 48.4521 38.1192 48.5576C38.0437 48.604 37.9592 48.6338 37.8714 48.6452C37.7835 48.6567 37.6942 48.6494 37.6093 48.6239C37.5245 48.5985 37.4459 48.5554 37.3789 48.4975C37.3118 48.4396 37.2577 48.3681 37.2202 48.2879C37.1409 48.1405 37.1154 47.9701 37.1482 47.806C37.1811 47.6419 37.2701 47.4943 37.4 47.3888C37.4755 47.3424 37.56 47.3126 37.6478 47.3012C37.7357 47.2897 37.825 47.297 37.9098 47.3224C37.9947 47.3479 38.0733 47.391 38.1403 47.4489C38.2074 47.5068 38.2614 47.5783 38.299 47.6585Z" fill="#200C09"/>
<path d="M35.2422 39.0276L35.422 39.2074C35.6165 39.2074 35.8058 39.1443 35.9614 39.0276C36.2311 38.7578 36.9503 38.1285 36.9503 37.8587C36.9058 37.3933 36.7173 36.9532 36.4109 36.6C36.3928 36.5482 36.363 36.5012 36.3239 36.4627C36.2848 36.4242 36.2373 36.3952 36.1853 36.3778C36.1332 36.3605 36.0779 36.3553 36.0235 36.3626C35.9691 36.3699 35.9171 36.3896 35.8715 36.4202L35.422 36.6C35.6595 36.5539 35.9037 36.5539 36.1412 36.6H35.7816C35.8998 36.5962 36.0175 36.6184 36.1262 36.665C36.2349 36.7116 36.3321 36.7815 36.4109 36.8697H36.5907C36.6526 37.0114 36.6832 37.1647 36.6806 37.3193C36.6806 37.4991 36.2311 38.0386 36.2311 38.0386L36.6806 37.6789C36.5302 37.9406 36.313 38.1578 36.0513 38.3083C35.837 38.6039 35.5609 38.8493 35.2422 39.0276Z" fill="#200C09"/>
<path d="M33.9831 41.0961C34.1629 41.186 34.5225 40.9163 34.6124 40.8263C34.7023 40.7364 34.7922 40.4667 34.8821 40.4667C35.3826 40.3462 35.8956 40.2858 36.4104 40.2869C36.5902 40.197 36.9498 40.1071 37.0397 39.8373C37.1297 39.5676 36.6801 39.3878 36.5003 39.2979H36.3205L35.2417 39.7474C34.8821 39.9272 34.0729 40.1071 33.8931 40.3768C33.7133 40.6465 33.8032 40.4667 33.8032 40.5566V40.8263C33.8931 40.9163 33.8931 41.0961 33.9831 41.0961Z" fill="#200C09"/>
<path d="M33.8032 40.5554L33.9831 40.3756L34.6124 40.1958H34.972L35.871 39.7462H36.4104C36.4104 39.6563 36.3205 39.6563 36.3205 39.5664L35.2417 40.016C34.8821 40.1958 34.0729 40.3756 33.8931 40.6453C33.7133 40.915 33.8032 40.4655 33.8032 40.5554Z" fill="#200C09"/>
<path d="M36.5005 39.1182C36.5005 39.1182 37.1298 39.2081 37.3096 39.4778C37.4894 39.7475 37.3995 39.8374 37.3096 40.0173L36.2308 40.1971H35.7812L36.5904 39.9274L36.95 39.5677C36.95 39.665 36.9184 39.7596 36.8601 39.8374C36.8601 39.8374 37.3096 39.6576 37.2197 39.4778C37.1298 39.298 36.5005 39.1182 36.5005 39.1182Z" fill="#200C09"/>
<path d="M36.3208 39.2979C36.3208 39.2979 36.6804 39.2979 36.6804 39.4777C36.6804 39.6575 36.5905 39.3878 36.4107 39.4777C36.2309 39.5676 36.3208 39.2979 36.3208 39.2979Z" fill="#200C09"/>
<path d="M33.3545 41.9947C33.7568 41.921 34.1491 41.8003 34.5232 41.635C34.7054 41.5624 34.8619 41.4372 34.9727 41.2754C34.7897 41.4179 34.5729 41.5108 34.3434 41.5451L33.3545 41.9947Z" fill="#200C09"/>
<path d="M50.8849 43.8827L52.2334 43.9726L50.2555 41.545L51.2445 41.8148L50.0758 39.6569L51.1546 40.1964L49.7162 37.499L50.6152 37.8587L49.6262 35.8807L50.2555 36.0605L48.907 33.543L47.5585 36.0605L48.1878 35.8807L47.1988 37.8587L48.0979 37.499L46.7493 40.1964L47.7383 39.6569L46.5695 41.8148L47.5585 41.545L45.6705 43.9726L46.9292 43.8827L44.7715 47.8388H48.907H53.1325L50.8849 43.8827Z" fill="#200C09"/>
<path d="M17.891 48.0187L19.5991 48.1086L17.0818 44.9617L18.3405 45.3214L16.902 42.5341L18.1607 43.2534L16.3626 39.7469L17.5313 40.1066L16.2727 37.679L17.0818 37.9487L15.3737 34.7119L13.6655 37.9487L14.4746 37.679L13.1261 40.1066L14.2948 39.7469L12.4968 43.2534L13.7554 42.5341L12.317 45.3214L13.5756 44.9617L11.1482 48.1086L12.8564 48.0187L9.97949 53.0537H15.3737H20.7679L17.891 48.0187Z" fill="#200C09"/>
</svg>
