<svg width="707" height="707" viewBox="0 0 707 707" fill="none" xmlns="http://www.w3.org/2000/svg">
<mask id="mask0_233_894" style="mask-type:luminance" maskUnits="userSpaceOnUse" x="0" y="0" width="707" height="707">
<path d="M353.107 706.214C548.122 706.214 706.214 548.122 706.214 353.107C706.214 158.091 548.122 0 353.107 0C158.091 0 0 158.091 0 353.107C0 548.122 158.091 706.214 353.107 706.214Z" fill="white"/>
</mask>
<g mask="url(#mask0_233_894)">
<g opacity="0.11">
<path d="M637.684 447.033C612.101 499.691 566.913 554.216 512.201 564.673C429.293 580.918 410.433 651.316 269.265 625.92C248.578 622.183 228.399 616.042 209.138 607.621C199.677 603.304 190.508 598.377 181.688 592.869C103.822 544.132 71.7043 455.249 79.5469 367.859C90.0038 252.833 168.431 207.645 218.661 181.876C268.891 156.107 341.156 39.7742 480.083 63.6757C501.418 67.2498 522.195 73.5898 541.891 82.5354C586.893 103.076 630.401 140.982 652.062 190.839C653.742 194.574 655.236 198.495 656.543 202.229C684.366 278.042 672.602 375.515 637.684 447.033Z" fill="#92E3A9"/>
<path opacity="0.53" d="M637.684 447.033C612.101 499.691 566.913 554.216 512.201 564.673C429.293 580.918 410.433 651.316 269.265 625.92C248.578 622.183 228.399 616.042 209.138 607.621C199.677 603.304 190.508 598.377 181.688 592.869C103.822 544.132 71.7043 455.249 79.5469 367.859C90.0038 252.833 168.431 207.645 218.661 181.876C268.891 156.107 341.156 39.7742 480.083 63.6757C501.418 67.2498 522.195 73.5898 541.891 82.5354C586.893 103.076 630.401 140.982 652.062 190.839C653.742 194.574 655.236 198.495 656.543 202.229C684.366 278.042 672.602 375.515 637.684 447.033Z" fill="#27A6D8"/>
</g>
<path opacity="0.19" d="M155.733 319.122L129.217 340.596C119.507 348.439 116.146 351.987 113.345 353.667C110.544 355.348 117.266 332.193 117.266 332.193C117.266 332.193 102.141 348.439 98.0333 353.667C93.9252 358.896 81.2275 373.834 81.2275 380.743C81.2275 387.652 81.2275 399.229 84.0285 402.03C86.8294 404.831 90.7508 398.669 101.581 389.706C112.411 380.743 125.856 365.431 122.868 371.033C119.881 376.635 115.026 385.225 117.827 386.905C120.628 388.586 123.989 382.424 132.018 368.792C140.048 355.161 152.372 344.517 157.413 330.513C162.455 316.508 161.335 316.321 155.733 319.122Z" fill="black"/>
<path opacity="0.19" d="M149.384 363.751C149.384 363.751 137.62 400.91 136.5 411.18C135.38 421.45 139.301 434.895 142.662 433.774C146.023 432.654 157.414 410.06 156.293 395.308C155.173 380.556 161.335 363.19 157.974 357.589C154.613 351.987 149.384 363.751 149.384 363.751Z" fill="black"/>
<path opacity="0.19" d="M116.707 424.624C116.707 424.624 94.6724 467.572 94.6724 473.734C94.6724 479.897 103.822 498.009 107.183 500.25C110.544 502.491 117.267 478.216 117.267 478.216C117.267 478.216 118.947 504.732 124.549 498.009C130.151 491.287 135.38 470.373 132.579 463.651C129.217 456.127 126.347 448.393 123.989 440.497C122.308 433.214 123.429 420.703 122.308 415.661C121.188 410.62 116.707 424.624 116.707 424.624Z" fill="black"/>
<path opacity="0.19" d="M201.855 370.473C201.855 370.473 202.976 419.023 207.644 419.023C212.312 419.023 260.115 373.274 254.887 369.912C249.658 366.551 227.811 374.394 221.649 374.954C215.487 375.514 219.968 370.473 215.487 369.912C210.935 369.704 206.374 369.891 201.855 370.473Z" fill="black"/>
<path opacity="0.19" d="M266.277 384.103L254.887 453.38C252.086 470.373 273.56 461.41 275.801 462.53C278.041 463.651 279.722 472.614 283.83 474.854C287.938 477.095 292.793 475.975 296.154 471.493C299.515 467.012 306.238 438.815 308.665 431.533C311.093 424.25 298.395 412.86 293.353 401.469C288.311 390.079 280.842 371.593 275.24 374.393C269.638 377.194 283.83 418.462 281.402 421.823C278.975 425.184 275.24 411.74 272.439 400.909C269.638 390.079 274.68 378.502 266.277 384.103Z" fill="black"/>
<path opacity="0.19" d="M366.738 457.489C366.738 457.489 327.151 415.662 324.351 426.119C321.55 436.576 332.38 478.403 342.463 484.192C352.547 489.98 355.348 474.295 358.709 473.175C362.07 472.054 367.859 471.494 368.979 469.253C370.099 467.013 366.738 457.489 366.738 457.489Z" fill="black"/>
<path opacity="0.19" d="M403.897 434.334C403.897 434.334 396.615 443.858 397.735 447.219C398.856 450.58 405.018 455.248 407.259 449.46C409.499 443.671 410.62 438.256 409.499 434.334C408.379 430.413 407.259 428.546 403.897 434.334Z" fill="black"/>
<path opacity="0.19" d="M418.649 441.616C418.649 441.616 419.77 454.5 422.571 455.807C425.372 457.114 436.575 458.608 433.214 451.139C429.853 443.67 422.011 429.852 418.649 441.616Z" fill="black"/>
<path opacity="0.19" d="M407.819 455.248C406.236 461.317 405.112 467.497 404.457 473.735C403.897 481.764 400.536 482.885 398.856 475.976C397.175 469.066 397.735 463.091 396.055 464.772C394.374 466.452 381.863 481.017 380.182 485.125C378.502 489.233 366.178 500.811 366.178 500.811L441.243 473.921C441.243 473.921 435.455 462.531 430.413 463.091C425.371 463.651 424.811 469.813 423.13 469.253C421.45 468.693 415.288 451.701 407.819 455.248Z" fill="black"/>
<path opacity="0.19" d="M560.19 438.255C560.19 438.255 542.825 426.304 535.916 428.545C529.007 430.786 526.392 442.176 523.591 439.935C520.79 437.695 524.152 425.184 518.55 427.985C512.948 430.786 492.594 455.247 490.353 453.38C488.113 451.513 498.196 428.545 492.034 430.412C485.872 432.279 462.531 457.488 460.29 462.53C458.049 467.571 460.29 467.571 460.29 467.571C460.29 467.571 534.235 443.297 560.19 438.255Z" fill="black"/>
<path opacity="0.19" d="M228.931 526.206C228.931 526.206 223.329 460.851 217.728 443.858C212.126 426.866 205.964 439.937 205.403 447.219C204.843 454.502 205.403 472.054 201.855 472.615C198.308 473.175 199.055 463.091 192.892 433.775C186.73 404.458 180.008 396.429 175.9 415.102C171.792 433.775 166.377 447.219 165.817 452.261C165.256 457.303 177.767 475.976 180.008 480.457C182.249 484.939 190.091 521.725 183.929 518.924C177.767 516.123 174.78 495.769 168.618 491.848C162.455 487.927 154.613 471.494 150.505 481.764C146.397 492.035 135.38 543.759 137.62 547.68C139.861 551.602 158.534 569.154 158.534 569.154L231.359 547.12L228.931 526.206Z" fill="black"/>
<path d="M307.545 382.609C334.994 405.39 373.461 435.454 373.461 435.454C373.461 435.454 406.512 419.769 415.662 423.503C424.811 427.238 453.194 436.388 453.194 436.388C453.194 436.388 520.044 410.619 529.38 408.752C538.717 406.884 585.586 433.213 585.586 433.213" stroke="#263238" stroke-width="0.66" stroke-miterlimit="10"/>
<path d="M72.0776 350.118C72.0776 350.118 151.811 308.104 162.829 312.586C173.846 317.067 197.56 359.268 200.361 363.003C203.162 366.737 271.879 348.251 281.029 359.268C283.269 362.069 290.552 368.605 299.888 376.447" stroke="#263238" stroke-width="0.66" stroke-miterlimit="10"/>
<path d="M665.32 417.154L676.897 415.287" stroke="#263238" stroke-width="0.66" stroke-miterlimit="10"/>
<path d="M96.5396 591.747C96.5396 591.747 334.06 512.387 441.244 473.92C524.899 443.857 621.065 424.997 659.718 418.088" stroke="#263238" stroke-width="0.66" stroke-miterlimit="10"/>
<path d="M519.11 157.6C517.598 156.401 515.793 155.627 513.881 155.359C504.358 154.052 501.184 163.389 499.13 165.443C497.076 167.497 492.407 162.642 487.739 163.389C483.071 164.136 482.324 168.804 480.27 170.111C478.216 171.418 474.294 167.31 469.626 168.804C468.33 169.108 467.112 169.68 466.05 170.485C464.989 171.289 464.108 172.306 463.464 173.472C463.464 173.472 458.236 170.858 455.248 171.792C452.26 172.725 448.526 175.9 447.032 176.647L442.55 177.767H546.746C546.746 177.767 541.704 166.563 537.783 166.003C533.861 165.443 531.434 172.352 527.886 170.671C526.683 167.418 525.051 164.341 523.031 161.521" stroke="#263238" stroke-width="0.66" stroke-miterlimit="10"/>
<path d="M176.273 114.465C176.273 114.465 171.605 100.46 162.268 99.1533C152.932 97.8462 149.571 107.183 147.517 109.05C145.463 110.917 140.794 106.436 136.126 107.183C131.458 107.93 130.711 112.411 128.657 113.905C126.603 115.399 122.682 111.104 118.013 112.411C116.729 112.749 115.532 113.357 114.502 114.194C113.472 115.031 112.632 116.079 112.038 117.266C112.038 117.266 106.623 114.465 103.635 115.586C100.647 116.706 96.9129 119.694 95.419 120.254C93.9656 120.818 92.4662 121.255 90.9375 121.561H195.133C195.133 121.561 190.091 110.357 186.17 109.797C182.249 109.237 179.821 115.959 176.273 114.465Z" stroke="#263238" stroke-width="0.66" stroke-miterlimit="10"/>
<path d="M572.701 379.809H670.735C670.735 379.809 662.705 360.389 656.543 359.268C650.381 358.148 646.46 370.099 641.045 367.484C641.045 367.484 633.575 343.023 618.637 340.595C603.699 338.168 598.657 354.6 595.482 358.148C592.308 361.696 584.839 353.48 577.37 354.6C569.9 355.72 568.967 363.936 565.792 366.364C562.618 368.791 556.269 361.696 548.8 363.936C546.711 364.531 544.776 365.574 543.131 366.993C541.487 368.412 540.171 370.173 539.277 372.153C539.277 372.153 530.687 367.484 526.205 369.165C521.724 370.845 515.562 376.447 512.948 377.568C510.7 378.477 508.392 379.226 506.039 379.809H565.979" stroke="#263238" stroke-width="0.66" stroke-miterlimit="10"/>
<path d="M632.082 303.437C631.544 288.526 628.71 273.788 623.679 259.742V259.182H497.263V259.742C492.232 273.788 489.398 288.526 488.86 303.437V308.292L501.931 314.08H619.571L632.642 308.292L632.082 303.437Z" fill="#DD1032" stroke="#263238" stroke-width="0.66" stroke-miterlimit="10"/>
<path d="M497.263 259.182V259.742C492.979 271.459 490.339 283.713 489.42 296.154C490.888 297.568 492.803 298.426 494.835 298.582C497.494 298.158 500.074 297.339 502.491 296.154L509.96 287.191L510.52 279.162L512.201 259.182H497.263Z" fill="#263238" stroke="#263238" stroke-width="0.66" stroke-miterlimit="10"/>
<path d="M645.153 303.437C644.708 288.516 641.871 273.763 636.75 259.742V259.182H510.334V259.742C505.303 273.788 502.468 288.526 501.931 303.437V308.292L515.002 314.08H632.642L645.713 308.292L645.153 303.437Z" fill="#DD1032" stroke="#263238" stroke-width="0.66" stroke-miterlimit="10"/>
<path d="M636.75 259.742V259.182H510.334V259.742C506.068 271.464 503.429 283.715 502.491 296.154L540.584 288.685H606.687L644.966 296.154C643.813 283.713 641.051 271.473 636.75 259.742Z" fill="#263238" stroke="#263238" stroke-width="0.66" stroke-miterlimit="10"/>
<path d="M606.873 306.61H609.114V259.013H606.873V306.61Z" fill="#787878" stroke="#263238" stroke-width="0.66" stroke-miterlimit="10"/>
<path d="M644.219 306.797H501.744H489.42" stroke="#263238" stroke-width="0.66" stroke-linecap="round" stroke-linejoin="round"/>
<path d="M540.024 259.182H537.783V306.779H540.024V259.182Z" fill="#787878" stroke="#263238" stroke-width="0.66" stroke-miterlimit="10"/>
<path d="M595.483 147.516C594.361 147.541 593.265 147.864 592.308 148.45L554.589 134.258C554.23 133.159 553.529 132.204 552.588 131.532C551.647 130.86 550.516 130.507 549.36 130.524C548.375 130.504 547.404 130.763 546.559 131.271L522.284 122.121C521.796 121.277 521.096 120.575 520.254 120.084C519.411 119.594 518.455 119.331 517.48 119.323C516.505 119.316 515.545 119.562 514.695 120.039C513.844 120.516 513.133 121.207 512.631 122.043C512.13 122.879 511.855 123.832 511.834 124.806C511.814 125.781 512.048 126.745 512.513 127.601C512.979 128.458 513.66 129.178 514.49 129.691C515.319 130.203 516.268 130.49 517.243 130.524L546.186 140.981C546.549 141.352 546.986 141.643 547.468 141.836C547.95 142.029 548.468 142.119 548.987 142.101L592.121 157.973C593.077 158.726 594.266 159.123 595.483 159.093C597.018 159.093 598.49 158.484 599.576 157.398C600.661 156.312 601.271 154.84 601.271 153.305C601.271 151.77 600.661 150.297 599.576 149.212C598.49 148.126 597.018 147.516 595.483 147.516Z" fill="white" stroke="#263238" stroke-width="0.66" stroke-linecap="round" stroke-linejoin="round"/>
<path d="M242.936 34.7314L533.488 131.084C536.102 131.831 593.802 155.359 593.802 155.359L679.138 176.273" stroke="#263238" stroke-width="0.66" stroke-miterlimit="10"/>
<path d="M230.425 34.918L533.488 135.379C536.103 136.126 593.802 159.654 593.802 159.654L678.578 180.568" stroke="#263238" stroke-width="0.66" stroke-miterlimit="10"/>
<path d="M574.756 126.416H555.522V259.256H574.756V126.416Z" fill="#787878" stroke="#263238" stroke-width="0.66" stroke-miterlimit="10"/>
<path d="M574.756 126.416H559.63V259.256H574.756V126.416Z" fill="white" stroke="#263238" stroke-width="0.66" stroke-linecap="round" stroke-linejoin="round"/>
<path d="M524.525 258.62V255.259C531.389 255.032 538.129 253.378 544.319 250.404C547.122 249.088 549.598 247.165 551.568 244.776C553.538 242.386 554.952 239.589 555.709 236.586H558.697L555.709 259.367L524.525 258.62Z" fill="#787878" stroke="#263238" stroke-width="0.66" stroke-miterlimit="10"/>
<path d="M527.513 258.62V255.259C534.376 255.032 541.117 253.378 547.306 250.404C550.109 249.088 552.585 247.165 554.555 244.776C556.525 242.386 557.94 239.589 558.697 236.586V259.367L527.513 258.62Z" fill="white" stroke="#263238" stroke-width="0.66" stroke-linecap="round" stroke-linejoin="round"/>
<path d="M227.438 141.915C227.18 138.686 226.289 135.541 224.815 132.657C223.341 129.773 221.314 127.209 218.848 125.109C217.271 123.7 215.412 122.641 213.395 122.004C211.379 121.367 209.249 121.165 207.149 121.412C205.048 121.659 203.024 122.349 201.21 123.437C199.396 124.525 197.834 125.986 196.627 127.723C192.823 133.082 191.281 139.722 192.332 146.209L222.583 345.451C223.516 351.986 224.263 358.335 225.01 364.87L243.683 573.635C244.281 580.132 247.357 586.15 252.273 590.441C253.866 591.854 255.74 592.914 257.771 593.553C259.803 594.192 261.946 594.395 264.062 594.148C266.177 593.901 268.216 593.211 270.046 592.121C271.876 591.032 273.455 589.568 274.68 587.826C278.394 582.427 279.928 575.823 278.975 569.34L247.604 362.07C246.671 355.721 245.924 349.185 245.364 342.836L227.438 141.915Z" fill="#DD1032"/>
<path d="M235.84 235.467L232.106 236.027L219.221 222.022L210.072 238.641L206.337 239.015L207.644 246.671L208.951 246.484L213.619 245.924L220.715 233.226L230.425 243.87L231.732 243.683L235.093 243.31L236.587 243.123L235.84 235.467Z" fill="#263238"/>
<path d="M234.72 258.06L221.835 244.056L212.685 260.675L209.698 261.048L212.125 276.92H212.685L217.354 276.36L224.263 263.662L233.973 274.306L235.28 274.119L238.641 273.746H239.201L237.707 257.687L234.72 258.06Z" fill="#263238"/>
<path d="M204.283 206.523L208.951 205.963L215.86 193.265L225.57 203.909L226.877 203.722L230.238 203.348L232.853 202.975L232.666 200.174L227.811 200.734L215.113 186.729L205.963 203.535L201.108 204.095L201.482 206.896L204.283 206.523Z" fill="#263238"/>
<path d="M230.052 219.408L217.354 205.403L208.204 222.209L203.91 222.582L204.283 225.383L206.524 225.197L211.192 224.637L218.101 211.939L227.811 222.582L229.118 222.396L232.479 222.022L234.533 221.836L234.347 219.035L230.052 219.408Z" fill="#263238"/>
<path d="M237.895 468.879L250.592 482.884L259.742 466.078L263.477 465.705L262.356 458.049L260.862 458.236L257.501 458.796H256.194L249.285 471.493L239.575 460.85L234.907 461.41L233.413 461.597L234.16 469.253L237.895 468.879Z" fill="#263238"/>
<path d="M232.105 447.032L235.093 446.659L247.978 460.663L257.127 444.044L260.115 443.671L257.687 427.799H257.314L253.766 428.172L252.646 428.359L245.55 441.057L235.84 430.413L231.172 430.973H230.798L232.105 447.032Z" fill="#263238"/>
<path d="M224.637 363.75L229.305 415.287L231.359 414.914L244.243 428.919L253.393 412.3H255.447L247.604 361.136H247.418C246.671 355.16 245.924 348.998 245.364 343.023L244.99 338.915L240.695 289.805H238.641L225.757 275.8L216.607 292.419H214.553L222.022 341.342L222.583 345.263C223.516 351.239 224.263 357.401 224.823 363.376L224.637 363.75Z" fill="#263238"/>
<path d="M265.717 498.196L262.356 498.569L261.049 498.756L254.14 511.453L244.43 500.81L239.761 501.37L236.96 501.743L237.334 504.544L242.002 503.984L254.887 517.989L264.036 501.37L268.891 500.81L268.331 498.009L265.717 498.196Z" fill="#263238"/>
<path d="M235.653 485.871L239.761 485.311L252.646 499.316L261.795 482.697L266.09 482.137L265.53 479.336L263.476 479.523L260.115 479.896L258.808 480.083L251.899 492.781L242.189 482.137L237.521 482.697L235.28 482.884L235.653 485.871Z" fill="#263238"/>
<path d="M196.627 127.723C192.823 133.082 191.281 139.722 192.332 146.209L193.826 156.48L201.295 152.372L199.428 136.313L202.976 132.765C204.431 131.397 206.286 130.533 208.269 130.297C210.252 130.062 212.258 130.469 213.993 131.458L218.288 134.072L220.155 150.131L228.371 152.372L227.438 141.915C227.18 138.686 226.289 135.541 224.815 132.657C223.341 129.773 221.314 127.209 218.848 125.109C217.271 123.7 215.412 122.641 213.395 122.004C211.379 121.367 209.249 121.165 207.149 121.412C205.048 121.659 203.024 122.349 201.21 123.437C199.396 124.525 197.834 125.986 196.627 127.723Z" fill="#263238"/>
<path d="M227.438 141.915C227.18 138.686 226.289 135.541 224.815 132.657C223.341 129.773 221.314 127.209 218.848 125.109C217.271 123.7 215.412 122.641 213.395 122.004C211.379 121.367 209.249 121.165 207.149 121.412C205.048 121.659 203.024 122.349 201.21 123.437C199.396 124.525 197.834 125.986 196.627 127.723C192.823 133.082 191.281 139.722 192.332 146.209L222.583 345.451C223.516 351.986 224.263 358.335 225.01 364.87L243.683 573.635C244.281 580.132 247.357 586.15 252.273 590.441C253.866 591.854 255.74 592.914 257.771 593.553C259.803 594.192 261.946 594.395 264.062 594.148C266.177 593.901 268.216 593.211 270.046 592.121C271.876 591.032 273.455 589.568 274.68 587.826C278.394 582.427 279.928 575.823 278.975 569.34L247.604 362.07C246.671 355.721 245.924 349.185 245.364 342.836L227.438 141.915Z" stroke="#263238" stroke-width="0.66" stroke-miterlimit="10"/>
<path d="M249.845 400.909C248.246 393.832 246.251 386.849 243.87 379.995C244.644 374.613 245.08 369.187 245.177 363.75C245.177 356.281 241.442 330.512 241.442 330.512C241.442 330.512 240.882 322.296 240.135 317.254C239.187 311.936 236.942 306.933 233.6 302.689C233.001 302.187 232.305 301.816 231.555 301.6C230.804 301.383 230.017 301.326 229.244 301.431C228.47 301.537 227.727 301.803 227.062 302.212C226.398 302.622 225.826 303.166 225.384 303.809C223.703 306.424 222.022 314.453 222.396 319.495C222.769 324.536 224.45 332.566 224.45 332.566C224.45 332.566 226.877 358.521 228.558 365.804C230.018 371 231.764 376.112 233.786 381.116C233.023 388.372 232.712 395.668 232.853 402.963C233.413 409.872 234.907 435.081 236.774 439.189C238.641 443.297 239.388 443.297 239.575 444.604C239.762 445.911 239.575 453.38 240.509 455.248C241.794 457.384 243.512 459.228 245.55 460.663H248.538L251.152 460.103C252.85 458.216 254.124 455.988 254.887 453.567C255.26 451.7 253.393 444.604 253.206 443.297C253.02 441.99 253.953 441.43 254.7 437.135C255.447 432.84 251.152 407.818 249.845 400.909Z" fill="white" stroke="#263238" stroke-width="0.66" stroke-miterlimit="10"/>
<path d="M240.135 317.254C239.187 311.936 236.942 306.933 233.6 302.689C233.001 302.187 232.305 301.816 231.555 301.6C230.804 301.383 230.017 301.326 229.244 301.431C228.47 301.537 227.727 301.803 227.062 302.212C226.398 302.622 225.826 303.166 225.384 303.809C223.703 306.424 222.022 314.453 222.396 319.495C222.769 324.536 224.45 332.566 224.45 332.566C224.45 332.566 226.504 354.787 228.184 363.936C229.118 364.123 233.6 365.057 234.72 367.858C235.84 370.659 235.093 372.339 235.84 374.02C236.063 374.405 236.395 374.714 236.794 374.91C237.194 375.105 237.642 375.177 238.082 375.117C238.523 375.057 238.935 374.868 239.268 374.572C239.6 374.277 239.837 373.89 239.948 373.46C240.695 371.406 238.828 368.418 239.762 366.924C241.078 364.737 242.945 362.934 245.177 361.696C244.617 352.359 241.442 330.512 241.442 330.512C241.442 330.512 240.882 322.296 240.135 317.254Z" fill="#263238" stroke="#263238" stroke-width="0.66" stroke-miterlimit="10"/>
<path d="M244.243 332.94C243.87 330.699 241.069 329.766 239.575 328.085L237.708 326.218L232.292 326.965L226.877 327.525L225.57 329.766C224.45 331.82 221.835 333.314 222.022 335.741C222.209 338.169 224.45 348.065 225.383 349.372C226.317 350.679 227.998 351.24 228.184 352.733C228.371 354.227 230.985 362.817 232.106 363.19H236.587C238.112 362.955 239.612 362.58 241.069 362.07C242.189 361.51 242.563 352.547 242.376 351.053C242.189 349.559 243.683 348.625 244.43 347.132C245.177 345.638 244.617 335.181 244.243 332.94Z" fill="#263238" stroke="#263238" stroke-width="0.66" stroke-miterlimit="10"/>
<path d="M227.064 345.264L227.437 346.944C227.624 347.505 227.997 347.878 228.558 347.691C229.118 347.505 236.774 346.384 240.322 346.198C243.87 346.011 241.442 345.824 241.442 345.264L241.069 343.583C241.025 343.369 240.908 343.177 240.737 343.041C240.566 342.904 240.353 342.832 240.135 342.836C235.981 342.346 231.77 342.793 227.811 344.144C227.582 344.224 227.385 344.377 227.25 344.579C227.115 344.781 227.05 345.021 227.064 345.264Z" fill="white"/>
<path d="M239.575 328.085L237.708 326.218L232.292 326.965L226.877 327.525L225.57 329.766C224.45 331.82 221.835 333.314 222.022 335.741C222.209 338.169 222.769 340.223 223.516 343.397C224.52 342.142 225.455 340.833 226.317 339.476C227.235 337.896 228.643 336.658 230.328 335.951C232.013 335.243 233.883 335.104 235.654 335.554C240.135 336.301 241.442 339.476 242.936 340.596L244.803 341.53C244.781 338.658 244.594 335.79 244.243 332.94C243.87 330.699 241.069 329.766 239.575 328.085Z" fill="#787878" stroke="#263238" stroke-width="0.66" stroke-miterlimit="10"/>
<path d="M240.135 317.254C239.187 311.936 236.942 306.933 233.6 302.689C233.001 302.187 232.305 301.816 231.555 301.6C230.804 301.383 230.017 301.326 229.244 301.431C228.47 301.537 227.727 301.803 227.062 302.212C226.398 302.622 225.826 303.166 225.384 303.809C223.703 306.424 222.022 314.453 222.396 319.495C222.583 321.175 222.956 323.229 223.143 325.283H223.516L226.877 327.337L237.708 326.03L240.882 323.603C240.74 321.475 240.491 319.356 240.135 317.254Z" fill="white" stroke="#263238" stroke-width="0.66" stroke-miterlimit="10"/>
<path d="M237.147 378.128C237.147 378.128 235.467 380.369 235.84 381.115C236.214 381.862 237.521 384.103 239.015 383.916C240.509 383.73 241.442 380.742 241.255 380.182C241.069 379.622 239.388 377.941 238.828 377.568C238.268 377.194 237.708 377.381 237.147 378.128Z" fill="#263238"/>
<path d="M234.533 385.784C234.533 385.784 234.72 395.121 234.907 395.681C235.093 396.241 236.401 394.374 236.027 390.079C235.654 385.784 235.28 385.784 234.533 385.784Z" fill="#263238"/>
<path d="M243.683 384.664C243.683 384.664 245.737 393.814 245.737 394.374C245.737 394.934 244.056 393.44 243.309 389.332C242.562 385.224 243.122 384.851 243.683 384.664Z" fill="#263238"/>
<path d="M249.845 400.909C248.93 399.717 247.863 398.65 246.671 397.735C244.056 395.681 242.562 394.56 242.376 393.067C242.373 391.494 242.185 389.927 241.816 388.398C241.069 387.091 240.322 386.718 239.388 386.718C238.796 386.848 238.267 387.179 237.892 387.656C237.517 388.133 237.32 388.726 237.334 389.332C237.147 391.759 238.641 394.187 237.894 395.681C237.147 397.175 233.973 399.789 232.853 402.963C233.413 409.872 234.907 435.081 236.774 439.189C238.641 443.297 239.388 443.297 239.575 444.604C239.762 445.911 239.575 453.38 240.508 455.248C241.794 457.384 243.511 459.228 245.55 460.663H248.538L251.152 460.103C252.85 458.217 254.124 455.988 254.887 453.567C255.26 451.7 253.393 444.604 253.206 443.297C253.019 441.99 253.953 441.43 254.7 437.135C255.447 432.84 251.152 407.818 249.845 400.909Z" fill="#263238" stroke="#263238" stroke-width="0.66" stroke-miterlimit="10"/>
<path d="M244.617 429.106C242.373 429.412 240.091 429.285 237.894 428.733C237.795 428.733 237.7 428.694 237.63 428.624C237.56 428.554 237.521 428.459 237.521 428.359L234.907 416.595C234.907 416.222 235.093 416.035 235.467 415.849C235.616 415.849 235.758 415.908 235.863 416.013C235.968 416.118 236.027 416.26 236.027 416.409L238.641 427.799C242.301 428.44 246.069 427.985 249.472 426.492L249.845 414.728C249.845 414.58 249.904 414.437 250.009 414.332C250.114 414.227 250.257 414.168 250.405 414.168L250.966 414.728L250.592 426.866C250.592 426.965 250.553 427.06 250.483 427.13C250.413 427.2 250.318 427.239 250.219 427.239C248.515 428.275 246.601 428.913 244.617 429.106Z" fill="#969696"/>
<path d="M235.653 412.86H235.467C235.093 412.86 234.907 412.486 235.093 412.113L236.587 405.577C236.587 405.478 236.626 405.383 236.697 405.313C236.767 405.243 236.862 405.204 236.961 405.204L246.297 404.084C246.344 404.052 246.398 404.031 246.455 404.024C246.511 404.016 246.569 404.022 246.623 404.04C246.677 404.058 246.726 404.088 246.767 404.128C246.807 404.168 246.838 404.217 246.857 404.27L249.658 410.059C249.845 410.246 249.658 410.619 249.285 410.806C248.911 410.993 248.725 410.806 248.538 410.619L246.11 405.204L237.521 406.138L236.214 412.487L235.653 412.86Z" fill="#969696"/>
<path d="M231.359 368.978C231.702 371.005 232.202 373.003 232.853 374.953C233.226 375.14 233.413 372.339 233.039 370.845C232.666 369.351 231.172 367.484 231.359 368.978Z" fill="#263238"/>
<path d="M242.936 367.485C242.936 367.485 243.123 373.46 242.936 373.647C242.749 373.833 241.815 371.406 241.815 369.725C241.815 368.045 242.749 365.991 242.936 367.485Z" fill="#263238"/>
<path d="M253.206 443.111C253.019 441.617 253.953 441.243 254.7 436.949C254.809 434.204 254.684 431.456 254.326 428.732H252.646C251.525 428.732 251.712 430.413 251.525 432.28C251.238 434.074 250.463 435.753 249.285 437.135C248.769 437.643 248.368 438.257 248.11 438.933C247.853 439.61 247.744 440.334 247.791 441.057C247.977 442.737 250.031 448.899 249.471 450.953C249.31 451.478 249.007 451.947 248.596 452.311C248.185 452.674 247.682 452.917 247.142 453.014C246.602 453.11 246.045 453.056 245.534 452.857C245.023 452.658 244.576 452.323 244.243 451.887C242.749 449.646 243.122 445.165 243.122 443.111C243.156 441.972 242.899 440.843 242.377 439.83C241.854 438.818 241.083 437.955 240.135 437.322C238.454 436.388 237.894 433.027 237.147 431.347C236.985 431.012 236.703 430.75 236.358 430.612C236.013 430.474 235.628 430.469 235.28 430.6C235.43 433.513 235.932 436.397 236.774 439.189C238.454 443.111 239.388 443.297 239.575 444.604C239.761 445.912 239.575 453.381 240.508 455.248C241.794 457.384 243.511 459.228 245.55 460.663H248.538L251.152 460.103C252.85 458.217 254.123 455.988 254.886 453.568C255.26 451.514 253.393 444.418 253.206 443.111Z" fill="white" stroke="#263238" stroke-width="0.66" stroke-miterlimit="10"/>
<path d="M228.931 421.636C228.931 421.636 227.624 421.636 227.624 422.757C227.617 423.703 227.742 424.646 227.998 425.558C227.998 426.118 227.438 427.238 228.371 428.172C228.761 428.45 229.235 428.584 229.712 428.55C230.189 428.516 230.64 428.316 230.985 427.985C231.17 427.709 231.269 427.384 231.269 427.052C231.269 426.719 231.17 426.394 230.985 426.118L230.425 424.437C230.532 423.809 230.467 423.164 230.239 422.57C230.052 421.823 229.678 421.45 228.931 421.636Z" fill="#263238" stroke="#263238" stroke-width="0.66" stroke-linecap="round" stroke-linejoin="round"/>
<path d="M229.118 423.13C228.969 423.13 228.827 423.071 228.722 422.966C228.617 422.861 228.558 422.719 228.558 422.57C227.811 416.968 229.491 414.914 229.865 414.541C230.238 414.167 232.292 413.98 233.413 413.98C233.561 413.98 233.704 414.039 233.809 414.145C233.914 414.25 233.973 414.392 233.973 414.541C233.786 414.914 233.6 415.101 233.226 415.101L230.612 415.474C230.612 415.474 229.118 417.155 229.678 422.57C229.678 422.719 229.619 422.861 229.514 422.966C229.409 423.071 229.267 423.13 229.118 423.13Z" fill="white" stroke="#263238" stroke-width="0.33" stroke-miterlimit="10"/>
<path d="M258.061 418.088C258.221 418.03 258.391 418.01 258.56 418.028C258.729 418.046 258.891 418.102 259.035 418.192C259.179 418.282 259.3 418.403 259.391 418.547C259.481 418.691 259.537 418.853 259.555 419.022C259.838 419.863 259.964 420.749 259.929 421.636C260.115 422.383 260.862 423.316 260.302 424.25C260.005 424.64 259.578 424.911 259.099 425.014C258.619 425.116 258.119 425.044 257.688 424.81C257.432 424.581 257.244 424.285 257.145 423.955C257.046 423.626 257.04 423.275 257.128 422.943C257.128 422.383 257.314 421.822 257.314 421.262C257.153 420.648 257.029 420.024 256.941 419.395C257.128 418.461 257.314 418.088 258.061 418.088Z" fill="#263238" stroke="#263238" stroke-width="0.66" stroke-linecap="round" stroke-linejoin="round"/>
<path d="M258.248 419.583C258.434 419.583 258.808 419.396 258.621 419.023C258.061 413.421 256.007 411.74 255.633 411.553C255.26 411.367 253.019 411.367 252.086 411.74C251.152 412.113 251.525 412.114 251.525 412.487L252.272 412.86C253.097 412.514 253.998 412.386 254.887 412.487C255.073 412.487 256.941 413.794 257.501 419.209C257.522 419.285 257.558 419.356 257.608 419.417C257.658 419.478 257.72 419.528 257.791 419.563C257.861 419.598 257.938 419.618 258.017 419.622C258.096 419.625 258.174 419.612 258.248 419.583Z" fill="white" stroke="#263238" stroke-width="0.33" stroke-miterlimit="10"/>
<path d="M229.118 312.772C228.174 314.946 227.789 317.321 227.998 319.681L228.558 323.229C229.618 323.893 230.856 324.219 232.106 324.163C233.304 323.92 234.406 323.336 235.28 322.482L234.907 319.121C234.479 316.578 233.384 314.194 231.732 312.212C231.536 312.044 231.303 311.923 231.052 311.859C230.802 311.796 230.54 311.791 230.287 311.845C230.034 311.899 229.796 312.011 229.594 312.172C229.391 312.333 229.228 312.538 229.118 312.772Z" fill="#263238" stroke="#263238" stroke-width="0.33" stroke-miterlimit="10"/>
<path d="M245.737 581.291C247.187 584.801 249.423 587.931 252.272 590.441C253.866 591.854 255.739 592.915 257.771 593.554C259.802 594.193 261.946 594.396 264.061 594.149C266.177 593.902 268.216 593.211 270.046 592.122C271.876 591.032 273.455 589.569 274.68 587.827C276.854 584.714 278.262 581.131 278.788 577.37L245.737 581.291Z" fill="#263238"/>
<path d="M367.299 142.848C368.034 136.298 366.155 129.722 362.07 124.549C360.746 122.899 359.09 121.546 357.21 120.576C355.331 119.606 353.268 119.041 351.157 118.918C349.045 118.795 346.931 119.116 344.951 119.861C342.971 120.606 341.17 121.757 339.662 123.241C334.957 127.743 332.208 133.912 332.007 140.421L325.097 341.903C324.724 348.438 324.351 354.974 323.79 361.509L303.81 570.087C303.43 573.302 303.696 576.561 304.594 579.672C305.492 582.782 307.003 585.682 309.039 588.2C310.331 589.887 311.969 591.279 313.843 592.283C315.717 593.287 317.783 593.88 319.904 594.021C322.025 594.163 324.152 593.85 326.142 593.103C328.133 592.357 329.941 591.195 331.446 589.694C336.163 585.123 338.91 578.893 339.102 572.328L346.571 363.003C346.758 356.467 347.318 349.932 347.879 343.396L367.299 142.848Z" fill="#DD1032"/>
<path d="M358.335 236.4L354.601 236.027L344.517 219.968L332.38 234.719L328.645 234.346L328.458 242.002L329.952 242.189L334.621 242.375L343.77 231.358L351.426 243.496L352.733 243.683L356.095 243.869H357.588L358.335 236.4Z" fill="#263238"/>
<path d="M353.107 258.247L343.023 242.188L331.072 256.753L327.898 256.567L327.338 272.812H327.898L332.566 272.999L341.716 261.982L349.372 274.119L350.679 274.306L354.04 274.493H354.601L356.094 258.434L353.107 258.247Z" fill="#263238"/>
<path d="M332.567 202.042L337.235 202.228L346.385 191.211L354.041 203.349L355.348 203.536L358.709 203.722L361.51 203.909L361.697 201.108L356.842 200.735L346.758 184.676L334.807 199.241L329.952 199.054L329.766 201.855L332.567 202.042Z" fill="#263238"/>
<path d="M355.721 219.594L345.637 203.349L333.5 218.1L329.392 217.727L329.205 220.715H331.259L336.114 221.088L345.264 209.884L352.733 222.208H354.04L357.401 222.582H359.642L359.829 219.781L355.721 219.594Z" fill="#263238"/>
<path d="M317.255 466.078L327.338 482.137L339.289 467.385L343.023 467.759L343.397 460.103L341.903 459.916L338.542 459.729L337.235 459.543L328.085 470.746L320.429 458.609L315.761 458.236L314.267 458.049L313.52 465.705L317.255 466.078Z" fill="#263238"/>
<path d="M315.574 443.671L318.749 443.858L328.832 459.917L340.783 445.165L343.77 445.538L344.331 429.293H343.957L340.409 429.106H339.102L329.952 440.123L322.483 427.986L317.815 427.612H317.255L315.574 443.671Z" fill="#263238"/>
<path d="M323.79 360.202L318.749 411.739H320.803L330.886 427.798L342.837 413.233H344.891L346.758 361.509H346.571C346.945 355.533 347.318 349.371 347.878 343.209L348.252 339.288L353.107 290.178H351.053L340.969 274.119L328.832 288.684H326.778L325.097 337.981V341.902C324.724 348.064 324.35 354.226 323.79 360.202Z" fill="#263238"/>
<path d="M339.289 500.063L335.741 499.876L334.434 499.689L325.471 510.893L317.815 498.755L313.146 498.382L310.345 498.195L310.159 500.996L315.014 501.37L324.91 517.429L337.048 502.864L341.903 503.05V500.249L339.289 500.063Z" fill="#263238"/>
<path d="M311.839 482.324L316.134 482.511L326.218 498.757L338.168 484.005L342.463 484.192L342.65 481.391H340.409L337.048 481.017H335.741L326.591 492.034L319.122 479.897L314.267 479.523H312.213L311.839 482.324Z" fill="#263238"/>
<path d="M339.662 123.241C334.957 127.743 332.207 133.912 332.006 140.421L331.633 151.064L339.662 148.263L340.783 132.205L344.891 129.404C346.564 128.233 348.587 127.669 350.624 127.805C352.661 127.941 354.591 128.768 356.094 130.15L359.829 133.325L358.709 149.57L366.365 153.305L367.298 142.848C368.034 136.298 366.155 129.722 362.07 124.549C360.746 122.899 359.09 121.546 357.21 120.576C355.33 119.606 353.268 119.041 351.156 118.918C349.045 118.795 346.931 119.116 344.951 119.861C342.971 120.606 341.169 121.757 339.662 123.241Z" fill="#263238"/>
<path d="M367.299 142.848C368.034 136.298 366.155 129.722 362.07 124.549C360.746 122.899 359.09 121.546 357.21 120.576C355.331 119.606 353.268 119.041 351.157 118.918C349.045 118.795 346.931 119.116 344.951 119.861C342.971 120.606 341.17 121.757 339.662 123.241C334.957 127.743 332.208 133.912 332.007 140.421L325.097 341.903C324.724 348.438 324.351 354.974 323.79 361.509L303.81 570.087C303.43 573.302 303.696 576.561 304.594 579.672C305.492 582.782 307.003 585.682 309.039 588.2C310.331 589.887 311.969 591.279 313.843 592.283C315.717 593.287 317.783 593.88 319.904 594.021C322.025 594.163 324.152 593.85 326.142 593.103C328.133 592.357 329.941 591.195 331.446 589.694C336.163 585.123 338.91 578.893 339.102 572.328L346.571 363.003C346.758 356.467 347.318 349.932 347.879 343.396L367.299 142.848Z" stroke="#263238" stroke-width="0.66" stroke-miterlimit="10"/>
<path d="M341.716 401.469C341.716 394.56 339.662 379.809 339.662 379.809C341.356 374.656 342.79 369.42 343.957 364.123C345.264 356.841 346.384 330.698 346.384 330.698C346.384 330.698 347.318 322.482 347.505 317.627C347.465 312.243 346.187 306.94 343.77 302.129C343.395 301.382 342.8 300.767 342.066 300.366C341.332 299.966 340.494 299.799 339.662 299.888C338.861 299.731 338.031 299.805 337.27 300.103C336.509 300.401 335.849 300.909 335.367 301.569C332.349 305.968 330.429 311.026 329.765 316.32C329.205 321.362 329.205 329.578 329.205 329.578C329.205 329.578 326.778 355.534 327.151 363.003C327.629 368.39 328.377 373.75 329.392 379.062C327.358 386.056 325.737 393.164 324.537 400.349C323.79 407.258 320.616 432.466 321.736 436.575C322.856 440.683 323.603 441.243 323.417 442.55C323.23 443.857 321.923 451.139 322.296 453.007C323.241 455.37 324.636 457.526 326.404 459.356L329.205 459.729C330.137 459.823 331.075 459.823 332.006 459.729C334.124 458.281 335.804 456.278 336.861 453.94C337.608 452.26 337.048 444.977 337.235 443.484C337.421 441.99 338.168 441.803 339.662 437.882C341.156 433.96 341.529 408.378 341.716 401.469Z" fill="white" stroke="#263238" stroke-width="0.66" stroke-miterlimit="10"/>
<path d="M347.505 317.627C347.465 312.243 346.187 306.94 343.77 302.129C343.395 301.382 342.801 300.767 342.067 300.366C341.332 299.966 340.494 299.799 339.662 299.888C338.861 299.731 338.031 299.805 337.27 300.103C336.509 300.401 335.849 300.909 335.367 301.569C332.35 305.968 330.429 311.026 329.766 316.32C329.205 321.362 329.205 329.578 329.205 329.578C329.205 329.578 327.151 351.799 327.151 361.136C328.085 361.509 332.193 363.19 332.753 366.177C333.313 369.165 332.193 370.659 332.753 372.339C332.888 372.758 333.143 373.128 333.486 373.403C333.829 373.678 334.246 373.846 334.684 373.885C335.122 373.925 335.562 373.835 335.949 373.627C336.336 373.418 336.653 373.1 336.861 372.713C337.982 370.845 336.861 367.484 337.795 366.177C339.559 364.328 341.734 362.92 344.144 362.069C345.451 352.919 346.385 330.698 346.385 330.698C346.385 330.698 347.318 322.482 347.505 317.627Z" fill="#263238" stroke="#263238" stroke-width="0.66" stroke-miterlimit="10"/>
<path d="M348.625 333.686C348.625 331.446 346.198 329.952 344.891 328.084L343.397 325.844L337.982 325.47L332.567 325.097C331.933 325.718 331.369 326.407 330.886 327.151C329.392 328.831 326.591 329.952 326.405 332.192C326.218 334.433 326.218 344.89 326.965 346.384C327.712 347.878 329.205 348.625 329.205 350.119C329.205 351.612 329.952 360.575 331.073 361.136C332.529 361.572 334.035 361.823 335.554 361.883C337.05 361.99 338.554 361.928 340.036 361.696C341.343 361.322 343.397 352.546 343.397 351.052C343.397 349.558 345.264 348.998 346.198 347.691C347.431 343.106 348.244 338.419 348.625 333.686Z" fill="#263238" stroke="#263238" stroke-width="0.66" stroke-miterlimit="10"/>
<path d="M329.392 342.649V344.33C329.392 344.578 329.491 344.815 329.666 344.99C329.841 345.165 330.078 345.264 330.326 345.264C334.259 345.273 338.187 345.523 342.09 346.011C342.837 346.197 343.21 345.824 343.397 345.077V343.583C343.386 343.346 343.311 343.117 343.179 342.919C343.047 342.722 342.865 342.564 342.65 342.463C338.572 341.375 334.317 341.121 330.139 341.716C329.925 341.759 329.733 341.877 329.597 342.047C329.46 342.218 329.388 342.431 329.392 342.649Z" fill="white"/>
<path d="M344.891 328.084L343.397 325.844L337.982 325.47L332.567 325.097C331.933 325.718 331.369 326.407 330.886 327.151C329.392 328.831 326.591 329.952 326.404 332.192C326.212 334.803 326.212 337.424 326.404 340.035C327.662 339.061 328.791 337.932 329.766 336.674C330.986 335.329 332.602 334.406 334.38 334.037C336.158 333.668 338.007 333.872 339.662 334.62C343.957 336.114 344.517 339.662 345.824 340.782L347.505 342.089C348.024 339.309 348.398 336.505 348.625 333.686C348.625 331.446 346.198 329.952 344.891 328.084Z" fill="#787878" stroke="#263238" stroke-width="0.66" stroke-miterlimit="10"/>
<path d="M347.505 317.627C347.465 312.243 346.187 306.94 343.77 302.129C343.395 301.382 342.801 300.767 342.066 300.366C341.332 299.966 340.494 299.799 339.662 299.888C338.861 299.731 338.031 299.805 337.27 300.103C336.509 300.401 335.849 300.909 335.367 301.569C332.35 305.968 330.429 311.026 329.766 316.32C329.536 318.242 329.411 320.174 329.392 322.109V322.482L332.38 325.097L343.21 325.844L346.758 323.976C347.176 321.883 347.426 319.76 347.505 317.627Z" fill="white" stroke="#263238" stroke-width="0.66" stroke-miterlimit="10"/>
<path d="M333.313 376.635C333.313 376.635 331.259 378.689 331.446 379.435C331.633 380.182 332.566 382.797 334.06 382.797C335.554 382.797 337.048 380.182 337.048 379.435C336.561 378.317 335.864 377.303 334.994 376.448C334.434 376.074 334.06 376.074 333.313 376.635Z" fill="#263238"/>
<path d="M329.392 383.729C329.392 383.729 327.898 393.066 327.898 393.626C327.898 394.186 329.579 392.693 330.139 388.398C330.699 384.103 330.139 384.103 329.392 383.729Z" fill="#263238"/>
<path d="M338.542 384.291C338.542 384.291 338.915 393.814 338.729 394.374C338.542 394.935 337.235 393.067 337.235 388.773C337.235 384.478 337.795 384.478 338.542 384.291Z" fill="#263238"/>
<path d="M341.716 401.47C341.002 400.179 340.124 398.986 339.102 397.922C336.861 395.308 335.554 393.814 335.741 392.507C335.993 390.902 336.056 389.272 335.928 387.652C335.864 387.16 335.65 386.699 335.316 386.332C334.983 385.965 334.544 385.708 334.06 385.598C334.06 385.598 332.193 385.411 331.446 387.839C330.699 390.266 331.819 392.881 330.886 394.188C329.952 395.495 326.218 397.549 324.537 400.35C323.79 407.259 320.616 432.467 321.736 436.575C322.856 440.683 323.603 441.244 323.417 442.551C323.23 443.858 321.923 451.14 322.296 453.008C323.241 455.37 324.636 457.527 326.404 459.356L329.205 459.73C330.137 459.824 331.075 459.824 332.006 459.73C334.124 458.282 335.804 456.279 336.861 453.941C337.608 452.261 337.048 444.978 337.235 443.484C337.421 441.991 338.168 441.804 339.662 437.883C341.156 433.961 341.529 408.379 341.716 401.47Z" fill="#263238" stroke="#263238" stroke-width="0.66" stroke-miterlimit="10"/>
<path d="M331.26 428.171C329.02 427.996 326.818 427.492 324.724 426.678C324.537 426.491 324.351 426.304 324.351 426.117L323.977 414.167C323.977 414.018 324.036 413.876 324.141 413.771C324.246 413.666 324.389 413.606 324.537 413.606C324.911 413.606 325.284 413.793 325.284 414.167V425.744C328.781 427.172 332.644 427.434 336.301 426.491L338.729 415.1C338.915 414.727 339.102 414.54 339.476 414.727C339.849 414.914 340.036 415.1 339.849 415.287L337.235 427.051C337.235 427.15 337.196 427.245 337.126 427.315C337.055 427.385 336.96 427.425 336.861 427.425C335.076 428.098 333.159 428.353 331.26 428.171Z" fill="#969696"/>
<path d="M325.471 410.619H325.284C325.154 410.546 325.05 410.435 324.983 410.302C324.917 410.169 324.891 410.019 324.911 409.872L327.525 403.523C327.712 403.336 327.898 403.149 328.085 403.336L337.608 403.896C337.707 403.896 337.802 403.936 337.872 404.006C337.942 404.076 337.982 404.171 337.982 404.27L339.662 410.432C339.849 410.805 339.662 410.992 339.289 411.179L338.542 410.805L337.048 405.017L328.458 404.457L326.031 410.245L325.471 410.619Z" fill="#969696"/>
<path d="M329.392 366.551C329.335 368.612 329.46 370.674 329.766 372.713C329.952 373.087 330.699 370.286 330.699 368.792C330.699 367.298 329.392 365.244 329.392 366.551Z" fill="#263238"/>
<path d="M340.97 367.297C340.97 367.297 340.036 373.272 339.849 373.459C339.662 373.646 339.102 370.845 339.289 369.351C339.476 367.857 340.97 365.99 340.97 367.297Z" fill="#263238"/>
<path d="M337.235 443.484C337.235 442.177 338.168 441.803 339.662 437.882C340.411 435.208 340.788 432.443 340.783 429.666L339.289 429.292C338.168 429.292 337.982 430.786 337.608 432.653C336.899 434.313 335.812 435.784 334.434 436.948C333.827 437.344 333.313 437.866 332.927 438.478C332.54 439.09 332.29 439.778 332.193 440.496C332.006 442.177 332.94 448.712 331.82 450.579C331.616 451.108 331.258 451.562 330.791 451.883C330.324 452.203 329.771 452.375 329.205 452.375C328.639 452.375 328.086 452.203 327.62 451.883C327.153 451.562 326.794 451.108 326.591 450.579C325.471 448.152 326.778 443.857 327.338 441.616C327.511 440.5 327.415 439.358 327.057 438.287C326.7 437.215 326.092 436.244 325.284 435.454C323.79 434.147 323.79 430.786 323.417 429.106C323.043 427.425 322.296 427.985 321.736 427.985C321.34 430.835 321.34 433.725 321.736 436.575C322.67 440.87 323.603 441.243 323.417 442.55C323.23 443.857 321.923 451.14 322.296 453.007C323.241 455.37 324.636 457.526 326.404 459.356L329.205 459.729C330.137 459.823 331.075 459.823 332.006 459.729C334.124 458.281 335.804 456.278 336.861 453.941C337.608 452.26 337.048 444.978 337.235 443.484Z" fill="white" stroke="#263238" stroke-width="0.66" stroke-miterlimit="10"/>
<path d="M317.255 417.901C317.255 417.901 315.948 417.715 315.761 418.835C315.622 419.762 315.56 420.699 315.574 421.636C315.574 422.383 314.827 423.316 315.388 424.25C315.535 424.446 315.719 424.612 315.93 424.737C316.141 424.861 316.375 424.944 316.617 424.978C316.86 425.013 317.107 424.999 317.345 424.939C317.582 424.878 317.806 424.771 318.002 424.624C318.219 424.368 318.381 424.07 318.478 423.749C318.574 423.427 318.603 423.089 318.562 422.756C318.349 422.22 318.223 421.652 318.188 421.076C318.363 420.47 318.426 419.837 318.375 419.208C318.188 418.275 318.002 417.901 317.255 417.901Z" fill="#263238" stroke="#263238" stroke-width="0.66" stroke-linecap="round" stroke-linejoin="round"/>
<path d="M317.255 419.582C316.881 419.582 316.694 419.208 316.694 418.835C317.068 413.233 318.935 411.552 319.309 411.179C320.482 410.868 321.723 410.933 322.856 411.366C322.93 411.366 323.003 411.38 323.071 411.408C323.139 411.436 323.201 411.478 323.253 411.53C323.305 411.582 323.346 411.643 323.374 411.711C323.402 411.779 323.417 411.852 323.417 411.926C323.23 412.299 323.043 412.486 322.67 412.486C321.821 412.236 320.94 412.11 320.055 412.113C319.869 412.299 318.188 413.606 317.815 419.022C317.815 419.095 317.8 419.168 317.772 419.236C317.744 419.304 317.703 419.366 317.651 419.418C317.599 419.47 317.537 419.511 317.469 419.539C317.401 419.567 317.328 419.582 317.255 419.582Z" fill="white" stroke="#263238" stroke-width="0.33" stroke-miterlimit="10"/>
<path d="M346.384 419.956C346.556 419.929 346.732 419.938 346.9 419.98C347.069 420.022 347.228 420.098 347.367 420.202C347.506 420.306 347.623 420.438 347.711 420.588C347.798 420.738 347.855 420.904 347.878 421.076C347.878 422.197 347.691 422.943 347.691 423.69C347.691 424.437 348.252 425.558 347.505 426.305C347.156 426.647 346.686 426.838 346.198 426.838C345.709 426.838 345.24 426.647 344.891 426.305C344.677 426.047 344.546 425.732 344.512 425.399C344.479 425.067 344.546 424.732 344.704 424.437C344.894 423.958 345.02 423.456 345.077 422.943C345.264 422.383 345.077 421.636 345.264 420.889C345.451 420.143 345.824 419.769 346.384 419.956Z" fill="#263238" stroke="#263238" stroke-width="0.66" stroke-linecap="round" stroke-linejoin="round"/>
<path d="M346.385 421.45C346.458 421.45 346.531 421.436 346.599 421.408C346.667 421.38 346.729 421.338 346.781 421.286C346.833 421.234 346.874 421.173 346.902 421.105C346.93 421.037 346.945 420.964 346.945 420.89C347.318 415.288 345.638 413.234 345.264 413.047C344.891 412.861 342.837 412.487 341.716 412.487C341.568 412.487 341.425 412.546 341.32 412.651C341.215 412.756 341.156 412.899 341.156 413.047C341.156 413.421 341.53 413.608 341.903 413.608H344.517C344.517 413.608 346.198 415.288 345.825 420.703C345.794 420.791 345.785 420.884 345.798 420.975C345.812 421.067 345.849 421.153 345.904 421.227C345.96 421.301 346.033 421.36 346.116 421.399C346.2 421.438 346.292 421.456 346.385 421.45Z" fill="white" stroke="#263238" stroke-width="0.33" stroke-miterlimit="10"/>
<path d="M337.608 310.905H337.421C336.102 312.844 335.328 315.101 335.181 317.441V320.989C336.004 321.881 337.143 322.416 338.355 322.483C339.631 322.524 340.883 322.129 341.903 321.362V318.188C342.123 315.644 341.535 313.096 340.222 310.905C340.093 310.672 339.904 310.477 339.674 310.342C339.444 310.206 339.182 310.135 338.915 310.135C338.648 310.135 338.386 310.206 338.157 310.342C337.927 310.477 337.737 310.672 337.608 310.905Z" fill="#263238" stroke="#263238" stroke-width="0.33" stroke-miterlimit="10"/>
<path d="M304.184 577.93C305.03 581.668 306.687 585.174 309.039 588.2C310.331 589.887 311.969 591.28 313.843 592.284C315.717 593.288 317.783 593.88 319.904 594.021C322.025 594.163 324.152 593.85 326.142 593.104C328.133 592.357 329.941 591.195 331.446 589.694C334.213 587.042 336.323 583.781 337.608 580.17L304.184 577.93Z" fill="#263238"/>
<path d="M185.236 562.618L181.688 562.804L167.31 297.834L174.032 297.647L185.236 562.618Z" fill="#DD1032" stroke="#263238" stroke-width="0.66" stroke-miterlimit="10"/>
<path d="M179.634 174.032C179.704 174.716 179.563 175.405 179.229 176.006C178.895 176.607 178.385 177.092 177.767 177.394C175.526 178.327 172.352 179.074 170.858 183.742C169.364 188.411 169.924 214.366 171.605 219.408C173.285 224.45 175.9 223.329 174.779 225.943C173.659 228.558 170.484 227.064 171.231 231.545C171.978 236.027 173.099 286.631 174.966 289.245C176.833 291.859 177.954 291.486 176.086 294.66C174.219 297.835 175.526 299.702 175.153 301.196L166.75 301.569C166.75 301.569 164.136 299.702 164.322 298.395C164.888 296.56 165.325 294.688 165.63 292.793C165.443 291.486 162.455 235.28 162.455 235.28C162.455 235.28 159.467 233.599 159.654 230.985C159.841 228.371 160.028 227.251 160.028 225.757C160.028 224.263 158.16 211.378 157.6 200.922C157.04 190.465 160.028 181.875 159.467 179.634C158.907 177.394 156.48 176.833 158.16 173.846C159.841 170.858 166.937 170.858 170.484 171.045C173.776 171.031 176.985 172.079 179.634 174.032Z" fill="#263238" stroke="#263238" stroke-width="0.66" stroke-miterlimit="10"/>
<path d="M170.485 171.045C166.937 170.858 159.654 170.858 158.16 173.846C156.667 176.833 159.094 177.394 159.467 179.634C159.572 180.758 159.509 181.891 159.281 182.996C163.253 181.189 167.654 180.542 171.978 181.128C173.441 179.276 175.477 177.962 177.767 177.394C178.385 177.092 178.895 176.607 179.229 176.006C179.563 175.405 179.704 174.716 179.634 174.032C176.985 172.079 173.776 171.031 170.485 171.045Z" fill="#DD1032" stroke="#263238" stroke-width="0.66" stroke-miterlimit="10"/>
<path d="M159.468 179.634C159.468 179.634 149.384 180.941 149.571 191.211C149.758 201.481 151.812 216.98 150.878 224.823C149.944 232.665 142.849 242.936 142.849 242.936C142.849 242.936 145.463 217.54 145.276 207.644C145.089 197.747 145.463 189.904 149.011 185.609C152.559 181.315 156.853 178.887 159.468 179.634Z" fill="#263238" stroke="#263238" stroke-width="0.66" stroke-miterlimit="10"/>
<path d="M157.6 177.394C157.6 177.394 149.197 180.194 146.21 186.917C143.222 193.639 136.873 216.42 133.699 227.997C130.524 239.575 128.844 240.695 130.338 241.442C131.831 242.189 140.608 244.803 142.849 242.936C145.089 241.069 148.45 227.437 148.824 218.101C149.197 208.764 147.33 197.56 149.571 191.212C151.812 184.863 157.787 179.074 159.468 179.634L157.6 177.394Z" fill="#263238" stroke="#263238" stroke-width="0.66" stroke-miterlimit="10"/>
<path d="M181.875 444.231L173.099 444.792C173.099 444.792 170.111 448.153 170.484 451.327C170.858 454.502 170.858 454.688 171.978 456.182L173.285 457.863L182.435 457.489L181.875 444.231Z" fill="#263238" stroke="#263238" stroke-width="0.66" stroke-miterlimit="10"/>
<path d="M181.688 566.726L183.182 590.067L185.05 594.175L186.543 589.88L185.797 566.539L181.688 566.726Z" fill="#DD1032" stroke="#263238" stroke-width="0.66" stroke-miterlimit="10"/>
<path d="M199.055 559.817C195.408 559.183 191.731 558.746 188.038 558.509L185.983 553.468H180.008L178.514 558.509C174.855 559.079 171.236 559.889 167.684 560.937C163.016 562.431 162.642 561.497 163.016 562.431C163.389 563.364 166.75 562.991 166.75 562.991C166.75 562.991 163.949 565.418 164.696 565.418H168.057C168.991 565.418 177.954 563.364 177.954 563.364L181.689 566.352H185.423L188.971 562.804L198.868 564.111L202.229 563.738C203.163 563.551 199.988 561.31 199.988 561.31C199.988 561.31 203.536 561.31 203.723 560.377C203.91 559.443 203.723 560.75 199.055 559.817Z" fill="#263238" stroke="#263238" stroke-width="0.66" stroke-miterlimit="10"/>
<path d="M377.942 562.618L381.49 562.804L395.681 297.834L389.146 297.647L377.942 562.618Z" fill="#DD1032" stroke="#263238" stroke-width="0.66" stroke-miterlimit="10"/>
<path d="M383.544 174.032C383.409 174.723 383.523 175.439 383.865 176.053C384.206 176.668 384.754 177.143 385.411 177.394C387.652 178.327 390.826 179.074 392.32 183.742C393.814 188.411 393.067 214.366 391.386 219.408C389.706 224.45 387.278 223.329 388.212 225.943C389.146 228.558 392.507 227.064 391.76 231.545C391.013 236.027 389.893 286.631 388.025 289.245C386.158 291.859 385.038 291.486 386.905 294.66C388.772 297.835 387.652 299.702 387.838 301.196L396.241 301.569C396.241 301.569 398.856 299.702 398.669 298.395C398.081 296.577 397.705 294.697 397.548 292.793C397.548 291.486 400.536 235.28 400.536 235.28C400.536 235.28 403.524 233.599 403.337 230.985C403.15 228.371 402.964 227.251 402.964 225.757C402.964 224.263 404.831 211.378 405.391 200.922C405.951 190.465 403.15 181.875 403.524 179.634C403.897 177.394 406.511 176.833 405.018 173.846C403.524 170.858 396.055 170.858 392.693 171.045C389.391 170.96 386.16 172.015 383.544 174.032Z" fill="#263238" stroke="#263238" stroke-width="0.66" stroke-miterlimit="10"/>
<path d="M392.693 171.045C396.055 170.858 403.337 170.858 405.018 173.846C406.698 176.833 403.897 177.394 403.524 179.634C403.419 180.758 403.482 181.891 403.711 182.996C399.747 181.159 395.337 180.51 391.013 181.128C389.581 179.329 387.622 178.023 385.411 177.394C384.754 177.143 384.206 176.668 383.865 176.053C383.523 175.439 383.409 174.723 383.544 174.032C386.16 172.015 389.391 170.96 392.693 171.045Z" fill="#DD1032" stroke="#263238" stroke-width="0.66" stroke-miterlimit="10"/>
<path d="M403.524 179.634C403.524 179.634 413.607 180.941 413.421 191.211C413.234 201.481 411.367 216.98 412.114 224.823C412.86 232.665 420.143 242.936 420.143 242.936C420.143 242.936 417.715 217.54 417.902 207.644C418.089 197.747 417.529 189.904 413.981 185.609C410.433 181.315 406.138 178.887 403.524 179.634Z" fill="#263238" stroke="#263238" stroke-width="0.66" stroke-miterlimit="10"/>
<path d="M405.391 177.394C405.391 177.394 413.981 180.194 416.782 186.917C419.583 193.639 426.118 216.42 429.293 227.997C432.467 239.575 434.334 240.695 432.841 241.442C431.347 242.189 422.384 244.803 420.143 242.936C417.902 241.069 414.541 227.437 414.168 218.101C413.794 208.764 415.661 197.56 413.421 191.212C411.18 184.863 405.204 179.074 403.524 179.634L405.391 177.394Z" fill="#263238" stroke="#263238" stroke-width="0.66" stroke-miterlimit="10"/>
<path d="M381.116 444.231L389.893 444.792C389.893 444.792 393.067 448.153 392.507 451.327C391.947 454.502 392.133 454.688 391.013 456.182L389.893 457.863L380.556 457.489L381.116 444.231Z" fill="#263238" stroke="#263238" stroke-width="0.66" stroke-miterlimit="10"/>
<path d="M381.303 566.726L379.996 590.067L377.942 594.175L376.448 589.88L377.382 566.539L381.303 566.726Z" fill="#DD1032" stroke="#263238" stroke-width="0.66" stroke-miterlimit="10"/>
<path d="M363.937 559.817C367.645 559.178 371.385 558.742 375.141 558.509L377.195 553.468H382.984L384.477 558.509C388.2 559.07 391.881 559.881 395.495 560.937C400.163 562.431 400.536 561.497 400.163 562.431C399.789 563.364 396.241 562.991 396.241 562.991C396.241 562.991 399.229 565.418 398.295 565.418H394.934L385.038 563.364L381.303 566.352H377.568L374.021 562.804L364.124 564.111L360.763 563.738C359.829 563.551 363.003 561.31 363.003 561.31C363.003 561.31 359.456 561.31 359.269 560.377C359.082 559.443 359.269 560.75 363.937 559.817Z" fill="#263238" stroke="#263238" stroke-width="0.66" stroke-miterlimit="10"/>
<path d="M642.725 610.234C611.541 607.059 549.92 599.964 478.963 587.453C376.448 569.527 361.136 572.888 268.145 575.502C175.153 578.116 68.3433 596.042 68.3433 596.042" fill="white"/>
<path d="M642.725 610.234C611.541 607.059 549.92 599.964 478.963 587.453C376.448 569.527 361.136 572.888 268.145 575.502C175.153 578.116 68.3433 596.042 68.3433 596.042" stroke="#263238" stroke-width="0.66" stroke-miterlimit="10"/>
<path d="M664.199 612.289L651.128 610.981Z" fill="white"/>
<path d="M664.199 612.289L651.128 610.981" stroke="#263238" stroke-width="0.66" stroke-miterlimit="10"/>
</g>
</svg>
