<svg width="390" height="189" viewBox="0 0 390 189" fill="none" xmlns="http://www.w3.org/2000/svg">
<path d="M325 101.768C325 98.8543 325.795 97 327.384 97C328.974 97 333.477 105.741 347.517 105.741C361.558 105.741 360.498 97.7947 360.498 102.033C360.498 106.271 353.345 112.364 346.193 112.364C339.04 112.364 325 104.947 325 101.768Z" fill="#3BB0E6"/>
<g opacity="0.9">
<path d="M76.308 153.193C77.1027 157.696 77.6326 161.669 78.4273 164.848C79.2221 168.026 80.2817 170.675 81.0764 172.794C81.7193 174.625 82.5169 176.397 83.4606 178.092L85.0501 180.741C85.315 181.536 85.315 181.801 85.0501 182.066C84.4199 182.468 83.6759 182.653 82.9307 182.595C81.0313 182.717 79.1513 182.153 77.6326 181.006C75.1362 179.52 72.9721 177.536 71.2747 175.179C68.9903 171.984 67.1209 168.513 65.7116 164.848C63.7919 160.1 62.5437 155.107 62.0029 150.014C61.4731 146.306 61.2082 142.067 60.9433 137.564C60.6784 133.061 60.6783 128.558 60.4134 124.055L56.1749 126.704L49.8171 130.412C48.2276 134.915 46.3732 139.418 44.5189 144.186C42.6645 148.954 40.5453 153.458 38.6909 157.696C36.8365 161.934 34.4523 166.172 32.333 169.881C30.507 173.271 28.4721 176.544 26.2401 179.682C24.5383 182.181 22.3816 184.337 19.8823 186.039C18.2639 187.434 16.1907 188.188 14.0543 188.158C11.4858 187.846 8.98271 187.13 6.63685 186.039C4.8625 185.432 3.2995 184.329 2.13335 182.86C1.13503 181.446 0.498361 179.809 0.278996 178.092C0.0513801 176.336 -0.0371741 174.565 0.0141112 172.794C0.608304 169.069 2.05922 165.533 4.25264 162.464C6.79307 158.564 9.81973 155.004 13.2596 151.868C16.9102 148.332 20.8052 145.057 24.9156 142.067L37.8961 133.061C39.4856 129.617 40.8102 125.909 42.1347 122.201C43.6886 118.85 45.0162 115.398 46.1083 111.87C47.4329 108.691 57.4994 84.0563 62.7976 77.9639C63.8572 76.6394 65.7117 76.9043 67.566 77.434C69.439 77.7253 71.1874 78.5535 72.5993 79.8181C73.3722 80.324 74.0308 80.9859 74.5327 81.7615C75.0345 82.537 75.3685 83.4089 75.5133 84.3212C75.5133 85.6457 75.5133 87.7648 75.7782 90.9435C76.0431 94.1221 75.7782 97.5657 75.5133 101.804V114.784C75.2484 119.552 75.2484 124.32 75.2484 129.088C75.2484 133.856 75.5133 138.094 75.5133 142.332C75.5133 146.57 76.0431 150.014 76.308 153.193ZM6.90173 182.066C8.12842 182.028 9.33225 181.724 10.43 181.175C11.5277 180.626 12.4931 179.845 13.2596 178.887C15.911 176.077 18.2228 172.966 20.1472 169.616C22.9527 165.304 25.432 160.788 27.5647 156.106C30.2138 151.074 32.5979 145.776 34.9821 140.213L23.591 148.425C19.8823 151.338 16.7034 154.252 13.5245 157.166C10.7578 159.72 8.27123 162.561 6.107 165.642C4.35954 167.89 3.17841 170.525 2.66321 173.324C2.59988 174.654 2.68873 175.988 2.92809 177.298C3.1188 178.405 3.47609 179.476 3.98775 180.476C4.76376 181.305 5.78522 181.862 6.90173 182.066ZM60.4134 120.081V109.221C60.4134 105.777 60.6784 102.334 60.6784 99.1551L56.9696 110.28C55.6451 114.784 53.7907 119.552 51.9364 124.849L56.7047 122.201L60.4134 120.081Z" fill="#3BB0E6"/>
<path d="M116.839 120.079C117.104 119.549 117.634 119.284 118.958 119.814C120.325 120.385 121.45 121.416 122.137 122.728C123.587 124.665 124.5 126.949 124.786 129.35C125.022 132.829 124.664 136.322 123.727 139.681C122.667 143.654 121.343 147.893 120.018 151.866C118.693 155.839 117.104 159.813 115.779 162.991C114.455 166.17 112.601 170.408 111.011 173.852C109.422 177.295 110.481 174.911 109.687 174.911C108.941 174.969 108.198 174.783 107.567 174.382C107.403 174.567 107.198 174.711 106.968 174.803C106.738 174.895 106.49 174.932 106.243 174.911C103.745 174.612 101.416 173.494 99.6201 171.733C96.8977 169.145 94.6555 166.096 92.9973 162.726C90.6092 157.999 88.7437 153.025 87.4342 147.893C85.9757 141.283 85.2647 134.53 85.3149 127.761C85.3535 127.218 85.2628 126.673 85.05 126.172V124.317L85.8447 122.728C86.475 122.326 87.2188 122.14 87.964 122.198C89.3571 122.098 90.7562 122.28 92.0766 122.736C93.397 123.191 94.6115 123.909 95.6464 124.847C97.1943 126.602 98.0428 128.865 98.0306 131.204C98.0254 137.257 98.6467 143.293 99.8849 149.217C100.984 153.609 102.311 157.942 103.859 162.197C104.388 160.607 105.448 158.488 106.243 156.104L109.422 149.217C110.418 147.057 111.303 144.846 112.071 142.595C112.802 140.87 113.421 139.101 113.925 137.297C114.985 133.588 115.515 130.675 116.044 128.82C116.574 126.966 116.574 125.377 116.574 124.317C116.837 123.544 116.837 122.706 116.574 121.933C116.552 121.304 116.641 120.677 116.839 120.079Z" fill="#3BB0E6"/>
<path d="M168.497 145.514L169.291 144.454C169.556 144.454 169.821 144.189 170.086 144.454L170.616 144.984V146.309C170.193 147.136 169.924 148.034 169.821 148.957L167.967 153.99C167.161 156.096 166.187 158.134 165.053 160.083C164.039 162.22 162.698 164.186 161.079 165.91C159.545 167.768 157.653 169.3 155.516 170.414C153.47 171.736 151.062 172.385 148.628 172.268C145.49 172.383 142.379 171.651 139.621 170.149C136.953 168.928 134.598 167.116 132.734 164.851C129.147 160.826 127.084 155.67 126.906 150.282C126.981 147.166 127.336 144.063 127.965 141.011C128.65 138.213 129.535 135.469 130.614 132.799C131.489 130.543 132.646 128.407 134.058 126.442L137.237 122.204C138.394 121.277 139.757 120.641 141.211 120.349C142.747 119.83 144.357 119.562 145.979 119.555H150.483L153.927 120.349C155.524 121.328 156.74 122.823 157.37 124.588C158.45 126.815 158.994 129.264 158.96 131.74C159.271 135.957 158.151 140.157 155.781 143.66C154.808 144.906 153.561 145.913 152.137 146.602C150.713 147.291 149.15 147.643 147.569 147.633L143.86 147.103L140.416 146.309C140.286 148.72 140.555 151.136 141.211 153.461C141.68 155.688 142.483 157.831 143.595 159.818C144.442 161.45 145.614 162.893 147.039 164.056C147.541 164.618 148.152 165.073 148.835 165.391C149.518 165.71 150.259 165.887 151.013 165.91C152.985 165.952 154.923 165.399 156.576 164.321C158.288 163.479 159.818 162.309 161.079 160.877C162.433 159.506 163.512 157.887 164.258 156.109L166.642 151.341L167.967 147.368C168.232 146.309 168.497 145.779 168.497 145.514ZM150.218 128.031C148.872 128.069 147.574 128.533 146.509 129.356C145.418 130.429 144.522 131.684 143.86 133.064C142.951 134.742 142.24 136.52 141.741 138.362C141.476 140.216 140.946 142.335 140.681 144.454C142.328 145.257 144.207 145.445 145.979 144.984C147.47 144.68 148.793 143.83 149.688 142.6C150.733 141.343 151.54 139.907 152.072 138.362C152.351 136.785 152.528 135.193 152.602 133.594C152.591 132.253 152.413 130.918 152.072 129.62C151.542 128.561 151.012 128.031 150.218 128.031Z" fill="#3BB0E6"/>
<path d="M209.558 126.704C209.574 127.858 209.485 129.01 209.293 130.148C209.028 131.737 208.498 133.591 208.233 135.711C207.968 137.83 207.438 139.949 207.173 142.068C206.908 144.187 206.114 146.571 205.849 148.69C205.584 150.809 205.054 152.928 204.789 154.783C204.582 156.363 204.494 157.957 204.524 159.551C204.447 162.379 204.535 165.209 204.789 168.027C204.954 169.457 205.22 170.873 205.584 172.265C205.703 173.072 205.88 173.869 206.114 174.649C206.379 174.914 206.379 175.709 206.379 176.239C206.379 176.769 205.584 177.298 204.259 177.298C202.386 177.235 200.56 176.687 198.961 175.709C196.901 174.351 195.179 172.538 193.928 170.411C192.216 167.438 191.389 164.038 191.544 160.61C191.544 157.696 191.809 155.048 192.074 152.134L192.868 143.657C193.056 140.989 193.41 138.335 193.928 135.711C194.458 133.062 194.723 130.943 194.988 129.088C195.252 127.234 193.663 133.062 192.603 135.711C191.544 138.359 190.749 141.273 189.954 144.187C189.159 147.101 188.1 150.544 187.04 153.458C185.981 156.372 185.186 159.551 184.391 162.2C183.596 164.848 182.537 167.497 181.742 169.352C181.189 170.92 180.479 172.429 179.623 173.855L178.828 174.914H177.239C176.128 174.956 175.023 174.738 174.012 174.278C173 173.818 172.109 173.129 171.411 172.265C169.727 170.493 168.381 168.428 167.437 166.173C166.543 163.488 165.835 160.744 165.318 157.961C165.053 155.048 164.523 152.399 164.523 149.75C164.318 147.549 164.229 145.338 164.258 143.128V139.154L163.728 138.624V138.095C163.463 138.095 163.463 137.565 163.463 137.3C163.463 137.035 164.258 136.505 165.848 136.24H170.616C172.356 136.397 174.057 136.845 175.649 137.565C176.328 137.86 176.911 138.339 177.332 138.947C177.753 139.555 177.996 140.269 178.033 141.008C178.033 141.538 177.768 142.598 177.768 143.922V148.69C177.768 150.28 177.504 151.869 177.504 153.458V156.902C177.449 158.144 177.538 159.388 177.768 160.61C177.726 161.677 177.815 162.744 178.033 163.789C178.563 161.67 179.358 159.286 180.153 156.637C180.947 153.988 182.007 151.074 183.067 148.16L186.245 139.684C187.57 136.77 188.63 134.121 189.954 131.472C190.91 129.284 192.158 127.234 193.663 125.38C194.456 123.856 195.646 122.575 197.107 121.671L197.901 121.142H200.816C201.817 121.038 202.828 121.221 203.73 121.671L207.968 123.526C208.462 123.896 208.862 124.376 209.138 124.927C209.414 125.479 209.558 126.087 209.558 126.704Z" fill="#3BB0E6"/>
<path d="M274.195 106.571C275.52 106.571 276.315 107.101 276.05 107.63C275.785 108.16 275.255 108.69 273.93 108.955L266.513 110.809L256.446 112.663L244.79 114.253L232.604 115.577L231.015 126.173C230.22 129.881 229.69 133.325 229.161 136.768C228.631 140.212 228.366 143.655 228.101 146.834C227.685 149.551 227.508 152.298 227.571 155.046C227.571 159.549 227.836 163.257 228.101 166.171C228.366 169.085 228.896 171.999 229.426 174.118C229.839 175.83 230.37 177.512 231.015 179.151C231.507 179.972 231.864 180.866 232.075 181.8C232.34 182.594 232.34 182.859 232.075 183.124H230.22C228.432 182.996 226.745 182.246 225.452 181.005C223.332 179.341 221.688 177.148 220.684 174.648C218.962 171.398 217.714 167.919 216.975 164.317C215.848 159.724 215.313 155.006 215.385 150.278C215.472 144.692 215.915 139.119 216.71 133.59C217.505 127.497 218.299 121.67 219.359 115.842H213.001L207.438 115.312L200.55 113.988L194.722 111.604L189.954 108.955L185.716 106.041C184.656 105.511 184.391 104.717 184.656 104.452C184.709 104.299 184.797 104.161 184.912 104.047C185.028 103.934 185.167 103.848 185.321 103.797C185.474 103.746 185.637 103.731 185.798 103.752C185.958 103.774 186.111 103.832 186.245 103.922L202.405 106.041L220.948 107.101L221.478 104.187C222.273 100.213 222.803 96.7699 223.333 94.121C223.758 92.2038 224.024 90.2545 224.127 88.2934C224.127 85.9094 224.657 84.5849 225.982 84.0551C226.609 83.7855 227.285 83.6465 227.969 83.6465C228.652 83.6465 229.328 83.7855 229.955 84.0551C231.64 84.6931 233.11 85.7952 234.194 87.2338C235.418 88.6214 236.08 90.4165 236.048 92.2667C236.07 93.7722 235.982 95.2774 235.783 96.7699C235.519 98.6241 234.989 101.008 234.724 103.922L234.194 107.101H274.195V106.571Z" fill="#3BB0E6"/>
<path d="M272.341 159.813C272.345 162.207 272.522 164.597 272.871 166.965L273.93 171.203C274.193 171.976 274.193 172.814 273.93 173.587C273.93 174.117 273.401 174.382 272.341 174.382C270.705 174.285 269.095 173.928 267.573 173.322C265.964 172.8 264.509 171.89 263.334 170.674C261.918 169.353 260.83 167.72 260.155 165.906C259.232 163.636 258.781 161.203 258.831 158.754V156.634C258.801 155.744 258.89 154.853 259.096 153.986L251.678 172.793C251.696 173.282 251.884 173.75 252.208 174.117V175.442C252.208 175.971 251.943 176.236 251.148 176.501H248.499C247.261 176.194 246.092 175.655 245.055 174.912C243.693 174.009 242.447 172.941 241.347 171.733C240.254 170.08 239.364 168.301 238.698 166.435C237.901 164.047 237.542 161.534 237.638 159.018C237.638 156.37 237.638 153.191 237.903 150.012C238.168 146.833 238.433 143.655 238.962 140.741C239.492 137.827 239.492 134.913 239.757 132.794C239.947 131.124 240.035 129.443 240.022 127.761C240.061 127.218 239.97 126.673 239.757 126.172C239.491 125.583 239.313 124.958 239.227 124.318C239.186 123.86 239.278 123.4 239.492 122.993C240.122 122.591 240.866 122.405 241.611 122.464L245.585 122.993L249.294 124.583C250.334 125.066 251.243 125.793 251.943 126.702C252.278 127.002 252.546 127.369 252.729 127.78C252.911 128.191 253.005 128.636 253.003 129.086C253.029 130.429 252.85 131.769 252.473 133.059C252.208 134.913 251.678 137.297 251.148 139.681C250.618 142.065 250.354 145.244 250.089 148.423C249.551 151.662 249.285 154.94 249.294 158.224C249.294 161.137 249.559 163.522 249.559 165.376C249.559 167.23 250.089 168.819 250.354 169.879C251.111 168.439 251.732 166.932 252.208 165.376L254.857 159.548L257.241 152.926C258.066 150.848 258.774 148.726 259.36 146.569C259.573 144.989 259.662 143.394 259.625 141.801C259.625 140.476 259.89 139.417 259.89 138.887C259.847 137.908 259.936 136.928 260.155 135.973C260.369 135.535 260.713 135.173 261.139 134.936C261.566 134.699 262.054 134.599 262.539 134.648H265.189L269.162 135.443L272.606 137.297C273.411 138.058 273.887 139.104 273.93 140.211C273.972 141.015 273.883 141.82 273.666 142.595C273.576 143.667 273.399 144.731 273.136 145.774C273.054 147.636 272.877 149.493 272.606 151.337C272.606 153.191 272.341 156.105 272.341 159.813Z" fill="#3BB0E6"/>
<path d="M306.249 119.286H310.488C311.768 119.267 313.036 119.539 314.197 120.081C315.376 120.444 316.401 121.19 317.111 122.2C317.83 123.685 318.193 125.318 318.17 126.968C318.137 128.921 317.96 130.869 317.64 132.795C317.467 134.593 317.112 136.368 316.581 138.093C316.108 139.434 315.285 140.623 314.197 141.537C313.83 142.017 313.343 142.392 312.785 142.625C312.227 142.857 311.617 142.939 311.018 142.861C308.933 142.965 306.852 142.603 304.925 141.802C303.335 141.007 302.541 139.947 302.541 138.888C302.532 137.998 302.621 137.11 302.806 136.239C302.853 135.075 303.031 133.92 303.335 132.795L304.13 128.292C302.011 132.531 300.157 137.034 298.302 141.272C296.448 145.51 296.978 144.98 296.183 147.1C295.388 149.219 294.858 151.073 294.328 153.192L292.739 159.284C292.345 161.118 292.079 162.977 291.944 164.847L292.739 169.35C293.167 170.293 293.521 171.267 293.799 172.264C293.94 172.892 294.117 173.511 294.328 174.118C294.519 174.533 294.61 174.987 294.593 175.443C294.593 175.972 294.064 176.237 293.269 176.767C292.474 177.297 291.679 177.297 290.355 177.297C289.001 176.95 287.736 176.318 286.646 175.443C284.937 174.108 283.574 172.382 282.672 170.41C281.236 167.392 280.255 164.179 279.758 160.874C278.83 155.717 278.387 150.485 278.434 145.245C278.434 142.596 278.699 139.947 278.699 137.034C278.699 134.12 279.229 131.471 279.494 129.087C279.672 126.98 280.21 124.92 281.083 122.994C281.613 121.405 282.143 120.611 283.202 120.611C285.762 120.45 288.296 121.201 290.355 122.73C291.101 123.397 291.698 124.213 292.109 125.126C292.52 126.038 292.734 127.027 292.739 128.027C292.782 129.094 292.693 130.161 292.474 131.206L291.679 134.915C291.373 136.397 291.196 137.904 291.15 139.418C290.922 141.085 290.834 142.769 290.885 144.451C290.885 148.159 290.885 151.338 291.15 153.987C291.482 151.563 292.014 149.171 292.739 146.835L295.123 139.153C295.918 136.769 296.978 134.12 298.037 131.736C299.097 129.352 299.892 127.233 300.951 125.378C301.735 123.764 302.714 122.252 303.865 120.875C304.66 119.816 305.455 119.286 306.249 119.286Z" fill="#3BB0E6"/>
<path d="M375.126 139.684L375.921 138.624C376.186 138.359 376.451 138.095 376.98 138.359C377.51 138.624 377.51 138.359 377.51 138.889C377.661 139.077 377.743 139.311 377.743 139.551C377.743 139.792 377.661 140.026 377.51 140.214C377.334 141.38 377.068 142.531 376.715 143.657C376.186 145.511 375.391 147.895 374.331 150.544C373.272 153.193 372.477 156.107 371.417 159.286L367.444 168.292C366.207 170.941 364.883 173.325 363.47 175.444C362.352 176.981 360.904 178.249 359.231 179.153H357.642C356.086 179.137 354.586 178.574 353.403 177.563C352.23 176.602 351.243 175.435 350.489 174.12C349.626 172.697 348.916 171.188 348.37 169.616C347.761 168.055 347.23 166.463 346.781 164.848L345.986 161.405C345.912 160.929 345.731 160.476 345.456 160.08C345.191 160.08 345.191 160.345 344.926 161.14L343.602 163.789L342.012 167.497L339.628 170.941C338.794 172.041 337.814 173.021 336.714 173.855C335.671 174.486 334.488 174.849 333.27 174.914C331.358 175.003 329.453 174.64 327.707 173.855C326.047 173.04 324.527 171.967 323.204 170.676C321.87 168.937 320.881 166.959 320.29 164.848C319.479 162.008 319.121 159.058 319.23 156.107C319.194 152.445 319.64 148.793 320.555 145.247C321.364 141.458 322.701 137.802 324.528 134.386C326.213 131.111 328.454 128.153 331.151 125.645C333.838 123.432 337.207 122.216 340.688 122.201H347.575C349.506 122.413 351.387 122.951 353.138 123.79C354.763 124.81 356.052 126.284 356.847 128.029C357.699 130.678 358.058 133.461 357.907 136.24C357.934 136.45 357.898 136.662 357.804 136.851C357.71 137.04 357.561 137.196 357.377 137.3L356.317 137.83H354.993C354.828 137.706 354.695 137.546 354.603 137.362C354.511 137.179 354.463 136.976 354.463 136.77C354.492 135.879 354.403 134.989 354.198 134.121C354.132 132.959 353.954 131.806 353.668 130.678C353.389 129.64 352.942 128.656 352.344 127.764C352.127 127.386 351.82 127.067 351.45 126.836C351.08 126.605 350.659 126.469 350.224 126.439C347.651 126.541 345.202 127.577 343.337 129.353C340.838 131.65 338.852 134.448 337.509 137.565C335.787 141.211 334.455 145.029 333.535 148.955C332.469 153.199 331.935 157.559 331.946 161.935C331.913 163.001 332.002 164.067 332.211 165.113C332.153 166.092 332.242 167.075 332.476 168.027C332.613 168.901 332.979 169.723 333.535 170.411C333.723 170.736 333.993 171.005 334.319 171.192C334.645 171.378 335.014 171.474 335.39 171.471C335.919 171.471 336.449 170.941 336.979 169.881C337.795 168.618 338.504 167.289 339.098 165.908C339.628 164.319 340.423 162.464 340.953 160.61C341.69 158.708 342.31 156.761 342.807 154.783C343.262 153.039 343.616 151.27 343.867 149.485C344.268 148.291 344.447 147.034 344.396 145.776C344.394 145.235 344.484 144.698 344.661 144.187C344.717 143.541 344.897 142.911 345.191 142.333C345.641 141.694 346.295 141.227 347.046 141.008C347.575 140.479 348.9 140.479 350.224 140.479C352.547 140.265 354.875 140.824 356.847 142.068C357.39 142.409 357.842 142.876 358.165 143.43C358.488 143.983 358.672 144.606 358.702 145.247V146.836C358.945 149.034 359.034 151.247 358.967 153.458C358.967 156.372 358.967 159.286 359.231 161.935C359.173 164.344 359.44 166.749 360.026 169.087C360.379 171.206 360.909 172.265 361.616 172.265C362.145 172.265 362.675 171.471 363.47 169.881C364.404 167.999 365.201 166.051 365.854 164.054C366.914 161.935 367.973 159.286 369.033 156.637C370.093 153.988 370.887 151.074 371.947 148.69C373.007 146.306 373.536 144.187 374.066 142.333C374.518 141.492 374.873 140.604 375.126 139.684Z" fill="#3BB0E6"/>
<path d="M383.868 138.889C383.814 141.56 384.081 144.228 384.663 146.836L385.987 152.133C386.322 153.066 386.413 154.069 386.252 155.047C386.076 155.577 385.281 155.842 383.868 155.842C382.719 155.884 381.575 155.669 380.52 155.21C379.466 154.752 378.528 154.062 377.775 153.193C376.018 150.918 374.755 148.302 374.066 145.511C373.006 141.969 372.296 138.331 371.947 134.651C371.682 130.677 371.417 126.439 371.417 121.936C371.417 117.433 371.682 113.459 371.947 109.221C372.212 104.983 372.477 101.01 372.742 97.566C373.007 94.1224 373.272 91.2087 373.537 88.8246C373.711 87.3299 373.799 85.8263 373.801 84.3215V82.7321L374.331 81.6726L375.656 80.8779H378.305C379.478 80.7976 380.654 80.9785 381.749 81.4077C382.813 81.8664 383.797 82.4924 384.663 83.2619L386.782 85.9108C387.282 86.6069 387.559 87.4381 387.577 88.2948C387.577 89.4478 387.488 90.5991 387.312 91.7384C386.959 93.5044 386.694 95.8883 386.517 98.8904C386.252 101.539 385.987 104.718 385.457 108.426L384.663 119.022C384.398 122.731 384.133 126.439 384.133 129.883C384.133 133.326 383.868 136.24 383.868 138.889ZM389.166 172C389.232 172.495 389.168 172.999 388.983 173.463C388.797 173.927 388.496 174.335 388.107 174.649C387.149 175.212 386.016 175.4 384.928 175.179C383.478 175.174 382.042 174.904 380.689 174.384C379.201 173.838 377.78 173.128 376.451 172.265C375.243 171.689 374.162 170.879 373.272 169.881C372.543 169.283 372.07 168.431 371.947 167.497C371.928 166.552 372.206 165.626 372.742 164.848C372.919 164.571 373.152 164.335 373.426 164.152C373.699 163.97 374.008 163.846 374.331 163.788L376.98 163.259H380.159C381.266 163.274 382.354 163.546 383.338 164.053L386.252 166.172C387.044 167.078 387.754 168.054 388.372 169.086C388.877 169.975 389.15 170.978 389.166 172Z" fill="#3BB0E6"/>
</g>
<path d="M65.6379 39.9984C62.1086 38.8865 58.4651 38.1756 54.7766 37.8792C54.5117 44.5015 53.9819 51.9185 53.9819 58.8056C53.9819 69.6661 57.9555 73.1097 53.9819 73.1097C50.0082 73.1097 45.7697 54.3024 45.7697 37.8792L38.3522 38.674C38.4006 45.8571 37.869 53.0324 36.7628 60.1301C33.8488 75.4937 24.577 82.3808 19.8086 81.5861C15.0402 80.7914 23.2524 80.2617 26.4313 61.4545C27.4622 54.704 27.9935 47.8866 28.0208 41.058C23.1028 42.5104 18.4513 44.7465 14.2455 47.6802C11.8613 48.4749 9.74201 41.3229 10.2718 40.2633C10.8016 39.2038 17.9542 36.025 28.2857 34.4357C28.2857 30.4624 28.5506 26.7539 28.5506 23.5752C28.5506 20.3965 29.3453 2.91381 22.1928 2.91381C15.0402 2.91381 3.64909 17.4827 3.64909 23.3103C3.64909 29.1379 1 27.2837 1 23.5752C1 15.0987 11.0666 0 23.5173 0C35.968 0 38.6172 10.5956 38.6172 32.3166V33.6411H46.0346C46.2995 23.3104 46.8293 14.5689 46.8293 12.9796C46.8293 11.3903 46.8293 10.0658 50.0082 10.0658C51.6198 10.3455 53.1111 11.1001 54.291 12.2327C55.471 13.3654 56.2857 14.8245 56.631 16.4232C56.631 17.4828 55.8363 25.1646 55.0415 34.9655L64.3134 37.3495C66.9625 38.1442 66.6976 40.5282 65.6379 39.9984Z" fill="#1D1E1B"/>
<path d="M103.785 46.8827C103.255 48.737 96.3676 73.1068 90.2747 75.4908H89.215C82.3274 75.4908 80.7379 61.7165 80.2081 61.7165C79.6783 61.7165 77.0292 72.577 71.4661 72.577C65.903 72.577 61.1346 68.6037 61.1346 58.8028C61.1346 49.0019 66.1679 34.168 76.7643 34.168C87.3607 34.168 89.4799 34.168 89.4799 44.4987C89.4799 45.5582 86.8309 46.3529 86.8309 44.7636C86.8309 43.1742 86.301 37.3467 83.6519 37.3467C76.7643 37.3467 70.4065 50.0614 70.4065 63.3059C70.4065 65.9548 70.6714 70.193 73.0556 70.193C75.4398 70.193 79.6783 55.3592 79.6783 51.6507C79.6783 47.9423 79.6783 47.6774 83.9168 47.6774C88.1554 47.6774 90.0098 49.5316 90.0098 51.1209V52.1805C90.2747 56.9486 89.7449 70.7228 92.129 70.7228C94.5132 70.7228 101.401 48.2072 101.931 46.6178C102.46 45.0285 104.05 45.2934 103.785 46.8827Z" fill="#1D1E1B"/>
<path d="M96.1025 25.6919C96.1025 21.9834 99.2815 22.2483 102.725 22.2483C104.523 22.4851 106.203 23.2753 107.532 24.5092C108.861 25.7432 109.774 27.3599 110.143 29.1354C110.143 35.7577 96.1025 29.1355 96.1025 25.6919ZM119.679 51.6511C118.885 55.0947 113.057 71.7827 108.023 71.7827C98.4867 71.7827 97.4271 58.5382 97.4271 51.916C97.4556 47.5782 97.7209 43.2453 98.2218 38.9364C98.2218 35.7577 107.229 38.4066 107.229 42.115C107.229 45.8235 106.699 49.0022 106.699 51.916C106.534 57.1888 107.528 62.4335 109.613 67.2796C112.527 65.6902 117.56 53.2404 118.09 51.3862C118.62 49.532 119.944 50.5915 119.679 51.6511Z" fill="#1D1E1B"/>
<path d="M136.104 52.9776C136.175 46.8834 138.324 40.9959 142.197 36.2896C144.581 33.9056 150.409 33.3758 151.998 34.9651C153.588 36.5545 156.502 44.766 154.383 44.766C152.263 44.766 151.204 38.4087 150.144 38.4087C149.084 38.4087 143.256 67.0168 149.614 67.0168C155.972 67.0168 160.211 53.7723 161.005 52.183C161.8 50.5936 163.919 50.5936 163.125 52.183C162.33 53.7723 158.091 72.3146 147.76 72.3146C137.428 72.3146 136.104 62.7786 136.104 52.9776Z" fill="#1D1E1B"/>
<path d="M185.907 71.7836C181.403 71.7836 176.105 68.6049 176.105 60.6582V57.2147L170.807 70.7241C171.105 71.3946 171.284 72.1115 171.337 72.8432C171.337 74.6974 160.74 73.108 160.74 60.3933C160.74 52.7115 162.33 40.2617 162.33 37.8776C162.33 35.4936 160.476 33.9043 163.654 33.9043C166.833 33.9043 171.867 36.0235 171.867 38.6724C171.867 41.3213 169.218 49.7978 169.218 60.1285C169.107 62.9766 169.375 65.8268 170.012 68.6049C171.337 65.1613 174.781 57.2147 176.37 51.652C177.96 46.0893 176.9 46.619 176.9 45.8243C176.9 45.0297 177.165 42.6457 178.754 42.6457C180.344 42.6457 187.231 43.4404 187.231 46.884C186.352 51.6012 185.908 56.3894 185.907 61.188C185.907 69.6645 188.821 71.7836 185.907 71.7836Z" fill="#1D1E1B"/>
<path d="M318.627 26.75C320.247 28.9759 322.446 30.7163 324.984 31.7829C329.223 33.3722 328.693 34.6967 326.839 35.4913C324.319 35.67 321.79 35.3087 319.421 34.4318L315.713 32.5775C314.156 33.7441 312.466 34.7222 310.679 35.4913C308.2 36.6946 305.349 36.8847 302.732 36.0211C300.613 35.4914 300.878 33.3722 304.851 31.7829C307.467 30.7229 309.752 28.9857 311.474 26.75C313.858 24.366 315.448 23.3064 318.627 26.75Z" fill="#1D1E1B"/>
<path d="M237.829 61.9827C237.616 66.089 238.063 70.203 239.154 74.1676C239.154 76.2867 228.293 74.6974 228.293 62.7774C228.568 55.0507 229.365 47.3514 230.677 39.7319C227.498 47.6786 222.2 68.34 219.286 72.5783C216.372 76.8165 219.286 73.1081 218.756 73.1081H217.696C207.365 73.1081 208.424 48.7382 208.424 47.6786C208.424 46.6191 207.63 46.884 207.63 45.5595C207.63 44.2351 217.961 43.7053 217.961 48.2084C217.961 52.7116 217.696 57.4796 217.696 59.8636C217.728 61.5533 217.905 63.2372 218.226 64.8965C220.875 55.6253 226.968 37.083 232.001 33.9043H236.77C239.154 34.699 241.273 36.0234 241.273 37.8776C241.273 39.7319 237.829 56.42 237.829 61.9827Z" fill="#1D1E1B"/>
<path d="M267.499 50.33C267.499 61.1904 263.79 73.6402 254.518 73.6402C245.247 73.6402 243.922 64.1042 243.922 56.9522C243.922 49.8002 245.247 41.8534 250.545 40.529C255.843 39.2045 256.638 35.4961 259.817 35.4961C262.996 35.4961 267.499 39.4695 267.499 50.33ZM259.552 39.7344C257.168 39.7344 257.962 47.1513 255.578 49.5353C255.578 58.2767 253.459 69.9318 257.962 69.9318C262.466 69.9318 266.969 39.7344 259.552 39.7344Z" fill="#1D1E1B"/>
<path d="M270.413 26.4867C270.413 22.7783 273.592 23.0432 277.036 23.0432C278.849 23.2408 280.549 24.0176 281.885 25.2582C283.222 26.4989 284.122 28.1373 284.453 29.9303C284.453 36.5525 270.413 30.1952 270.413 26.4867ZM293.99 52.4459C293.195 55.8895 287.367 72.5776 282.334 72.5776C273.062 72.5776 271.738 59.3331 271.738 52.7108C271.766 48.3731 272.031 44.0401 272.532 39.7312C272.532 36.5526 281.539 39.2015 281.539 42.91C281.539 46.6184 281.274 49.797 281.274 52.7108C281.059 57.9619 281.962 63.1989 283.923 68.0745C286.837 66.4852 291.871 54.3002 292.401 52.1811C292.93 50.062 294.255 51.3864 293.99 52.4459Z" fill="#1D1E1B"/>
<path d="M332.932 52.4474C331.872 55.8909 326.044 72.579 321.276 72.579H321.011C311.739 72.579 310.679 59.3345 310.679 52.7123C310.708 48.3745 310.973 44.0415 311.474 39.7327C311.474 36.554 320.481 39.2029 320.481 42.9114C320.481 46.6198 319.951 49.7985 319.951 52.7123C319.87 57.9537 320.769 63.1642 322.6 68.0759C325.514 66.4866 330.812 54.3017 331.342 52.1825C331.872 50.0634 333.197 51.3878 332.932 52.4474Z" fill="#1D1E1B"/>
<path d="M357.568 61.9827C357.354 66.089 357.802 70.203 358.893 74.1676C358.893 76.2867 348.296 74.6974 348.296 62.7774C348.44 55.0421 349.237 47.3328 350.68 39.7319C347.501 47.6786 342.203 68.34 339.289 72.5783C339.289 72.7188 339.233 72.8535 339.134 72.9529C339.035 73.0522 338.9 73.1081 338.759 73.1081H337.7C327.368 73.1081 328.163 48.7382 328.163 47.6786C328.163 46.6191 327.368 46.884 327.368 45.5595C327.368 44.2351 337.965 43.7053 337.965 48.2084C337.965 52.7116 337.7 57.4796 337.7 59.8636C337.7 62.2476 337.965 63.3071 337.965 64.8965C340.879 55.6253 346.972 37.083 352.005 33.9043H356.773C359.158 34.699 361.277 36.0234 361.277 37.8776C361.277 39.7319 357.568 56.42 357.568 61.9827Z" fill="#1D1E1B"/>
</svg>
