<svg width="92" height="79" viewBox="0 0 92 79" fill="none" xmlns="http://www.w3.org/2000/svg">
<path d="M84.398 35.7414C84.2629 35.0374 83.8869 34.4024 83.3344 33.9455C82.782 33.4886 82.0877 33.2383 81.3708 33.2378H78.3925L78.1731 31.9247C78.0665 31.2824 77.7604 30.6899 77.2983 30.2313C76.8361 29.7727 76.2414 29.4712 75.5983 29.3695C75.3052 29.3229 75.0085 29.2923 74.7179 29.2469C75.2229 26.889 74.8033 24.4273 73.5458 22.3698C73.874 21.5181 74.0136 20.6054 73.9549 19.6945C73.8963 18.7836 73.6408 17.8963 73.206 17.0938C72.7713 16.2912 72.1677 15.5925 71.4368 15.0458C70.7059 14.499 69.8651 14.1173 68.9724 13.927C68.4133 10.9295 66.8276 8.22043 64.4878 6.26528C62.148 4.31012 59.2002 3.23103 56.151 3.21348C55.9965 3.21348 55.8592 3.23309 55.7133 3.238C55.2161 2.45882 54.5529 1.79912 53.7711 1.30607C52.9893 0.813021 52.1082 0.498798 51.1909 0.385871C50.2735 0.272944 49.3425 0.364103 48.4644 0.65283C47.5864 0.941557 46.783 1.42072 46.1117 2.05605C44.3971 0.938984 42.3954 0.342764 40.349 0.339538C38.7232 0.346122 37.1202 0.722818 35.6616 1.44106C34.2029 2.1593 32.927 3.20024 31.9306 4.48492C30.8238 4.16226 29.6587 4.0928 28.5215 4.28168C27.3842 4.47055 26.3041 4.91292 25.3611 5.57601C24.4181 6.2391 23.6364 7.1059 23.0739 8.11217C22.5115 9.11844 22.1827 10.2384 22.1119 11.389C20.9604 11.8732 19.9772 12.6864 19.2856 13.7267C18.594 14.767 18.2247 15.9882 18.224 17.2374C18.2289 17.6802 18.2807 18.1211 18.3785 18.553C17.3505 20.1028 16.6839 21.8638 16.4279 23.7059C16.172 25.548 16.3332 27.424 16.8998 29.1954C16.4866 29.253 16.0636 29.3033 15.6663 29.3621C15.0195 29.4598 14.4201 29.7594 13.9538 30.218C13.4874 30.6767 13.1779 31.271 13.0694 31.9161L12.85 33.2329H9.86562C9.14937 33.2329 8.45544 33.4821 7.90287 33.9378C7.35029 34.3935 6.9735 35.0273 6.83714 35.7304L0.0849916 70.4053C-0.0453604 71.076 -0.0255652 71.7672 0.142956 72.4293C0.311476 73.0915 0.62454 73.7081 1.05966 74.2348C1.49478 74.7616 2.04117 75.1855 2.65957 75.476C3.27797 75.7666 3.95303 75.9166 4.63629 75.9153H36.8019C38.0795 78.0217 41.9601 79.0001 45.6176 79.0001C49.237 79.0001 53.0809 78.045 54.3952 75.9153H86.5989C87.2819 75.9165 87.9567 75.7666 88.5749 75.4762C89.193 75.1858 89.7393 74.7621 90.1744 74.2356C90.6094 73.7091 90.9226 73.0928 91.0913 72.431C91.26 71.7692 91.2801 71.0782 91.1502 70.4077L84.398 35.7414ZM22.8905 20.0292C22.2811 19.6627 21.8083 19.107 21.5444 18.4467C21.2804 17.7864 21.2397 17.0579 21.4286 16.3723C21.6174 15.6867 22.0254 15.0818 22.5902 14.6498C23.155 14.2178 23.8457 13.9824 24.5568 13.9797C25.061 13.9783 25.5584 14.096 26.0084 14.3234C26.4584 14.5507 26.8483 14.8812 27.1463 15.2879C27.3902 15.6164 27.7546 15.8345 28.1593 15.8942C28.564 15.954 28.9758 15.8506 29.3043 15.6067C29.6327 15.3628 29.8508 14.9985 29.9106 14.5938C29.9704 14.1891 29.8669 13.7772 29.6231 13.4488C29.105 12.7564 28.4486 12.1793 27.6954 11.7544C26.9422 11.3295 26.1089 11.066 25.2483 10.9807C25.4714 9.93236 26.047 8.99209 26.8792 8.31656C27.7113 7.64102 28.7498 7.271 29.8217 7.26813C30.0099 7.27754 30.1974 7.29801 30.3832 7.32943C30.2592 7.64545 30.1512 7.9675 30.0595 8.29436C29.9706 8.68565 30.0376 9.09622 30.2464 9.4389C30.4552 9.78159 30.7893 10.0294 31.1778 10.1298C31.5663 10.2301 31.9787 10.1751 32.3273 9.97644C32.676 9.77774 32.9334 9.451 33.0451 9.06557C33.2205 8.38766 33.49 7.73766 33.8458 7.13449C34.5184 6.00762 35.4708 5.07367 36.6107 4.4232C37.7505 3.77273 39.0391 3.42782 40.3515 3.42191C41.804 3.42829 43.2234 3.85683 44.4368 4.65535C44.2039 5.30447 44.0796 5.98758 44.069 6.67716C44.069 7.08623 44.2315 7.47855 44.5208 7.76781C44.81 8.05707 45.2024 8.21957 45.6114 8.21957C46.0205 8.21957 46.4128 8.05707 46.7021 7.76781C46.9914 7.47855 47.1539 7.08623 47.1539 6.67716C47.1539 6.25112 47.2378 5.82926 47.4008 5.43565C47.5639 5.04205 47.8028 4.68441 48.1041 4.38315C48.4054 4.0819 48.763 3.84293 49.1566 3.6799C49.5502 3.51686 49.9721 3.43294 50.3981 3.43294C50.8242 3.43294 51.2461 3.51686 51.6397 3.6799C52.0333 3.84293 52.3909 4.0819 52.6922 4.38315C52.9935 4.68441 53.2324 5.04205 53.3955 5.43565C53.5585 5.82926 53.6424 6.25112 53.6424 6.67716C53.6424 7.08623 53.8049 7.47855 54.0942 7.76781C54.3835 8.05707 54.7758 8.21957 55.1849 8.21957C55.5939 8.21957 55.9863 8.05707 56.2755 7.76781C56.5648 7.47855 56.7273 7.08623 56.7273 6.67716C56.7273 6.55455 56.6979 6.44543 56.6917 6.3265C58.8429 6.45921 60.8939 7.28261 62.5396 8.67429C64.1853 10.066 65.338 11.9516 65.8262 14.0508C65.1066 14.26 64.4305 14.5968 63.8301 15.0452C63.5028 15.2918 63.2869 15.6584 63.2299 16.0642C63.1729 16.4701 63.2794 16.8819 63.526 17.2092C63.7727 17.5365 64.1393 17.7524 64.5451 17.8094C64.9509 17.8665 65.3628 17.7599 65.6901 17.5133C66.2882 17.0707 67.02 16.8467 67.7634 16.8785C68.5067 16.9103 69.2167 17.1961 69.7747 17.6882C70.3328 18.1803 70.7053 18.8489 70.8299 19.5824C70.9545 20.3159 70.8239 21.07 70.4597 21.7187C70.1236 22.3081 69.6136 22.7792 68.9994 23.0674C68.6864 23.2191 68.4339 23.4721 68.2828 23.7853C68.1317 24.0985 68.0909 24.4536 68.167 24.793C68.2431 25.1323 68.4316 25.436 68.702 25.6547C68.9724 25.8734 69.3088 25.9943 69.6566 25.9978C69.8826 25.9978 70.1059 25.9476 70.3101 25.8506C70.7189 25.6527 71.1053 25.4115 71.4626 25.1309C71.854 26.2437 71.9394 27.4412 71.71 28.5983C71.4805 29.7554 70.9445 30.8297 70.158 31.7089L70.1212 31.7469C69.1442 32.8074 67.8493 33.5223 66.4312 33.7841C65.0131 34.0459 63.5484 33.8404 62.257 33.1986C61.9973 33.0614 61.7477 32.9057 61.5103 32.7326C62.0676 31.9512 62.4002 31.032 62.472 30.0749C62.5437 29.1178 62.3519 28.1593 61.9174 27.3035C61.8263 27.1226 61.7004 26.9613 61.5469 26.829C61.3935 26.6967 61.2154 26.5959 61.023 26.5323C60.8306 26.4688 60.6276 26.4438 60.4255 26.4587C60.2234 26.4737 60.0263 26.5283 59.8453 26.6194C59.6643 26.7105 59.503 26.8364 59.3707 26.9899C59.2384 27.1433 59.1376 27.3213 59.074 27.5137C59.0105 27.7062 58.9855 27.9092 59.0004 28.1113C59.0154 28.3133 59.07 28.5105 59.1611 28.6915C59.4065 29.1846 59.4664 29.7495 59.33 30.2831C59.1936 30.8168 58.87 31.2836 58.4181 31.5985C58.1465 31.7786 57.8401 31.8997 57.5187 31.954C57.1974 32.0082 56.8682 31.9945 56.5525 31.9136C56.2368 31.8327 55.9416 31.6865 55.686 31.4844C55.4303 31.2823 55.2199 31.0288 55.0684 30.7403C54.9777 30.5591 54.8523 30.3976 54.6992 30.2649C54.5461 30.1323 54.3684 30.0311 54.1763 29.9671C53.9841 29.9031 53.7812 29.8776 53.5791 29.892C53.3771 29.9065 53.1799 29.9606 52.9987 30.0512C52.8176 30.1418 52.6561 30.2673 52.5234 30.4204C52.3907 30.5734 52.2895 30.7511 52.2255 30.9433C52.1615 31.1355 52.136 31.3384 52.1505 31.5404C52.1649 31.7425 52.219 31.9397 52.3096 32.1208C52.7523 33.0148 53.4362 33.7671 54.284 34.2928C55.1318 34.8184 56.1098 35.0964 57.1074 35.0953C57.7709 35.0907 58.4277 34.9614 59.0434 34.714C59.5942 35.1961 60.201 35.6102 60.8507 35.9474C63.0491 37.087 65.6055 37.3232 67.9756 36.6058C66.4514 38.6868 64.1703 40.0853 61.6244 40.4999C61.2415 40.5615 60.8959 40.7651 60.6564 41.0701C60.4169 41.3751 60.3011 41.7591 60.332 42.1457C60.363 42.5322 60.5384 42.8929 60.8233 43.156C61.1082 43.419 61.4818 43.5651 61.8696 43.5651C61.9517 43.5651 62.0336 43.5589 62.1148 43.5467C63.0542 43.384 63.9722 43.1158 64.8515 42.7473C65.3264 43.5874 65.7119 44.475 66.0015 45.3956C66.0544 45.5563 66.0812 45.7243 66.0812 45.8934C66.0812 46.2195 65.9852 46.5384 65.8054 46.8105C65.6255 47.0825 65.3697 47.2957 65.0697 47.4236C64.7239 47.5572 64.3446 47.5773 63.9866 47.481C63.6286 47.3847 63.3105 47.1769 63.0785 46.8878C61.884 45.485 60.3199 44.4455 58.564 43.8875C55.2314 42.7706 53.944 41.7725 53.3984 40.6875C54.1984 40.5886 54.989 40.4246 55.7624 40.197C55.956 40.1375 56.136 40.0403 56.292 39.9112C56.4481 39.7821 56.5772 39.6235 56.672 39.4444C56.7668 39.2654 56.8254 39.0694 56.8445 38.8678C56.8635 38.6661 56.8427 38.4626 56.7831 38.269C56.7235 38.0754 56.6264 37.8954 56.4972 37.7393C56.3681 37.5833 56.2095 37.4541 56.0305 37.3594C55.8514 37.2646 55.6555 37.206 55.4538 37.1869C55.2521 37.1679 55.0487 37.1887 54.855 37.2483C53.9897 37.5143 53.0965 37.6789 52.1932 37.7387C50.4528 37.8747 48.7043 37.611 47.0815 36.9675C46.7843 36.8516 46.4583 36.8308 46.1487 36.9079C45.8391 36.9849 45.561 37.1561 45.3527 37.3979C44.2689 38.6415 42.7589 39.4346 41.1197 39.621C39.4806 39.8074 37.8311 39.3737 36.4956 38.4052C35.1602 37.4367 34.2355 36.0036 33.9035 34.3877C33.5714 32.7718 33.8562 31.0901 34.7016 29.6736C34.9129 29.3216 34.9758 28.9 34.8764 28.5016C34.7769 28.1033 34.5233 27.7607 34.1713 27.5494C33.8193 27.338 33.3977 27.2751 32.9993 27.3746C32.601 27.474 32.2584 27.7277 32.0471 28.0797C31.6789 28.7059 31.3827 29.3718 31.1643 30.0647C30.5789 30.034 30.0269 29.7823 29.62 29.3603C29.213 28.9383 28.9814 28.3777 28.972 27.7915V27.7547C28.9717 27.5532 28.9314 27.3537 28.8536 27.1678C28.7757 26.9819 28.6618 26.8133 28.5183 26.6717C28.3749 26.5301 28.2048 26.4183 28.018 26.3429C27.8311 26.2674 27.6311 26.2297 27.4296 26.232C27.0186 26.2362 26.6259 26.4025 26.337 26.6948C26.0482 26.9872 25.8864 27.3818 25.8871 27.7928C25.8906 29.1138 26.381 30.3871 27.2647 31.3691C28.1483 32.3511 29.363 32.9728 30.6763 33.1152C30.6816 33.6322 30.7284 34.148 30.816 34.6576C29.1264 35.024 27.3686 34.9186 25.7348 34.353C24.1011 33.7874 22.6544 32.7833 21.5531 31.4506C20.4518 30.1179 19.7383 28.5079 19.4906 26.7969C19.2429 25.0858 19.4707 23.3397 20.149 21.7494C20.494 22.0985 20.8793 22.4055 21.2966 22.664C21.647 22.8754 22.067 22.9389 22.4642 22.8406C22.8614 22.7423 23.2033 22.4903 23.4147 22.1399C23.626 21.7895 23.6896 21.3695 23.5913 20.9723C23.493 20.5751 23.2409 20.2332 22.8905 20.0218V20.0292ZM16.104 32.4188C16.8152 32.3133 17.5496 32.2214 18.2791 32.1257C19.6696 34.3472 21.7256 36.0734 24.1542 37.0585C26.5828 38.0437 29.2603 38.2375 31.8055 37.6124C32.4976 38.9259 33.4831 40.0622 34.6855 40.9331C35.8879 41.804 37.2748 42.3861 38.7386 42.6342C40.2024 42.8823 41.7037 42.7897 43.1259 42.3636C44.5481 41.9376 45.853 41.1895 46.9393 40.1774C47.9873 40.4902 49.0667 40.686 50.1578 40.761C50.9033 43.581 53.0563 45.2975 57.5794 46.8142C58.7989 47.1966 59.8867 47.9132 60.7195 48.8826C61.1769 49.4266 61.747 49.8649 62.3903 50.1671C63.0336 50.4694 63.7348 50.6285 64.4456 50.6334C65.0743 50.6349 65.6969 50.5098 66.2762 50.2656C67.1314 49.9001 67.8605 49.2915 68.373 48.5153C68.8854 47.7392 69.1587 46.8296 69.1588 45.8995C69.1603 45.4037 69.0812 44.9109 68.9246 44.4405C68.5777 43.3507 68.1209 42.299 67.5611 41.3017C70.1843 39.4166 72.0114 36.6223 72.6863 33.4634C73.0155 33.0723 73.3131 32.6558 73.5764 32.2177C74.0926 32.2839 74.61 32.3403 75.1299 32.4286L80.6976 65.9178C69.8138 62.2836 58.0438 62.2836 47.16 65.9178V46.6107C47.16 46.2016 46.9975 45.8093 46.7082 45.52C46.419 45.2308 46.0267 45.0683 45.6176 45.0683C45.2085 45.0683 44.8162 45.2308 44.5269 45.52C44.2376 45.8093 44.0751 46.2016 44.0751 46.6107V65.9239C33.1925 62.2863 21.4228 62.282 10.5375 65.9117L16.104 32.4188ZM3.43471 72.2628C3.29073 72.0888 3.18704 71.8851 3.13108 71.6664C3.07511 71.4476 3.06826 71.2192 3.11102 70.9974L9.86562 36.3226H12.3338L7.49311 65.4102C7.40953 65.9309 7.46035 66.4643 7.64076 66.9599C7.82116 67.4554 8.12518 67.8967 8.52396 68.2418C8.92274 68.5869 9.40308 68.8244 9.91941 68.9318C10.4357 69.0392 10.9709 69.0129 11.4743 68.8555C19.6969 66.1917 28.4569 65.636 36.9502 67.2395L36.4905 72.8304H4.63629C4.40648 72.8306 4.17951 72.7797 3.97173 72.6816C3.76395 72.5834 3.58053 72.4404 3.43471 72.2628ZM45.6127 75.9153C41.8976 75.9153 39.7654 74.8118 39.4527 74.3287L39.9836 67.9273C41.6795 68.3495 43.3392 68.9058 44.9469 69.5911C45.1546 69.6913 45.382 69.7441 45.6127 69.7456C45.8442 69.7453 46.0727 69.6924 46.2809 69.5911C47.8877 68.9017 49.547 68.3416 51.2429 67.9163L51.7738 74.3263C51.4612 74.8167 49.329 75.9202 45.6139 75.9202L45.6127 75.9153ZM87.7906 72.2628C87.6448 72.4404 87.4614 72.5834 87.2536 72.6816C87.0458 72.7797 86.8188 72.8306 86.589 72.8304H54.7508L54.2873 67.2285C62.7851 65.6289 71.5486 66.1896 79.7731 68.8592C80.2764 69.0147 80.8111 69.0391 81.3264 68.9302C81.8418 68.8212 82.3208 68.5825 82.718 68.2366C83.1153 67.8906 83.4176 67.449 83.5964 66.9536C83.7752 66.4581 83.8244 65.9251 83.7396 65.4053L78.9063 36.3238H81.3744L88.1278 70.9962C88.1702 71.2184 88.1629 71.4472 88.1063 71.6662C88.0497 71.8852 87.9452 72.089 87.8004 72.2628H87.7906Z" fill="#0E0E0E"/>
</svg>
