<svg width="91" height="91" viewBox="0 0 91 91" fill="none" xmlns="http://www.w3.org/2000/svg">
<path d="M86.5251 70.4552H78.9731C78.6499 69.1979 77.9185 68.0834 76.8937 67.2864C75.8689 66.4895 74.6086 66.0552 73.3103 66.0516V55.7409C74.5734 56.7123 76.1207 57.2413 77.714 57.2466C79.6597 57.2444 81.525 56.4705 82.9007 55.0947C84.2765 53.7189 85.0504 51.8536 85.0527 49.908C85.0522 49.4432 85.0051 48.9797 84.9121 48.5244C85.7988 47.896 86.5339 47.0774 87.0636 46.1284C87.5934 45.1794 87.9044 44.1241 87.9739 43.0395C88.0434 41.9549 87.8696 40.8685 87.4653 39.8597C87.0611 38.8509 86.4365 37.9451 85.6372 37.2087C86.3604 35.8859 86.6507 34.3698 86.4676 32.8734C86.2845 31.377 85.637 29.9756 84.6161 28.8663C84.905 28.0841 85.0532 27.2571 85.0539 26.4233C85.052 24.6259 84.3913 22.8914 83.1969 21.5482C82.0025 20.205 80.3572 19.3461 78.5723 19.134C78.0118 17.8132 77.0749 16.6866 75.8785 15.8946C74.682 15.1026 73.2789 14.6803 71.8441 14.6803C70.4093 14.6803 69.0062 15.1026 67.8097 15.8946C66.6133 16.6866 65.6764 17.8132 65.1159 19.134C63.331 19.3461 61.6857 20.205 60.4913 21.5482C59.2969 22.8914 58.6362 24.6259 58.6343 26.4233C58.635 27.2571 58.7832 28.0841 59.0721 28.8663C58.3175 29.7058 57.7687 30.7093 57.4689 31.7975C55.7742 30.2647 53.5827 29.3958 51.2981 29.3509C49.8827 29.392 48.4924 29.7347 47.22 30.3561C45.9477 30.9774 44.8226 31.8632 43.92 32.9542C43.7288 30.9724 42.8573 29.1179 41.4536 27.7058L37.2275 23.4797H43.9582V20.5201C43.9514 19.8333 43.7819 19.158 43.4636 18.5494C43.1453 17.9408 42.6872 17.4164 42.1269 17.0191C36.8074 13.2029 32.5463 8.09605 29.7446 2.17902C29.4461 1.52875 28.9672 0.977792 28.3649 0.591549C27.7626 0.205307 27.0621 0 26.3466 0C25.631 0 24.9305 0.205307 24.3282 0.591549C23.7259 0.977792 23.2471 1.52875 22.9485 2.17902C20.1482 8.09728 15.8863 13.2046 10.5649 17.0191C10.0034 17.4177 9.54457 17.9439 9.22619 18.5545C8.90781 19.1651 8.73901 19.8426 8.73368 20.5312V23.4908H15.4644L11.2383 27.7169C9.64091 29.3233 8.74065 31.4942 8.73244 33.7595V35.227H15.4644L11.2383 39.4531C9.64091 41.0594 8.74065 43.2303 8.73244 45.4957V46.9632H24.8785V52.8343C23.0808 52.8363 21.3462 53.4971 20.003 54.6918C18.6597 55.8864 17.8009 57.532 17.5891 59.3172C16.5669 59.7524 15.657 60.4145 14.9284 61.2533C14.1999 62.0921 13.6716 63.0857 13.3837 64.1588C13.0959 65.2319 13.0559 66.3565 13.2668 67.4473C13.4777 68.5382 13.934 69.5668 14.6011 70.4552C13.4349 70.4575 12.3171 70.9218 11.4924 71.7465C10.6677 72.5711 10.2034 73.689 10.2012 74.8552C10.2008 75.2443 10.0461 75.6174 9.77099 75.8925C9.49585 76.1677 9.12278 76.3224 8.73368 76.3227H4.32999C3.17499 76.342 2.07383 76.8144 1.26386 77.6381C0.453901 78.4617 0 79.5706 0 80.7258C0 81.8809 0.453901 82.9898 1.26386 83.8135C2.07383 84.6371 3.17499 85.1095 4.32999 85.1288H11.9387C11.7649 85.5988 11.6736 86.0953 11.6686 86.5963C11.67 87.7638 12.1343 88.8832 12.9599 89.7088C13.7855 90.5343 14.9048 90.9987 16.0723 91H73.3153C74.4703 90.9807 75.5715 90.5083 76.3814 89.6846C77.1914 88.861 77.6453 87.7521 77.6453 86.5969C77.6453 85.4418 77.1914 84.3329 76.3814 83.5092C75.5715 82.6856 74.4703 82.2132 73.3153 82.1939H68.9116C68.5224 82.1939 68.1491 82.0393 67.8739 81.7641C67.5987 81.4888 67.4441 81.1156 67.4441 80.7264C67.4441 80.3372 67.5987 79.9639 67.8739 79.6887C68.1491 79.4135 68.5224 79.2589 68.9116 79.2589H86.5251C87.6801 79.2396 88.7813 78.7672 89.5912 77.9435C90.4012 77.1199 90.8551 76.011 90.8551 74.8558C90.8551 73.7007 90.4012 72.5918 89.5912 71.7681C88.7813 70.9445 87.6801 70.4721 86.5251 70.4528V70.4552ZM75.8248 70.4552H56.1346C56.4807 69.8566 57.0277 69.4 57.6786 69.1666L58.6972 68.8114L58.6614 67.7324C58.6619 67.6605 58.6536 67.5889 58.6367 67.519C58.6332 66.546 58.9534 65.5995 59.5468 64.8284C60.1403 64.0573 60.9733 63.5055 61.9148 63.2599C62.8563 63.0142 63.8527 63.0887 64.7473 63.4715C65.6418 63.8544 66.3836 64.5238 66.8559 65.3745L67.2036 65.9911L67.9053 66.1009C68.4606 66.1902 68.9783 66.438 69.3961 66.8145C69.8139 67.191 70.1142 67.6802 70.2607 68.2232L70.6923 69.8177L72.2252 69.2011C72.8761 68.9504 73.5948 68.9385 74.2537 69.1677C74.9125 69.3969 75.4688 69.8522 75.8236 70.4528L75.8248 70.4552ZM52.7643 61.5085C56.0372 60.9437 58.8895 58.5218 60.7554 55.0306C61.4359 55.7261 62.2475 56.2797 63.1432 56.6597C64.039 57.0396 65.0012 57.2383 65.9742 57.2442C67.568 57.2401 69.1163 56.7119 70.3803 55.7409V63.949C69.9645 63.6976 69.5187 63.4995 69.0534 63.3595C68.201 62.1192 66.9869 61.1719 65.5765 60.6466C64.1661 60.1214 62.6281 60.0438 61.172 60.4244C59.716 60.805 58.4127 61.6253 57.4397 62.7735C56.4668 63.9217 55.8715 65.342 55.7351 66.8408C55.0542 67.2276 54.4575 67.7464 53.9798 68.3669C53.502 68.9873 53.153 69.6969 52.953 70.454H52.7607L52.7643 61.5085ZM61.7604 30.3535L62.7124 29.584L62.1266 28.5099C61.757 27.8499 61.5653 27.1051 61.5702 26.3487C61.5752 25.5922 61.7767 24.85 62.155 24.1949C62.5333 23.5399 63.0753 22.9943 63.728 22.6119C64.3807 22.2295 65.1216 22.0233 65.878 22.0135L67.3035 22.0875L67.597 20.9332C67.8339 19.9858 68.3806 19.1447 69.1504 18.5436C69.9201 17.9426 70.8687 17.6161 71.8453 17.6161C72.8219 17.6161 73.7705 17.9426 74.5403 18.5436C75.31 19.1447 75.8568 19.9858 76.0936 20.9332L76.3871 22.0875L77.5784 22.0381C77.6561 22.0381 77.7338 22.0258 77.7153 22.0196C78.8828 22.0209 80.0021 22.4853 80.8277 23.3109C81.6533 24.1365 82.1177 25.2558 82.119 26.4233C82.1122 27.155 81.9209 27.8731 81.5628 28.5111L80.977 29.5852L81.929 30.3547C82.391 30.716 82.7744 31.1676 83.056 31.6821C83.3376 32.1965 83.5114 32.7629 83.5667 33.3467C83.6221 33.9305 83.558 34.5195 83.3782 35.0777C83.1984 35.6359 82.9067 36.1516 82.521 36.5934L81.3976 37.9153L82.8885 38.802C83.5751 39.2026 84.1392 39.7832 84.5199 40.481C84.9007 41.1788 85.0836 41.9674 85.0489 42.7616C85.0143 43.5558 84.7634 44.3254 84.3233 44.9874C83.8832 45.6494 83.2707 46.1787 82.5518 46.518L81.3433 47.1025L81.8168 48.3579C82.0445 48.9606 82.1369 49.606 82.0875 50.2484C82.0381 50.8908 81.8481 51.5145 81.531 52.0754C81.2139 52.6362 80.7773 53.1205 80.2523 53.4939C79.7273 53.8674 79.1265 54.1208 78.4927 54.2364C77.8588 54.352 77.2073 54.3268 76.5843 54.1627C75.9613 53.9985 75.3819 53.6995 74.8872 53.2866C74.3926 52.8738 73.9947 52.3573 73.7218 51.7737C73.4489 51.19 73.3076 50.5535 73.3079 49.9092V46.0186L78.8572 39.0807L76.5709 37.2432L73.3153 41.3127V26.4209H70.3803V35.4453L67.1235 31.3758L64.8298 33.2107L70.3791 40.1486V49.9068C70.3812 50.8945 70.0507 51.8542 69.4407 52.6311C68.8308 53.408 67.977 53.9569 67.017 54.1893C66.0569 54.4216 65.0466 54.3239 64.1489 53.9119C63.2512 53.4998 62.5184 52.7975 62.0687 51.9181C62.718 49.8427 63.0457 47.6801 63.0404 45.5055C63.0885 41.7519 62.0708 38.0616 60.1055 34.8632V33.7644C60.1084 33.1086 60.2589 32.4617 60.5458 31.8719C60.8327 31.2821 61.2487 30.7644 61.7629 30.3572L61.7604 30.3535ZM51.2969 32.292C56.1531 32.292 60.103 38.2113 60.103 45.5018C60.103 52.0377 56.9226 57.4637 52.7643 58.5131V47.4873L58.3137 40.5494L56.0199 38.7144L52.7643 42.7839V38.1632H49.8294V49.4604L46.6478 44.6867L44.2048 46.3145L49.8306 54.7544V58.5144C45.6773 57.4674 42.492 52.0414 42.492 45.5055C42.492 38.2212 46.4381 32.2957 51.2981 32.2957L51.2969 32.292ZM42.2466 35.227C41.6016 36.3162 41.0742 37.4707 40.673 38.6713L37.2263 35.227H42.2466ZM13.3125 41.5285L19.614 35.227H21.9423V32.292H11.8672C12.125 31.3456 12.6238 30.4823 13.3149 29.7862L19.6165 23.4847H21.9447V20.5497H11.6686V20.5287C11.6719 20.306 11.7288 20.0873 11.8344 19.8911C11.94 19.6949 12.0912 19.527 12.2754 19.4016C18.0013 15.297 22.5877 9.80198 25.6023 3.4344C25.6709 3.29553 25.7769 3.17861 25.9084 3.09685C26.0399 3.0151 26.1917 2.97177 26.3466 2.97177C26.5014 2.97177 26.6532 3.0151 26.7847 3.09685C26.9162 3.17861 27.0223 3.29553 27.0908 3.4344C30.1057 9.80176 34.6915 15.297 40.4165 19.4028C40.6009 19.5281 40.7524 19.6959 40.8582 19.8921C40.964 20.0883 41.021 20.3071 41.0245 20.53L30.7558 20.5497V23.4847H33.084L39.3856 29.7862C40.078 30.4813 40.577 31.345 40.8333 32.292H30.7558V35.227H33.084L39.3856 41.5285C39.5478 41.6917 39.6997 41.8647 39.8406 42.0465C39.7383 42.6951 39.6618 43.3573 39.6174 44.0344H11.8709C12.1264 43.0881 12.6224 42.2246 13.3125 41.5285ZM27.8122 46.9693H39.6088C40.1021 54.5164 44.3948 60.5701 49.8294 61.5073V70.454H43.9348C44.7607 69.3676 45.2662 68.0719 45.3943 66.7133C45.5223 65.3547 45.2678 63.9874 44.6595 62.7658C44.0511 61.5443 43.1132 60.5173 41.9518 59.8008C40.7904 59.0844 39.4517 58.7071 38.087 58.7117C37.6223 58.712 37.1588 58.7591 36.7034 58.8522C36.032 57.8995 35.1409 57.1226 34.1056 56.5873C33.0704 56.0519 31.9213 55.7739 30.7558 55.7767H30.7188C29.9627 54.7753 28.9629 53.984 27.8147 53.4781L27.8122 46.9693ZM19.3908 61.802L20.5451 61.5085L20.4957 60.3173C20.4975 60.2698 20.4917 60.2223 20.4785 60.1767C20.4745 59.2029 20.7948 58.2555 21.3889 57.4838C21.9829 56.7122 22.8169 56.1602 23.7594 55.915C24.7018 55.6698 25.6991 55.7453 26.5939 56.1295C27.4887 56.5137 28.2301 57.1849 28.7013 58.0371L29.3179 58.9003L30.3119 58.761C30.4587 58.7357 30.607 58.7197 30.7558 58.7129C31.5829 58.7125 32.393 58.9473 33.0917 59.3899C33.7904 59.8325 34.3489 60.4646 34.702 61.2126L35.2865 62.4248L36.5443 61.9463C37.5067 61.5816 38.5666 61.5662 39.5391 61.903C40.5116 62.2397 41.3351 62.9072 41.8659 63.7889C42.3967 64.6706 42.6011 65.7107 42.4435 66.7278C42.2859 67.7448 41.7763 68.6742 41.0035 69.354L40.1539 70.4552H18.5917L17.5632 69.354C16.9621 68.8259 16.5168 68.1435 16.2756 67.3806C16.0343 66.6177 16.0063 65.8033 16.1945 65.0256C16.3827 64.2479 16.7799 63.5365 17.3433 62.9683C17.9067 62.4001 18.6147 61.9968 19.3908 61.802ZM86.5251 76.3252H68.9116C67.7441 76.3265 66.6247 76.7908 65.7992 77.6164C64.9736 78.442 64.5092 79.5613 64.5079 80.7288C64.5128 81.2299 64.6042 81.7264 64.778 82.1963H61.5717V85.1313H73.3141C73.5068 85.1313 73.6976 85.1693 73.8756 85.243C74.0537 85.3167 74.2155 85.4249 74.3517 85.5611C74.488 85.6974 74.5961 85.8592 74.6698 86.0372C74.7436 86.2152 74.7815 86.4061 74.7815 86.5988C74.7815 86.7915 74.7436 86.9823 74.6698 87.1604C74.5961 87.3384 74.488 87.5002 74.3517 87.6365C74.2155 87.7727 74.0537 87.8808 73.8756 87.9546C73.6976 88.0283 73.5068 88.0663 73.3141 88.0663H16.0723C15.8796 88.0663 15.6888 88.0283 15.5107 87.9546C15.3327 87.8808 15.1709 87.7727 15.0347 87.6365C14.8984 87.5002 14.7903 87.3384 14.7166 87.1604C14.6428 86.9823 14.6048 86.7915 14.6048 86.5988C14.6048 86.4061 14.6428 86.2152 14.7166 86.0372C14.7903 85.8592 14.8984 85.6974 15.0347 85.5611C15.1709 85.4249 15.3327 85.3167 15.5107 85.243C15.6888 85.1693 15.8796 85.1313 16.0723 85.1313H24.8785V82.1963H4.32999C4.13728 82.1963 3.94646 82.1584 3.76841 82.0846C3.59037 82.0109 3.4286 81.9028 3.29233 81.7665C3.15606 81.6302 3.04796 81.4685 2.97422 81.2904C2.90047 81.1124 2.86251 80.9216 2.86251 80.7288C2.86251 80.5361 2.90047 80.3453 2.97422 80.1673C3.04796 79.9892 3.15606 79.8275 3.29233 79.6912C3.4286 79.5549 3.59037 79.4468 3.76841 79.3731C3.94646 79.2993 4.13728 79.2614 4.32999 79.2614H8.73244C9.9004 79.2601 11.0201 78.7953 11.8457 77.9692C12.6714 77.1431 13.1355 76.0232 13.1361 74.8552C13.1365 74.4661 13.2912 74.093 13.5663 73.8179C13.8414 73.5428 14.2145 73.3881 14.6036 73.3877H86.5251C86.9143 73.3877 87.2876 73.5423 87.5628 73.8176C87.838 74.0928 87.9926 74.466 87.9926 74.8552C87.9926 75.2444 87.838 75.6177 87.5628 75.8929C87.2876 76.1681 86.9143 76.3227 86.5251 76.3227V76.3252Z" fill="#0E0E0E"/>
</svg>
