<svg width="106" height="91" viewBox="0 0 106 91" fill="none" xmlns="http://www.w3.org/2000/svg">
<path d="M105.947 32.3673V25.0035C105.946 24.0467 105.565 23.1295 104.889 22.4529C104.213 21.7764 103.296 21.3959 102.34 21.3949C101.713 21.3953 101.093 21.2721 100.515 21.0326C99.9361 20.793 99.4104 20.4417 98.9677 19.9987C98.5249 19.5558 98.1737 19.0299 97.9342 18.451C97.6948 17.8722 97.5717 17.2519 97.572 16.6255V3.66154C97.571 2.69053 97.1849 1.75958 96.4985 1.07309C95.812 0.386591 94.8813 0.000652509 93.9107 0L89.4967 0C88.5264 0.00130427 87.5962 0.387492 86.9101 1.07388C86.224 1.76027 85.8379 2.69084 85.8366 3.66154V11.2496C85.8483 13.5016 84.9804 15.6691 83.4179 17.2903C81.8554 18.9114 79.7218 19.858 77.4718 19.9284C76.3423 19.9475 75.2202 19.7415 74.1711 19.3223C73.122 18.9031 72.1668 18.2791 71.3613 17.4868C70.5557 16.6944 69.9159 15.7496 69.4792 14.7073C69.0424 13.665 68.8175 12.5461 68.8175 11.416V3.66154C68.8162 2.69063 68.43 1.75987 67.7436 1.07345C67.0572 0.387022 66.1267 0.000978197 65.1562 0L60.7434 0C59.7729 0.000978197 58.8424 0.387022 58.156 1.07345C57.4696 1.75987 57.0834 2.69063 57.0821 3.66154V8.34477C57.0821 8.75661 57.2457 9.15159 57.5368 9.44281C57.8279 9.73402 58.2227 9.89763 58.6344 9.89763C59.046 9.89763 59.4409 9.73402 59.732 9.44281C60.0231 9.15159 60.1866 8.75661 60.1866 8.34477V3.66154C60.1869 3.51402 60.2457 3.37264 60.3501 3.26844C60.4545 3.16424 60.596 3.10572 60.7434 3.10572H65.1562C65.3037 3.10572 65.4451 3.16424 65.5495 3.26844C65.6539 3.37264 65.7127 3.51402 65.713 3.66154V11.416C65.713 12.9584 66.0199 14.4854 66.6159 15.9079C67.2118 17.3304 68.0849 18.6199 69.1843 19.7013C70.2836 20.7828 71.5872 21.6344 73.0189 22.2066C74.4507 22.7788 75.982 23.0601 77.5236 23.0341C80.5876 22.9476 83.4966 21.6672 85.6304 19.4657C87.7642 17.2643 88.954 14.3161 88.946 11.2496V3.66154C88.9463 3.51423 89.005 3.37304 89.1091 3.26888C89.2132 3.16471 89.3544 3.10604 89.5016 3.10572H93.9107C94.058 3.10604 94.1991 3.16471 94.3032 3.26888C94.4073 3.37304 94.466 3.51423 94.4663 3.66154V16.6267C94.4661 17.6609 94.6697 18.6849 95.0652 19.6404C95.4608 20.5959 96.0406 21.464 96.7717 22.1952C97.5027 22.9264 98.3706 23.5064 99.3257 23.902C100.281 24.2976 101.305 24.501 102.338 24.5007C102.472 24.501 102.599 24.5541 102.693 24.6483C102.788 24.7425 102.841 24.8702 102.841 25.0035V31.4183L77.3264 43.6649L51.8119 31.4195V25.0035C51.8123 24.8702 51.8653 24.7425 51.9595 24.6483C52.0537 24.5541 52.1814 24.501 52.3146 24.5007C54.4009 24.4971 56.4008 23.6664 57.8761 22.1905C59.3514 20.7146 60.1818 18.7139 60.1854 16.6267V14.55C60.1854 14.1382 60.0218 13.7432 59.7307 13.452C59.4396 13.1608 59.0448 12.9972 58.6331 12.9972C58.2215 12.9972 57.8266 13.1608 57.5355 13.452C57.2444 13.7432 57.0809 14.1382 57.0809 14.55V16.6267C57.0796 17.8912 56.5769 19.1036 55.6831 19.9978C54.7893 20.892 53.5774 21.3949 52.3133 21.3962C51.3567 21.3962 50.4392 21.7764 49.7627 22.4531C49.0863 23.1298 48.7062 24.0477 48.7062 25.0047V32.3438C48.7062 32.3783 48.7062 32.4133 48.7062 32.4486V58.2445L40.7245 63.0301C39.5932 62.3808 38.3121 62.0384 37.0078 62.0367H27.7499V35.2166H37.0103C38.9888 35.2166 40.8863 34.4304 42.2853 33.0308C43.6843 31.6312 44.4702 29.733 44.4702 27.7537C44.4702 25.7744 43.6843 23.8761 42.2853 22.4765C40.8863 21.077 38.9888 20.2907 37.0103 20.2907H35.3841V18.5949C35.3822 16.9793 34.7397 15.4304 33.5976 14.2881C32.4556 13.1458 30.9072 12.5034 29.2922 12.5017H27.7499V9.46012C27.7479 8.61088 27.4098 7.79698 26.8096 7.19648C26.2093 6.59598 25.3957 6.25776 24.5468 6.2558H19.9271C19.0782 6.25776 18.2646 6.59598 17.6644 7.19648C17.0641 7.79698 16.726 8.61088 16.7241 9.46012V12.503H15.1768C13.5618 12.5046 12.0134 13.147 10.8714 14.2893C9.72932 15.4316 9.08683 16.9805 9.08487 18.5961V20.2919H7.45996C6.78172 20.2917 6.1066 20.3838 5.45314 20.5655C5.24946 20.6132 5.05752 20.7017 4.88885 20.8254C4.72018 20.9492 4.57827 21.1059 4.47164 21.2859C4.365 21.466 4.29584 21.6657 4.26832 21.8732C4.2408 22.0806 4.25548 22.2915 4.31147 22.4932C4.36747 22.6948 4.46363 22.883 4.59418 23.0466C4.72473 23.2101 4.88697 23.3455 5.07116 23.4447C5.25535 23.544 5.45769 23.6049 5.66602 23.6239C5.87435 23.6429 6.08437 23.6196 6.28346 23.5554C6.66535 23.4493 7.05992 23.3958 7.45626 23.3964H37.0103C37.5884 23.3867 38.1627 23.4922 38.6996 23.7068C39.2366 23.9214 39.7255 24.2408 40.1378 24.6464C40.55 25.052 40.8775 25.5356 41.101 26.0691C41.3245 26.6025 41.4396 27.1752 41.4396 27.7537C41.4396 28.3321 41.3245 28.9048 41.101 29.4383C40.8775 29.9717 40.55 30.4554 40.1378 30.8609C39.7255 31.2665 39.2366 31.5859 38.6996 31.8005C38.1627 32.0151 37.5884 32.1206 37.0103 32.1109H7.45996C6.30516 32.1099 5.19792 31.6507 4.38124 30.8339C3.56456 30.0171 3.10515 28.9095 3.10385 27.7543C3.10384 27.5065 3.12445 27.2592 3.16545 27.0148C3.2049 26.8115 3.20331 26.6024 3.16077 26.3997C3.11823 26.197 3.03559 26.0049 2.91772 25.8347C2.79984 25.6644 2.64912 25.5195 2.47442 25.4084C2.29972 25.2973 2.10457 25.2222 1.90045 25.1877C1.69634 25.1532 1.48738 25.1598 1.28588 25.2073C1.08437 25.2548 0.894397 25.3421 0.727129 25.4641C0.559861 25.5861 0.41868 25.7404 0.311894 25.9178C0.205109 26.0952 0.134876 26.2922 0.10533 26.4972C0.0355081 26.9126 0.000481652 27.3331 0.000615965 27.7543C0.0028983 29.7327 0.789524 31.6295 2.18793 33.0284C3.58633 34.4274 5.48232 35.2143 7.45996 35.2166H16.7204V62.038H7.45996C5.48145 62.038 3.58398 62.8242 2.18497 64.2238C0.785957 65.6234 0 67.5216 0 69.5009C0 71.4802 0.785957 73.3785 2.18497 74.778C3.58398 76.1776 5.48145 76.9639 7.45996 76.9639H9.08611V78.6585C9.08774 80.2739 9.72974 81.8227 10.8713 82.9652C12.0129 84.1077 13.5608 84.7505 15.1755 84.7528H16.7191V87.7957C16.7211 88.6449 17.0592 89.4588 17.6594 90.0593C18.2597 90.6598 19.0733 90.998 19.9222 91H24.5382C25.3871 90.998 26.2007 90.6598 26.8009 90.0593C27.4012 89.4588 27.7393 88.6449 27.7412 87.7957V84.7528H27.8028C28.1261 85.1776 28.4802 85.578 28.8623 85.9507C30.876 87.9267 33.586 89.0307 36.4066 89.0244H92.3671C93.9383 89.0225 95.4445 88.3971 96.5554 87.2856C97.6663 86.174 98.2911 84.667 98.2927 83.0952V73.8988H99.1218C100.931 73.8969 102.666 73.1771 103.945 71.8973C105.225 70.6176 105.944 68.8824 105.947 67.0724V32.3673ZM19.8236 9.46012C19.8236 9.43266 19.8345 9.40633 19.8539 9.38691C19.8733 9.3675 19.8996 9.35659 19.9271 9.35659H24.5431C24.5706 9.35659 24.5969 9.3675 24.6163 9.38691C24.6357 9.40633 24.6466 9.43266 24.6466 9.46012V12.503H19.8236V9.46012ZM12.1856 20.2919V18.5961C12.1866 17.8039 12.5017 17.0444 13.0618 16.4843C13.6219 15.9243 14.3812 15.6094 15.1731 15.6087H29.2935C30.0847 15.6103 30.8431 15.9257 31.4024 16.4856C31.9616 17.0456 32.2762 17.8045 32.2772 18.5961V20.2919H12.1856ZM65.0823 54.7383C65.4217 54.739 65.7527 54.8439 66.0307 55.0387C66.3087 55.2335 66.5203 55.5089 66.637 55.8277C67.5265 58.2841 69.1565 60.4034 71.3019 61.893C73.4474 63.3825 76.0022 64.1688 78.6136 64.1431C81.225 64.1174 83.7639 63.281 85.8796 61.7495C87.9953 60.218 89.5833 58.0669 90.4243 55.5936C90.5092 55.3442 90.6699 55.1277 90.884 54.9743C91.0981 54.8209 91.3548 54.7384 91.6181 54.7383H92.5827C93.2742 54.7389 93.9371 55.014 94.4261 55.5032C94.915 55.9923 95.19 56.6556 95.1907 57.3473V76.9035H73.7021L68.6118 69.6063C68.3725 69.278 68.0142 69.0565 67.6136 68.9895C67.213 68.9224 66.8021 69.0151 66.469 69.2477C66.136 69.4802 65.9073 69.8341 65.8321 70.2334C65.7568 70.6327 65.841 71.0456 66.0666 71.3835L69.9176 76.9035H66.1935L56.6066 63.1619L59.2331 61.5869L62.5162 66.2935C62.7517 66.6313 63.1118 66.8617 63.5172 66.9339C63.9225 67.0061 64.3399 66.9143 64.6776 66.6787C65.0153 66.443 65.2455 66.0828 65.3177 65.6773C65.3899 65.2718 65.2981 64.8542 65.0626 64.5164L61.7585 59.7789C62.6493 58.7766 63.143 57.4831 63.1469 56.142V54.7371L65.0823 54.7383ZM58.792 76.9035L51.3881 66.2886L53.9382 64.7592L62.4078 76.9035H58.792ZM51.2773 76.9035L46.0884 69.4646L48.7149 67.8908L54.9977 76.906H51.2822L51.2773 76.9035ZM36.908 68.9395C36.9878 69.0846 37.0784 69.2235 37.1791 69.3549C37.8875 70.2769 38.8798 70.9396 40.0027 71.2406C41.1255 71.5416 42.3161 71.464 43.3904 71.0199L47.4977 76.9035H28.8278C29.0185 75.812 29.4411 74.7741 30.0669 73.8599C30.6928 72.9457 31.5074 72.1764 32.4558 71.6041L36.908 68.9395ZM60.0425 55.0698V56.1432C60.0412 56.5463 59.9374 56.9425 59.7408 57.2943C59.5443 57.6462 59.2614 57.9423 58.9189 58.1546C58.8918 58.1706 58.8635 58.1866 58.8376 58.2051L53.6266 61.3293L53.5465 61.3774L48.3822 64.4732L48.3527 64.4917L42.4936 68.0041C42.0342 68.2799 41.4895 68.377 40.9631 68.277C40.4368 68.177 39.9656 67.8869 39.6392 67.4619C39.6205 67.4352 39.6131 67.4022 39.6187 67.3701C39.6242 67.338 39.6422 67.3094 39.6688 67.2906L41.4465 66.2245L41.5081 66.1875L59.9735 55.1154L60.0425 55.076V55.0698ZM19.8236 35.2166H24.6466V62.038H19.8236V35.2166ZM12.1856 78.6585V76.9627H20.9533C21.365 76.9627 21.7598 76.799 22.0509 76.5078C22.342 76.2166 22.5055 75.8216 22.5055 75.4098C22.5055 74.9979 22.342 74.603 22.0509 74.3118C21.7598 74.0205 21.365 73.8569 20.9533 73.8569H7.45996C6.8879 73.8569 6.32145 73.7442 5.79295 73.5252C5.26444 73.3062 4.78423 72.9852 4.37972 72.5805C3.97522 72.1759 3.65435 71.6955 3.43544 71.1667C3.21652 70.638 3.10385 70.0714 3.10385 69.4991C3.10385 68.9268 3.21652 68.3601 3.43544 67.8314C3.65435 67.3027 3.97522 66.8223 4.37972 66.4176C4.78423 66.0129 5.26444 65.6919 5.79295 65.4729C6.32145 65.2539 6.8879 65.1412 7.45996 65.1412H37.0103C37.0731 65.1412 37.1335 65.1412 37.1975 65.1412L30.8617 68.9408C28.8214 70.1653 27.2419 72.029 26.3681 74.243C25.4943 76.457 25.375 78.8975 26.0288 81.1862L26.0399 81.2232L26.0473 81.2478C26.0855 81.3809 26.1262 81.5116 26.1705 81.6422H15.1755C14.3836 81.6412 13.6245 81.326 13.0646 80.7657C12.5048 80.2054 12.19 79.4458 12.1893 78.6535L12.1856 78.6585ZM24.6429 87.7957C24.6426 87.8231 24.6316 87.8492 24.6123 87.8685C24.5929 87.8879 24.5668 87.8989 24.5394 87.8992H19.9271C19.8997 87.8989 19.8736 87.8879 19.8543 87.8685C19.8349 87.8492 19.8239 87.8231 19.8236 87.7957V84.7528H24.6466L24.6429 87.7957ZM95.1845 83.0952C95.1839 83.8439 94.8863 84.5616 94.3572 85.091C93.828 85.6204 93.1105 85.9181 92.3622 85.9187C56.5635 85.9187 36.3709 85.9187 36.2058 85.9187C34.5122 85.8712 32.8812 85.2673 31.5649 84.2001C30.2485 83.1329 29.32 81.6619 28.9227 80.0142H95.1894L95.1845 83.0952ZM99.1168 70.7943H98.2878V57.3473C98.2845 55.8343 97.6823 54.3842 96.6128 53.3143C95.5434 52.2445 94.0939 51.642 92.5815 51.6387H91.6168C90.7055 51.6384 89.8169 51.9234 89.0756 52.4538C88.3344 52.9843 87.7777 53.7336 87.4837 54.5966C86.8494 56.4603 85.6523 58.0811 84.0577 59.2351C82.4631 60.389 80.5498 61.0193 78.5818 61.0388C76.6138 61.0582 74.6884 60.466 73.0713 59.3438C71.4542 58.2216 70.2253 56.6249 69.5542 54.774C69.2197 53.8559 68.6114 53.0626 67.8116 52.5014C67.0119 51.9402 66.0592 51.6382 65.0823 51.6363C61.623 51.725 60.3049 51.2961 58.3769 52.4497L51.8107 56.386V34.8629L76.6538 46.7867C76.8633 46.8873 77.0928 46.9396 77.3252 46.9396C77.5576 46.9396 77.7871 46.8873 77.9966 46.7867L102.841 34.8617V67.0724C102.84 68.0592 102.448 69.0054 101.75 69.7031C101.053 70.4009 100.107 70.7934 99.1205 70.7943H99.1168Z" fill="#0E0E0E"/>
</svg>
