<svg width="150" height="91" viewBox="0 0 150 91" fill="none" xmlns="http://www.w3.org/2000/svg">
<path d="M149.364 89.6053C148.617 90.5575 147.808 91.3311 146.439 90.855C145.071 90.3789 145.008 89.3078 145.008 88.1176V67.2895C145.008 66.6945 144.946 66.1589 144.884 65.3853C142.022 67.6466 139.72 69.7889 140.031 73.657C140.342 78.5962 140.155 83.5949 140.031 88.5342C139.944 89.3684 139.52 90.1372 138.849 90.6765C138.511 90.8154 138.144 90.877 137.776 90.8563C137.409 90.8357 137.052 90.7333 136.733 90.5575C136.456 90.3258 136.23 90.043 136.07 89.726C135.91 89.4091 135.818 89.0644 135.8 88.7127C135.738 82.7618 135.676 76.8109 135.8 70.8006C135.8 68.5392 137.044 66.6944 138.724 65.0877L142.022 62.1123L129.018 55.8043C127.463 57.3516 125.783 58.8988 124.165 60.565C123.895 60.9935 123.785 61.4972 123.854 61.9933V87.8201C123.866 88.2771 123.845 88.7344 123.792 89.1888C123.481 90.3194 122.734 91.0335 121.552 90.974C121.282 90.974 121.015 90.9232 120.766 90.8245C120.517 90.7258 120.291 90.5812 120.1 90.3988C119.91 90.2165 119.758 90 119.655 89.7617C119.552 89.5235 119.499 89.2681 119.499 89.0102C119.437 88.3556 119.437 87.701 119.437 87.0464C119.437 78.8937 119.374 70.6815 119.437 62.5288C119.476 61.9842 119.384 61.4381 119.169 60.9326C118.953 60.427 118.619 59.9756 118.192 59.6129C116.823 58.4227 115.517 57.054 114.272 55.8043C111.97 56.8755 111.037 56.816 110.29 55.6853C109.544 54.5547 109.855 53.7215 111.473 52.3528C113.09 50.9841 112.966 48.1277 111.908 47.1161C110.512 45.7927 109.425 44.202 108.717 42.4482C108.009 40.6944 107.697 38.8173 107.802 36.9401C107.802 36.0474 107.864 35.3333 106.682 35.0358C106.408 34.9154 106.169 34.7334 105.985 34.5055C105.801 34.2775 105.677 34.0103 105.624 33.7266C105.375 30.1561 105.064 26.4665 106.868 23.134C109.419 18.2543 113.65 15.755 119.25 15.6359C122.086 15.444 124.936 15.6444 127.712 16.231C133.622 17.6592 137.418 22.4794 137.729 28.2518C137.853 29.8585 137.729 31.4653 137.791 33.1315C137.795 33.5985 137.647 34.0552 137.369 34.4388C137.09 34.8224 136.694 35.1141 136.236 35.2738C136.031 35.3969 135.857 35.5623 135.728 35.758C135.599 35.9537 135.517 36.1746 135.489 36.4045C135.613 40.6296 134.369 44.2001 131.196 47.2351C129.952 48.4848 130.823 51.9363 132.502 52.7694C135.738 54.3761 138.911 55.9829 142.208 57.4111C145.506 58.8393 148.368 60.9816 149.364 64.6711V89.6053ZM130.947 35.2143L129.703 34.9763C126.405 34.1432 123.045 33.5481 119.872 32.4174C117.943 31.7628 116.761 32.1199 114.957 32.834C112.095 34.0241 112.095 35.8689 112.219 38.1898C112.308 39.5532 112.718 40.8798 113.419 42.0699C114.12 43.2601 115.094 44.2829 116.267 45.0617C117.44 45.8404 118.783 46.3549 120.194 46.5664C121.605 46.7779 123.048 46.681 124.414 46.2829C129.08 44.8547 131.631 40.6296 130.947 35.2143ZM133.249 31.0487C134.058 25.7524 131.258 21.1702 126.156 20.1586C123.543 19.623 120.743 19.8016 118.068 19.9801C112.904 20.2776 108.922 25.6334 110.166 30.8702C111.908 29.7395 113.526 28.7279 115.081 27.5972C116.637 26.4665 117.197 26.4665 118.503 27.1806C119.579 27.7797 120.703 28.2971 121.863 28.7279C125.501 30.0898 129.347 30.8738 133.249 31.0487ZM126.218 50.151C123.107 51.2222 120.059 51.1032 116.699 50.0915C116.823 51.1032 116.637 52.0553 117.072 52.5314C118.441 54.0786 120.059 55.4473 121.676 56.9945C122.983 55.7448 124.103 54.4356 125.41 53.3645C126.716 52.2933 126.716 51.5197 126.218 50.151Z" fill="black"/>
<path d="M48.429 56.5465C50.7421 58.7479 52.8051 60.7114 54.9307 62.6154C56.0185 63.5762 56.8772 64.7478 57.4488 66.0514C58.0204 67.3549 58.2916 68.76 58.244 70.1717V88.081C58.3234 88.5895 58.2361 89.1089 57.9939 89.5684C57.4938 90.1634 56.8061 90.8774 56.0559 90.9369C55.3058 90.9964 54.5556 90.3419 54.1179 89.8064C53.6803 89.2709 53.7429 88.6165 53.7429 87.962V69.9337C53.7976 69.1679 53.6684 68.4002 53.3651 67.6889C53.0618 66.9776 52.5924 66.3413 51.9924 65.8283L46.9286 60.9494L46.5535 61.0684V62.6749C46.5535 70.9452 46.5535 79.2156 46.491 87.5455V89.033C46.4747 89.5591 46.2436 90.0585 45.8467 90.4251C45.4499 90.7917 44.9185 90.9966 44.3654 90.9964C43.1776 91.0559 42.4274 90.3419 42.1149 89.2114C42.0642 88.757 42.0433 88.2999 42.0523 87.843V62.1394C42.0523 56.8439 44.553 53.0955 49.6793 50.9535L60.9947 46.1936C61.6637 45.9817 62.2378 45.5607 62.6237 44.999C63.0096 44.4373 63.1846 43.7679 63.1203 43.0997C63.1951 42.2966 63.0764 41.4879 62.773 40.7352C62.4697 39.9825 61.9897 39.3056 61.3698 38.7562C57.8064 35.5433 56.306 31.3783 56.0559 26.7969C55.9129 26.2217 55.6585 25.677 55.3058 25.1904C54.8682 24.298 53.9929 23.465 53.9304 22.513C53.4303 17.5746 53.6803 12.6956 56.6186 8.3522C60.2445 3.05678 65.4334 0.260326 72.0601 0.0818286C75.8736 -0.0371696 79.687 -0.215669 83.438 1.09331C86.983 2.36248 90.0431 4.62024 92.2181 7.57136C94.3931 10.5225 95.5818 14.0296 95.6287 17.6341C95.6532 18.3224 95.5331 19.0086 95.2755 19.6522C95.0178 20.2959 94.6278 20.8841 94.1283 21.3825C93.6733 21.8796 93.4089 22.5089 93.3781 23.1675C93.3781 26.6184 93.3156 30.0694 91.8777 33.3418C90.8069 35.7391 89.208 37.8899 87.189 39.6487C85.376 41.1957 86.0012 45.1226 88.2517 46.0746L99.9423 51.0725C104.881 53.155 107.319 56.844 107.319 61.9609V88.081C107.319 88.676 107.319 89.5089 106.944 89.8659C106.569 90.2229 105.444 90.9964 104.756 90.8774C104.068 90.7584 103.443 89.9849 103.006 89.3305C102.836 88.7499 102.793 88.1423 102.881 87.5455V61.1279L102.505 60.9494C100.442 62.9724 98.2543 64.9953 96.3788 67.1373C95.8162 67.7918 95.6912 68.9223 95.6912 69.8742C95.6286 75.7647 95.6287 81.6551 95.6287 87.486C95.6598 87.8225 95.6598 88.161 95.6287 88.4975C95.5661 90.0444 94.6909 91.0559 93.3781 90.9964C92.0652 90.9369 91.19 90.0444 91.19 88.557C91.19 81.8931 91.2525 75.2292 91.315 68.5653C91.3775 66.2448 92.5654 64.4598 94.2533 62.8534L100.943 56.5465C99.9423 55.9515 99.1921 55.416 98.3794 54.9995L87.0639 50.2395C86.7962 50.1808 86.5183 50.177 86.2489 50.2283C85.9794 50.2796 85.7245 50.3848 85.501 50.537C82.8128 52.9765 80.1872 55.4755 77.624 57.9744C77.2051 58.5056 76.9851 59.1549 76.9988 59.8189C76.9363 69.1603 76.9363 78.4421 76.9363 87.724C76.9363 88.319 77.0614 89.0329 76.6863 89.4494C76.3112 89.8659 75.4359 90.8774 74.7483 90.8774C74.0606 90.8774 73.1854 90.1634 72.6852 89.5089C72.4377 88.9037 72.3518 88.2496 72.4352 87.605C72.4352 78.3826 72.4352 69.1603 72.3727 59.8784C72.337 59.0921 72.0293 58.3391 71.4974 57.7364C69.1218 55.3565 66.6212 53.0955 64.183 50.7155C63.9544 50.3977 63.6051 50.1766 63.2086 50.099C62.8122 50.0213 62.3995 50.093 62.0575 50.2991L51.3672 54.8805C50.3579 55.3866 49.3772 55.9427 48.429 56.5465ZM58.369 22.156L61.3073 20.252C62.6201 19.419 63.933 19.4785 64.7457 20.371C65.5584 21.2635 65.3083 22.632 63.9955 23.6435C62.6827 24.6549 62.1825 24.7144 61.3698 25.3094C61.1676 25.4501 60.9971 25.6278 60.8682 25.8322C60.7394 26.0366 60.6549 26.2634 60.6196 26.4994C60.5456 28.3557 60.9054 30.2045 61.6729 31.9125C62.4405 33.6205 63.5967 35.145 65.0583 36.3763C71.6225 41.9692 80.5623 41.1957 86.0637 34.5913C88.8144 31.1403 89.127 27.1539 88.6894 23.0485H87.2515C82.1877 23.346 77.1864 23.1675 72.5602 21.0255C70.3519 19.9055 68.2588 18.5907 66.3086 17.0986C66.0674 16.932 65.867 16.7177 65.7211 16.4704C65.5752 16.2231 65.4874 15.9486 65.4636 15.6659C65.4399 15.3832 65.4808 15.0989 65.5835 14.8327C65.6861 14.5664 65.8482 14.3245 66.0585 14.1236C66.8712 13.2311 67.9965 13.1716 69.1843 13.9451C69.7187 14.4134 70.2824 14.8506 70.8723 15.2541C77.0614 19.419 83.9381 19.419 91.0025 18.2885C91.5651 12.7551 87.3765 6.86472 81.8126 5.07975C78.4367 4.00876 74.9358 4.12776 71.4349 4.36576C67.934 4.60376 63.4954 6.56722 60.8697 9.95867C58.244 13.3501 58.0565 17.5746 58.369 22.156ZM74.6858 54.8805L82.1877 47.6216C82.3202 47.4991 82.4226 47.3502 82.4874 47.1856C82.5523 47.021 82.578 46.8448 82.5628 46.6696C82.3127 45.4796 81.9376 44.2896 81.5625 43.0402C77.1466 44.6935 72.2405 44.7147 67.809 43.0997C67.4964 44.2896 67.1213 45.4201 66.8712 46.5506C66.8455 46.7399 66.8599 46.9323 66.9135 47.1162C66.9672 47.3002 67.0591 47.472 67.1838 47.6216L74.6858 54.8805Z" fill="black"/>
<path d="M30.7255 62.3629C29.0989 63.917 27.4722 65.4115 25.9707 66.9657C25.6455 67.4467 25.4718 68.0069 25.4702 68.5796V87.5887C25.4806 88.0876 25.4597 88.5866 25.4077 89.0831C25.3996 89.3422 25.3381 89.5972 25.2268 89.8336C25.1155 90.07 24.9565 90.2831 24.759 90.4607C24.5615 90.6384 24.3292 90.7771 24.0755 90.8689C23.8218 90.9608 23.5517 91.0039 23.2805 90.996C22.1544 91.0557 21.4037 90.3384 21.0908 89.2624C21.0373 88.806 21.0164 88.3467 21.0283 87.8876C21.0283 81.4915 21.0908 75.0953 21.0283 68.6394C20.9356 67.9164 20.6321 67.2329 20.1524 66.6668C18.776 65.1126 17.2745 63.7377 15.8356 62.3629L6.01317 67.145L7.26443 68.4003C14.334 74.9758 13.771 74.5573 13.771 83.3445V88.4853C13.7084 90.0395 12.8951 90.996 11.6438 90.996C10.3926 90.996 9.39156 90.0395 9.39156 88.4853C9.329 85.4367 9.26644 82.3283 9.39156 79.2797C9.44249 78.3539 9.27816 77.4289 8.91037 76.571C8.54258 75.7132 7.98046 74.9438 7.26443 74.3182C6.2871 73.4368 5.36775 72.4985 4.51166 71.5087C4.4491 72.3456 4.38653 72.764 4.38653 73.1227V88.1865C4.38653 90.0395 3.57321 91.0557 2.19682 90.996C0.82044 90.9362 0.00712225 89.9798 0.00712225 88.2462V70.8512C-0.061635 69.2113 0.368639 67.5875 1.24584 66.1765C2.12304 64.7655 3.40955 63.6277 4.94961 62.9008C7.327 61.6455 9.70439 60.5695 12.0818 59.4338C13.4582 58.836 14.1464 57.9394 14.0212 56.5047V56.3852C14.3966 53.9343 13.7084 52.141 11.5813 50.3477C8.45312 47.7175 7.07674 44.0711 7.07674 40.0063C6.97266 37.5131 7.05629 35.016 7.32699 32.5342C7.89006 28.5292 10.1423 25.361 13.4582 22.9101C13.7901 22.7336 14.0468 22.4517 14.184 22.1132C14.3211 21.7747 14.3299 21.4011 14.2089 21.057C13.1453 16.1553 17.0242 11.433 22.5298 10.8352C28.0353 10.2374 32.4147 14.2425 32.2896 19.0246C32.227 21.4755 32.9778 22.9101 34.8547 24.5241C36.2806 25.7575 37.4228 27.2605 38.209 28.9377C38.9951 30.615 39.4081 32.43 39.4218 34.2677C39.5469 38.3326 39.9223 42.3974 38.0454 46.1633C36.9398 48.3478 35.3619 50.2833 33.4157 51.8421C32.9152 52.2606 32.7275 53.0377 32.4773 53.6952C32.227 54.3528 32.5399 54.5321 32.4773 54.9505C32.1019 57.4014 32.9778 59.1349 35.5429 60.0316C37.107 60.6293 37.5449 61.9444 36.8567 63.0802C36.1685 64.2159 35.0424 64.3953 33.6034 63.7975L32.1645 63.14L30.7255 62.3629ZM34.9172 40.9627C31.8517 40.7236 28.8486 40.8432 26.0959 40.1259C23.3431 39.4085 20.8406 37.675 18.0253 36.3001C17.104 36.9158 16.1428 37.4748 15.1474 37.9739C13.9587 38.5717 12.7074 38.9303 11.5187 39.4085C11.331 45.2069 16.0858 50.4075 21.9041 50.9455C29.1614 51.603 34.7296 46.2231 34.9172 40.9627ZM11.6438 35.1644C13.3956 34.0286 14.9597 33.132 16.2735 32.1158C17.5873 31.0995 19.0888 30.5018 20.8406 32.2353L21.3411 32.7733C25.0323 36.2404 30.7255 37.5555 34.9798 35.8817C35.4803 29.7845 30.225 24.285 23.781 24.0459C17.3371 23.8068 11.4561 29.366 11.6438 35.1644ZM23.2805 63.6182L27.9102 59.0751C28.1043 58.8816 28.2159 58.6258 28.223 58.3578C28.1604 57.1623 28.0353 55.9667 27.9728 55.0103H18.5258C17.9001 57.4611 18.4006 59.6729 20.9032 61.3466C21.7573 62.0425 22.5522 62.8021 23.2805 63.6182ZM27.9102 19.9811C28.0508 19.1508 27.9224 18.2993 27.5422 17.5407C27.162 16.7821 26.5482 16.1527 25.7831 15.7369C24.9581 15.2753 24.0107 15.0522 23.0558 15.0946C22.1008 15.1371 21.1792 15.4432 20.4026 15.976C18.9637 16.9922 18.2755 18.666 18.6509 19.9811H27.9102Z" fill="black"/>
</svg>
