<svg width="72" height="91" viewBox="0 0 72 91" fill="none" xmlns="http://www.w3.org/2000/svg">
<path d="M43.6749 0C45.6463 0.524789 47.3325 1.79936 48.3715 3.54995C49.765 5.91659 51.9326 6.22528 54.3067 6.27673C56.6808 6.32818 59.4162 7.76874 60.2935 10.2383C60.6719 11.3778 60.9483 12.5486 61.1193 13.7368C61.1893 14.4185 61.429 15.072 61.8165 15.638C62.204 16.2041 62.7272 16.6647 63.3386 16.978C64.1127 17.3896 64.8353 17.9041 65.5578 18.3671C66.7072 19.0813 67.585 20.1571 68.0524 21.4243C68.5197 22.6915 68.55 24.0779 68.1384 25.3642C67.8803 26.2902 67.5707 27.2163 67.3126 28.1424C67.1414 28.6517 67.085 29.1925 67.1475 29.726C67.2099 30.2596 67.3897 30.7729 67.6739 31.2293L69.0674 33.5959C70.6673 36.3227 70.306 39.1009 68.1384 41.4161C67.5707 41.9821 67.0029 42.5994 66.3836 43.1654C65.8992 43.6219 65.5298 44.1861 65.3056 44.812C65.0814 45.4378 65.0087 46.1076 65.0933 46.7668C65.2392 48.0309 65.2565 49.3064 65.145 50.574C64.7837 52.9921 63.287 54.587 60.9645 55.4101L58.8485 56.079L59.313 57.005C63.2354 63.7963 67.1406 70.6218 71.0286 77.4816C71.3724 78.057 71.5509 78.7155 71.5447 79.3852C71.4414 80.5685 70.4092 81.2373 69.0674 81.1859C66.332 81.0315 63.5966 80.9286 60.9129 80.6714C59.5194 80.517 58.6936 80.8257 58.0227 82.2149C56.9389 84.6844 55.5454 87.051 54.3067 89.4691C53.8422 90.2923 53.2745 90.9097 52.2939 90.9611C51.3133 91.0126 50.5908 90.3952 50.1263 89.5206L38.101 68.4781C38.0626 68.3312 37.9922 68.1945 37.8946 68.078C37.797 67.9614 37.6748 67.8678 37.5367 67.8039C37.3986 67.7399 37.248 67.7073 37.0957 67.7082C36.9434 67.7091 36.7932 67.7436 36.6559 67.8092C36.0638 67.964 35.4416 67.964 34.8495 67.8092C34.0754 67.552 33.8173 67.8607 33.5076 68.4266C29.7917 75.0121 26.0241 81.5975 22.2565 88.1314C21.9469 88.6974 21.6888 89.2119 21.3275 89.7778C20.2953 91.4242 18.3857 91.4242 17.4567 89.6749C15.96 86.9481 14.5149 84.2213 13.1214 81.4431C13.0374 81.169 12.8521 80.9369 12.603 80.7937C12.354 80.6505 12.0597 80.6068 11.7796 80.6714L3.10897 81.1344C2.55634 81.1772 2.00043 81.1426 1.45743 81.0315C1.18058 80.9466 0.924739 80.8046 0.706554 80.6147C0.48837 80.4248 0.312721 80.1912 0.191027 79.9292C0.069333 79.6671 0.00431838 79.3825 0.000207892 79.0938C-0.0039026 78.805 0.0529837 78.5187 0.167169 78.2533C0.31933 77.934 0.491714 77.6247 0.683275 77.3272L12.2441 57.0565L12.7602 56.1304L10.799 55.4616C7.80554 54.4326 6.25722 52.1174 6.36044 49.0305L6.51527 46.3037C6.55744 45.7538 6.47757 45.2013 6.28133 44.6855C6.08509 44.1698 5.7773 43.7035 5.37984 43.3197L3.47025 41.4161C1.3026 39.2038 0.941329 36.4256 2.48965 33.6988C2.90253 32.9271 3.31542 32.2068 3.77991 31.4865C4.13285 30.9538 4.35828 30.3474 4.43882 29.714C4.51935 29.0807 4.45284 28.4373 4.24441 27.8337C3.76568 26.4492 3.43695 25.0177 3.26381 23.5635C3.05736 21.557 4.03797 19.8592 5.63789 18.6758C6.47546 18.0508 7.35489 17.4835 8.27004 16.978C8.89886 16.6544 9.43622 16.1786 9.83294 15.5944C10.2297 15.0102 10.4731 14.3361 10.5409 13.6339C10.6581 12.7833 10.8305 11.9412 11.057 11.1129C11.3369 9.76799 12.0661 8.55746 13.1254 7.67905C14.1847 6.80064 15.5115 6.30628 16.889 6.27673L19.2115 6.12238C19.8935 6.14515 20.5691 5.98536 21.1682 5.65964C21.7672 5.33391 22.2678 4.85414 22.6178 4.27023L23.1855 3.6014C24.3726 1.85215 25.8693 0.514486 27.9853 0H30.1529L34.2818 1.74925C34.7729 1.95672 35.3022 2.05933 35.8356 2.05047C36.3689 2.04161 36.8945 1.92147 37.3784 1.6978L41.5589 0H43.6749ZM9.09581 48.7218C9.0442 51.3457 9.71513 52.2718 12.1924 53.095L14.0504 53.6609C15.0168 53.9231 15.9101 54.4026 16.6616 55.0626C17.4131 55.7226 18.0029 56.5455 18.3857 57.4681C18.6943 58.2633 19.0564 59.0367 19.4695 59.7833C19.7493 60.5283 20.2903 61.1473 20.9923 61.5256C21.6944 61.9039 22.5101 62.016 23.2887 61.8412L26.0757 61.4296C26.8854 61.2481 27.7235 61.2319 28.5396 61.3823C29.3557 61.5326 30.1328 61.8462 30.8239 62.3043L33.5593 64.3622C34.1897 64.8853 34.9841 65.1717 35.8043 65.1717C36.6246 65.1717 37.4189 64.8853 38.0494 64.3622L40.1654 62.7158C40.9341 62.1094 41.8277 61.6796 42.7823 61.4573C43.7369 61.2349 44.729 61.2255 45.6878 61.4296C46.5218 61.6168 47.3662 61.7542 48.2167 61.8412C50.1263 62.0984 51.3649 61.4296 52.1907 59.7318C52.552 58.9601 52.9132 58.2398 53.2229 57.4681C53.6057 56.5455 54.1955 55.7226 54.947 55.0626C55.6986 54.4026 56.5918 53.9231 57.5582 53.6609L59.9323 52.9406C61.7903 52.2718 62.6676 50.9856 62.5128 48.9791C62.4612 47.9501 62.4096 46.9211 62.4096 45.8921C62.3771 45.1972 62.4835 44.5026 62.7228 43.849C62.962 43.1954 63.3292 42.5958 63.8031 42.0849C64.5256 41.2103 65.3514 40.3871 66.1772 39.564C67.0029 38.7408 67.7255 36.6828 66.6933 34.9336L65.4546 32.8242C64.9169 31.9848 64.5771 31.0348 64.4609 30.0457C64.3447 29.0565 64.455 28.0539 64.7837 27.1134C65.0417 26.2902 65.2998 25.5185 65.5062 24.6953C65.7827 23.9302 65.779 23.0923 65.4957 22.3297C65.2123 21.5671 64.6676 20.9289 63.9579 20.528L61.5838 19.0874C60.7418 18.5907 60.022 17.9125 59.4772 17.1023C58.9325 16.2922 58.5765 15.3707 58.4356 14.4056C58.3134 13.522 58.1411 12.6459 57.9195 11.7817C57.8152 11.0607 57.4665 10.3969 56.9313 9.90083C56.3961 9.40476 55.7067 9.10625 54.9777 9.05495L52.8616 8.9006C50.2811 8.84915 48.1651 7.92308 46.6683 5.76224L45.4813 4.21878C44.191 2.72677 42.7459 2.31519 40.9396 3.08692L38.5139 4.16733C37.6686 4.57311 36.7425 4.78383 35.8043 4.78383C34.8661 4.78383 33.94 4.57311 33.0948 4.16733L30.6691 3.08692C28.8627 2.36664 27.4692 2.67532 26.2305 4.16733L24.4242 6.37962C23.8997 7.05806 23.2382 7.61924 22.4826 8.0269C21.7269 8.43456 20.8939 8.67963 20.0373 8.74626L16.8374 9.0035C15.031 9.26075 13.9988 10.1868 13.5859 11.9361C13.5343 12.3991 13.4311 12.8107 13.3795 13.2737C13.0698 16.2063 11.7279 18.3671 9.0442 19.7048C8.51034 19.983 7.99334 20.2922 7.49588 20.6309C6.86413 21.0273 6.38053 21.6197 6.11944 22.3169C5.85834 23.014 5.83422 23.7774 6.05078 24.4895C6.30883 25.3642 6.51528 26.2388 6.82494 27.1134C7.15825 28.0644 7.26646 29.0794 7.14111 30.0789C7.01577 31.0785 6.66027 32.0357 6.10239 32.8757L4.86374 35.0365C3.93474 36.6828 4.08958 38.1234 5.37984 39.4611C6.67011 40.7987 6.56689 40.6958 7.18621 41.3132C7.94186 42.0451 8.51692 42.9418 8.86617 43.9327C9.21543 44.9236 9.32937 45.9818 9.19903 47.024C9.14742 47.59 9.09581 48.1559 9.09581 48.7218ZM68.3964 78.4077L56.3711 57.3137L54.4099 61.3267C53.7028 62.6527 52.5525 63.6902 51.1585 64.2593C51.8294 65.4426 52.5003 66.523 53.0681 67.6549C53.6358 68.7868 53.3777 69.3527 52.6552 69.7643C51.9326 70.1759 51.2101 69.8157 50.7456 69.044L49.5069 66.8832C48.2167 64.568 48.2167 64.568 45.5845 64.1564C44.5523 64.002 43.5717 63.7963 42.6427 64.3622C41.7137 64.9281 40.888 65.6484 39.959 66.2658L52.1391 87.5655L52.3971 87.2568L56.3195 79.6939C56.4322 79.374 56.4137 79.0227 56.2679 78.7164C55.6486 77.533 54.926 76.3497 54.2551 75.2178C53.5842 74.086 53.6874 73.2114 54.4616 72.7998C55.2357 72.3882 55.9583 72.6969 56.5776 73.8287C57.1969 74.9606 57.9711 76.0925 58.5904 77.2758C58.681 77.4881 58.8318 77.6694 59.0244 77.7974C59.2169 77.9253 59.4428 77.9944 59.6742 77.9961C60.9129 77.9961 62.0999 78.099 63.3386 78.1504L68.3964 78.4077ZM3.16058 78.4077L12.2441 77.8932C12.5021 77.8932 12.8118 77.5845 13.0182 77.2758C13.7408 76.0925 14.3601 74.8577 15.0826 73.6744C15.8052 72.4911 16.3729 72.4396 17.0955 72.8512C17.818 73.2628 17.9728 74.0345 17.4567 75.012C16.9406 75.9896 16.1149 77.4301 15.3923 78.6135C15.2464 78.794 15.1627 79.0165 15.1534 79.2481C15.1441 79.4797 15.2098 79.7081 15.3407 79.8997C16.2181 81.4946 17.0438 83.0895 17.8696 84.6844C18.6954 86.2793 18.8502 86.5365 19.4695 87.617C23.5468 80.4142 27.5724 73.3657 31.6497 66.3172L29.7401 64.8252C29.2937 64.4577 28.7663 64.2007 28.2012 64.0755C27.636 63.9503 27.0491 63.9604 26.4886 64.105C25.7144 64.2593 24.8887 64.3107 24.1145 64.5165C23.6831 64.6302 23.3019 64.8836 23.0307 65.2368L20.7598 69.1469C20.7084 69.2908 20.6282 69.4229 20.5242 69.5351C20.4203 69.6473 20.2945 69.7374 20.1547 69.7999C20.0149 69.8624 19.8638 69.896 19.7105 69.8987C19.5573 69.9014 19.4051 69.8732 19.2631 69.8157C19.0349 69.7111 18.8303 69.5614 18.6618 69.3757C18.4932 69.19 18.3642 68.9722 18.2825 68.7353C18.2441 68.317 18.3536 67.8984 18.5922 67.552C19.1599 66.4201 19.8308 65.3912 20.4501 64.2593C18.3341 63.4361 17.3019 61.7898 16.5277 59.9376C16.1665 59.1144 15.702 58.2913 15.2375 57.3137L3.16058 78.4077Z" fill="black"/>
<path d="M11.9263 33.8902C11.9263 29.1713 13.3263 24.5584 15.949 20.6355C18.5718 16.7126 22.2994 13.6559 26.6601 11.8524C31.0208 10.0489 35.8186 9.57965 40.4461 10.504C45.0736 11.4284 49.3229 13.7048 52.656 17.0452C55.9892 20.3856 58.2565 24.6398 59.1708 29.2693C60.0852 33.8988 59.6056 38.6955 57.7927 43.0523C55.9797 47.4091 52.915 51.1301 48.9864 53.7444C45.0578 56.3587 40.442 57.7487 35.723 57.7385C29.407 57.7248 23.3543 55.2062 18.893 50.7353C14.4318 46.2644 11.9263 40.2063 11.9263 33.8902ZM56.8414 33.9417C56.8516 29.7627 55.6217 25.6747 53.3074 22.195C50.9931 18.7153 47.6984 16.0005 43.8404 14.3942C39.9825 12.7879 35.7347 12.3624 31.6347 13.1714C27.5348 13.9804 23.767 15.9877 20.8084 18.9391C17.8498 21.8905 15.8334 25.6533 15.0143 29.7513C14.1953 33.8492 14.6105 38.098 16.2074 41.9599C17.8042 45.8218 20.511 49.1231 23.985 51.4459C27.459 53.7687 31.544 55.0085 35.723 55.0086C38.4939 55.0153 41.2389 54.4754 43.8008 53.4197C46.3627 52.3641 48.6911 50.8134 50.6528 48.8565C52.6145 46.8996 54.1709 44.5749 55.2328 42.0156C56.2948 39.4563 56.8414 36.7126 56.8414 33.9417Z" fill="black"/>
<path d="M43.6405 36.2173L43.3368 36.4315L43.4544 36.784L46.3805 45.5553C46.3807 45.5559 46.3809 45.5565 46.3811 45.5571C46.5039 45.936 46.5649 46.3316 46.562 46.7292C46.4782 47.2376 46.1597 47.5839 45.7521 47.7343C45.3328 47.889 44.786 47.8459 44.2698 47.4788L44.2699 47.4788L44.2618 47.4732C42.6887 46.4005 41.1458 45.2755 39.6027 44.1505C39.0371 43.7381 38.4716 43.3258 37.9045 42.916C37.3875 42.5423 37.008 42.2681 36.7203 42.0987C36.4432 41.9355 36.1348 41.795 35.7919 41.8599C35.4936 41.9163 35.2625 42.1202 35.0992 42.2644C35.0922 42.2706 35.0853 42.2766 35.0786 42.2826C35.0618 42.2973 35.0448 42.3124 35.0274 42.3277C34.8436 42.4901 34.6239 42.6841 34.2972 42.91L34.2972 42.9099L34.2905 42.9147L28.1276 47.3276L28.1207 47.3325L28.1141 47.3376C27.7056 47.6514 27.3441 47.792 27.0386 47.8195C26.741 47.8462 26.4598 47.7693 26.1903 47.5792C25.9159 47.3856 25.7512 47.1526 25.6811 46.8714C25.6088 46.5813 25.6252 46.1898 25.8088 45.6684L25.8113 45.6613L25.8136 45.6542C26.682 42.9296 27.5497 40.2579 28.4675 37.5875C28.5486 37.4304 28.5995 37.2594 28.6172 37.0831C28.6366 36.89 28.6157 36.6952 28.5559 36.5107C28.4961 36.3262 28.3988 36.1561 28.2703 36.0109C28.1529 35.8783 28.0119 35.7689 27.8546 35.6882L20.6461 30.538L20.6315 30.5276L20.6162 30.5182C20.3546 30.3583 20.1547 30.1186 20.0461 29.8371C19.9385 29.5581 19.926 29.2526 20.0102 28.9663C20.1084 28.6803 20.2965 28.4313 20.5487 28.2563C20.8033 28.0796 21.1093 27.9879 21.4218 27.9955L21.4218 27.9957H21.434H30.3345C30.5208 28.02 30.7101 28.0101 30.893 27.9662C31.09 27.919 31.2758 27.8333 31.4394 27.7139C31.603 27.5944 31.7412 27.4436 31.8456 27.2699C31.9426 27.1087 32.0085 26.931 32.04 26.7457C32.6507 24.7499 33.3171 22.7562 33.9789 20.7764C34.2024 20.108 34.4253 19.4411 34.6454 18.7763L34.6455 18.7763L34.6485 18.7664C34.8123 18.2349 35.0174 17.9125 35.2365 17.7226C35.445 17.5418 35.7074 17.4453 36.071 17.4453C36.4359 17.4453 36.7151 17.5428 36.9387 17.729C37.1693 17.9211 37.3836 18.2435 37.5447 18.7664L37.5471 18.7741L37.5497 18.7818C38.2923 20.9412 39.0014 23.1327 39.7057 25.3094C39.8765 25.8371 40.047 26.364 40.2176 26.8893L40.2176 26.8893L40.2194 26.8947C40.3343 27.2352 40.4937 27.5458 40.7822 27.751C41.0713 27.9566 41.4056 27.9957 41.7203 27.9957H50.7311C51.136 28.0428 51.4352 28.1403 51.6514 28.2886C51.8602 28.4316 52.027 28.6457 52.1268 29.0006L52.133 29.0224L52.141 29.0435C52.2391 29.3003 52.2425 29.5827 52.1507 29.8417C52.0589 30.1008 51.8772 30.3212 51.6358 30.4631L51.608 30.4794L51.5826 30.4991C50.7067 31.1788 49.8237 31.8119 48.9362 32.4483C48.3694 32.8546 47.8007 33.2624 47.2308 33.6845L43.6405 36.2173ZM36.5949 21.3472L36.2476 20.3411L35.695 21.2508L35.5409 21.5044L35.5113 21.5532L35.4934 21.6075L33.3375 28.1474C33.3373 28.1479 33.3371 28.1485 33.3369 28.149C33.0831 28.9008 32.8792 29.2322 32.632 29.4113C32.3854 29.59 32.0022 29.684 31.192 29.684H23.9505H22.4L23.6584 30.5898L29.7158 34.95C30.1917 35.3029 30.4051 35.5811 30.4928 35.8451C30.5802 36.1081 30.5723 36.446 30.406 36.9858C30.2286 37.5615 30.0126 38.2016 29.7874 38.8689L29.7864 38.8717C29.5624 39.5355 29.3297 40.2249 29.1225 40.89C28.957 41.4211 28.8144 41.8596 28.679 42.2763C28.4846 42.874 28.3048 43.4267 28.0932 44.1434L27.6987 45.479L28.8527 44.6993L29.8285 44.0399L29.8344 44.0359L29.8402 44.0317L34.9246 40.3796L34.9277 40.3774C35.505 39.956 35.8298 39.8268 36.1031 39.8268C36.3798 39.8268 36.718 39.9589 37.3218 40.381L42.5057 44.1321L42.5206 44.1429L42.5362 44.1525L43.3579 44.6597L44.5033 45.3668L44.0973 44.0834C43.7143 42.8731 43.3315 41.7132 42.956 40.5755L42.9462 40.546C42.5673 39.3979 42.196 38.2725 41.8377 37.135L41.8377 37.135L41.8363 37.1305C41.6117 36.4403 41.5933 36.078 41.6812 35.8135C41.7698 35.5471 42.0019 35.2709 42.5779 34.8501C42.5786 34.8496 42.5793 34.8491 42.5801 34.8486L47.7629 31.1489L47.7797 31.1369L47.7954 31.1236L48.5145 30.5149L49.5559 29.6333H48.1914H41.3608C40.281 29.6333 39.8332 29.5553 39.5543 29.3539C39.279 29.155 39.0722 28.7653 38.7567 27.7527C38.2447 26.1094 37.6269 24.3265 36.9939 22.4999C36.8613 22.1173 36.728 21.7328 36.5949 21.3472Z" fill="black" stroke="black"/>
</svg>
