<svg width="125" height="91" viewBox="0 0 125 91" fill="none" xmlns="http://www.w3.org/2000/svg">
<path d="M0 1.31543C1.34895 -0.325632 2.2604 -0.398559 3.97393 0.914294L36.0571 25.4209C37.9164 26.8067 39.1196 28.4113 38.281 31.037H58.2965C58.9992 30.9893 59.6832 30.7903 60.3017 30.4535C63.1455 28.9583 66.1715 28.9218 69.3069 29.0677C72.4423 29.2136 75.687 30.7452 78.6766 32.0946C80.2078 32.7874 81.5933 33.0427 83.1974 32.3863C84.166 32.0539 85.1518 31.7739 86.1505 31.5475C84.9474 28.8124 86.0776 27.0255 88.2286 25.3844C98.8379 17.3249 109.411 9.19256 120.02 1.09663C120.333 0.833233 120.661 0.589637 121.004 0.367272C122.426 -0.507964 124.03 0.294333 124.213 1.97187C124.243 2.28696 124.255 2.60355 124.249 2.92004C124.249 18.8931 124.213 34.8661 124.249 50.8757C124.249 52.3344 123.775 53.2826 122.499 53.9754C118.598 56.1271 114.77 58.3881 110.906 60.5762C108.281 62.0714 106.239 61.5973 104.562 59.081L103.14 57.0388C101.9 58.3516 100.661 59.5551 99.4942 60.8315C99.284 61.1138 99.1924 61.4671 99.239 61.8161C99.5673 63.6924 99.1373 65.6223 98.0434 67.1815C96.9495 68.7407 95.2813 69.8016 93.4057 70.1308C93.3328 70.1308 93.2963 70.2402 93.2234 70.2767C93.2963 76.9139 88.338 79.3573 83.7078 78.2997C83.3797 80.4148 82.4682 82.2747 80.6089 83.5146C79.7642 84.1318 78.7882 84.5451 77.7573 84.7222C76.7263 84.8994 75.6684 84.8355 74.6662 84.5357C74.338 85.5603 73.9359 86.5598 73.4631 87.5261C71.4214 91.0271 66.8642 92.0482 63.2913 89.8236C60.958 88.3649 58.6976 86.7968 56.4372 85.2286C55.8538 84.8275 55.4163 84.7546 54.8694 85.2651C54.3226 85.7757 53.4841 86.3591 52.7913 86.9062C48.8174 89.933 44.5883 88.8755 42.5466 84.244C40.6873 84.6816 38.8279 84.6451 37.1144 83.5511C35.4008 82.4571 34.5258 80.8525 34.2706 78.7738C30.2602 78.3726 27.7082 76.2939 26.9425 72.246C21.3645 72.4283 17.9739 67.2498 21.0728 62.1808L18.7759 60.3209C16.6978 61.9984 14.7291 61.4514 12.651 60.2115C9.04161 58.0599 5.35934 56.0541 1.71353 53.9025C1.05728 53.5378 0.58333 52.8449 0 52.2979V1.31543ZM58.734 81.8006C61.0673 83.3688 63.2548 84.864 65.5152 86.2862C66.7183 87.052 67.9944 87.0885 69.161 86.1768C70.8746 84.864 70.7652 82.53 68.8694 81.0348C67.6298 80.0502 66.2808 79.2114 65.0413 78.2632C64.6198 77.9434 64.3361 77.4749 64.248 76.9531C64.16 76.4314 64.2742 75.8957 64.5673 75.4552C64.8763 75.0218 65.3396 74.7235 65.8619 74.6218C66.3842 74.52 66.9256 74.6225 67.3746 74.9082C67.6923 75.0937 67.9968 75.3008 68.286 75.5281L74.7027 80.0502C75.21 80.4318 75.8245 80.6442 76.4591 80.6573C77.0938 80.6704 77.7165 80.4835 78.2391 80.1231C79.3693 79.3937 79.8797 78.2632 79.5151 77.0598C79.1928 76.0862 78.5982 75.2256 77.8016 74.5799C74.9214 72.4648 71.9683 70.532 69.0517 68.4898C68.6371 68.2361 68.2572 67.9296 67.9215 67.5781C67.5937 67.2381 67.4045 66.7879 67.391 66.3158C67.3775 65.8436 67.5407 65.3834 67.8485 65.0253C68.4683 64.2595 69.2704 63.9677 70.2183 64.4053C70.6191 64.6023 71.0086 64.8215 71.385 65.0618L83.4526 73.413C83.9266 73.7234 84.4267 73.9919 84.9474 74.2153C85.3224 74.3583 85.7227 74.4233 86.1237 74.4064C86.5247 74.3895 86.918 74.291 87.2797 74.117C87.6414 73.9429 87.9638 73.6969 88.2272 73.394C88.4907 73.0912 88.6896 72.7378 88.812 72.3554C89.3224 70.8602 88.8484 69.6203 87.2807 68.5262L75.4318 60.3209L74.6298 59.7739C73.536 58.9351 73.2808 57.7681 73.9735 56.7835C74.6662 55.7988 75.8329 55.6165 76.9631 56.3823L86.2599 62.7643C87.6818 63.7489 89.1036 64.77 90.562 65.7182C91.1426 66.0598 91.8179 66.2053 92.4877 66.133C93.1574 66.0608 93.7861 65.7746 94.2807 65.317C95.2286 64.4053 95.5567 62.7643 94.864 61.6338C94.4295 61.0048 93.8713 60.4712 93.2234 60.0656L69.161 44.6031C68.8327 44.351 68.4416 44.1938 68.0301 44.1488C67.6186 44.1038 67.2027 44.1726 66.8277 44.3478C63.5829 45.6972 60.1923 45.9889 56.6924 45.5148C55.4517 45.3065 54.3107 44.7049 53.4377 43.7989C52.5647 42.8928 52.0058 41.7301 51.8434 40.4822C51.6247 38.5129 52.2809 36.8719 53.6299 35.2673L52.3903 35.1943C47.1768 35.1943 41.9633 35.2308 36.7498 35.1943C35.8748 35.1579 35.4008 35.4861 34.9269 36.2155C30.6005 42.7797 26.2377 49.3318 21.8384 55.8718L21.1822 56.9658L24.3176 59.4457C25.5571 58.5704 26.6873 57.6587 27.854 56.8929C29.7134 55.6894 31.8279 55.4706 33.7238 56.6011C35.0727 57.4034 36.0935 58.7163 37.406 59.9197C38.4663 59.4159 39.6317 59.1729 40.8049 59.2109C41.9782 59.249 43.1253 59.567 44.1508 60.1386C46.4841 61.4514 47.5414 63.603 47.906 66.1193C51.6976 66.5205 53.3747 68.0521 54.2132 71.7719C54.2861 72.1001 54.7965 72.4648 55.1976 72.5742C56.6101 72.9627 57.838 73.8418 58.6611 75.054C60.083 77.2421 60.01 79.4667 58.734 81.8006ZM8.31245 52.9179L27.2707 23.9257L4.11977 6.23863V24.0351C4.11977 32.4957 4.13192 40.9806 4.15622 49.4899C4.15622 49.9275 4.33851 50.5839 4.63018 50.8027C5.76038 51.5685 6.99996 52.1885 8.31245 52.9179ZM120.093 6.23863L96.9786 23.9257L115.937 52.9179C117.067 52.2979 118.051 51.6415 119.109 51.1309C120.166 50.6204 120.129 50.2192 120.129 49.344C120.081 35.4375 120.069 21.5431 120.093 7.6609V6.23863ZM100.734 53.4649L100.551 53.1002C96.7234 47.3747 92.8953 41.6127 89.0307 35.8872C88.864 35.7239 88.6629 35.5998 88.4422 35.5241C88.2214 35.4484 87.9865 35.423 87.7547 35.4496C85.7495 35.9237 83.8172 36.5801 81.812 37.0178C81.0347 37.1712 80.2309 37.121 79.4787 36.8719C77.6193 36.179 75.7964 35.4132 74.01 34.5379C71.4943 33.298 68.8329 32.9698 66.0986 33.1886C64.6308 33.3345 63.2061 33.7682 61.9059 34.465C60.1923 35.4132 58.6976 36.7625 57.0934 37.893C56.2913 38.44 55.7809 39.0964 55.9997 40.1175C56.2184 41.1387 57.0569 41.4304 58.0049 41.5033C60.9201 41.7976 63.8599 41.2801 66.4996 40.0081C67.8121 39.3882 68.8694 39.4976 70.0725 40.2999L95.3744 56.5282L96.7598 57.4034L100.734 53.4649ZM30.5519 26.442L11.9218 54.9965L15.9322 57.294L34.4529 29.4688L30.5519 26.442ZM112.327 54.9965L93.6609 26.442L89.7599 29.4324L108.317 57.294L112.327 54.9965ZM43.7133 66.9581C43.6404 65.1712 43.0935 64.2595 42.0362 63.7489C41.5271 63.4561 40.9416 63.3238 40.3562 63.3694C39.7707 63.4149 39.2126 63.6362 38.755 64.0042C36.5675 65.6452 34.38 67.2863 32.229 69.0368C31.6729 69.5738 31.3375 70.2994 31.2887 71.0711C31.2399 71.8428 31.4812 72.6048 31.9652 73.2077C32.4492 73.8106 33.1409 74.2108 33.9047 74.3297C34.6685 74.4486 35.4492 74.2778 36.0935 73.8506C38.2081 72.246 40.3591 70.6778 42.3643 68.9638C43.057 68.3439 43.4581 67.3592 43.7133 66.9581ZM40.1768 80.5607C40.8695 80.2325 41.3435 80.1596 41.6716 79.9043C44.2601 77.935 46.8122 75.9657 49.3278 73.9235C49.5398 73.7659 49.7179 73.5672 49.8515 73.3392C49.9851 73.1113 50.0714 72.8588 50.1055 72.5968C50.1395 72.3348 50.1204 72.0686 50.0495 71.8141C49.9785 71.5597 49.8571 71.322 49.6924 71.1155C49.0362 70.2402 47.906 70.0944 46.8851 70.7508C45.8643 71.4072 45.3539 71.9178 44.5883 72.5377L39.2289 76.7316C38.4998 77.3151 38.0623 78.1903 38.6091 79.0655C39.156 79.9408 39.6664 80.0866 40.1768 80.5607ZM33.3956 62.0349C32.8852 61.3785 32.5571 60.5762 32.0102 60.3574C31.6641 60.241 31.2978 60.1972 30.934 60.2286C30.5702 60.2599 30.2168 60.3658 29.8957 60.5397C28.1821 61.7067 26.5415 63.0195 24.9009 64.3324C23.8801 65.1347 23.6978 66.3017 24.3905 67.2134C25.0832 68.1251 26.2498 68.3074 27.38 67.5051C28.5102 66.7028 30.6613 65.0253 32.229 63.7124C32.7029 63.3477 32.9217 62.6913 33.3956 62.0349ZM48.1612 84.5722C48.7809 84.3899 49.182 84.3534 49.4372 84.1711C51.333 82.7488 53.1924 81.363 55.0153 79.8678C55.3775 79.5339 55.5925 79.0699 55.613 78.5776C55.6335 78.0853 55.4579 77.605 55.1247 77.2421C54.3955 76.4398 53.4476 76.1845 52.6091 76.8045C50.7132 78.1538 48.8174 79.5761 47.0674 81.1077C46.6299 81.5089 46.557 82.6394 46.7393 83.2958C46.9216 83.9522 47.7237 84.2075 48.1612 84.5722Z" fill="black"/>
</svg>
