<svg width="82" height="91" viewBox="0 0 82 91" fill="none" xmlns="http://www.w3.org/2000/svg">
<path d="M79.5964 64.6708C78.7014 64.1894 77.7134 63.9063 76.6994 63.8406C75.6854 63.7749 74.6691 63.9282 73.7195 64.29C72.3743 64.7549 71.2286 65.6665 70.4731 66.8732C68.5716 64.7433 66.8762 62.4379 65.4094 59.9881L65.3201 59.8492C64.7276 58.939 64.7834 57.6033 64.8602 55.7568C64.89 55.0562 64.9222 54.26 64.9222 53.4006V51.8641C64.9222 46.5316 64.1661 42.9353 62.5422 40.5294C60.8626 38.0405 58.2334 36.8004 54.5184 36.7372C54.4248 36.7159 54.3292 36.7051 54.2333 36.7049H48.7865V33.6877C49.8059 33.0902 50.7715 32.4051 51.6723 31.6403C52.341 31.0744 52.969 30.4619 53.5515 29.8074C54.5988 30.9874 55.8914 31.9238 57.3388 32.5511C58.7861 33.1783 60.3531 33.4812 61.9299 33.4385C63.8591 33.4253 65.7686 33.0492 67.5588 32.3298C68.1228 32.1041 69.8359 31.4146 69.9524 29.8496C70.069 28.2845 68.4327 27.3086 67.8947 26.9973C64.683 25.1086 64.6408 20.3776 64.6024 16.2083C64.7299 14.0279 64.4915 11.8415 63.8971 9.73986C61.9683 4.81785 56.7881 5.52347 54.299 5.86946C54.0597 5.90295 53.8279 5.93395 53.6184 5.95875C53.342 5.63632 53.052 5.32009 52.7507 5.01503C49.6611 1.89652 45.4827 0.0987198 41.0949 0L40.9995 0C36.8505 0.0946061 32.8782 1.69851 29.8259 4.51154C28.2603 5.86477 26.9964 7.53195 26.1159 9.40507C25.2355 11.2782 24.7582 13.3154 24.7151 15.3849L24.6952 21.3535C24.6952 25.5017 27.224 28.7657 29.3449 30.7784C30.4951 31.8601 31.7552 32.8185 33.1046 33.6381V36.7074H27.6578C18.237 36.7149 16.9664 44.3614 16.9701 51.8368V53.3684C16.9701 54.2364 17.0036 55.0264 17.0321 55.7246C17.109 57.5748 17.1648 58.9117 16.5735 59.817V59.8232L16.5177 59.9112C15.0364 62.3769 13.3323 64.7015 11.4267 66.8559C10.6704 65.6439 9.52074 64.7289 8.17034 64.264C7.22068 63.9032 6.20452 63.7511 5.19089 63.8181C4.17726 63.8851 3.18992 64.1695 2.29595 64.6522C0.312616 65.8154 -0.47328 68.3725 0.284106 71.1528C0.922491 73.5004 2.78559 76.0277 5.3664 76.0277H10.983C10.3438 77.4807 10.0215 79.0532 10.0378 80.6406C10.054 82.2279 10.4084 83.7936 11.0772 85.2331C12.1271 87.3835 14.931 90.991 21.9086 90.991H47.1887C48.5362 89.8067 47.7143 88.3049 46.5429 88.3049H36.0647C36.5806 86.2277 37.5181 84.2789 38.819 82.5797C40.1198 80.8804 41.7561 79.467 43.6262 78.4274L43.6435 78.4174L43.6559 78.4112C48.851 75.3779 55.7146 71.9701 62.8943 72.4066C64.6725 73.0312 66.2659 74.0915 67.5291 75.4908C67.578 75.5571 67.6327 75.619 67.6927 75.6755C68.3492 77.1075 68.6629 78.6729 68.6089 80.2474C68.5549 81.8219 68.1346 83.3622 67.3815 84.7458C66.7571 85.8756 65.8291 86.8082 64.7024 87.4378C63.5758 88.0675 62.2955 88.3691 61.0064 88.3086H51.8334C50.486 89.4941 51.3066 90.9947 52.4793 90.9947H61.0101C62.7728 91.0533 64.5176 90.6254 66.0534 89.7579C67.5892 88.8904 68.8567 87.6167 69.7169 86.0764C70.5423 84.5562 71.0583 82.8873 71.2349 81.1663C71.4115 79.4453 71.2452 77.7064 70.7458 76.0501H76.5297C79.1105 76.0501 80.9736 73.5264 81.612 71.1814C82.3706 68.3948 81.5822 65.8414 79.6001 64.6745L79.5964 64.6708ZM42.994 75.688C37.2324 72.3196 30.82 70.2169 24.1833 69.5196L26.2683 68.3514H38.1596H38.8005C40.1479 67.1684 39.3273 65.6653 38.1559 65.6653H27.2562V54.6283C29.9005 56.2637 32.9658 57.0885 36.0734 57.0007C37.6188 57.0097 39.1585 56.8111 40.6512 56.4104L40.9325 56.3298L40.9549 56.3223C41.0429 56.3484 41.1495 56.3781 41.2833 56.4141C45.6343 57.5835 51.469 56.7687 54.6361 54.611V65.6653H43.6671C42.3196 66.8496 43.1415 68.3514 44.3129 68.3514H55.5931L58.3685 69.9065C52.9244 70.8389 47.7078 72.8006 42.9977 75.6867L42.994 75.688ZM55.3712 8.43278C58.1119 8.10415 60.4064 8.19716 61.3931 10.7146C61.8444 12.5147 62.02 14.3729 61.9137 16.2257C61.9546 20.8711 62.0067 26.6526 66.53 29.3126C66.6966 29.4085 66.8572 29.5145 67.0109 29.6301C66.8631 29.7076 66.7112 29.7771 66.556 29.8384C65.2842 30.3469 58.9846 32.527 55.1989 27.5938C56.5056 25.5395 57.2099 23.1597 57.2318 20.7248L57.2504 16.0521C57.2528 16.0045 57.2528 15.9569 57.2504 15.9094V15.3898C57.2458 12.9459 56.5977 10.5464 55.3712 8.43278ZM41.0181 2.68609H41.0962C44.7695 2.78029 48.2637 4.2941 50.8455 6.90992C53.0173 8.98458 54.3387 11.7943 54.5519 14.7909C46.2888 15.8028 42.4349 14.7239 37.9117 10.3178C35.3086 7.778 33.3252 9.68902 32.1365 10.8299C30.9477 11.9708 29.894 12.9877 27.8463 12.421C28.7743 9.63973 30.5372 7.21252 32.8946 5.47037C35.2521 3.72822 38.088 2.75593 41.0181 2.68609ZM31.1907 28.824C29.4552 27.1771 27.3802 24.5444 27.3802 21.3573L27.4 15.3935C27.4 15.2881 27.4074 15.184 27.4112 15.0786C30.7667 15.8735 32.7414 13.9687 33.9983 12.7633C34.3524 12.3624 34.7714 12.0241 35.2379 11.7625C35.4548 11.698 35.9011 12.1122 36.0337 12.2412C37.7608 14.0979 39.87 15.5576 42.2157 16.5195C44.5615 17.4815 47.088 17.9228 49.6208 17.813C51.2701 17.8006 52.9173 17.6934 54.5543 17.4918L54.5419 20.7161C54.5419 27.9547 46.3223 33.214 40.8854 33.5178C40.8177 33.522 40.7474 33.524 40.6747 33.524C38.4571 33.524 34.3057 31.778 31.1857 28.8228L31.1907 28.824ZM46.1016 35.0109V38.8379C46.1015 39.4558 45.9539 40.0646 45.671 40.6138C45.3881 41.163 44.9782 41.6367 44.4753 41.9953C40.3078 44.9641 35.7895 42.025 35.7895 38.048V35.0283C37.3231 35.7398 38.9819 36.1418 40.671 36.2114C40.7949 36.2114 40.9189 36.2114 41.0429 36.2014C42.7839 36.0805 44.4939 35.6784 46.1066 35.0109H46.1016ZM26.3178 45.7603C26.3351 45.281 26.3765 44.803 26.4418 44.3279C26.6294 42.5535 27.2622 40.8553 28.2813 39.391H33.2223C33.5387 41.2113 34.4871 42.8615 35.9004 44.0508C37.3137 45.2401 39.1012 45.8922 40.948 45.8922C42.7948 45.8922 44.5824 45.2401 45.9957 44.0508C47.409 42.8615 48.3574 41.2113 48.6737 39.391H53.6184C54.876 41.2796 55.5565 43.4936 55.577 45.7627C55.6422 47.3884 55.3791 49.0105 54.8035 50.5322C54.7763 50.5802 54.7523 50.6299 54.7316 50.681C54.471 51.2584 54.0535 51.7508 53.5267 52.1022C53.4838 52.1279 53.4424 52.1561 53.4028 52.1865C51.2955 53.8433 46.0805 54.9222 41.9763 53.8198C41.8523 53.7875 41.7643 53.7602 41.6887 53.7392C41.1982 53.5589 40.6589 53.5633 40.1714 53.7516L39.9235 53.8222C36.061 54.8949 30.763 54.1273 28.4351 52.1419C28.099 51.942 27.8099 51.6722 27.5872 51.3507C26.5862 49.6674 26.142 47.711 26.3178 45.7603ZM2.8736 70.4472C2.54635 69.2456 2.55626 67.6136 3.65577 66.9662C4.24803 66.644 4.91427 66.4824 5.58829 66.4975C6.15452 66.4967 6.71658 66.5945 7.24933 66.7864C7.73478 66.9459 8.17904 67.2107 8.55038 67.5618C8.92172 67.913 9.21099 68.3418 9.39753 68.8177C9.49748 69.1334 9.68561 69.414 9.93973 69.6263C10.1938 69.8385 10.5034 69.9736 10.8317 70.0157C11.8755 70.1397 12.9936 69.5196 15.6215 65.9754C16.4694 64.832 17.4127 63.4617 18.4291 61.8991H21.3707C22.7181 60.7148 21.8963 59.213 20.7248 59.213H19.6204C19.7806 58.0211 19.8126 56.8154 19.7158 55.6167C19.6861 54.9073 19.6551 54.1744 19.6551 53.3684V51.8368C19.6551 47.1393 20.2749 43.9236 21.574 42.0077C22.3682 40.8178 23.5945 39.9842 24.9927 39.6837C24.3739 41.0455 23.9635 42.4929 23.7755 43.977C23.6982 44.5495 23.6506 45.1257 23.6329 45.7032C23.6329 45.7106 23.6329 45.7181 23.6329 45.7255C23.5511 47.6147 23.8461 49.5012 24.5006 51.275C24.5229 51.3358 24.549 51.3991 24.5762 51.4598V66.2222L18.0994 69.852C16.0419 70.5955 14.1755 71.7875 12.6353 73.3417H5.3664C4.41068 73.3417 3.31489 72.0693 2.8736 70.4472ZM13.4894 84.0525C12.8735 82.6702 12.6296 81.1508 12.7818 79.645C12.934 78.1392 13.477 76.6994 14.3571 75.4684C15.6218 74.0603 17.2235 72.9969 19.0117 72.3781C23.6912 71.4095 31.6766 73.106 38.3902 76.2906C35.059 76.8118 31.9227 78.1976 29.2941 80.3099C26.5744 82.5594 24.8167 85.5692 24.8167 87.9775C24.8167 88.0903 24.8167 88.1995 24.8303 88.3061H21.9086C16.6652 88.3061 14.4364 85.9945 13.4894 84.055V84.0525ZM33.2781 88.3036H27.5388C27.4717 87.3363 27.7338 86.3747 28.2826 85.5754C29.7701 82.9091 33.0996 80.1015 38.3604 79.0363C35.8582 81.6076 34.1015 84.8109 33.2781 88.3036ZM79.0188 70.472C78.5787 72.0929 77.4829 73.3615 76.5272 73.3615H69.2595C67.7447 71.8379 65.9171 70.6616 63.9033 69.914C63.838 69.8763 63.7696 69.8443 63.6987 69.8185L57.3174 66.242V51.4648C58.0104 49.6323 58.3307 47.6798 58.2594 45.7218C58.2594 45.7119 58.2594 45.702 58.2594 45.6908C58.2095 43.6269 57.7502 41.5934 56.9083 39.7085C58.3031 40.011 59.5256 40.8444 60.3172 42.0325C61.6088 43.9472 62.2373 47.1641 62.2373 51.8641V53.3956C62.2373 54.2017 62.2063 54.9346 62.1765 55.6427C62.0795 56.8415 62.1115 58.0472 62.272 59.2391H60.5217C59.1743 60.4234 59.9949 61.9252 61.1675 61.9252H63.4682C64.0669 62.8453 65.1714 64.517 66.3291 66.0721C68.9186 69.5519 70.0268 70.1645 71.0631 70.0405C71.3916 69.9988 71.7012 69.8639 71.9556 69.6519C72.2099 69.4398 72.3983 69.1594 72.4986 68.8438C72.6848 68.3677 72.9738 67.9388 73.3449 67.5874C73.7161 67.2361 74.1602 66.971 74.6455 66.8112C75.2242 66.5898 75.8425 66.491 76.4613 66.5211C77.08 66.5512 77.6858 66.7096 78.2403 66.9861C79.341 67.6346 79.3497 69.2691 79.0212 70.4708L79.0188 70.472Z" fill="#0E0E0E"/>
</svg>
