<svg width="78" height="78" viewBox="0 0 78 78" fill="none" xmlns="http://www.w3.org/2000/svg">
<path d="M74.1644 60.3902H67.6912C67.4142 59.3125 66.7873 58.3572 65.9089 57.6741C65.0305 56.991 63.9502 56.6187 62.8374 56.6156V47.7779C63.92 48.6105 65.2463 49.064 66.612 49.0686C68.2797 49.0666 69.8785 48.4032 71.0578 47.224C72.237 46.0448 72.9004 44.446 72.9023 42.7783C72.9019 42.3799 72.8616 41.9826 72.7818 41.5923C73.5419 41.0537 74.1719 40.352 74.626 39.5386C75.08 38.7252 75.3466 37.8206 75.4062 36.891C75.4657 35.9614 75.3168 35.0302 74.9703 34.1655C74.6238 33.3007 74.0884 32.5244 73.4033 31.8932C74.0232 30.7594 74.2721 29.4598 74.1151 28.1772C73.9581 26.8945 73.4031 25.6934 72.5281 24.7425C72.7757 24.0721 72.9027 23.3632 72.9034 22.6486C72.9017 21.1079 72.3354 19.6212 71.3117 18.4699C70.2879 17.3185 68.8776 16.5823 67.3477 16.4006C66.8673 15.2685 66.0642 14.3028 65.0387 13.624C64.0132 12.9451 62.8105 12.5831 61.5807 12.5831C60.3508 12.5831 59.1482 12.9451 58.1226 13.624C57.0971 14.3028 56.2941 15.2685 55.8136 16.4006C54.2837 16.5823 52.8734 17.3185 51.8497 18.4699C50.8259 19.6212 50.2596 21.1079 50.258 22.6486C50.2586 23.3632 50.3856 24.0721 50.6332 24.7425C49.9865 25.4621 49.516 26.3223 49.2591 27.255C47.8065 25.9412 45.9281 25.1964 43.9698 25.1579C42.7566 25.1931 41.5649 25.4868 40.4743 26.0195C39.3837 26.5521 38.4194 27.3113 37.6457 28.2465C37.4818 26.5478 36.7348 24.9582 35.5317 23.7479L31.9093 20.1255H37.6785V17.5887C37.6727 17 37.5274 16.4211 37.2545 15.8995C36.9817 15.3778 36.589 14.9283 36.1088 14.5878C31.5492 11.3168 27.8968 6.93947 25.4954 1.86773C25.2395 1.31036 24.829 0.838107 24.3128 0.507042C23.7965 0.175977 23.1961 0 22.5828 0C21.9695 0 21.369 0.175977 20.8528 0.507042C20.3365 0.838107 19.9261 1.31036 19.6702 1.86773C17.2699 6.94053 13.6169 11.3182 9.05567 14.5878C8.57435 14.9294 8.18106 15.3805 7.90816 15.9039C7.63527 16.4272 7.49058 17.0079 7.48601 17.5982V20.135H13.2552L9.6328 23.7574C8.26364 25.1342 7.49198 26.995 7.48495 28.9367V30.1946H13.2552L9.6328 33.8169C8.26364 35.1938 7.49198 37.0546 7.48495 38.9963V40.2541H21.3244V45.2866C19.7836 45.2882 18.2968 45.8547 17.1454 46.8787C15.994 47.9026 15.2579 49.3132 15.0764 50.8433C14.2002 51.2163 13.4203 51.7838 12.7958 52.5028C12.1713 53.2218 11.7185 54.0734 11.4718 54.9933C11.225 55.9131 11.1907 56.877 11.3715 57.812C11.5523 58.747 11.9434 59.6287 12.5153 60.3902C11.5156 60.3921 10.5575 60.7901 9.85063 61.497C9.14378 62.2038 8.74581 63.162 8.74385 64.1616C8.74357 64.4951 8.61096 64.8149 8.37513 65.0507C8.1393 65.2866 7.81953 65.4192 7.48601 65.4195H3.71142C2.72142 65.436 1.77757 65.8409 1.08331 66.5469C0.389058 67.2529 0 68.2034 0 69.1935C0 70.1837 0.389058 71.1341 1.08331 71.8401C1.77757 72.5461 2.72142 72.951 3.71142 72.9676H10.2332C10.0842 73.3704 10.0059 73.7959 10.0017 74.2254C10.0028 75.2261 10.4009 76.1856 11.1085 76.8932C11.8161 77.6008 12.7755 77.9989 13.7763 78H62.8417C63.8317 77.9834 64.7755 77.5785 65.4698 76.8726C66.164 76.1666 66.5531 75.2161 66.5531 74.2259C66.5531 73.2358 66.164 72.2853 65.4698 71.5793C64.7755 70.8734 63.8317 70.4685 62.8417 70.4519H59.0671C58.7335 70.4519 58.4136 70.3194 58.1777 70.0835C57.9418 69.8476 57.8092 69.5276 57.8092 69.194C57.8092 68.8604 57.9418 68.5405 58.1777 68.3046C58.4136 68.0687 58.7335 67.9362 59.0671 67.9362H74.1644C75.1544 67.9196 76.0982 67.5147 76.7925 66.8087C77.4868 66.1028 77.8758 65.1523 77.8758 64.1621C77.8758 63.172 77.4868 62.2215 76.7925 61.5155C76.0982 60.8096 75.1544 60.4047 74.1644 60.3881V60.3902ZM64.9927 60.3902H48.1154C48.412 59.8771 48.8809 59.4858 49.4388 59.2856L50.3119 58.9812L50.2812 58.0563C50.2816 57.9947 50.2745 57.9333 50.2601 57.8735C50.257 57.0394 50.5314 56.2281 51.0401 55.5672C51.5488 54.9063 52.2628 54.4333 53.0698 54.2227C53.8768 54.0122 54.7309 54.076 55.4977 54.4042C56.2644 54.7323 56.9002 55.3061 57.305 56.0353L57.6031 56.5638L58.2046 56.6579C58.6805 56.7345 59.1242 56.9469 59.4824 57.2696C59.8405 57.5923 60.0979 58.0116 60.2235 58.477L60.5934 59.8437L61.9073 59.3152C62.4652 59.1003 63.0813 59.0902 63.646 59.2866C64.2107 59.483 64.6875 59.8733 64.9916 60.3881L64.9927 60.3902ZM45.2266 52.7216C48.0319 52.2375 50.4768 50.1615 52.076 47.1691C52.6593 47.7652 53.355 48.2398 54.1228 48.5654C54.8906 48.8911 55.7153 49.0614 56.5493 49.0664C57.9155 49.0629 59.2426 48.6102 60.326 47.7779V54.8134C59.9696 54.5979 59.5875 54.4282 59.1886 54.3082C58.458 53.245 57.4173 52.433 56.2084 51.9828C54.9996 51.5326 53.6813 51.4661 52.4332 51.7923C51.1851 52.1185 50.068 52.8216 49.234 53.8058C48.4001 54.79 47.8899 56.0074 47.7729 57.2921C47.1894 57.6237 46.6778 58.0684 46.2684 58.6002C45.8589 59.132 45.5597 59.7402 45.3883 60.3891H45.2234L45.2266 52.7216ZM52.9375 26.0173L53.7535 25.3577L53.2514 24.437C52.9346 23.8713 52.7702 23.2329 52.7745 22.5846C52.7788 21.9362 52.9515 21.3 53.2757 20.7385C53.6 20.177 54.0646 19.7094 54.624 19.3816C55.1835 19.0538 55.8185 18.8771 56.4668 18.8687L57.6887 18.9321L57.9403 17.9428C58.1433 17.1306 58.612 16.4097 59.2718 15.8945C59.9316 15.3794 60.7446 15.0995 61.5817 15.0995C62.4188 15.0995 63.2319 15.3794 63.8917 15.8945C64.5515 16.4097 65.0201 17.1306 65.2231 17.9428L65.4747 18.9321L66.4958 18.8898C66.5624 18.8898 66.6289 18.8793 66.6131 18.874C67.6138 18.8751 68.5733 19.2731 69.2809 19.9808C69.9885 20.6884 70.3866 21.6478 70.3877 22.6486C70.3819 23.2757 70.2179 23.8912 69.911 24.4381L69.4089 25.3587L70.2249 26.0183C70.6208 26.328 70.9495 26.7151 71.1909 27.1561C71.4322 27.597 71.5812 28.0825 71.6286 28.5829C71.6761 29.0833 71.6211 29.5882 71.467 30.0666C71.3129 30.5451 71.0629 30.9871 70.7323 31.3657L69.7693 32.4988L71.0473 33.2588C71.6358 33.6023 72.1193 34.0999 72.4456 34.698C72.772 35.2962 72.9288 35.9721 72.8991 36.6528C72.8694 37.3335 72.6543 37.9932 72.2771 38.5606C71.8999 39.1281 71.3749 39.5817 70.7587 39.8726L69.7228 40.3736L70.1287 41.4496C70.3239 41.9662 70.4031 42.5194 70.3607 43.0701C70.3184 43.6207 70.1555 44.1553 69.8837 44.636C69.6119 45.1167 69.2377 45.5318 68.7877 45.8519C68.3377 46.172 67.8228 46.3893 67.2795 46.4883C66.7362 46.5874 66.1777 46.5658 65.6437 46.4251C65.1097 46.2845 64.6131 46.0281 64.1891 45.6743C63.7651 45.3204 63.424 44.8777 63.1901 44.3774C62.9562 43.8772 62.8351 43.3316 62.8353 42.7793V39.4445L67.5919 33.4977L65.6322 31.9228L62.8417 35.4109V22.6464H60.326V30.3817L57.5344 26.8935L55.5684 28.4664L60.3249 34.4131V42.7772C60.3268 43.6239 60.0435 44.4464 59.5206 45.1124C58.9978 45.7783 58.266 46.2488 57.4431 46.4479C56.6202 46.6471 55.7543 46.5633 54.9848 46.2102C54.2153 45.857 53.5872 45.255 53.2017 44.5012C53.7583 42.7223 54.0392 40.8687 54.0347 39.0048C54.0759 35.7873 53.2036 32.6242 51.519 29.8827V28.9409C51.5215 28.3788 51.6505 27.8243 51.8964 27.3188C52.1424 26.8132 52.4989 26.3695 52.9396 26.0204L52.9375 26.0173ZM43.9687 27.6789C48.1313 27.6789 51.5169 32.7525 51.5169 39.0016C51.5169 44.6037 48.7908 49.2546 45.2266 50.1541V40.7034L49.9831 34.7566L48.0171 33.1838L45.2266 36.6719V32.7113H42.7109V42.3946L39.9838 38.3029L37.8899 39.6981L42.712 46.9323V50.1552C39.1519 49.2578 36.4217 44.6069 36.4217 39.0048C36.4217 32.761 39.8041 27.682 43.9698 27.682L43.9687 27.6789ZM36.2113 30.1946C35.6585 31.1281 35.2064 32.1178 34.8626 33.1468L31.9082 30.1946H36.2113ZM11.4107 35.5959L16.812 30.1946H18.8077V27.6789H10.1719C10.3929 26.8677 10.8204 26.1277 11.4128 25.531L16.8141 20.1297H18.8098V17.614H10.0017V17.5961C10.0045 17.4051 10.0532 17.2176 10.1438 17.0495C10.2343 16.8813 10.3639 16.7374 10.5217 16.6299C15.4297 13.1117 19.3609 8.40169 21.9449 2.94377C22.0036 2.82474 22.0945 2.72452 22.2072 2.65445C22.3199 2.58437 22.45 2.54723 22.5828 2.54723C22.7155 2.54723 22.8456 2.58437 22.9583 2.65445C23.0711 2.72452 23.1619 2.82474 23.2207 2.94377C25.8049 8.4015 29.7356 13.1118 34.6427 16.631C34.8008 16.7384 34.9306 16.8822 35.0213 17.0504C35.112 17.2186 35.1609 17.4061 35.1638 17.5971L26.3621 17.614V20.1297H28.3578L33.7591 25.531C34.3526 26.1268 34.7803 26.8672 35 27.6789H26.3621V30.1946H28.3578L33.7591 35.5959C33.8981 35.7357 34.0283 35.884 34.1491 36.0398C34.0614 36.5958 33.9958 37.1634 33.9578 37.7437H10.175C10.3941 36.9327 10.8192 36.1925 11.4107 35.5959ZM23.839 40.2594H33.9504C34.3732 46.7283 38.0527 51.9172 42.7109 52.7205V60.3891H37.6584C38.3663 59.458 38.7996 58.3474 38.9094 57.1829C39.0191 56.0183 38.801 54.8463 38.2795 53.7993C37.7581 52.7523 36.9542 51.8719 35.9587 51.2579C34.9632 50.6438 33.8157 50.3204 32.646 50.3243C32.2477 50.3246 31.8504 50.365 31.4601 50.4448C30.8846 49.6282 30.1208 48.9623 29.2334 48.5034C28.346 48.0445 27.3611 47.8062 26.3621 47.8086H26.3304C25.6823 46.9503 24.8254 46.272 23.8411 45.8383L23.839 40.2594ZM16.6207 52.9732L17.6101 52.7216L17.5678 51.7005C17.5693 51.6598 17.5643 51.6191 17.553 51.58C17.5496 50.7453 17.8241 49.9332 18.3333 49.2718C18.8425 48.6104 19.5574 48.1374 20.3652 47.9272C21.173 47.717 22.0278 47.7817 22.7947 48.111C23.5617 48.4403 24.1973 49.0156 24.6011 49.7461L25.1296 50.486L25.9816 50.3666C26.1074 50.3449 26.2345 50.3311 26.3621 50.3253C27.071 50.325 27.7654 50.5263 28.3643 50.9057C28.9632 51.285 29.4419 51.8268 29.7445 52.4679L30.2456 53.5069L31.3237 53.0968C32.1486 52.7842 33.0571 52.771 33.8907 53.0597C34.7243 53.3483 35.4301 53.9204 35.885 54.6762C36.34 55.432 36.5152 56.3235 36.3801 57.1952C36.245 58.067 35.8082 58.8636 35.1459 59.4463L34.4176 60.3902H15.9358L15.0542 59.4463C14.539 58.9936 14.1573 58.4087 13.9505 57.7548C13.7437 57.1009 13.7197 56.4028 13.881 55.7362C14.0423 55.0696 14.3828 54.4599 14.8657 53.9728C15.3486 53.4858 15.9555 53.1401 16.6207 52.9732ZM74.1644 65.4216H59.0671C58.0664 65.4227 57.1069 65.8207 56.3993 66.5284C55.6917 67.236 55.2936 68.1954 55.2925 69.1961C55.2967 69.6256 55.375 70.0512 55.524 70.454H52.7758V72.9697H62.8406C63.0058 72.9697 63.1694 73.0022 63.322 73.0654C63.4746 73.1286 63.6132 73.2213 63.73 73.3381C63.8469 73.4549 63.9395 73.5936 64.0027 73.7462C64.0659 73.8988 64.0985 74.0623 64.0985 74.2275C64.0985 74.3927 64.0659 74.5563 64.0027 74.7089C63.9395 74.8615 63.8469 75.0002 63.73 75.117C63.6132 75.2338 63.4746 75.3264 63.322 75.3896C63.1694 75.4528 63.0058 75.4854 62.8406 75.4854H13.7763C13.6111 75.4854 13.4475 75.4528 13.2949 75.3896C13.1423 75.3264 13.0037 75.2338 12.8869 75.117C12.7701 75.0002 12.6774 74.8615 12.6142 74.7089C12.551 74.5563 12.5184 74.3927 12.5184 74.2275C12.5184 74.0623 12.551 73.8988 12.6142 73.7462C12.6774 73.5936 12.7701 73.4549 12.8869 73.3381C13.0037 73.2213 13.1423 73.1286 13.2949 73.0654C13.4475 73.0022 13.6111 72.9697 13.7763 72.9697H21.3244V70.454H3.71142C3.54624 70.454 3.38268 70.4215 3.23007 70.3582C3.07746 70.295 2.9388 70.2024 2.82199 70.0856C2.70519 69.9688 2.61254 69.8301 2.54933 69.6775C2.48612 69.5249 2.45358 69.3613 2.45358 69.1961C2.45358 69.031 2.48612 68.8674 2.54933 68.7148C2.61254 68.5622 2.70519 68.4235 2.82199 68.3067C2.9388 68.1899 3.07746 68.0973 3.23007 68.0341C3.38268 67.9708 3.54624 67.9383 3.71142 67.9383H7.48495C8.48606 67.9372 9.44581 67.5389 10.1535 66.8308C10.8612 66.1227 11.259 65.1627 11.2595 64.1616C11.2598 63.8281 11.3924 63.5083 11.6283 63.2725C11.8641 63.0367 12.1839 62.904 12.5174 62.9038H74.1644C74.498 62.9038 74.8179 63.0363 75.0538 63.2722C75.2897 63.5081 75.4222 63.828 75.4222 64.1616C75.4222 64.4952 75.2897 64.8151 75.0538 65.051C74.8179 65.2869 74.498 65.4195 74.1644 65.4195V65.4216Z" fill="white"/>
</svg>
