<svg width="71" height="78" viewBox="0 0 71 78"  fill="none" xmlns="http://www.w3.org/2000/svg">
<path stroke="white" d="M68.2255 55.4321C67.4584 55.0195 66.6115 54.7769 65.7423 54.7205C64.8732 54.6642 64.0021 54.7956 63.1882 55.1058C62.0351 55.5042 61.0531 56.2856 60.4055 57.3199C58.7757 55.4942 57.3224 53.5182 56.0652 51.4184L55.9887 51.2993C55.4808 50.5191 55.5286 49.3743 55.5945 47.7916C55.62 47.191 55.6476 46.5086 55.6476 45.7719V44.4549C55.6476 39.8842 54.9995 36.8017 53.6076 34.7395C52.1679 32.6062 49.9144 31.5432 46.73 31.489C46.6499 31.4708 46.5679 31.4615 46.4857 31.4614H41.817V28.8752C42.6908 28.363 43.5184 27.7758 44.2905 27.1203C44.8638 26.6352 45.402 26.1102 45.9013 25.5492C46.799 26.5606 47.907 27.3633 49.1475 27.9009C50.3881 28.4386 51.7312 28.6982 53.0827 28.6615C54.7363 28.6502 56.3731 28.3279 57.9076 27.7113C58.391 27.5178 59.8594 26.9268 59.9592 25.5853C60.0591 24.2439 58.6566 23.4074 58.1955 23.1405C55.4425 21.5217 55.4064 17.4665 55.3735 13.8928C55.4828 12.0239 55.2784 10.1499 54.7689 8.34846C53.1157 4.12958 48.6755 4.73441 46.542 5.03097C46.3369 5.05967 46.1382 5.08624 45.9587 5.1075C45.7217 4.83113 45.4731 4.56008 45.2149 4.29859C42.5667 1.62559 38.9852 0.084617 35.2242 0L35.1424 0C31.5862 0.081091 28.1813 1.45586 25.565 3.86703C24.2231 5.02695 23.1397 6.45596 22.3851 8.06149C21.6304 9.66702 21.2214 11.4132 21.1843 13.187L21.1673 18.303C21.1673 21.8586 23.3348 24.6563 25.1528 26.3815C26.1387 27.3086 27.2187 28.1301 28.3753 28.8327V31.4635H23.7067C15.6317 31.4699 14.5427 38.0241 14.5458 44.4316V45.7443C14.5458 46.4884 14.5745 47.1655 14.599 47.7639C14.6648 49.3499 14.7127 50.4957 14.2058 51.2717V51.277L14.158 51.3525C12.8883 53.4659 11.4277 55.4584 9.79434 57.305C9.14607 56.2662 8.16064 55.4819 7.00315 55.0834C6.18916 54.7742 5.31816 54.6438 4.44934 54.7012C3.58051 54.7586 2.73422 55.0025 1.96796 55.4161C0.267957 56.4132 -0.405669 58.605 0.243519 60.9882C0.790707 63.0003 2.38765 65.1666 4.59977 65.1666H9.41396C8.86608 66.412 8.58989 67.7599 8.60382 69.1205C8.61774 70.4811 8.92146 71.8231 9.49471 73.057C10.3946 74.9001 12.798 77.9923 18.7788 77.9923H40.4475C41.6024 76.9771 40.898 75.6899 39.8939 75.6899H30.9126C31.3548 73.9095 32.1584 72.2391 33.2734 70.7826C34.3884 69.3261 35.7909 68.1146 37.3939 67.2235L37.4087 67.215L37.4194 67.2096C41.8723 64.6096 47.7554 61.6886 53.9094 62.0628C55.4335 62.5982 56.7994 63.507 57.8821 64.7064C57.924 64.7633 57.9709 64.8163 58.0223 64.8648C58.585 66.0922 58.8539 67.434 58.8076 68.7835C58.7613 70.1331 58.4011 71.4533 57.7556 72.6392C57.2204 73.6077 56.4249 74.407 55.4592 74.9467C54.4935 75.4864 53.3961 75.7449 52.2912 75.6931H44.4287C43.2737 76.7093 43.9771 77.9954 44.9822 77.9954H52.2944C53.8053 78.0457 55.3008 77.6789 56.6172 76.9354C57.9336 76.1918 59.02 75.1 59.7574 73.7798C60.4649 72.4767 60.9071 71.0462 61.0585 69.5711C61.2098 68.096 61.0673 66.6055 60.6392 65.1858H65.5969C67.809 65.1858 69.4059 63.0227 69.9531 61.0126C70.6034 58.6241 69.9276 56.4355 68.2287 55.4353L68.2255 55.4321ZM36.852 64.8754C31.9135 61.9882 26.4172 60.1859 20.7285 59.5882L22.5157 58.5869H32.7082H33.2575C34.4125 57.5729 33.7091 56.2846 32.705 56.2846H23.3625V46.8243C25.629 48.226 28.2564 48.933 30.92 48.8577C32.2447 48.8654 33.5644 48.6953 34.8438 48.3517L35.085 48.2826L35.1042 48.2763C35.1796 48.2986 35.271 48.3241 35.3857 48.3549C39.1151 49.3573 44.1163 48.6589 46.831 46.8094V56.2846H37.4289C36.274 57.2997 36.9784 58.5869 37.9825 58.5869H47.6512L50.0302 59.9199C45.3638 60.7191 40.8924 62.4005 36.8552 64.8743L36.852 64.8754ZM47.461 7.2281C49.8102 6.94642 51.7769 7.02614 52.6227 9.18394C53.0095 10.7269 53.16 12.3196 53.0689 13.9077C53.104 17.8895 53.1486 22.845 57.0257 25.1251C57.1685 25.2073 57.3062 25.2981 57.4379 25.3972C57.3112 25.4636 57.181 25.5232 57.048 25.5758C55.9579 26.0116 50.5582 27.8803 47.3134 23.6518C48.4334 21.891 49.0371 19.8511 49.0559 17.7641L49.0718 13.7589C49.0739 13.7182 49.0739 13.6774 49.0718 13.6367V13.1913C49.0679 11.0965 48.5123 9.03974 47.461 7.2281ZM35.1584 2.30236H35.2253C38.3739 2.38311 41.3689 3.68066 43.5819 5.92279C45.4434 7.70107 46.576 10.1094 46.7587 12.6779C39.6761 13.5452 36.3728 12.6205 32.4957 8.84379C30.2645 6.66686 28.5645 8.30487 27.5455 9.28279C26.5266 10.2607 25.6235 11.1323 23.8682 10.6466C24.6637 8.26262 26.1747 6.18216 28.1954 4.68889C30.2161 3.19561 32.6469 2.36222 35.1584 2.30236ZM26.7348 24.7063C25.2473 23.2947 23.4687 21.038 23.4687 18.3062L23.4857 13.1945C23.4857 13.1041 23.4921 13.0148 23.4953 12.9245C26.3715 13.6058 28.064 11.9731 29.1414 10.9399C29.4449 10.5963 29.8041 10.3063 30.2039 10.0821C30.3898 10.0269 30.7723 10.3819 30.886 10.4924C32.3664 12.0839 34.1743 13.3351 36.1849 14.1596C38.1956 14.9841 40.3611 15.3624 42.5321 15.2683C43.9458 15.2577 45.3577 15.1657 46.7609 14.993L46.7502 17.7567C46.7502 23.9612 39.7048 28.4691 35.0447 28.7296C34.9866 28.7331 34.9264 28.7349 34.864 28.7349C32.9632 28.7349 29.4049 27.2382 26.7306 24.7052L26.7348 24.7063ZM39.5157 30.0094V33.2897C39.5156 33.8192 39.3891 34.3411 39.1466 34.8119C38.9041 35.2826 38.5527 35.6886 38.1217 35.9959C34.5495 38.5407 30.6767 36.0214 30.6767 32.6125V30.0243C31.9913 30.6341 33.4131 30.9787 34.8608 31.0383C34.9671 31.0383 35.0734 31.0383 35.1796 31.0298C36.6719 30.9261 38.1376 30.5815 39.5199 30.0094H39.5157ZM22.5582 39.2231C22.573 38.8123 22.6084 38.4026 22.6644 37.9954C22.8252 36.4744 23.3676 35.0188 24.2412 33.7637H28.4763C28.7474 35.324 29.5603 36.7384 30.7718 37.7578C31.9832 38.7772 33.5153 39.3362 35.0983 39.3362C36.6813 39.3362 38.2135 38.7772 39.4249 37.7578C40.6363 36.7384 41.4492 35.324 41.7204 33.7637H45.9587C47.0365 35.3825 47.6199 37.2802 47.6374 39.2252C47.6933 40.6186 47.4678 42.009 46.9744 43.3133C46.9512 43.3545 46.9306 43.3971 46.9128 43.4409C46.6895 43.9357 46.3316 44.3578 45.88 44.659C45.8433 44.6811 45.8078 44.7052 45.7738 44.7313C43.9675 46.1514 39.4976 47.0762 35.9797 46.1312C35.8734 46.1036 35.798 46.0802 35.7332 46.0621C35.3128 45.9076 34.8505 45.9114 34.4327 46.0728L34.2202 46.1333C30.9094 47.0528 26.3683 46.3948 24.3729 44.693C24.0849 44.5217 23.837 44.2904 23.6462 44.0149C22.7882 42.5721 22.4075 40.8951 22.5582 39.2231ZM2.46308 60.3833C2.18258 59.3533 2.19108 57.9545 3.13352 57.3996C3.64117 57.1234 4.21223 56.9849 4.78996 56.9978C5.27531 56.9972 5.75707 57.081 6.21371 57.2455C6.62981 57.3822 7.0106 57.6092 7.3289 57.9101C7.64719 58.2111 7.89514 58.5787 8.05502 58.9866C8.14069 59.2572 8.30195 59.4977 8.51977 59.6796C8.73759 59.8616 9.00288 59.9774 9.28434 60.0134C10.179 60.1197 11.1373 59.5882 13.3898 56.5503C14.1166 55.5703 14.9252 54.3957 15.7964 53.0564H18.3177C19.4727 52.0413 18.7682 50.754 17.7642 50.754H16.8175C16.9548 49.7324 16.9822 48.6989 16.8993 47.6714C16.8738 47.0634 16.8472 46.4352 16.8472 45.7443V44.4316C16.8472 40.4051 17.3785 37.6488 18.492 36.0066C19.1727 34.9867 20.2238 34.2722 21.4223 34.0146C20.8919 35.1819 20.5402 36.4225 20.379 37.6945C20.3127 38.1853 20.2719 38.6792 20.2568 39.1742C20.2568 39.1806 20.2568 39.1869 20.2568 39.1933C20.1866 40.8126 20.4395 42.4296 21.0005 43.95C21.0197 44.0021 21.042 44.0563 21.0653 44.1084V56.7618L15.5138 59.8731C13.7502 60.5104 12.1504 61.5321 10.8303 62.8643H4.59977C3.78058 62.8643 2.84133 61.7737 2.46308 60.3833ZM11.5623 72.045C11.0344 70.8602 10.8253 69.5578 10.9558 68.2671C11.0863 66.9765 11.5518 65.7424 12.3061 64.6872C13.3901 63.4803 14.763 62.5688 16.2958 62.0384C20.3067 61.2082 27.1513 62.6623 32.9058 65.392C30.0506 65.8387 27.3624 67.0265 25.1092 68.837C22.7781 70.7652 21.2715 73.345 21.2715 75.4093C21.2715 75.506 21.2715 75.5995 21.2832 75.691H18.7788C14.2845 75.691 12.3741 73.7096 11.5623 72.0471V72.045ZM28.5241 75.6888H23.6047C23.5471 74.8597 23.7718 74.0354 24.2422 73.3503C25.5172 71.065 28.3711 68.6584 32.8803 67.7454C30.7356 69.9494 29.2299 72.695 28.5241 75.6888ZM67.7304 60.4046C67.3532 61.7939 66.4139 62.8813 65.5947 62.8813H59.3653C58.0669 61.5753 56.5004 60.5671 54.7742 59.9263C54.7183 59.894 54.6596 59.8666 54.5989 59.8444L49.1292 56.7789V44.1127C49.7232 42.542 49.9977 40.8684 49.9367 39.1901C49.9367 39.1816 49.9367 39.1731 49.9367 39.1635C49.8938 37.3945 49.5002 35.6515 48.7785 34.0358C49.9741 34.2951 51.0219 35.0095 51.7004 36.0278C52.8075 37.669 53.3462 40.4263 53.3462 44.4549V45.7677C53.3462 46.4586 53.3197 47.0868 53.2942 47.6938C53.211 48.7213 53.2384 49.7547 53.376 50.7763H51.8757C50.7208 51.7915 51.4242 53.0787 52.4293 53.0787H54.4013C54.9145 53.8674 55.8612 55.3003 56.8535 56.6332C59.0731 59.6159 60.023 60.141 60.9112 60.0347C61.1928 59.9989 61.4582 59.8834 61.6762 59.7016C61.8942 59.5199 62.0557 59.2795 62.1416 59.0089C62.3013 58.6009 62.549 58.2332 62.8671 57.9321C63.1852 57.6309 63.5659 57.4037 63.9819 57.2667C64.4779 57.077 65.0078 56.9923 65.5382 57.0181C66.0686 57.0439 66.5879 57.1796 67.0631 57.4166C68.0066 57.9725 68.0141 59.3735 67.7325 60.4035L67.7304 60.4046Z" fill="white"/>
<path stroke="white" d="M31.5359 17.7692C31.1487 17.9373 30.7312 18.024 30.3092 18.024C29.8872 18.024 29.4697 17.9373 29.0825 17.7692C28.8997 17.5952 28.6671 17.4828 28.4173 17.4475C28.1674 17.4122 27.9128 17.4558 27.689 17.5723C27.4651 17.6887 27.2832 17.8723 27.1686 18.0972C27.0541 18.3221 27.0126 18.5772 27.05 18.8268C27.7077 20.1938 29.6085 20.3256 30.298 20.3267H30.3055C31.0057 20.3267 32.9054 20.1949 33.5674 18.8268C33.6045 18.5774 33.5628 18.3226 33.4483 18.0979C33.3338 17.8733 33.1521 17.69 32.9285 17.5736C32.7048 17.4571 32.4505 17.4134 32.2009 17.4485C31.9512 17.4836 31.7188 17.5957 31.5359 17.7692Z" fill="white"/>
<path stroke="white" d="M39.6927 20.3288H39.7086C40.4152 20.3288 42.3054 20.1959 42.9737 18.8321C43.0112 18.5827 42.9701 18.3277 42.8559 18.1028C42.7418 17.8778 42.5604 17.694 42.337 17.5771C42.1135 17.4601 41.8592 17.4158 41.6094 17.4502C41.3596 17.4846 41.1267 17.5961 40.9433 17.7692C40.556 17.9382 40.138 18.0254 39.7155 18.0254C39.293 18.0254 38.8751 17.9382 38.4878 17.7692C38.305 17.5952 38.0724 17.4828 37.8225 17.4475C37.5727 17.4122 37.3181 17.4558 37.0942 17.5723C36.8704 17.6888 36.6885 17.8723 36.5739 18.0972C36.4594 18.3221 36.4179 18.5772 36.4553 18.8268C37.1098 20.1885 39.0053 20.3267 39.6927 20.3288Z" fill="white"/>
</svg>
