<svg width="79" height="78" viewBox="0 0 79 78"  fill="none" xmlns="http://www.w3.org/2000/svg">
<path d="M72.3412 40.9212C72.2254 40.3178 71.903 39.7734 71.4295 39.3818C70.956 38.9902 70.3609 38.7757 69.7464 38.7752H67.1936L67.0055 37.6497C66.9141 37.0992 66.6518 36.5913 66.2557 36.1982C65.8596 35.8051 65.3497 35.5467 64.7985 35.4596C64.5473 35.4196 64.293 35.3934 64.0439 35.3545C64.4768 33.3334 64.1171 31.2234 63.0392 29.4598C63.3206 28.7298 63.4402 27.9474 63.39 27.1667C63.3397 26.386 63.1207 25.6254 62.748 24.9375C62.3754 24.2496 61.858 23.6507 61.2315 23.1821C60.605 22.7135 59.8844 22.3863 59.1192 22.2231C58.64 19.6539 57.2808 17.3318 55.2753 15.656C53.2697 13.9801 50.743 13.0552 48.1295 13.0401C47.997 13.0401 47.8793 13.0569 47.7543 13.0611C47.3281 12.3933 46.7597 11.8278 46.0895 11.4052C45.4194 10.9826 44.6642 10.7133 43.8779 10.6165C43.0916 10.5197 42.2936 10.5978 41.541 10.8453C40.7884 11.0928 40.0997 11.5035 39.5243 12.048C38.0546 11.0906 36.3389 10.5795 34.5849 10.5767C33.1913 10.5824 31.8173 10.9053 30.5671 11.5209C29.3168 12.1365 28.2232 13.0288 27.3691 14.1299C26.4204 13.8534 25.4217 13.7938 24.447 13.9557C23.4722 14.1176 22.5464 14.4968 21.7381 15.0652C20.9298 15.6335 20.2598 16.3765 19.7777 17.239C19.2956 18.1015 19.0137 19.0615 18.9531 20.0477C17.966 20.4627 17.1233 21.1597 16.5306 22.0514C15.9378 22.9431 15.6212 23.9899 15.6205 25.0606C15.6248 25.4401 15.6691 25.8181 15.753 26.1883C14.8718 27.5167 14.3005 29.0262 14.0811 30.6051C13.8617 32.184 13.9999 33.792 14.4855 35.3103C14.1314 35.3597 13.7688 35.4028 13.4283 35.4533C12.8739 35.537 12.3601 35.7938 11.9604 36.1869C11.5606 36.58 11.2953 37.0894 11.2024 37.6423L11.0142 38.771H8.45625C7.84232 38.771 7.24752 38.9847 6.77389 39.3753C6.30025 39.7659 5.97729 40.3091 5.86041 40.9118L0.07285 70.6331C-0.0388804 71.208 -0.0219131 71.8004 0.122533 72.368C0.26698 72.9355 0.53532 73.464 0.908282 73.9156C1.28124 74.3671 1.74957 74.7304 2.27963 74.9795C2.80968 75.2285 3.38832 75.3571 3.97396 75.3559H31.5445C32.6396 77.1614 35.9658 78.0001 39.1008 78.0001C42.2032 78.0001 45.4979 77.1814 46.6245 75.3559H74.2276C74.813 75.357 75.3914 75.2285 75.9213 74.9796C76.4512 74.7306 76.9194 74.3675 77.2923 73.9162C77.6652 73.465 77.9336 72.9367 78.0782 72.3694C78.2229 71.8022 78.2401 71.2099 78.1287 70.6352L72.3412 40.9212ZM19.6204 27.4536C19.0981 27.1395 18.6929 26.6631 18.4666 26.0972C18.2403 25.5312 18.2055 24.9067 18.3673 24.3191C18.5292 23.7315 18.8789 23.213 19.363 22.8427C19.8472 22.4724 20.4392 22.2707 21.0487 22.2683C21.4808 22.2671 21.9072 22.368 22.2929 22.5629C22.6786 22.7578 23.0129 23.0411 23.2683 23.3897C23.4773 23.6712 23.7896 23.8581 24.1365 23.9094C24.4834 23.9606 24.8364 23.8719 25.1179 23.6629C25.3995 23.4539 25.5864 23.1415 25.6376 22.7947C25.6889 22.4478 25.6002 22.0948 25.3912 21.8133C24.9472 21.2197 24.3845 20.7251 23.7389 20.3609C23.0933 19.9967 22.379 19.7709 21.6414 19.6978C21.8327 18.7992 22.326 17.9932 23.0393 17.4142C23.7526 16.8352 24.6427 16.518 25.5614 16.5155C25.7228 16.5236 25.8835 16.5412 26.0428 16.5681C25.9365 16.839 25.8439 17.115 25.7653 17.3952C25.6891 17.7306 25.7465 18.0825 25.9255 18.3762C26.1044 18.6699 26.3908 18.8824 26.7238 18.9684C27.0569 19.0544 27.4103 19.0073 27.7091 18.8369C28.008 18.6666 28.2287 18.3866 28.3244 18.0562C28.4748 17.4751 28.7058 16.918 29.0106 16.401C29.5872 15.4351 30.4036 14.6346 31.3806 14.077C32.3576 13.5195 33.4621 13.2238 34.587 13.2188C35.832 13.2243 37.0487 13.5916 38.0887 14.276C37.889 14.8324 37.7825 15.4179 37.7734 16.009C37.7734 16.3596 37.9127 16.6959 38.1607 16.9438C38.4086 17.1918 38.7449 17.3311 39.0955 17.3311C39.4462 17.3311 39.7824 17.1918 40.0304 16.9438C40.2783 16.6959 40.4176 16.3596 40.4176 16.009C40.4176 15.6438 40.4895 15.2822 40.6293 14.9448C40.769 14.6075 40.9739 14.3009 41.2321 14.0427C41.4903 13.7845 41.7969 13.5797 42.1342 13.4399C42.4716 13.3002 42.8332 13.2282 43.1984 13.2282C43.5636 13.2282 43.9252 13.3002 44.2626 13.4399C44.6 13.5797 44.9065 13.7845 45.1647 14.0427C45.423 14.3009 45.6278 14.6075 45.7675 14.9448C45.9073 15.2822 45.9792 15.6438 45.9792 16.009C45.9792 16.3596 46.1185 16.6959 46.3665 16.9438C46.6144 17.1918 46.9507 17.3311 47.3013 17.3311C47.6519 17.3311 47.9882 17.1918 48.2362 16.9438C48.4841 16.6959 48.6234 16.3596 48.6234 16.009C48.6234 15.9039 48.5982 15.8104 48.5929 15.7084C50.4368 15.8222 52.1948 16.528 53.6054 17.7208C55.016 18.9137 56.004 20.5299 56.4225 22.3293C55.8057 22.5086 55.2262 22.7973 54.7115 23.1816C54.431 23.393 54.2459 23.7072 54.197 24.055C54.1482 24.4029 54.2395 24.7559 54.4509 25.0365C54.6623 25.317 54.9765 25.5021 55.3244 25.5509C55.6722 25.5998 56.0253 25.5085 56.3058 25.2971C56.8185 24.9178 57.4457 24.7257 58.0829 24.753C58.72 24.7803 59.3286 25.0253 59.8069 25.447C60.2853 25.8688 60.6045 26.4419 60.7113 27.0706C60.8182 27.6993 60.7062 28.3457 60.394 28.9018C60.106 29.407 59.6688 29.8108 59.1423 30.0578C58.8741 30.1878 58.6576 30.4046 58.5281 30.6731C58.3986 30.9416 58.3636 31.246 58.4289 31.5368C58.4941 31.8277 58.6557 32.088 58.8875 32.2754C59.1192 32.4629 59.4076 32.5665 59.7056 32.5695C59.8994 32.5696 60.0907 32.5265 60.2658 32.4434C60.6162 32.2738 60.9474 32.067 61.2537 31.8265C61.5892 32.7803 61.6624 33.8068 61.4657 34.7986C61.269 35.7903 60.8096 36.7111 60.1355 37.4647L60.1039 37.4973C59.2664 38.4064 58.1566 39.0191 56.941 39.2435C55.7255 39.4679 54.47 39.2918 53.3632 38.7416C53.1405 38.624 52.9266 38.4906 52.7231 38.3423C53.2008 37.6725 53.4859 36.8846 53.5474 36.0642C53.6089 35.2438 53.4445 34.4223 53.0721 33.6888C52.9939 33.5336 52.886 33.3954 52.7545 33.282C52.623 33.1686 52.4704 33.0822 52.3055 33.0277C52.1405 32.9733 51.9665 32.9518 51.7933 32.9646C51.6201 32.9774 51.4511 33.0242 51.296 33.1023C51.1408 33.1804 51.0026 33.2884 50.8892 33.4199C50.7758 33.5514 50.6894 33.704 50.6349 33.8689C50.5804 34.0338 50.559 34.2079 50.5718 34.3811C50.5846 34.5543 50.6314 34.7233 50.7095 34.8784C50.9198 35.3011 50.9712 35.7853 50.8543 36.2427C50.7374 36.7001 50.46 37.1002 50.0727 37.3702C49.8398 37.5245 49.5772 37.6283 49.3018 37.6748C49.0264 37.7214 48.7442 37.7096 48.4736 37.6402C48.203 37.5709 47.95 37.4456 47.7308 37.2723C47.5117 37.0991 47.3314 36.8818 47.2015 36.6345C47.1238 36.4792 47.0162 36.3408 46.885 36.2271C46.7538 36.1134 46.6015 36.0266 46.4368 35.9718C46.2721 35.9169 46.0981 35.8951 45.925 35.9075C45.7518 35.9198 45.5827 35.9662 45.4275 36.0439C45.2722 36.1216 45.1338 36.2291 45.0201 36.3603C44.9064 36.4915 44.8196 36.6438 44.7647 36.8085C44.7099 36.9733 44.688 37.1472 44.7004 37.3204C44.7128 37.4935 44.7591 37.6626 44.8368 37.8179C45.2162 38.5841 45.8024 39.229 46.5291 39.6795C47.2559 40.1301 48.0941 40.3683 48.9492 40.3674C49.5179 40.3635 50.0809 40.2526 50.6086 40.0406C51.0807 40.4538 51.6009 40.8088 52.1577 41.0978C54.0421 42.0745 56.2333 42.277 58.2648 41.6621C56.9583 43.4458 55.0031 44.6446 52.8209 44.9999C52.4927 45.0527 52.1965 45.2272 51.9912 45.4887C51.786 45.7501 51.6867 46.0792 51.7132 46.4106C51.7397 46.7419 51.89 47.0511 52.1343 47.2765C52.3785 47.502 52.6987 47.6272 53.0311 47.6272C53.1014 47.6272 53.1717 47.622 53.2413 47.6114C54.0464 47.472 54.8333 47.2421 55.587 46.9262C55.9941 47.6463 56.3245 48.4072 56.5728 49.1962C56.618 49.3339 56.6411 49.478 56.6411 49.6229C56.641 49.9024 56.5588 50.1758 56.4046 50.409C56.2505 50.6422 56.0312 50.8249 55.774 50.9345C55.4776 51.049 55.1525 51.0663 54.8456 50.9837C54.5388 50.9011 54.2662 50.7231 54.0673 50.4752C53.0435 49.2728 51.7028 48.3819 50.1977 47.9036C47.3412 46.9462 46.2378 46.0908 45.7701 45.1607C46.4558 45.0759 47.1335 44.9354 47.7963 44.7403C47.9623 44.6892 48.1165 44.606 48.2503 44.4953C48.3841 44.3846 48.4948 44.2487 48.576 44.0952C48.6573 43.9418 48.7075 43.7738 48.7238 43.6009C48.7402 43.4281 48.7223 43.2537 48.6712 43.0877C48.6202 42.9218 48.5369 42.7675 48.4262 42.6337C48.3155 42.4999 48.1796 42.3893 48.0261 42.308C47.8727 42.2268 47.7047 42.1766 47.5318 42.1602C47.359 42.1439 47.1846 42.1618 47.0186 42.2128C46.2769 42.4408 45.5113 42.5819 44.737 42.6332C43.2452 42.7498 41.7466 42.5237 40.3556 41.9722C40.1008 41.8728 39.8214 41.855 39.556 41.921C39.2907 41.9871 39.0523 42.1338 38.8738 42.341C37.9448 43.407 36.6505 44.0868 35.2455 44.2466C33.8405 44.4064 32.4266 44.0346 31.282 43.2045C30.1373 42.3744 29.3447 41.1459 29.0601 39.7609C28.7755 38.3758 29.0196 36.9344 29.7442 35.7202C29.9254 35.4185 29.9793 35.0571 29.894 34.7157C29.8088 34.3742 29.5914 34.0806 29.2897 33.8995C28.988 33.7183 28.6266 33.6644 28.2852 33.7496C27.9437 33.8349 27.6501 34.0523 27.4689 34.354C27.1533 34.8908 26.8995 35.4616 26.7122 36.0554C26.2104 36.0291 25.7374 35.8134 25.3885 35.4517C25.0397 35.09 24.8412 34.6094 24.8331 34.107V34.0755C24.8329 33.9027 24.7984 33.7318 24.7316 33.5724C24.6649 33.4131 24.5672 33.2685 24.4443 33.1472C24.3213 33.0258 24.1756 32.93 24.0154 32.8653C23.8552 32.8006 23.6838 32.7683 23.511 32.7702C23.1588 32.7738 22.8222 32.9164 22.5746 33.167C22.327 33.4176 22.1884 33.7558 22.189 34.1081C22.1919 35.2404 22.6123 36.3318 23.3697 37.1735C24.1271 38.0152 25.1682 38.5481 26.294 38.6701C26.2985 39.1133 26.3386 39.5554 26.4138 39.9922C24.9655 40.3063 23.4588 40.216 22.0584 39.7311C20.6581 39.2463 19.4181 38.3857 18.4741 37.2433C17.5301 36.101 16.9185 34.7211 16.7062 33.2545C16.494 31.7879 16.6892 30.2911 17.2705 28.928C17.5663 29.2273 17.8965 29.4905 18.2542 29.712C18.5545 29.8932 18.9145 29.9477 19.255 29.8634C19.5955 29.7792 19.8886 29.5631 20.0697 29.2628C20.2509 28.9624 20.3053 28.6025 20.2211 28.262C20.1368 27.9215 19.9208 27.6285 19.6204 27.4473V27.4536ZM13.8035 38.0732C14.413 37.9828 15.0425 37.904 15.6678 37.8221C16.8597 39.7262 18.6219 41.2058 20.7036 42.0502C22.7853 42.8946 25.0803 43.0607 27.2619 42.525C27.8551 43.6508 28.6998 44.6247 29.7305 45.3712C30.7611 46.1177 31.9499 46.6167 33.2046 46.8293C34.4592 47.042 35.746 46.9626 36.9651 46.5974C38.1841 46.2322 39.3026 45.591 40.2337 44.7235C41.132 44.9916 42.0572 45.1594 42.9924 45.2237C43.6314 47.6409 45.4769 49.1122 49.3538 50.4122C50.3991 50.7399 51.3315 51.3541 52.0453 52.1851C52.4374 52.6514 52.926 53.027 53.4774 53.2861C54.0288 53.5452 54.6299 53.6816 55.2391 53.6858C55.778 53.6871 56.3116 53.5799 56.8082 53.3705C57.5412 53.0572 58.1662 52.5356 58.6054 51.8703C59.0447 51.205 59.2789 50.4254 59.2789 49.6282C59.2802 49.2032 59.2124 48.7808 59.0782 48.3776C58.7809 47.4435 58.3894 46.542 57.9096 45.6872C60.1579 44.0714 61.724 41.6762 62.3025 38.9686C62.5847 38.6334 62.8398 38.2764 63.0655 37.9009C63.5079 37.9576 63.9514 38.006 64.3971 38.0816L69.1694 66.7867C59.8404 63.6716 49.7519 63.6716 40.4229 66.7867V50.2377C40.4229 49.8871 40.2836 49.5508 40.0356 49.3029C39.7877 49.0549 39.4514 48.9156 39.1008 48.9156C38.7501 48.9156 38.4139 49.0549 38.1659 49.3029C37.918 49.5508 37.7787 49.8871 37.7787 50.2377V66.7919C28.4507 63.674 18.3624 63.6703 9.03216 66.7814L13.8035 38.0732ZM2.94403 72.2252C2.82063 72.0761 2.73175 71.9015 2.68378 71.714C2.63581 71.5265 2.62994 71.3307 2.66658 71.1407L8.45625 41.4194H10.5718L6.42267 66.3516C6.35102 66.7979 6.39458 67.2551 6.54922 67.6799C6.70386 68.1047 6.96444 68.4829 7.30625 68.7787C7.64807 69.0745 8.05978 69.2781 8.50235 69.3701C8.94492 69.4622 9.40367 69.4397 9.83509 69.3047C16.8831 67.0214 24.3917 66.5452 31.6716 67.9196L31.2775 72.7118H3.97396C3.77699 72.7119 3.58244 72.6683 3.40434 72.5842C3.22624 72.5001 3.06903 72.3775 2.94403 72.2252ZM39.0966 75.3559C35.9122 75.3559 34.0846 74.4101 33.8166 73.996L34.2717 68.5091C35.7253 68.871 37.1479 69.3479 38.5259 69.9353C38.704 70.0211 38.8989 70.0664 39.0966 70.0677C39.295 70.0674 39.4909 70.0221 39.6693 69.9353C41.0466 69.3443 42.4688 68.8643 43.9225 68.4997L44.3776 73.9939C44.1096 74.4143 42.282 75.3601 39.0976 75.3601L39.0966 75.3559ZM75.2491 72.2252C75.1241 72.3775 74.9669 72.5001 74.7888 72.5842C74.6107 72.6683 74.4162 72.7119 74.2192 72.7118H46.9293L46.532 67.9101C53.8158 66.539 61.3273 67.0196 68.377 69.3078C68.8084 69.4412 69.2666 69.4621 69.7084 69.3687C70.1501 69.2753 70.5607 69.0707 70.9012 68.7742C71.2417 68.4777 71.5008 68.0992 71.6541 67.6745C71.8073 67.2498 71.8495 66.793 71.7768 66.3474L67.634 41.4204H69.7495L75.5381 71.1396C75.5745 71.3301 75.5682 71.5262 75.5197 71.7139C75.4712 71.9016 75.3816 72.0763 75.2575 72.2252H75.2491Z" fill="white"/>
<path d="M34.7204 29.9896C34.4606 30.2248 34.3048 30.5535 34.2873 30.9035C34.2698 31.2535 34.3919 31.5961 34.6268 31.8561C35.7484 33.0944 37.2306 33.9491 38.8643 34.2995C38.4997 34.8133 38.0172 35.2322 37.4573 35.521C36.8973 35.8097 36.2763 35.9599 35.6463 35.9589C35.2956 35.9589 34.9593 36.0982 34.7114 36.3461C34.4635 36.5941 34.3242 36.9303 34.3242 37.281C34.3242 37.6316 34.4635 37.9679 34.7114 38.2158C34.9593 38.4638 35.2956 38.603 35.6463 38.603C36.9827 38.6085 38.2889 38.2053 39.3898 37.4476C40.4907 36.6899 41.3337 35.6138 41.8058 34.3636C43.4116 34.0971 44.8975 33.3459 46.0641 32.2107C47.2306 31.0755 48.0221 29.6107 48.3322 28.0128C48.3669 27.8415 48.3672 27.6651 48.3332 27.4936C48.2992 27.3222 48.2316 27.1592 48.1342 27.0141C48.0368 26.8689 47.9116 26.7446 47.7658 26.6481C47.62 26.5517 47.4566 26.4851 47.2849 26.4523C47.1133 26.4194 46.9368 26.4209 46.7657 26.4567C46.5946 26.4925 46.4324 26.5618 46.2883 26.6607C46.1441 26.7596 46.0211 26.8861 45.9262 27.0329C45.8313 27.1796 45.7664 27.3438 45.7353 27.5158C45.4762 28.8793 44.6895 30.0855 43.5462 30.8724C42.4814 31.5895 41.1958 31.9036 39.9203 31.7581C38.6448 31.6127 37.4629 31.0174 36.5869 30.079C36.3517 29.8192 36.0229 29.6634 35.673 29.6459C35.323 29.6284 34.9804 29.7505 34.7204 29.9854V29.9896Z" fill="white"/>
<path d="M30.1136 28.5561C30.4642 28.5561 30.8005 28.4168 31.0485 28.1689C31.2964 27.921 31.4357 27.5847 31.4357 27.2341C31.4357 26.3224 31.7979 25.448 32.4425 24.8033C33.0872 24.1587 33.9616 23.7965 34.8733 23.7965C35.224 23.7965 35.5602 23.6572 35.8082 23.4093C36.0561 23.1613 36.1954 22.825 36.1954 22.4744C36.1954 22.1238 36.0561 21.7875 35.8082 21.5396C35.5602 21.2916 35.224 21.1523 34.8733 21.1523C33.2608 21.154 31.7149 21.7953 30.5747 22.9355C29.4345 24.0757 28.7932 25.6216 28.7915 27.2341C28.7915 27.5847 28.9308 27.921 29.1787 28.1689C29.4267 28.4168 29.763 28.5561 30.1136 28.5561Z" fill="white"/>
<path d="M40.422 2.64413V1.32207C40.422 0.971433 40.2827 0.63516 40.0348 0.387225C39.7868 0.139289 39.4506 0 39.0999 0C38.7493 0 38.413 0.139289 38.1651 0.387225C37.9171 0.63516 37.7778 0.971433 37.7778 1.32207V2.64413C37.7778 2.99477 37.9171 3.33104 38.1651 3.57898C38.413 3.82691 38.7493 3.9662 39.0999 3.9662C39.4506 3.9662 39.7868 3.82691 40.0348 3.57898C40.2827 3.33104 40.422 2.99477 40.422 2.64413Z" fill="white"/>
<path d="M60.7974 9.48699L59.4753 10.8091C59.3506 10.9314 59.2514 11.0772 59.1834 11.2381C59.1154 11.399 59.0799 11.5718 59.0791 11.7465C59.0783 11.9211 59.1121 12.0942 59.1785 12.2558C59.245 12.4173 59.3428 12.5641 59.4663 12.6876C59.5898 12.8111 59.7366 12.9089 59.8982 12.9754C60.0597 13.0419 60.2328 13.0756 60.4075 13.0748C60.5822 13.074 60.7549 13.0385 60.9158 12.9705C61.0767 12.9025 61.2226 12.8033 61.3449 12.6787L62.667 11.3566C62.7917 11.2343 62.8909 11.0884 62.9589 10.9275C63.0269 10.7666 63.0623 10.5939 63.0632 10.4192C63.064 10.2445 63.0302 10.0714 62.9637 9.90986C62.8973 9.74833 62.7995 9.60156 62.6759 9.47804C62.5524 9.35453 62.4057 9.25672 62.2441 9.19026C62.0826 9.12379 61.9095 9.09 61.7348 9.09084C61.5601 9.09167 61.3873 9.1271 61.2264 9.1951C61.0655 9.2631 60.9197 9.3623 60.7974 9.48699Z" fill="white"/>
<path d="M17.7911 13.0654C18.0524 13.0652 18.3078 12.9875 18.525 12.8422C18.7422 12.6969 18.9115 12.4905 19.0115 12.2491C19.1114 12.0077 19.1376 11.742 19.0867 11.4857C19.0358 11.2294 18.91 10.9939 18.7254 10.8091L17.4064 9.48699C17.2841 9.3623 17.1383 9.2631 16.9774 9.1951C16.8165 9.1271 16.6437 9.09167 16.469 9.09084C16.2943 9.09 16.1212 9.12379 15.9597 9.19026C15.7981 9.25672 15.6514 9.35453 15.5279 9.47804C15.4043 9.60156 15.3065 9.74833 15.2401 9.90986C15.1736 10.0714 15.1398 10.2445 15.1406 10.4192C15.1415 10.5939 15.1769 10.7666 15.2449 10.9275C15.3129 11.0884 15.4121 11.2343 15.5368 11.3566L16.8589 12.6787C17.1066 12.9267 17.4427 13.0661 17.7932 13.0664L17.7911 13.0654Z" fill="white"/>
<path d="M27.9721 7.50288C28.1461 7.50106 28.3182 7.46537 28.4786 7.39779C28.8016 7.26362 29.0583 7.0069 29.1925 6.68386C29.3266 6.36082 29.3273 5.99779 29.1943 5.67427L27.6746 2.00968C27.6114 1.84477 27.5157 1.69421 27.3933 1.56689C27.2709 1.43957 27.1242 1.33807 26.9619 1.26838C26.7996 1.1987 26.625 1.16224 26.4483 1.16116C26.2717 1.16008 26.0967 1.1944 25.9335 1.2621C25.7704 1.3298 25.6225 1.4295 25.4985 1.55532C25.3745 1.68113 25.277 1.83051 25.2118 1.99464C25.1465 2.15876 25.1148 2.3343 25.1185 2.51089C25.1222 2.68747 25.1612 2.86153 25.2333 3.02278L26.7509 6.68736C26.851 6.92878 27.0205 7.1351 27.2378 7.28026C27.4552 7.42541 27.7107 7.50288 27.9721 7.50288Z" fill="white"/>
<path d="M52.2503 1.29568C51.9264 1.16172 51.5625 1.16186 51.2387 1.29607C50.915 1.43027 50.6577 1.68755 50.5236 2.01136L49.0081 5.67384C48.9414 5.83465 48.9071 6.00704 48.9072 6.18113C48.9073 6.35522 48.9418 6.52757 49.0087 6.6883C49.0756 6.84902 49.1736 6.99496 49.297 7.11772C49.4204 7.24048 49.5669 7.33766 49.728 7.40367C49.8884 7.47125 50.0605 7.50694 50.2345 7.50876C50.4959 7.50876 50.7514 7.43129 50.9688 7.28614C51.1861 7.14099 51.3556 6.93467 51.4557 6.69324L52.9733 3.02866C53.0404 2.86749 53.0749 2.69462 53.0748 2.52004C53.0748 2.34546 53.0401 2.17262 52.9729 2.0115C52.9057 1.85039 52.8072 1.70418 52.6832 1.58131C52.5592 1.45845 52.412 1.36137 52.2503 1.29568Z" fill="white"/>
<path d="M65.9734 23.2427C66.1475 23.2413 66.3196 23.2056 66.4799 23.1376L70.1435 21.62C70.4675 21.486 70.725 21.2287 70.8593 20.9048C70.9937 20.5808 70.9938 20.2168 70.8597 19.8928C70.7257 19.5688 70.4684 19.3113 70.1445 19.177C69.8205 19.0427 69.4565 19.0426 69.1325 19.1766L65.4647 20.6984C65.1809 20.8147 64.9464 21.0261 64.8013 21.2963C64.6562 21.5666 64.6096 21.8789 64.6695 22.1797C64.7293 22.4805 64.8919 22.7512 65.1294 22.9453C65.3669 23.1394 65.6645 23.2449 65.9713 23.2437L65.9734 23.2427Z" fill="white"/>
<path d="M11.7248 23.1446C12.0488 23.2789 12.413 23.279 12.7371 23.1449C13.0612 23.0108 13.3188 22.7534 13.4531 22.4294C13.5874 22.1054 13.5876 21.7413 13.4535 21.4172C13.3193 21.093 13.062 20.8355 12.7379 20.7011L9.07329 19.1815C8.74926 19.0474 8.38525 19.0476 8.06134 19.1819C7.73742 19.3162 7.48012 19.5737 7.34606 19.8977C7.21199 20.2217 7.21213 20.5857 7.34644 20.9096C7.48076 21.2336 7.73825 21.4908 8.06228 21.6249L11.7248 23.1446Z" fill="white"/>
</svg>
