<svg width="91" height="78" viewBox="0 0 91 78" fill="none" xmlns="http://www.w3.org/2000/svg">
<path d="M90.8114 27.7434V21.4316C90.8106 20.6115 90.4846 19.8253 89.9049 19.2454C89.3253 18.6655 88.5394 18.3394 87.7196 18.3385C87.1829 18.3388 86.6514 18.2332 86.1555 18.0279C85.6596 17.8225 85.2089 17.5214 84.8294 17.1418C84.4499 16.7621 84.1489 16.3113 83.9436 15.8152C83.7384 15.3191 83.6329 14.7873 83.6331 14.2504V3.13847C83.6323 2.30617 83.3014 1.50821 82.713 0.919789C82.1246 0.331364 81.3269 0.000559293 80.4949 0L76.7115 0C75.8798 0.00111795 75.0824 0.332136 74.4944 0.92047C73.9063 1.5088 73.5754 2.30644 73.5743 3.13847V9.64252C73.5843 11.5728 72.8404 13.4307 71.5011 14.8202C70.1618 16.2098 68.333 17.0212 66.4044 17.0814C65.4362 17.0979 64.4745 16.9213 63.5752 16.5619C62.676 16.2026 61.8573 15.6678 61.1668 14.9887C60.4763 14.3095 59.9279 13.4996 59.5536 12.6062C59.1792 11.7128 58.9864 10.7538 58.9864 9.78512V3.13847C58.9853 2.30625 58.6543 1.50846 58.066 0.920097C57.4776 0.331733 56.68 0.000838455 55.8482 0L52.0658 0C51.2339 0.000838455 50.4363 0.331733 49.848 0.920097C49.2597 1.50846 48.9287 2.30625 48.9275 3.13847V7.15266C48.9275 7.50567 49.0677 7.84422 49.3172 8.09383C49.5667 8.34345 49.9052 8.48368 50.258 8.48368C50.6109 8.48368 50.9493 8.34345 51.1988 8.09383C51.4483 7.84422 51.5885 7.50567 51.5885 7.15266V3.13847C51.5888 3.01201 51.6392 2.89084 51.7287 2.80152C51.8182 2.7122 51.9394 2.66204 52.0658 2.66204H55.8482C55.9746 2.66204 56.0958 2.7122 56.1853 2.80152C56.2748 2.89084 56.3252 3.01201 56.3255 3.13847V9.78512C56.3254 11.1072 56.5885 12.416 57.0993 13.6353C57.6101 14.8546 58.3585 15.9599 59.3008 16.8869C60.2431 17.8138 61.3604 18.5438 62.5877 19.0342C63.8149 19.5247 65.1274 19.7658 66.4488 19.7435C69.0751 19.6694 71.5685 18.5719 73.3975 16.6849C75.2265 14.798 76.2463 12.2709 76.2394 9.64252V3.13847C76.2397 3.0122 76.29 2.89118 76.3792 2.80189C76.4685 2.71261 76.5895 2.66232 76.7157 2.66204H80.4949C80.6211 2.66232 80.7421 2.71261 80.8313 2.80189C80.9206 2.89118 80.9708 3.0122 80.9711 3.13847V14.2514C80.971 15.1379 81.1454 16.0157 81.4845 16.8346C81.8235 17.6536 82.3206 18.3977 82.9472 19.0245C83.5738 19.6512 84.3177 20.1483 85.1363 20.4874C85.955 20.8265 86.8325 21.0008 87.7186 21.0006C87.8328 21.0008 87.9422 21.0463 88.0229 21.1271C88.1036 21.2079 88.1491 21.3173 88.1494 21.4316V26.93L66.2798 37.4271L44.4102 26.931V21.4316C44.4105 21.3173 44.456 21.2079 44.5367 21.1271C44.6175 21.0463 44.7269 21.0008 44.841 21.0006C46.6294 20.9975 48.3436 20.2854 49.6081 19.0204C50.8726 17.7554 51.5844 16.0405 51.5875 14.2514V12.4715C51.5875 12.1185 51.4473 11.7799 51.1978 11.5303C50.9482 11.2807 50.6098 11.1404 50.257 11.1404C49.9041 11.1404 49.5657 11.2807 49.3162 11.5303C49.0667 11.7799 48.9265 12.1185 48.9265 12.4715V14.2514C48.9254 15.3353 48.4945 16.3745 47.7283 17.141C46.9622 17.9074 45.9235 18.3385 44.84 18.3396C44.02 18.3396 43.2336 18.6655 42.6538 19.2455C42.0739 19.8256 41.7482 20.6123 41.7482 21.4326V27.7233C41.7482 27.7529 41.7482 27.7828 41.7482 27.8131V49.9239L34.9068 54.0258C33.9371 53.4693 32.8389 53.1758 31.721 53.1743H23.7856V30.1857H31.7231C33.419 30.1857 35.0454 29.5117 36.2445 28.3121C37.4437 27.1125 38.1173 25.4854 38.1173 23.7889C38.1173 22.0923 37.4437 20.4652 36.2445 19.2656C35.0454 18.066 33.419 17.392 31.7231 17.392H30.3293V15.9385C30.3276 14.5537 29.7769 13.2261 28.798 12.2469C27.819 11.2678 26.4919 10.7172 25.1076 10.7158H23.7856V8.10867C23.7839 7.38075 23.4941 6.68313 22.9796 6.16841C22.4651 5.6537 21.7678 5.36379 21.0401 5.36212H17.0804C16.3527 5.36379 15.6554 5.6537 15.1409 6.16841C14.6264 6.68313 14.3366 7.38075 14.3349 8.10867V10.7168H13.0087C11.6244 10.7182 10.2972 11.2689 9.31833 12.248C8.33942 13.2271 7.78871 14.5547 7.78703 15.9395V17.3931H6.39425C5.8129 17.3929 5.23423 17.4718 4.67412 17.6276C4.49954 17.6685 4.33502 17.7443 4.19044 17.8504C4.04587 17.9565 3.92423 18.0907 3.83283 18.2451C3.74143 18.3994 3.68215 18.5706 3.65856 18.7484C3.63497 18.9263 3.64755 19.107 3.69555 19.2798C3.74355 19.4527 3.82597 19.614 3.93787 19.7542C4.04977 19.8944 4.18884 20.0104 4.34671 20.0955C4.50459 20.1805 4.67802 20.2328 4.85659 20.2491C5.03515 20.2654 5.21517 20.2454 5.38583 20.1903C5.71316 20.0994 6.05136 20.0536 6.39108 20.0541H31.7231C32.2186 20.0457 32.7109 20.1362 33.1711 20.3201C33.6314 20.5041 34.0504 20.7778 34.4038 21.1255C34.7572 21.4731 35.0378 21.8876 35.2294 22.3449C35.421 22.8022 35.5197 23.293 35.5197 23.7889C35.5197 24.2847 35.421 24.7755 35.2294 25.2328C35.0378 25.6901 34.7572 26.1046 34.4038 26.4522C34.0504 26.7999 33.6314 27.0736 33.1711 27.2576C32.7109 27.4415 32.2186 27.532 31.7231 27.5236H6.39425C5.40442 27.5228 4.45536 27.1291 3.75535 26.429C3.05534 25.7289 2.66156 24.7796 2.66044 23.7894C2.66044 23.577 2.6781 23.365 2.71324 23.1556C2.74706 22.9813 2.7457 22.802 2.70923 22.6283C2.67277 22.4546 2.60193 22.2899 2.5009 22.144C2.39987 21.9981 2.27068 21.8738 2.12093 21.7786C1.97119 21.6834 1.80392 21.6191 1.62896 21.5895C1.454 21.5599 1.2749 21.5656 1.10218 21.6063C0.929462 21.647 0.766626 21.7218 0.623254 21.8264C0.479881 21.931 0.358869 22.0632 0.267338 22.2153C0.175808 22.3673 0.115608 22.5362 0.0902829 22.7119C0.0304355 23.0679 0.000412845 23.4283 0.00052797 23.7894C0.00248426 25.4852 0.676735 27.111 1.87537 28.3101C3.074 29.5092 4.69913 30.1837 6.39425 30.1857H14.3318V53.1754H6.39425C4.69839 53.1754 3.07199 53.8493 1.87283 55.049C0.673678 56.2486 0 57.8757 0 59.5722C0 61.2688 0.673678 62.8958 1.87283 64.0955C3.07199 65.2951 4.69839 65.969 6.39425 65.969H7.78809V67.4215C7.78949 68.8062 8.33978 70.1337 9.31826 71.113C10.2968 72.0923 11.6235 72.6433 13.0076 72.6453H14.3307V75.2534C14.3324 75.9814 14.6222 76.679 15.1367 77.1937C15.6512 77.7084 16.3485 77.9983 17.0761 78H21.0328C21.7604 77.9983 22.4577 77.7084 22.9722 77.1937C23.4867 76.679 23.7765 75.9814 23.7782 75.2534V72.6453H23.831C24.1081 73.0094 24.4116 73.3525 24.7391 73.6721C26.4652 75.3657 28.788 76.312 31.2057 76.3066H79.1718C80.5185 76.305 81.8096 75.769 82.7618 74.8162C83.7139 73.8634 84.2495 72.5717 84.2509 71.2245V63.3419H84.9615C86.5123 63.3402 87.9991 62.7232 89.0958 61.6263C90.1925 60.5294 90.8095 59.0421 90.8114 57.4906V27.7434ZM16.9917 8.10867C16.9917 8.08514 17.001 8.06257 17.0176 8.04593C17.0343 8.02928 17.0568 8.01994 17.0804 8.01994H21.037C21.0605 8.01994 21.0831 8.02928 21.0997 8.04593C21.1163 8.06257 21.1257 8.08514 21.1257 8.10867V10.7168H16.9917V8.10867ZM10.4448 17.3931V15.9395C10.4457 15.2605 10.7158 14.6095 11.1958 14.1294C11.6759 13.6494 12.3267 13.3794 13.0055 13.3789H25.1087C25.7869 13.3803 26.4369 13.6506 26.9163 14.1305C27.3957 14.6105 27.6653 15.261 27.6662 15.9395V17.3931H10.4448ZM55.7848 46.9185C56.0757 46.9192 56.3595 47.009 56.5978 47.176C56.836 47.343 57.0174 47.579 57.1174 47.8524C57.8798 49.9578 59.277 51.7744 61.1159 53.0511C62.9549 54.3279 65.1448 55.0018 67.3831 54.9798C69.6214 54.9577 71.7976 54.2408 73.6111 52.9281C75.4245 51.6154 76.7857 49.7717 77.5066 47.6516C77.5793 47.4379 77.7171 47.2523 77.9006 47.1208C78.0841 46.9893 78.3041 46.9186 78.5298 46.9185H79.3566C79.9493 46.9191 80.5175 47.1549 80.9367 47.5742C81.3558 47.9934 81.5914 48.5619 81.592 49.1549V65.9173H63.1732L58.8101 59.6625C58.605 59.3811 58.2978 59.1913 57.9545 59.1338C57.6111 59.0764 57.2589 59.1558 56.9734 59.3551C56.688 59.5545 56.492 59.8578 56.4275 60.2C56.363 60.5423 56.4352 60.8962 56.6285 61.1858L59.9294 65.9173H56.7373L48.5199 54.1388L50.7712 52.7888L53.5853 56.823C53.7872 57.1126 54.0958 57.31 54.4433 57.3719C54.7907 57.4338 55.1485 57.3551 55.4379 57.1531C55.7274 56.9511 55.9247 56.6424 55.9866 56.2948C56.0485 55.9472 55.9698 55.5893 55.7679 55.2997L52.9359 51.2391C53.6994 50.3799 54.1226 49.2713 54.1259 48.1217V46.9175L55.7848 46.9185ZM50.3932 65.9173L44.047 56.8188L46.2328 55.5078L53.4924 65.9173H50.3932ZM43.9519 65.9173L39.5043 59.541L41.7556 58.1921L47.1409 65.9194H43.9562L43.9519 65.9173ZM31.6355 59.091C31.7038 59.2154 31.7815 59.3344 31.8678 59.447C32.475 60.2373 33.3256 60.8054 34.288 61.0634C35.2504 61.3213 36.271 61.2549 37.1918 60.8742L40.7123 65.9173H24.7095C24.873 64.9817 25.2352 64.0921 25.7717 63.3085C26.3081 62.5249 27.0064 61.8655 27.8193 61.3749L31.6355 59.091ZM51.465 47.2027V48.1228C51.4639 48.4683 51.3749 48.8078 51.2064 49.1094C51.038 49.411 50.7955 49.6648 50.5019 49.8468C50.4787 49.8605 50.4544 49.8742 50.4323 49.8901L45.9656 52.568L45.897 52.6092L41.4705 55.2628L41.4451 55.2786L36.4231 58.2893C36.0293 58.5256 35.5624 58.6089 35.1113 58.5232C34.6601 58.4375 34.2562 58.1888 33.9765 57.8245C33.9604 57.8016 33.9541 57.7733 33.9589 57.7458C33.9636 57.7183 33.9791 57.6938 34.0018 57.6776L35.5255 56.7639L35.5783 56.7322L51.4058 47.2418L51.465 47.208V47.2027ZM16.9917 30.1857H21.1257V53.1754H16.9917V30.1857ZM10.4448 67.4215V65.968H17.96C18.3128 65.968 18.6512 65.8278 18.9008 65.5781C19.1503 65.3285 19.2905 64.99 19.2905 64.637C19.2905 64.284 19.1503 63.9454 18.9008 63.6958C18.6512 63.4462 18.3128 63.3059 17.96 63.3059H6.39425C5.90392 63.3059 5.41839 63.2093 4.96538 63.0216C4.51238 62.8339 4.10076 62.5588 3.75405 62.2119C3.40733 61.865 3.1323 61.4533 2.94466 61.0001C2.75702 60.5469 2.66044 60.0612 2.66044 59.5706C2.66044 59.0801 2.75702 58.5944 2.94466 58.1412C3.1323 57.688 3.40733 57.2762 3.75405 56.9294C4.10076 56.5825 4.51238 56.3074 4.96538 56.1196C5.41839 55.9319 5.90392 55.8353 6.39425 55.8353H31.7231C31.7769 55.8353 31.8287 55.8353 31.8836 55.8353L26.4529 59.0921C24.704 60.1417 23.3502 61.7392 22.6012 63.6369C21.8522 65.5346 21.75 67.6264 22.3104 69.5882L22.3199 69.6198L22.3263 69.641C22.359 69.7551 22.3939 69.867 22.4319 69.979H13.0076C12.3288 69.9782 11.6781 69.708 11.1982 69.2277C10.7184 68.7475 10.4486 68.0964 10.448 67.4173L10.4448 67.4215ZM21.1225 75.2534C21.1222 75.2769 21.1128 75.2993 21.0962 75.3159C21.0796 75.3325 21.0572 75.3419 21.0338 75.3422H17.0804C17.0569 75.3419 17.0345 75.3325 17.018 75.3159C17.0014 75.2993 16.9919 75.2769 16.9917 75.2534V72.6453H21.1257L21.1225 75.2534ZM81.5867 71.2245C81.5862 71.8662 81.3311 72.4814 80.8776 72.9351C80.424 73.3889 79.809 73.644 79.1676 73.6446C48.483 73.6446 31.1751 73.6446 31.0336 73.6446C29.5819 73.6039 28.1839 73.0862 27.0556 72.1715C25.9273 71.2568 25.1314 69.9959 24.7908 68.5836H81.5909L81.5867 71.2245ZM84.9573 60.6809H84.2466V49.1549C84.2439 47.858 83.7276 46.615 82.811 45.698C81.8943 44.781 80.6519 44.2646 79.3555 44.2618H78.5287C77.7476 44.2614 76.9859 44.5058 76.3505 44.9604C75.7152 45.4151 75.2381 46.0573 74.986 46.797C74.4423 48.3946 73.4162 49.7838 72.0495 50.7729C70.6827 51.762 69.0426 52.3022 67.3558 52.3189C65.669 52.3356 64.0186 51.828 62.6325 50.8661C61.2465 49.9043 60.1931 48.5356 59.6179 46.9492C59.3311 46.1622 58.8098 45.4822 58.1243 45.0012C57.4387 44.5202 56.6221 44.2614 55.7848 44.2596C52.8197 44.3357 51.6899 43.9681 50.0373 44.9569L44.4092 48.3309V29.8825L65.7033 40.1028C65.8829 40.1891 66.0795 40.2339 66.2788 40.2339C66.478 40.2339 66.6747 40.1891 66.8542 40.1028L88.1494 29.8814V57.4906C88.1486 58.3365 87.8123 59.1474 87.2145 59.7456C86.6166 60.3437 85.806 60.68 84.9605 60.6809H84.9573Z" fill="white"/>
</svg>
